<svg width="242" height="86" viewBox="0 0 242 86" fill="none" xmlns="http://www.w3.org/2000/svg">
<path d="M42.776 85.5519C66.4005 85.5519 85.5519 66.4005 85.5519 42.776C85.5519 19.1514 66.4005 0 42.776 0C19.1514 0 0 19.1514 0 42.776C0 66.4005 19.1514 85.5519 42.776 85.5519Z" fill="url(#paint0_linear_238_4829)"/>
<g opacity="0.35">
<g opacity="0.35">
<path opacity="0.35" d="M24.7964 62.4224C24.7964 62.4224 24.7999 62.4532 24.7725 62.5046C24.7793 62.4738 24.7862 62.4463 24.7964 62.4224Z" fill="black"/>
</g>
</g>
<path d="M43.0327 35.4867C43.0735 35.4833 43.1108 35.4765 43.1481 35.4731C43.1244 35.4867 43.104 35.5003 43.0802 35.5139C43.0497 35.4969 43.0327 35.4867 43.0327 35.4867Z" fill="#982E20"/>
<path d="M67.7058 66.7855C67.0522 67.511 66.0769 68.0962 64.9579 68.5616C61.0327 70.1974 55.3179 70.4095 55.3179 70.4095L48.5524 44.1588L47.6011 40.4698C48.0254 40.5553 57.905 39.8743 63.4761 42.1329C68.1233 44.0185 70.8849 63.2505 67.7058 66.7855Z" fill="white"/>
<g opacity="0.35">
<g opacity="0.35">
<path opacity="0.35" d="M67.7056 66.7855C67.052 67.511 66.0767 68.0962 64.9577 68.5616C64.9064 68.5821 64.855 68.6027 64.8071 68.6232C64.7352 68.654 64.6634 68.6814 64.5915 68.7087C64.5094 68.7395 64.4273 68.7738 64.3417 68.8011C64.2904 68.8183 64.239 68.8388 64.1877 68.8593C63.9721 68.9346 63.7531 69.0065 63.5307 69.0783C63.4349 69.1091 63.339 69.1365 63.2398 69.1673C63.2124 69.1741 63.185 69.1844 63.1577 69.1913C63.0926 69.2118 63.0242 69.2289 62.9592 69.2494C62.9387 69.2563 62.9147 69.2631 62.8907 69.2665C62.7812 69.2973 62.6717 69.3281 62.5588 69.3555C62.3364 69.4137 62.1174 69.4684 61.8915 69.5198C61.8367 69.5335 61.7786 69.5472 61.7238 69.5574C61.6109 69.5814 61.5014 69.6088 61.3919 69.6293C61.3371 69.6396 61.2824 69.6532 61.2242 69.6635C61.1694 69.6738 61.1147 69.6875 61.0599 69.6977C60.9265 69.7251 60.7964 69.7491 60.6664 69.7764C60.6014 69.7901 60.5398 69.8004 60.4748 69.8107C60.2352 69.8551 59.9957 69.8962 59.7595 69.9339C59.7048 69.9441 59.6535 69.951 59.6021 69.9578C59.5748 69.9612 59.5508 69.9647 59.5234 69.9715C59.4824 69.9783 59.4379 69.9852 59.3968 69.992C59.3044 70.0057 59.212 70.0194 59.123 70.0331C59.0306 70.0468 58.9382 70.0605 58.8493 70.0707C58.596 70.105 58.3462 70.1392 58.1101 70.1666C58.0177 70.1768 57.9253 70.1905 57.8363 70.1974C57.7439 70.2076 57.655 70.2179 57.566 70.2282C57.4976 70.235 57.4325 70.2418 57.3675 70.2487C57.2683 70.2589 57.1725 70.2692 57.0801 70.2761C57.0424 70.2795 57.0014 70.2829 56.9637 70.2863C55.961 70.3787 55.3177 70.4027 55.3177 70.4027L48.5522 44.1519C48.915 44.1417 49.2572 44.1314 49.5652 44.128C50.7595 44.104 51.5295 44.1177 51.5295 44.1177C51.5295 44.1177 57.4394 42.6188 58.5721 44.7576C60.3926 48.1934 61.1626 50.606 62.9968 55.9102C63.185 56.4509 63.3596 56.9881 63.5273 57.522C63.9276 58.8121 65.5839 59.2056 66.4942 58.2064C66.501 58.1995 66.5045 58.1927 66.5113 58.1859C67.5893 56.9847 67.9828 53.9801 67.8528 50.4554C69.379 56.7691 69.6288 64.6467 67.7056 66.7855Z" fill="#371A45"/>
</g>
</g>
<g opacity="0.35">
<g opacity="0.35">
<path opacity="0.35" d="M48.6243 40.4629L49.5688 44.1348C49.2574 44.1416 48.9186 44.1484 48.5558 44.1587L47.6045 40.4697C47.6764 40.4834 48.0425 40.4732 48.6243 40.4629Z" fill="#371A45"/>
</g>
</g>
<path d="M55.3215 70.9162C55.0512 70.9162 54.8253 70.7006 54.815 70.4268C54.8048 70.1462 55.0238 69.9101 55.3044 69.8998C55.3968 69.8964 64.5645 69.52 67.333 66.4435C68.9243 64.6709 68.9824 57.5906 67.4596 50.9826C66.3953 46.3594 64.8349 43.2282 63.2915 42.6019C58.7436 40.7574 51.0713 40.9183 48.5492 40.9696C47.7724 40.9867 47.6253 40.9867 47.5089 40.9627C47.2351 40.908 47.0572 40.6411 47.1119 40.3639C47.1667 40.097 47.4199 39.9224 47.6869 39.9635C47.7793 39.9703 48.1454 39.9635 48.5287 39.9532C51.1021 39.8985 58.9318 39.7342 63.6714 41.6574C66.2448 42.7012 67.7676 47.8035 68.4486 50.7499C69.8893 56.9952 70.1494 64.8249 68.0893 67.1177C65.0334 70.5158 55.739 70.8957 55.3455 70.9093C55.3352 70.9162 55.3284 70.9162 55.3215 70.9162ZM47.6869 39.9669C47.6937 39.9669 47.6971 39.9703 47.704 39.9703C47.7005 39.9703 47.6937 39.9703 47.6869 39.9669Z" fill="#371A45"/>
<path d="M64.1776 42.9747C64.0784 42.9747 63.9518 42.9815 63.8354 42.9918C63.7157 42.9987 63.5993 43.0123 63.4795 43.026C63.24 43.0534 63.0005 43.0842 62.7609 43.1253C62.2818 43.2074 61.8027 43.3101 61.3305 43.4367C60.8582 43.5667 60.386 43.7105 59.924 43.885C59.6913 43.9671 59.4654 44.0629 59.2327 44.1553C59.0035 44.2511 58.781 44.3572 58.5518 44.4565C58.7605 44.323 58.9658 44.1827 59.1814 44.0527C59.397 43.926 59.6092 43.7926 59.8282 43.6762C60.2628 43.4298 60.7179 43.2143 61.1765 43.0089C61.6385 42.807 62.1107 42.6257 62.5932 42.4682C62.8362 42.3861 63.0792 42.3177 63.329 42.2492C63.4522 42.215 63.5788 42.1842 63.7054 42.1568C63.8354 42.126 63.9552 42.1021 64.1024 42.0781C64.3488 42.0405 64.578 42.2047 64.6157 42.4511C64.6533 42.6975 64.4891 42.9268 64.2427 42.9644C64.2256 42.9713 64.1982 42.9747 64.1776 42.9747Z" fill="#371A45"/>
<path d="M68.6607 55.657L63.8937 56.7863C63.4694 56.8855 63.1648 57.2619 63.1546 57.7C63.1203 59.3015 63.2333 63.0008 64.9375 63.9589C66.3508 64.7529 68.3732 64.3114 69.4067 63.1103C70.5633 61.7654 70.1287 58.1859 69.8276 56.4304C69.7352 55.8828 69.2014 55.5269 68.6607 55.657Z" fill="white"/>
<g opacity="0.35">
<g opacity="0.35">
<path opacity="0.35" d="M63.1546 57.6962C63.1203 59.2978 63.2333 62.997 64.9375 63.9552C66.3508 64.7491 68.3732 64.3111 69.4067 63.1065C70.1185 62.2784 70.228 60.6084 70.1356 59.0343C70.0398 59.8419 69.8002 60.5263 69.4409 61.0054C67.3842 63.7533 65.1291 61.2552 65.1291 61.2552C65.1291 61.2552 64.9203 61.9807 64.6774 62.0594C63.6542 62.3879 63.3496 59.0651 63.2298 57.3438C63.1854 57.4533 63.158 57.573 63.1546 57.6962Z" fill="#371A45"/>
</g>
</g>
<path d="M66.5558 64.8659C65.8987 64.8659 65.2485 64.7154 64.6873 64.4005C62.8086 63.3465 62.6033 59.7397 62.6478 57.6864C62.6615 57.0191 63.1269 56.4442 63.7771 56.2902L68.544 55.1609C68.9375 55.0685 69.355 55.1438 69.6938 55.3663C70.0292 55.5887 70.2619 55.9446 70.3303 56.3416C70.7512 58.8054 71.0011 62.0359 69.7931 63.4389C68.9991 64.3595 67.7638 64.8659 66.5558 64.8659ZM68.7767 56.1499L64.0098 57.2792C63.8079 57.3271 63.6641 57.5016 63.6607 57.707C63.5957 60.7697 64.1637 62.9393 65.1835 63.5142C66.3539 64.1713 68.1094 63.8359 69.0197 62.7785C69.7417 61.9401 69.8547 59.5994 69.3242 56.5127C69.3037 56.3895 69.2318 56.28 69.1292 56.2115C69.0265 56.1431 68.8999 56.1191 68.7767 56.1499Z" fill="#371A45"/>
<path d="M67.3019 64.681C67.2677 64.6673 67.2471 64.6605 67.2266 64.6502C67.2061 64.6399 67.1821 64.6297 67.165 64.6228C67.1274 64.6023 67.0863 64.5852 67.0521 64.5647C66.9802 64.5236 66.9118 64.4825 66.8468 64.4346C66.7133 64.3456 66.5901 64.2498 66.4737 64.1437C66.2445 63.935 66.0323 63.7126 65.8612 63.4627C65.5053 62.9734 65.2555 62.4293 65.0912 61.8715C65.0502 61.7312 65.0194 61.5909 64.9817 61.4506C64.9441 61.3103 64.927 61.1665 64.8996 61.0262C64.8448 60.7456 64.8209 60.465 64.7935 60.1844C64.7661 59.9038 64.7524 59.6198 64.749 59.3391C64.749 59.0585 64.7559 58.7745 64.814 58.4973C64.7935 58.7779 64.8243 59.0551 64.8619 59.3289C64.8996 59.6026 64.9543 59.8764 65.0159 60.1468C65.081 60.4171 65.1426 60.6909 65.2281 60.9475C65.2726 61.0776 65.3034 61.211 65.3582 61.3342C65.4095 61.4608 65.4574 61.5875 65.5087 61.7106C65.7277 62.2034 66.0186 62.6551 66.3745 63.0281C66.549 63.2198 66.7475 63.3772 66.9528 63.5175C67.0555 63.5859 67.1616 63.651 67.2711 63.7023C67.3258 63.7297 67.3772 63.7536 67.4319 63.7742C67.4593 63.7844 67.4833 63.7913 67.5106 63.8015C67.5243 63.8084 67.5346 63.8084 67.5449 63.8118C67.5585 63.8152 67.5688 63.8186 67.5688 63.8186C67.8049 63.8939 67.935 64.1437 67.8631 64.3799C67.7912 64.6263 67.538 64.7563 67.3019 64.681Z" fill="#371A45"/>
<path d="M47.4092 75.7065C47.4092 75.7065 37.759 75.9632 24.2657 76.2403L23.7935 68.8555C23.7935 68.8555 23.3828 61.4878 28.9129 59.0786C35.9966 55.9885 42.6799 63.7053 42.6799 63.7053L47.4092 75.7065Z" fill="white"/>
<path d="M23.7904 76.7604L23.2873 68.8896C23.2839 68.8075 23.1881 66.9356 23.7904 64.7386C24.6014 61.782 26.3022 59.6637 28.7079 58.6165C31.7604 57.2853 35.2235 57.696 38.714 59.8006C41.308 61.3679 42.9916 63.2945 43.0635 63.3732L43.1217 63.4382L48.1453 76.1923L47.4198 76.2129C47.324 76.2163 37.6121 76.4729 24.2763 76.7467L23.7904 76.7604ZM32.3729 58.8664C31.3121 58.8664 30.217 59.0683 29.1151 59.5473C23.982 61.7854 24.2968 68.763 24.3003 68.8314L24.7417 75.7269C35.7608 75.4976 44.2167 75.2855 46.6704 75.2205L42.2422 63.9789C41.7084 63.3938 37.4171 58.8664 32.3729 58.8664Z" fill="#371A45"/>
<path d="M26.8496 76.1484L21.2134 76.5112C20.1218 76.5796 19.0883 76.0047 18.5784 75.0363C16.9837 72.0043 14.0065 65.3107 16.1179 60.9749C18.1507 56.8 25.2001 57.5323 26.6442 67.3092" fill="white"/>
<path d="M21.0356 77.0211C19.8242 77.0211 18.6983 76.3504 18.1303 75.269C16.2824 71.7511 13.5002 65.1875 15.663 60.7491C16.6006 58.8259 18.5478 57.7924 20.625 58.1107C23.1847 58.5076 26.244 61.1084 27.1475 67.2305C27.1885 67.5077 26.9969 67.7644 26.7197 67.8054C26.4425 67.8465 26.1859 67.6549 26.1448 67.3777C25.3201 61.8031 22.6748 59.4521 20.471 59.1134C18.8181 58.8567 17.3261 59.654 16.5767 61.1906C14.5371 65.3758 17.6136 72.0967 19.0303 74.7933C19.4444 75.5838 20.2896 76.0561 21.1828 75.9979L26.8189 75.6351C27.0995 75.6146 27.3391 75.8302 27.3562 76.1074C27.3733 76.388 27.1611 76.6275 26.884 76.6447L21.2478 77.0074C21.1759 77.0211 21.1041 77.0211 21.0356 77.0211Z" fill="#371A45"/>
<g opacity="0.35">
<g opacity="0.35">
<path opacity="0.35" d="M47.4095 75.7071C47.4095 75.7071 38.5258 75.9433 25.888 76.2068L21.2135 76.5079C20.1218 76.5763 19.0884 76.0014 18.5785 75.0296C17.326 72.6512 15.2214 68.0143 15.3959 64.0344C15.9093 67.2888 17.4252 70.5706 18.4108 72.4459C18.9207 73.4143 19.9507 73.9927 21.0458 73.9208L23.4652 73.7326L23.5508 70.7588C26.0557 75.7858 25.9599 71.7854 28.4785 71.6246C30.9972 71.4638 43.984 73.2056 46.3965 73.144L47.4095 75.7071Z" fill="#371A45"/>
</g>
</g>
<path d="M22.1442 76.45L21.2134 76.5082C20.1218 76.5766 19.0883 76.0017 18.5784 75.0298C16.9837 71.9979 14.0065 65.3043 16.1179 60.9685C16.1795 60.8419 16.2446 60.7187 16.3164 60.6023C16.3164 60.6023 18.4689 58.378 20.2963 61.2115C22.0073 63.8636 25.9769 75.3994 22.1442 76.45Z" fill="#AFAFB2"/>
<g opacity="0.7">
<g opacity="0.7">
<path opacity="0.7" d="M21.2649 63.1171C21.2204 63.0555 21.1759 62.9939 21.1314 62.9391C18.9242 60.1296 16.2481 62.3882 16.2481 62.3882C16.1591 62.508 16.0736 62.6311 15.9983 62.7578C15.7416 63.1787 15.5431 63.6201 15.396 64.0787C15.4405 62.9734 15.6561 61.9159 16.1181 60.9714C16.1797 60.8448 16.2447 60.7216 16.3165 60.6053C16.3165 60.6053 18.469 58.3809 20.2964 61.2144C20.577 61.6422 20.9124 62.3026 21.2649 63.1171Z" fill="white"/>
</g>
</g>
<path d="M15.4027 64.3388C15.2316 64.3388 15.0741 64.2224 15.0331 64.0479C14.9852 63.846 15.1118 63.6407 15.3171 63.5928L20.967 62.2718C21.1723 62.2239 21.3742 62.3506 21.4221 62.5559C21.47 62.7578 21.3434 62.9631 21.1381 63.011L15.4882 64.332C15.4574 64.3354 15.43 64.3388 15.4027 64.3388Z" fill="#371A45"/>
<path d="M15.6353 67.4225C15.4574 67.4225 15.2999 67.2993 15.2657 67.118C15.2247 66.9126 15.3581 66.7142 15.5634 66.6731L22.1852 65.3453C22.3905 65.3042 22.589 65.4377 22.63 65.643C22.6711 65.8484 22.5376 66.0468 22.3323 66.0879L15.7106 67.4157C15.6832 67.4191 15.6593 67.4225 15.6353 67.4225Z" fill="#371A45"/>
<path d="M16.4189 70.4062C16.241 70.4062 16.0801 70.2796 16.0459 70.0982C16.0083 69.8929 16.1417 69.6944 16.347 69.6568L23.0748 68.3906C23.2802 68.353 23.4787 68.4864 23.5163 68.6918C23.5539 68.8971 23.4205 69.0956 23.2152 69.1332L16.4873 70.3994C16.4634 70.4028 16.4429 70.4062 16.4189 70.4062Z" fill="#371A45"/>
<path d="M17.7059 73.633C17.5211 73.633 17.3602 73.4995 17.3329 73.3113C17.3021 73.106 17.4424 72.9109 17.6477 72.8801L23.674 71.9459C23.8793 71.9151 24.0743 72.0554 24.1051 72.2607C24.1359 72.466 23.9956 72.6611 23.7903 72.6919L17.764 73.6261C17.7435 73.6295 17.723 73.633 17.7059 73.633Z" fill="#371A45"/>
<g opacity="0.35">
<g opacity="0.35">
<path opacity="0.35" d="M22.1441 76.4492L21.2133 76.5074C20.1217 76.5759 19.0882 76.001 18.5783 75.0291C18.1677 74.242 17.6612 73.212 17.1753 72.0416C17.7947 72.9348 18.965 73.4481 20.2141 73.3694L21.3228 73.2975C22.8833 72.9211 23.3795 71.3367 23.2734 69.304C24.0263 72.6987 24.0845 75.9154 22.1441 76.4492Z" fill="#371A45"/>
</g>
</g>
<path d="M21.0356 76.9557C19.8481 76.9557 18.7462 76.2987 18.1884 75.2378C16.3439 71.7302 13.572 65.1872 15.7211 60.7761C15.7895 60.6393 15.8614 60.5024 15.9401 60.3723L15.9675 60.3313L16.0017 60.2971C16.0428 60.2526 17.066 59.2123 18.3937 59.3423C19.2595 59.4278 20.026 59.9754 20.6694 60.9746C22.069 63.1442 25.2344 71.7302 23.8656 75.3097C23.5474 76.1447 23.0067 76.6683 22.2607 76.8736L22.2162 76.8839L21.2409 76.9455C21.1724 76.9523 21.104 76.9557 21.0356 76.9557ZM16.6656 60.8788C16.6108 60.9712 16.5629 61.0636 16.515 61.1628C14.4652 65.3754 17.5485 72.1203 18.972 74.8272C19.3998 75.6416 20.269 76.1276 21.1861 76.0694L22.069 76.0112C22.5139 75.8743 22.8321 75.5424 23.0409 74.9949C24.2044 71.9458 21.3949 63.726 19.9268 61.4537C19.4374 60.6974 18.8933 60.2834 18.3116 60.2218C17.5142 60.1431 16.823 60.7351 16.6656 60.8788Z" fill="#371A45"/>
<path d="M21.5314 77.0343C21.4116 77.0343 21.2884 77.0274 21.1584 77.0137C20.8812 76.9863 20.6759 76.7365 20.7067 76.4559C20.7375 76.1753 20.9839 75.9734 21.2645 76.0042C21.5451 76.0316 21.7949 76.0179 22.0105 75.9597C22.2808 75.8844 22.558 76.0453 22.6333 76.3156C22.7086 76.586 22.5477 76.8666 22.2774 76.9384C22.0481 77 21.7983 77.0343 21.5314 77.0343Z" fill="#371A45"/>
<path d="M56.2009 77.8798C52.4195 78.7833 46.7834 76.7813 46.7834 76.7813L46.1126 70.1117C46.1126 70.1117 45.9142 68.0824 46.7355 66.1045L31.5859 67.2235C31.5859 67.2235 34.0122 55.5063 34.919 47.8648C34.9396 47.6766 34.9635 47.4952 34.9841 47.3138C35.3571 43.9842 53.5351 38.2693 53.5351 38.2693C53.5351 38.2693 54.3188 39.6107 55.4515 41.7495C57.272 45.1853 59.9926 50.6812 61.8268 55.982C62.3162 57.3953 62.7405 58.7949 63.0656 60.1364C63.3394 61.2588 63.5481 62.3402 63.6645 63.36C64.8554 73.6057 60.7283 76.795 56.2009 77.8798Z" fill="white"/>
<path d="M53.956 78.6222C50.4962 78.6222 46.8038 77.3286 46.6122 77.2602L46.3076 77.1541L45.6061 70.1662C45.5992 70.1012 45.4589 68.5955 45.9346 66.881C46.578 64.554 48.0392 62.9662 50.1643 62.2852C50.4312 62.1996 50.7152 62.3468 50.8008 62.6137C50.8863 62.8806 50.7392 63.1646 50.4723 63.2502C46.1502 64.6327 46.5951 69.8445 46.6156 70.067L47.2521 76.4081C48.4533 76.7948 52.9772 78.1328 56.0776 77.3902C59.7119 76.521 64.4001 74.129 63.1579 63.4316C62.1518 54.7874 54.6335 41.2394 53.2955 38.885C52.1012 39.2717 48.3335 40.5139 44.5795 42.023C36.3254 45.339 35.5315 46.9611 35.4836 47.3786C34.9771 51.9197 33.8718 58.0965 33.0368 62.4802L32.2497 66.4875C32.195 66.7612 31.928 66.9426 31.6543 66.8879C31.3805 66.8331 31.1991 66.5662 31.2539 66.2924L32.041 62.2886C32.8725 57.9254 33.971 51.7725 34.4775 47.2657C34.5904 46.2425 35.7266 44.4904 44.2065 41.0786C48.7612 39.2477 53.3331 37.807 53.3776 37.7934L53.7643 37.6736L53.9696 38.0226C54.3392 38.6557 63.0416 53.6581 64.1674 63.3152C65.1735 71.9457 62.6035 76.8735 56.3172 78.3792C55.578 78.5503 54.7738 78.6222 53.956 78.6222Z" fill="#371A45"/>
<path d="M52.9019 76.7095C52.9019 76.7095 47.7482 79.3514 46.0817 79.1358C44.4151 78.9202 45.3356 61.5121 45.3356 61.5121C45.3356 61.5121 48.9733 60.3794 50.4653 64.2155C51.0847 65.8068 50.4619 67.7642 50.7973 69.4103" fill="white"/>
<g opacity="0.35">
<g opacity="0.35">
<path opacity="0.35" d="M55.448 41.7522C52.5392 45.1469 48.5559 47.4431 44.203 48.2952C43.83 48.3671 43.457 48.4287 43.0806 48.48C42.0471 48.6203 41 48.6785 39.9426 48.6511C39.0665 48.6272 38.187 48.5485 37.3041 48.4047C36.5068 48.2781 35.7129 48.0968 34.9189 47.8675C34.9395 47.6793 34.9634 47.4979 34.984 47.3165C35.357 43.9868 53.535 38.272 53.535 38.272C53.535 38.272 54.3153 39.6134 55.448 41.7522Z" fill="#371A45"/>
</g>
</g>
<path d="M23.901 37.8142C25.7626 40.6442 28.336 43.0192 31.474 44.6446C32.1139 44.9766 32.7744 45.2777 33.4588 45.5412C33.7908 45.6713 34.1295 45.7945 34.4752 45.9074C35.5155 46.2496 36.5626 46.5028 37.6098 46.6705C38.5132 46.8177 39.4167 46.8998 40.3132 46.9237C41.398 46.9511 42.4726 46.8929 43.53 46.7492C43.9167 46.6945 44.3 46.6329 44.6798 46.5576C51.6403 45.199 57.6803 40.2233 60.0586 33.0096C63.5628 22.384 57.7898 10.9304 47.1642 7.42615C45.1178 6.75201 43.0372 6.42006 40.9942 6.40295C40.7547 6.39953 40.5151 6.40295 40.2756 6.4098C39.6357 6.42691 38.9992 6.47482 38.3661 6.5501C36.9083 6.72805 35.4813 7.06684 34.109 7.54935C32.7402 8.03186 31.4227 8.6581 30.1907 9.4178C29.7972 9.66077 29.4139 9.914 29.0375 10.1843C28.4729 10.5882 27.9287 11.0193 27.4052 11.4813C24.7975 13.7775 22.7477 16.7787 21.5808 20.3205C19.5652 26.4392 20.6192 32.8248 23.901 37.8142Z" fill="white"/>
<path d="M40.8361 46.9847C40.6616 46.9847 40.4871 46.9813 40.3125 46.9778C39.3988 46.9539 38.4886 46.8683 37.6023 46.7246C36.5448 46.5535 35.4874 46.2968 34.4574 45.9581C34.0809 45.8314 33.7456 45.7117 33.4376 45.5885C32.7669 45.3284 32.0961 45.0238 31.4494 44.6885C28.3832 43.1006 25.7585 40.7325 23.8558 37.8375C20.4234 32.6188 19.5782 26.2298 21.5322 20.3062C22.6615 16.8807 24.6805 13.8179 27.3737 11.4464C27.8836 10.9947 28.4311 10.5601 29.0094 10.146C29.379 9.88253 29.7691 9.62245 30.1661 9.37949C31.4049 8.61636 32.7258 7.9867 34.0946 7.50419C35.4771 7.01825 36.9144 6.67947 38.362 6.50152C38.9916 6.42281 39.635 6.37832 40.2749 6.36121C40.5281 6.35437 40.7677 6.35095 40.997 6.35437C43.0844 6.37148 45.165 6.71369 47.1841 7.37757C57.8199 10.8852 63.6169 22.3936 60.1093 33.026C57.813 39.9968 51.9031 45.2018 44.6928 46.6082C44.313 46.6801 43.9263 46.7451 43.5396 46.7999C42.6396 46.9265 41.7327 46.9847 40.8361 46.9847ZM40.7745 6.46045C40.6137 6.46045 40.446 6.46388 40.2749 6.4673C39.6384 6.48441 38.9985 6.53232 38.3722 6.6076C36.9315 6.78555 35.5045 7.12091 34.1289 7.60343C32.7669 8.08252 31.4494 8.70876 30.2174 9.46846C29.8205 9.71143 29.4338 9.96808 29.0676 10.2316C28.4927 10.6422 27.9486 11.0768 27.4421 11.5251C24.7626 13.8829 22.7539 16.932 21.6314 20.3404C19.6877 26.2332 20.5295 32.588 23.9448 37.7827C25.8372 40.6607 28.4482 43.0185 31.4973 44.5961C32.144 44.9314 32.8079 45.2326 33.4787 45.4927C33.7866 45.6124 34.1186 45.7322 34.4916 45.8588C35.5148 46.1942 36.5654 46.4508 37.6194 46.6219C38.5023 46.7657 39.4091 46.8512 40.316 46.8752C41.3768 46.9025 42.4582 46.8444 43.5225 46.7006C43.9057 46.6493 44.289 46.5843 44.6688 46.5124C51.8449 45.1128 57.7206 39.9352 60.0066 32.9987C63.4971 22.4176 57.7275 10.9708 47.1464 7.48023C45.1377 6.81977 43.0673 6.47756 40.9901 6.46045C40.9217 6.46045 40.8498 6.46045 40.7745 6.46045Z" fill="#371A45"/>
<g opacity="0.35">
<g opacity="0.35">
<path opacity="0.35" d="M60.0575 33.0153C57.6792 40.2291 51.6392 45.2048 44.6787 46.5633C44.2988 46.6386 43.9156 46.7002 43.5323 46.755C42.4749 46.8987 41.4003 46.9569 40.3155 46.9295C39.419 46.9056 38.5155 46.8234 37.6121 46.6763C36.565 46.5086 35.5178 46.2554 34.4741 45.9131C34.1319 45.7968 33.7896 45.677 33.4577 45.547C32.7733 45.2801 32.1128 44.9789 31.4729 44.647C28.3349 43.0215 25.7615 40.6466 23.8998 37.8165C22.8766 36.2629 22.0725 34.5724 21.5078 32.7963C23.3455 35.4553 25.8265 37.6899 28.8208 39.2401C29.4607 39.572 30.1212 39.8732 30.8056 40.1401C31.1375 40.2701 31.4763 40.3899 31.822 40.5063C32.8623 40.8485 33.9094 41.1017 34.9566 41.2728C35.86 41.42 36.7634 41.5021 37.66 41.526C38.7448 41.5534 39.8193 41.4918 40.8768 41.3515C41.2635 41.2968 41.6467 41.2352 42.0266 41.1599C48.9871 39.8013 55.0271 34.8256 57.4054 27.6119C58.7948 23.4027 58.7263 19.067 57.4773 15.1453C60.9609 20.1826 62.1244 26.7427 60.0575 33.0153Z" fill="#371A45"/>
</g>
</g>
<path d="M40.835 47.3366C40.657 47.3366 40.4791 47.3332 40.3045 47.3298C39.3772 47.3058 38.4498 47.2202 37.5464 47.0731C36.4718 46.902 35.3939 46.6385 34.3501 46.2929C33.9634 46.1628 33.6247 46.0396 33.3132 45.9164C32.6323 45.6529 31.9513 45.3449 31.2908 45.0027C28.1733 43.3875 25.5007 40.9784 23.5672 38.0354C20.0767 32.7278 19.2143 26.2258 21.2025 20.1995C22.3523 16.7159 24.4056 13.5983 27.1432 11.1858C27.66 10.7272 28.2178 10.2824 28.8064 9.86486C29.1828 9.59452 29.5798 9.33444 29.9836 9.08463C31.2429 8.30781 32.5878 7.66789 33.9806 7.17853C35.387 6.68233 36.8483 6.34012 38.3197 6.15875C38.9597 6.08004 39.6167 6.03213 40.2669 6.01502C40.5201 6.00818 40.77 6.00476 41.0027 6.00818C43.1209 6.02529 45.2392 6.37434 47.2924 7.05191C58.1096 10.6211 64.0093 22.3246 60.4435 33.1452C58.1062 40.2358 52.097 45.5297 44.7601 46.9602C44.3734 47.0355 43.9799 47.1005 43.5897 47.1552C42.6692 47.275 41.7487 47.3366 40.835 47.3366ZM40.7734 6.80894C40.616 6.80894 40.4551 6.81237 40.2874 6.81579C39.6578 6.8329 39.0281 6.87739 38.4156 6.95267C36.9988 7.1272 35.5958 7.45572 34.2441 7.93139C32.9026 8.40363 31.6125 9.01961 30.4011 9.76562C30.0109 10.0052 29.6311 10.2584 29.2718 10.5151C28.7071 10.9189 28.1699 11.3466 27.6737 11.7846C25.0421 14.1014 23.0676 17.0991 21.9656 20.4459C20.0561 26.2361 20.8843 32.4814 24.2379 37.5837C26.0961 40.4103 28.6626 42.7271 31.6604 44.2807C32.2935 44.6092 32.9505 44.9035 33.6075 45.1602C33.9087 45.2799 34.2372 45.3963 34.6068 45.5195C35.6095 45.8514 36.6429 46.1012 37.6764 46.2689C38.5422 46.4092 39.4353 46.4948 40.3285 46.5187C41.3722 46.5461 42.4331 46.4879 43.4802 46.3476C43.8532 46.2963 44.2331 46.2313 44.6061 46.1594C51.6556 44.7837 57.432 39.6951 59.6769 32.8817C63.1058 22.4855 57.4355 11.2371 47.0392 7.80819C45.0681 7.158 43.0319 6.82263 40.9924 6.80552C40.9171 6.81237 40.8452 6.80894 40.7734 6.80894Z" fill="#371A45"/>
<path d="M40.8397 47.4538C40.6618 47.4538 40.4838 47.4504 40.3059 47.447C39.3717 47.423 38.4409 47.3341 37.5306 47.1869C36.4492 47.0124 35.3678 46.7489 34.3173 46.4032C33.9306 46.2732 33.5884 46.15 33.2735 46.0268C32.5891 45.7599 31.9047 45.4519 31.2408 45.1063C28.1062 43.4808 25.4199 41.058 23.4727 38.0979C19.9617 32.7594 19.0959 26.2233 21.0944 20.1628C22.251 16.6586 24.3145 13.5239 27.0693 11.0977C27.5895 10.6391 28.1507 10.1908 28.7427 9.7665C29.1226 9.49615 29.5195 9.23265 29.9267 8.98284C31.1929 8.20261 32.5446 7.55926 33.9477 7.06648C35.361 6.56685 36.8291 6.22465 38.3108 6.03985C38.9542 5.96115 39.6146 5.91324 40.2683 5.89613C40.5249 5.88928 40.7747 5.88586 41.0108 5.88928C43.1428 5.90639 45.2713 6.25887 47.3348 6.93644C58.2136 10.5262 64.1475 22.2981 60.5577 33.1769C58.2068 40.3085 52.1634 45.6299 44.7854 47.0706C44.3953 47.1458 44.0017 47.2109 43.6082 47.2656C42.6842 47.3922 41.7569 47.4538 40.8397 47.4538ZM40.7781 6.92959C40.6207 6.92959 40.4599 6.93302 40.2956 6.93644C39.6694 6.95355 39.0432 6.99804 38.434 7.07332C37.0275 7.24442 35.6313 7.57294 34.2899 8.04861C32.9587 8.51744 31.672 9.12999 30.4708 9.86916C30.0842 10.1087 29.7043 10.3585 29.3484 10.6152C28.7872 11.0156 28.2533 11.4399 27.7606 11.8779C25.1427 14.181 23.1818 17.1582 22.0833 20.4879C20.1841 26.2438 21.0088 32.4549 24.3419 37.5264C26.1898 40.3393 28.7427 42.639 31.7199 44.1823C32.3496 44.5074 33.0032 44.8017 33.6534 45.055C33.9545 45.1713 34.2796 45.2911 34.6458 45.4143C35.6416 45.7428 36.6682 45.9926 37.6983 46.1603C38.5606 46.3006 39.447 46.3827 40.3333 46.4067C41.3702 46.434 42.4242 46.3759 43.4679 46.2356C43.8409 46.1842 44.2173 46.1226 44.5869 46.0508C51.5953 44.6819 57.3376 39.6241 59.5688 32.8518C62.9772 22.5172 57.341 11.3338 47.0063 7.92542C45.0455 7.27865 43.023 6.94328 40.9937 6.92959C40.9219 6.92959 40.85 6.92959 40.7781 6.92959Z" fill="#371A45"/>
<path d="M27.2845 41.7489C39.8162 49.0037 55.3969 41.7386 55.0273 27.4035C54.7775 17.6506 45.0348 10.365 35.6823 11.2068C28.8758 11.8194 22.5005 15.392 20.5601 26.2161C20.5601 26.2161 20.4404 31.1404 22.0419 34.275C23.6434 37.4097 25.7275 40.1884 25.7275 40.1884L27.2845 41.7489Z" fill="#371A45"/>
<path d="M55.0273 27.4036C55.3969 41.7387 39.8128 49.0037 27.2846 41.7489L26.9697 41.4307C40.1789 42.6421 52.4779 33.7447 52.3752 19.2454C53.9699 21.6203 54.9486 24.3956 55.0273 27.4036Z" fill="#220F2D"/>
<path d="M37.6396 47.1936C37.6294 47.1936 37.6191 47.1936 37.6088 47.1936H37.5678L37.5267 47.1867C36.4453 47.0122 35.3605 46.7487 34.3099 46.4031C33.9232 46.273 33.581 46.1498 33.2662 46.0267C32.5818 45.7597 31.8974 45.4517 31.2335 45.1061C28.0989 43.4806 25.4125 41.0578 23.4654 38.0977C19.9543 32.7593 19.0885 26.2231 21.087 20.1626C22.2403 16.6584 24.3072 13.5238 27.062 11.0975L27.103 11.0633L27.151 11.0359C29.4814 9.71842 32.2464 8.90739 35.3708 8.62678C40.9351 8.12715 46.8724 10.153 51.2458 14.0508C55.2667 17.6337 57.5527 22.3493 57.6793 27.3353C57.8196 32.7524 56.0059 37.5467 52.4435 41.1981C48.7237 45.0103 43.3271 47.1936 37.6396 47.1936ZM27.7088 11.9154C25.1148 14.215 23.1677 17.1785 22.076 20.4877C20.1768 26.2436 21.0015 32.4547 24.3346 37.5262C26.1825 40.3392 28.7354 42.6388 31.7126 44.1822C32.3422 44.5073 32.9959 44.8016 33.6461 45.0548C33.9472 45.1711 34.2723 45.2909 34.6385 45.4141C35.6206 45.7392 36.6369 45.9856 37.6499 46.1533C43.0568 46.1498 48.1762 44.0795 51.6975 40.4726C55.0614 37.0266 56.769 32.4923 56.639 27.3626C56.5192 22.6676 54.3565 18.2154 50.5545 14.8276C46.3899 11.1181 40.7469 9.18458 35.4632 9.66025C32.5065 9.92717 29.8989 10.6869 27.7088 11.9154Z" fill="#371A45"/>
<path d="M37.6909 45.1162C34.0737 45.1162 30.3779 44.1409 27.0242 42.2006L26.9661 42.1664L25.3132 40.5033C25.2277 40.3869 23.1847 37.6527 21.5831 34.5146C19.944 31.2979 20.0398 26.4146 20.0466 26.2058L20.0535 26.1271C21.7474 16.6616 26.9934 11.4704 35.641 10.6901C40.6099 10.2418 45.9038 12.0521 49.8084 15.5324C53.3982 18.7286 55.4378 22.9412 55.5507 27.3933C55.7149 33.8199 52.7377 39.3329 47.3753 42.5154C44.446 44.2504 41.1027 45.1162 37.6909 45.1162ZM27.6026 41.3348C33.7863 44.8869 41.1506 44.9999 46.8415 41.6189C51.8685 38.6348 54.6644 33.4572 54.5069 27.4172C54.4009 23.256 52.4845 19.3103 49.1103 16.3058C45.4179 13.0171 40.4114 11.3027 35.7266 11.7236C27.6163 12.4525 22.6885 17.3461 21.0767 26.2674C21.0698 26.726 21.0561 31.2021 22.5003 34.039C23.9752 36.9272 25.8915 39.5485 26.1174 39.8496L27.6026 41.3348Z" fill="#371A45"/>
<path d="M59.4072 33.9749C62.3011 33.7022 64.3429 30.2519 63.9676 26.2685C63.5923 22.2851 60.9421 19.2769 58.0481 19.5495C55.1541 19.8222 53.1123 23.2724 53.4876 27.2559C53.8629 31.2393 56.5132 34.2475 59.4072 33.9749Z" fill="white"/>
<path d="M59.0294 34.5146C58.0644 34.5146 57.1096 34.1963 56.2268 33.5701C54.5568 32.3895 53.3899 30.302 53.0305 27.8518C52.4077 23.6324 54.4439 19.7072 57.5682 19.0947C58.8138 18.8517 60.0766 19.1494 61.2196 19.9571C62.8895 21.1377 64.0565 23.2251 64.4158 25.6788C65.0386 29.8948 63.0025 33.8233 59.8781 34.4359C59.5941 34.4872 59.3135 34.5146 59.0294 34.5146ZM58.41 20.0529C58.1945 20.0529 57.9823 20.0734 57.7667 20.1145C55.1796 20.6209 53.5165 24.0225 54.0572 27.6978C54.372 29.84 55.4089 31.7153 56.8256 32.7214C57.729 33.3613 58.7146 33.5974 59.6762 33.4092C62.2633 32.9028 63.9264 29.5012 63.3857 25.8259C63.0709 23.6837 62.034 21.8084 60.6173 20.8023C59.9158 20.3061 59.1629 20.0529 58.41 20.0529Z" fill="#371A45"/>
<path d="M60.8331 32.8521C63.197 32.7109 64.9598 30.0272 64.7706 26.8578C64.5814 23.6883 62.5117 21.2334 60.1478 21.3746C57.784 21.5157 56.0211 24.1994 56.2103 27.3689C56.3996 30.5383 58.4693 32.9932 60.8331 32.8521Z" fill="white"/>
<path d="M60.6496 32.9168C60.2766 32.9168 59.8967 32.8518 59.5203 32.7183C57.1864 31.9005 55.7183 28.7214 56.2453 25.6347C56.5396 23.9065 57.4054 22.5034 58.6168 21.7917C59.51 21.2681 60.4887 21.1688 61.4572 21.5076C63.791 22.3255 65.2591 25.5046 64.7321 28.5913L64.6773 28.5811L64.7321 28.5913C64.4378 30.3195 63.572 31.7225 62.3606 32.4343C61.8165 32.756 61.2382 32.9168 60.6496 32.9168ZM60.3313 21.4187C59.7632 21.4187 59.202 21.5761 58.675 21.8841C57.491 22.5822 56.6457 23.9544 56.3549 25.6518C55.8347 28.6906 57.272 31.8115 59.5579 32.6123C60.4921 32.9408 61.4435 32.845 62.3059 32.3351C63.4899 31.637 64.3351 30.2647 64.626 28.5674C65.1462 25.5286 63.7089 22.4076 61.423 21.6069C61.0602 21.4837 60.6941 21.4187 60.3313 21.4187Z" fill="#371A45"/>
<g opacity="0.35">
<g opacity="0.35">
<path opacity="0.35" d="M56.8375 30.1132C56.42 29.1071 56.2797 27.9813 56.3755 26.893C57.5185 29.1071 59.7805 29.7471 61.6079 28.2893C62.7885 27.3482 63.5174 25.7467 63.6679 24.0596C63.7398 24.1999 63.8082 24.347 63.8733 24.4976C64.9341 27.0607 64.2189 30.3973 62.2752 31.944C60.3314 33.4977 57.8983 32.6729 56.8375 30.1132Z" fill="#371A45"/>
</g>
</g>
<path d="M60.7868 33.375C60.075 33.375 59.3632 33.1389 58.7027 32.6735C57.3544 31.7221 56.3689 29.9119 56.0712 27.8312C55.5716 24.3441 57.132 21.1069 59.548 20.6141C60.4754 20.4259 61.4164 20.6449 62.2754 21.2506C63.6237 22.2019 64.6092 24.0122 64.907 26.0928C65.4066 29.5799 63.8461 32.8172 61.4301 33.31C61.218 33.3545 61.0024 33.375 60.7868 33.375ZM60.1913 21.5894C60.0476 21.5894 59.9005 21.6031 59.7602 21.6339C57.8712 22.0171 56.6803 24.7343 57.1046 27.6841C57.3647 29.4875 58.186 31.0343 59.305 31.8248C59.9244 32.2594 60.5883 32.4237 61.2282 32.2936C63.1172 31.9104 64.3081 29.1932 63.8838 26.2434C63.6237 24.44 62.8024 22.8932 61.6834 22.1027C61.2009 21.7605 60.6944 21.5894 60.1913 21.5894Z" fill="#371A45"/>
<g opacity="0.5">
<g opacity="0.5">
<path opacity="0.5" d="M40.805 14.3243C40.805 14.3243 31.7091 15.7308 27.1509 21.4491C27.1475 21.4559 27.1406 21.4628 27.1372 21.4662C26.179 22.6707 25.5631 24.1114 25.3475 25.6377C25.06 27.6533 25.1558 29.0837 25.2893 30.3396C25.6965 34.1587 26.6034 35.8731 26.6034 35.8731C24.2148 34.0868 22.7467 31.924 22.3737 28.7449C22.3395 28.4301 22.3121 28.1084 22.2984 27.7731C22.295 27.6978 22.2916 27.6191 22.2916 27.5438C22.2881 27.5438 22.2916 27.5404 22.2916 27.5404C22.3087 26.8628 22.3634 25.9696 22.5106 24.9704C22.9486 21.9555 24.2079 17.9483 27.6984 15.7787C34.2278 11.7235 41.0788 13.8931 40.805 14.3243Z" fill="white"/>
</g>
</g>
<g opacity="0.5">
<g opacity="0.5">
<path opacity="0.5" d="M49.7443 25.9494C51.1394 25.4119 51.7625 23.658 51.1361 22.0319C50.5096 20.4057 48.8708 19.5231 47.4757 20.0606C46.0807 20.598 45.4575 22.3519 46.084 23.9781C46.7104 25.6042 48.3492 26.4868 49.7443 25.9494Z" fill="white"/>
</g>
</g>
<g opacity="0.5">
<g opacity="0.5">
<path opacity="0.5" d="M51.2389 29.5267C51.7948 29.2566 51.9903 28.5126 51.6756 27.8649C51.361 27.2172 50.6552 26.9111 50.0993 27.1812C49.5434 27.4512 49.3479 28.1952 49.6625 28.8429C49.9772 29.4907 50.6829 29.7968 51.2389 29.5267Z" fill="white"/>
</g>
</g>
<g opacity="0.35">
<g opacity="0.35">
<path opacity="0.35" d="M46.7832 76.7811C46.7832 76.7811 48.4806 77.3834 50.6365 77.7769C49.035 78.4818 47.0125 79.2552 46.0817 79.1355C45.4863 79.0567 45.2193 76.7776 45.127 73.8792C45.2775 75.2617 45.5239 76.1719 45.8969 76.2198C46.1194 76.2472 46.4 76.2267 46.7251 76.1685L46.7832 76.7811Z" fill="#371A45"/>
</g>
</g>
<g opacity="0.35">
<g opacity="0.35">
<path opacity="0.35" d="M52.002 74.1458C52.0495 74.122 52.097 74.0982 52.1411 74.0779C52.1411 74.0779 52.0563 74.1525 52.002 74.1458Z" fill="#371A45"/>
</g>
</g>
<path d="M63.0588 59.4901C62.1177 62.0601 57.5526 63.2613 52.423 62.9327C51.3416 62.8643 50.2328 62.7274 49.1275 62.5187L49.0796 57.7688C49.0796 57.7688 53.2477 57.8681 56.8888 56.968C58.6032 56.5437 60.2013 55.8969 61.1903 54.9114C61.1869 54.9114 64.1983 56.376 63.0588 59.4901Z" fill="white"/>
<g opacity="0.35">
<g opacity="0.35">
<path opacity="0.35" d="M63.0588 59.4894C62.1177 62.0594 57.5527 63.2606 52.423 62.9321C51.7214 62.8876 51.0062 62.8123 50.291 62.7096C50.0412 62.6754 49.7914 62.6343 49.5416 62.5933C49.4047 62.5693 49.2644 62.5454 49.1275 62.518L49.107 60.4305L49.0796 57.7681C49.0796 57.7681 53.2477 57.8674 56.8888 56.9674C56.7964 57.6039 56.6355 58.1891 56.4165 58.7332C56.0298 59.6982 56.8546 60.718 57.8709 60.5161C60.4375 60.0028 62.3538 58.9453 62.9253 57.3814C62.9869 57.2138 63.0348 57.0529 63.0725 56.8955C63.3565 57.5765 63.4421 58.4389 63.0588 59.4894Z" fill="#371A45"/>
</g>
</g>
<path d="M54.0549 63.4931C52.4329 63.4931 50.7287 63.3322 49.0313 63.0174C48.7918 62.9729 48.6207 62.7676 48.6172 62.5246L48.5693 57.7748C48.5693 57.6379 48.6241 57.5044 48.7199 57.4086C48.8191 57.3128 48.9492 57.2615 49.0895 57.2615C49.1785 57.2649 57.9321 57.4394 60.8306 54.5546C60.9846 54.404 61.2173 54.363 61.409 54.4588C62.593 55.0337 64.5607 56.8611 63.5341 59.6672C62.9318 61.3098 61.0188 62.5349 58.1409 63.1166C56.885 63.3664 55.5025 63.4931 54.0549 63.4931ZM49.6268 62.0934C55.8584 63.1611 61.6177 61.9429 62.5793 59.3147C63.3595 57.1793 61.9086 55.9611 61.255 55.5367C58.2812 58.0725 51.5363 58.2744 49.5857 58.2778L49.6268 62.0934Z" fill="#371A45"/>
<path d="M28.2528 76.5383C28.1844 76.5383 28.1194 76.5212 28.0578 76.4835C27.8764 76.374 27.8216 76.1413 27.9277 75.9599C29.5121 73.3386 29.8304 70.5531 28.8688 67.6785C28.1433 65.5123 26.9285 64.1059 26.9148 64.0922C26.7779 63.9348 26.7916 63.6952 26.949 63.5549C27.1064 63.418 27.346 63.4317 27.4863 63.5891C27.541 63.6507 28.8038 65.1051 29.5806 67.4082C30.2992 69.5435 30.7099 72.8253 28.5779 76.3535C28.5061 76.4733 28.3794 76.5383 28.2528 76.5383Z" fill="#371A45"/>
<path d="M21.737 58.9968C21.8122 59.5375 22.0347 60.0645 22.5446 60.3999C23.9784 61.3444 32.0408 62.46 36.6983 62.241C41.3523 62.022 50.8144 60.9372 52.2003 58.6375C53.5862 56.3379 52.2927 53.9698 51.9026 54.0143C51.5125 54.0588 50.544 55.1162 50.2258 56.4166C49.9075 57.717 49.6851 58.771 47.6763 58.5041C45.6676 58.2371 41.5508 57.5664 39.3743 59.1303C37.1979 60.6942 33.5021 60.3862 32.1948 59.4007C30.8876 58.4151 29.0055 57.9873 27.3663 58.7847C26.1754 59.363 23.3282 59.5923 22.2434 58.6204C21.8396 58.2577 21.6001 58.0113 21.737 58.9968Z" fill="#ED1100"/>
<g opacity="0.3">
<g opacity="0.3">
<path opacity="0.3" d="M22.5409 59.7671C23.9747 60.7151 32.0371 61.8272 36.6946 61.6117C41.3486 61.3926 50.8106 60.3078 52.1966 58.0082C52.3814 57.7036 52.5148 57.3956 52.6141 57.0945C52.6312 57.1116 52.6483 57.1287 52.662 57.1493C52.5422 56.9747 52.2513 56.9405 52.1145 57.1698C52.111 57.1766 52.1076 57.1835 52.1042 57.1869C50.7182 59.4865 41.2562 60.5748 36.6022 60.7904C31.9482 61.0059 23.8823 59.8938 22.4485 58.9493C22.3869 58.9082 22.3287 58.8637 22.2774 58.8192C22.1371 58.6995 21.9557 58.7303 21.8462 58.8398C21.9694 59.2025 22.185 59.5344 22.5409 59.7671Z" fill="#371A45"/>
</g>
</g>
<path d="M52.4879 48.2719C52.5187 48.7613 52.4468 49.2438 52.286 49.7126C51.0677 53.2476 44.6376 56.1564 36.7224 56.6629C29.4505 57.1283 23.1641 55.4241 20.9021 52.5427C20.3751 51.872 20.0671 51.1362 20.0158 50.3491C19.7489 46.1913 26.6512 39.9939 35.617 39.419C44.5863 38.8475 52.2244 44.1141 52.4879 48.2719Z" fill="#FF900B"/>
<g opacity="0.3">
<g opacity="0.3">
<path opacity="0.3" d="M42.913 43.4539C40.2711 43.0535 39.4396 43.9707 39.8229 45.3395C40.0042 45.9931 41.5647 46.2429 42.7522 46.7802C44.0046 47.3482 45.2092 49.0798 46.3453 48.5631C48.4773 47.5912 46.8039 44.0459 42.913 43.4539Z" fill="white"/>
</g>
</g>
<g opacity="0.3">
<g opacity="0.3">
<path opacity="0.3" d="M52.4911 47.0739C52.515 47.5393 52.4397 48.0013 52.2857 48.4496C51.0675 51.9846 44.6374 54.8934 36.7221 55.3998C29.4502 55.8652 23.1639 54.161 20.9019 51.2797C20.3749 50.6055 20.0635 49.8732 20.0156 49.0861C19.9471 48.0424 20.3338 46.872 21.0901 45.6914C21.0764 45.8625 21.0764 46.0302 21.0867 46.1945C21.138 46.9781 21.446 47.7139 21.973 48.388C24.235 51.266 30.5248 52.9736 37.7933 52.5048C44.5416 52.077 50.212 49.8971 52.4911 47.0739Z" fill="#371A45"/>
</g>
</g>
<g opacity="0.5">
<g opacity="0.5">
<path opacity="0.5" d="M52.4877 48.2719C52.5185 48.7579 52.4466 49.2438 52.2858 49.7126C52.2242 49.8906 52.1523 50.0685 52.0634 50.2396C52.0736 50.0993 52.0736 49.9556 52.0634 49.8119C51.7964 45.654 44.1584 40.3875 35.1925 40.9624C27.7255 41.4415 21.6924 45.8183 20.0361 49.6716C20.4913 45.5514 27.1301 39.9666 35.6203 39.4225C44.5861 38.8475 52.2208 44.1141 52.4877 48.2719Z" fill="white"/>
</g>
</g>
<path d="M34.3955 57.2446C28.0578 57.2446 22.6406 55.5746 20.5053 52.8575C19.903 52.0909 19.5676 51.256 19.5129 50.3833C19.3691 48.1213 21.0631 45.411 24.0505 43.1388C27.2741 40.6852 31.3738 39.1863 35.5898 38.9159C39.8058 38.6456 44.0628 39.6106 47.5739 41.6331C50.8249 43.505 52.8541 45.9757 52.9979 48.2377C53.0321 48.7852 52.9568 49.3362 52.7686 49.8769C51.4682 53.648 44.8841 56.6457 36.7601 57.1693C35.9594 57.2206 35.1689 57.2446 34.3955 57.2446ZM37.0099 39.8844C36.5616 39.8844 36.1099 39.8981 35.6548 39.9289C31.6339 40.1855 27.7327 41.6125 24.6665 43.9464C21.9904 45.9825 20.406 48.4225 20.5258 50.3183C20.5669 50.9822 20.8304 51.6255 21.306 52.2313C23.503 55.0305 29.6867 56.6047 36.6951 56.1564C44.3024 55.6704 50.6572 52.8883 51.8104 49.5449C51.9541 49.1308 52.0123 48.7134 51.9849 48.3027C51.7591 44.7985 45.3358 39.8844 37.0099 39.8844Z" fill="#371A45"/>
<path d="M53.8191 53.1924L50.705 54.9856C50.3525 55.1909 50.1267 55.5365 50.1027 55.9164L50.0137 57.3091C49.9693 57.9628 49.3601 58.459 48.6552 58.4179L42.7863 58.0586C41.5441 57.9833 40.319 58.3666 39.3745 59.1263L38.8954 59.513C38.3 59.992 37.5848 60.2966 36.8388 60.4129C36.0243 60.543 35.1756 60.4472 34.4022 60.1152C33.5193 59.7388 32.5201 59.3247 31.6954 58.9894C30.5592 58.5274 29.2896 58.4042 28.068 58.6472C27.6368 58.7327 27.1611 58.8251 26.6786 58.9209C25.7889 59.0955 24.8717 59.2734 24.1634 59.4103C23.4379 59.5506 22.7466 59.0886 22.6611 58.4076L22.5345 57.381C22.4797 56.9327 22.1478 56.5529 21.6824 56.4126L19.6839 55.8034C18.7462 55.516 18.5204 54.3867 19.2869 53.7981L20.9056 52.5456C23.1676 55.4236 29.4539 57.1312 36.7258 56.6658C44.6377 56.1593 51.0677 53.2506 52.2894 49.7156L54.0655 51.3787C54.6301 51.9057 54.5104 52.792 53.8191 53.1924Z" fill="#8CCC1D"/>
<g opacity="0.35">
<g opacity="0.35">
<path opacity="0.35" d="M18.9206 54.2603C19.0506 54.558 19.3072 54.8078 19.6837 54.9207L21.6822 55.5299C22.1441 55.6702 22.4761 56.0466 22.5343 56.4983L22.6609 57.5249C22.743 58.2025 23.4343 58.6679 24.1632 58.5276C24.8715 58.3907 25.7887 58.2128 26.6784 58.0382C27.1575 57.9458 27.6332 57.85 28.0678 57.7679C29.2894 57.5283 30.5556 57.6481 31.6952 58.1101C32.5199 58.4455 33.5191 58.8595 34.402 59.236C35.1754 59.5679 36.0241 59.6637 36.8385 59.5337C37.5846 59.4173 38.2998 59.1128 38.8952 58.6337L39.3777 58.2504C40.3188 57.4907 41.5473 57.1074 42.7895 57.1827L48.6618 57.542C49.3633 57.5865 49.9759 57.0835 50.0204 56.4333L50.1094 55.0405C50.1333 54.6572 50.3592 54.3116 50.7116 54.1063L53.8223 52.3131C54.0653 52.1728 54.233 51.9743 54.3322 51.7519C54.387 51.8751 54.4177 52.0085 54.4246 52.1386C54.4109 51.8648 54.2946 51.5911 54.0653 51.3755L53.0079 50.3831L53.1208 50.4891C53.1139 50.5063 53.1071 50.5234 53.1002 50.5405C53.333 51.0161 53.1618 51.6116 52.6451 51.9093L49.7671 53.569C49.442 53.7572 49.2333 54.0789 49.2094 54.4314L49.1272 55.7181C49.0896 56.3204 48.5215 56.7823 47.8747 56.7413L42.4473 56.4128C41.3009 56.3409 40.1648 56.6968 39.2922 57.3983L38.8473 57.7542C38.2963 58.1991 37.6359 58.4797 36.9446 58.5858H36.9412C36.1883 58.7055 35.4047 58.6166 34.6895 58.3086C33.8716 57.9595 32.9511 57.5797 32.1879 57.2648C31.1339 56.8371 29.9636 56.7242 28.8343 56.9466C28.4373 57.0253 27.9959 57.1109 27.551 57.1998C26.7263 57.3607 25.8811 57.5283 25.224 57.655C24.5533 57.785 23.9134 57.3572 23.8381 56.7276L23.7149 55.7797C23.6636 55.3656 23.359 55.0165 22.9278 54.8831L21.0799 54.3219C20.44 54.1268 20.1593 53.5108 20.3407 52.977L19.2833 53.7949C18.9308 54.0686 18.7905 54.4588 18.835 54.8249C18.811 54.6367 18.8384 54.4416 18.9206 54.2603Z" fill="#371A45"/>
</g>
</g>
<path d="M36.1302 60.9785C35.4663 60.9785 34.8093 60.845 34.1967 60.5849C33.1359 60.1332 32.0511 59.6849 31.4967 59.4625C30.4427 59.0347 29.2895 58.9252 28.1602 59.1477C27.729 59.2332 27.2499 59.3256 26.7708 59.4214L26.4457 59.4865C25.6587 59.6405 24.8784 59.7944 24.2522 59.9142C23.7491 60.01 23.229 59.8971 22.8218 59.6028C22.4419 59.3256 22.2058 58.9252 22.151 58.4769L22.0244 57.4503C21.9936 57.2039 21.7985 56.9883 21.5282 56.9062L19.5297 56.2971C18.9069 56.1054 18.4483 55.6092 18.3388 54.9967C18.2293 54.391 18.4654 53.7955 18.9719 53.402L20.9875 51.8415L21.2989 52.2385C23.4959 55.0343 29.6796 56.6119 36.688 56.1636C44.2953 55.6777 50.6501 52.8955 51.8033 49.5522L52.06 48.813L54.4075 51.01C54.7908 51.3693 54.9756 51.8655 54.9174 52.3754C54.8558 52.9024 54.5478 53.3609 54.0722 53.6381L50.9581 55.4313C50.7527 55.5511 50.6227 55.7461 50.609 55.9583L50.52 57.3511C50.4584 58.2853 49.6098 58.9937 48.6242 58.9321L42.7554 58.5728C41.6466 58.5043 40.531 58.8534 39.6926 59.5275L39.2101 59.9142C38.553 60.4412 37.7591 60.7903 36.9139 60.9203L36.8933 60.9237C36.6401 60.958 36.3834 60.9785 36.1302 60.9785ZM29.31 58.015C30.1895 58.015 31.0587 58.1826 31.88 58.518C32.4344 58.7439 33.5294 59.1922 34.5971 59.6473C35.2713 59.9382 36.0173 60.0271 36.7565 59.9108L36.777 59.9074C37.4409 59.8013 38.0637 59.5275 38.577 59.1169L39.0595 58.7302C40.1067 57.8849 41.4413 57.4674 42.8204 57.553L48.6892 57.9123C49.1067 57.9397 49.4832 57.6488 49.5105 57.2758L49.5995 55.883C49.6337 55.3355 49.9554 54.8324 50.4516 54.545L53.5657 52.7518C53.7642 52.6389 53.8908 52.4541 53.9113 52.2522C53.9319 52.064 53.8634 51.8826 53.7163 51.7423L52.4638 50.5685C50.6398 54.0111 44.3774 56.6769 36.7565 57.1663C29.7412 57.6146 23.4583 56.0473 20.8335 53.2377L19.5947 54.1959C19.3928 54.3533 19.3004 54.5758 19.3415 54.805C19.386 55.0446 19.5674 55.2362 19.8309 55.3184L21.8293 55.9275C22.483 56.126 22.9552 56.6735 23.0373 57.3203L23.164 58.3469C23.1845 58.5146 23.2769 58.6686 23.4275 58.7747C23.6054 58.9047 23.8381 58.9526 24.0674 58.9115C24.6902 58.7918 25.4739 58.6378 26.2575 58.4838L26.5826 58.4188C27.0617 58.3264 27.5374 58.2306 27.972 58.1484C28.4134 58.0594 28.8617 58.015 29.31 58.015Z" fill="#371A45"/>
<path d="M52.7342 58.3673C52.4707 58.3673 52.2482 58.1654 52.2277 57.8984L52.2209 57.7924L52.2551 57.6931C52.2688 57.6589 52.2756 57.6247 52.279 57.587C52.3304 57.2038 52.3577 55.325 51.8718 54.2847C51.752 54.0315 51.8615 53.7304 52.1148 53.6106C52.368 53.4908 52.6692 53.6003 52.7889 53.8536C53.4289 55.2224 53.3262 57.3783 53.2817 57.7205C53.268 57.8197 53.2441 57.919 53.2133 58.0114C53.1517 58.203 52.9806 58.3502 52.7684 58.3673C52.7616 58.3638 52.7479 58.3673 52.7342 58.3673Z" fill="#371A45"/>
<path d="M53.0662 62.6513C52.2996 64.6087 46.3144 66.8912 37.684 67.4422C29.0535 67.9965 23.1504 67.1616 21.8158 64.6532C21.2203 63.5376 20.8713 60.8102 21.85 59.2258C21.8808 59.39 21.915 59.5235 21.9492 59.6262C22.3325 60.7657 24.663 61.6897 28.2116 62.1619L28.8618 63.5376L31.6303 62.4528C33.4543 62.5315 35.4664 62.5144 37.6087 62.3775C38.4642 62.3227 39.2957 62.2509 40.1034 62.1653L49.2027 63.1851L51.2354 59.3353C52.0498 58.8562 52.5734 58.3566 52.7377 57.8535C53.7745 59.8623 53.4118 61.7684 53.0662 62.6513Z" fill="#FF900B"/>
<g opacity="0.3">
<g opacity="0.3">
<path opacity="0.3" d="M21.8156 63.6436C23.1536 66.152 29.0533 66.987 37.6838 66.4326C46.3143 65.8782 52.2995 63.5991 53.066 61.6417C53.2029 61.2858 53.3466 60.7656 53.398 60.1394C53.4082 60.2694 53.4151 60.3995 53.4185 60.5261C53.4082 60.0299 53.3398 59.4892 53.1687 58.9246C53.1002 59.3455 52.9976 59.7014 52.8915 59.9649C52.5869 60.7451 51.4542 61.5767 49.6542 62.3295L49.4968 62.6238C49.3154 62.966 48.9458 63.1611 48.5626 63.1166L47.7242 63.0242C45.096 63.8455 41.5986 64.4957 37.5093 64.7592C28.8788 65.3136 22.9757 64.4786 21.6411 61.9702C21.5042 61.7136 21.381 61.3748 21.2852 60.9812C21.2715 61.0976 21.2612 61.2139 21.2544 61.3303C21.316 62.2645 21.5384 63.1269 21.8156 63.6436Z" fill="#371A45"/>
</g>
</g>
<path d="M32.8655 68.1196C26.3704 68.1196 22.5068 67.0382 21.3673 64.8926C20.6692 63.5785 20.3509 60.6868 21.4186 58.9621L22.1065 57.8499L22.3494 59.1332C22.3836 59.3043 22.4144 59.4138 22.4316 59.4652C22.6608 60.1496 24.3308 61.1351 28.2799 61.6621L28.5536 61.6998L28.913 62.4629C29.0293 62.7059 29.3133 62.8188 29.5632 62.723L31.5411 61.9496L31.6472 61.953C33.5157 62.0351 35.5107 62.0078 37.5708 61.8777C38.4161 61.823 39.2476 61.7545 40.0416 61.669L40.1031 61.6655L40.1511 61.6724L48.4427 62.6032C48.7268 62.634 48.9937 62.4937 49.1272 62.2405L50.8485 58.9826L50.9717 58.9108C51.9196 58.353 52.1796 57.9184 52.2481 57.7096L52.6245 56.5632L53.1789 57.6343C54.185 59.5712 54.0207 61.5971 53.5314 62.8462C52.58 65.2827 45.9241 67.4317 37.7111 67.9587C35.9624 68.0614 34.3472 68.1196 32.8655 68.1196ZM21.8874 60.4747C21.5555 61.8469 21.8224 63.5853 22.2639 64.4135C22.8354 65.488 25.0118 67.0998 32.8791 67.0998C34.2822 67.0998 35.8632 67.0485 37.6529 66.9355C46.8857 66.3435 52.0257 63.9173 52.5937 62.4663C52.7169 62.1549 53.22 60.68 52.6348 58.9176C52.3713 59.1845 52.0325 59.448 51.6184 59.7013L50.0306 62.7059C49.7021 63.3287 49.0348 63.6811 48.3367 63.6024L40.0997 62.6785C39.3058 62.7606 38.4777 62.8325 37.6393 62.8838C35.5826 63.0173 33.5875 63.0446 31.7122 62.9659L29.9327 63.664C29.1867 63.9549 28.3381 63.6161 27.9958 62.8941L27.8692 62.6306C25.9323 62.3534 23.0407 61.7408 21.8874 60.4747Z" fill="#371A45"/>
<path d="M36.5441 60.4507C36.5886 60.4473 36.6022 60.5055 36.5612 60.5226L31.63 62.456L29.6383 63.2363C29.2037 63.4074 28.7075 63.2123 28.509 62.788L28.2147 62.1652L26.6782 58.921C27.1607 58.8286 27.6364 58.7328 28.0676 58.6473C29.2893 58.4077 30.5554 58.5275 31.695 58.9895C32.5231 59.3283 33.5189 59.7389 34.4018 60.1153C35.0794 60.4096 35.8186 60.5157 36.5441 60.4507Z" fill="#FFB600"/>
<g opacity="0.35">
<g opacity="0.35">
<path opacity="0.35" d="M28.5677 60.0333C29.7894 59.7937 31.0556 59.9135 32.1951 60.3755C32.8966 60.6629 33.7214 61.0017 34.4947 61.3302L36.5583 60.5226C36.5993 60.5055 36.5856 60.4473 36.5411 60.4508C35.8191 60.5158 35.0799 60.4097 34.3955 60.1154C33.5126 59.739 32.5134 59.3249 31.6886 58.9895C30.5525 58.5276 29.2829 58.4044 28.0612 58.6473C27.6301 58.7329 27.1544 58.8253 26.6719 58.9211L27.3152 60.2831C27.7533 60.1941 28.1776 60.112 28.5677 60.0333Z" fill="#371A45"/>
</g>
</g>
<g opacity="0.5">
<g opacity="0.5">
<path opacity="0.5" d="M36.5441 60.4512C35.8733 60.5128 35.1889 60.4204 34.549 60.174L31.6265 61.317L29.6349 62.0972C29.2003 62.2683 28.7041 62.0732 28.5056 61.6489L28.2113 61.0261L27.1676 58.8223C27.0033 58.8531 26.8425 58.8873 26.6748 58.9181L28.2113 62.1622L28.5056 62.785C28.7041 63.2094 29.2003 63.4044 29.6349 63.2333L31.6265 62.4531L36.5578 60.5196C36.5988 60.5059 36.5851 60.4477 36.5441 60.4512Z" fill="white"/>
</g>
</g>
<path d="M51.235 59.3389L49.5343 62.559C49.3324 62.9389 48.9217 63.1579 48.494 63.11L40.0996 62.1689C45.1129 61.6419 49.1442 60.564 51.235 59.3389Z" fill="#FFB600"/>
<path d="M29.4608 63.722C28.8243 63.722 28.2151 63.3593 27.9277 62.7536L25.936 58.5444L26.576 58.4212C27.0551 58.3288 27.5307 58.233 27.9619 58.1509C29.2862 57.8908 30.6414 58.0174 31.8768 58.5205C32.4311 58.7463 33.5262 59.1946 34.5939 59.6497C35.1859 59.903 35.8429 60.0056 36.4931 59.9475C36.7669 59.9235 37.0099 60.098 37.0715 60.365C37.1331 60.6319 36.9962 60.8988 36.7395 60.998L30.0699 63.6125C29.8748 63.6844 29.6661 63.722 29.4608 63.722ZM27.4109 59.2904L28.8448 62.3224C28.9954 62.6441 29.3718 62.7912 29.7037 62.6646L34.6144 60.7414C34.4741 60.6969 34.3338 60.6421 34.1969 60.584C33.1361 60.1322 32.0513 59.684 31.4969 59.4615C30.4429 59.0338 29.2897 58.9243 28.1604 59.1467C27.9243 59.1912 27.671 59.2391 27.4109 59.2904Z" fill="#371A45"/>
<path d="M48.6961 63.6335C48.6448 63.6335 48.5901 63.63 48.5353 63.6232L35.3979 62.1517L40.0451 61.6624C44.7915 61.1627 48.8775 60.1327 50.9752 58.9007L52.5152 57.9973L49.9349 62.884C49.6885 63.3494 49.2129 63.6335 48.6961 63.6335ZM44.1345 62.1106L48.6517 62.6171C48.8125 62.6342 48.9665 62.5555 49.0418 62.4118L50.0615 60.4817C48.5079 61.1251 46.4821 61.6829 44.1345 62.1106Z" fill="#371A45"/>
<g opacity="0.35">
<g opacity="0.35">
<path opacity="0.35" d="M27.1563 47.0533C27.5921 47.0253 27.9381 46.891 27.9293 46.7534C27.9204 46.6157 27.5601 46.5267 27.1244 46.5546C26.6887 46.5826 26.3426 46.7168 26.3514 46.8545C26.3603 46.9922 26.7206 47.0812 27.1563 47.0533Z" fill="#371A45"/>
</g>
</g>
<g opacity="0.35">
<g opacity="0.35">
<path opacity="0.35" d="M29.8678 44.5486C29.8781 44.6855 29.5325 44.819 29.0945 44.8464C28.6598 44.8738 28.3005 44.7848 28.2903 44.6479C28.28 44.511 28.6256 44.3775 29.0637 44.3502C29.4983 44.3228 29.8576 44.4118 29.8678 44.5486Z" fill="#371A45"/>
</g>
</g>
<g opacity="0.35">
<g opacity="0.35">
<path opacity="0.35" d="M31.9542 47.7757C32.3899 47.7477 32.736 47.6135 32.7271 47.4758C32.7183 47.3381 32.3579 47.2491 31.9222 47.277C31.4865 47.305 31.1405 47.4393 31.1493 47.577C31.1581 47.7146 31.5185 47.8036 31.9542 47.7757Z" fill="#371A45"/>
</g>
</g>
<g opacity="0.35">
<g opacity="0.35">
<path opacity="0.35" d="M35.0719 42.6787C35.5076 42.6508 35.8536 42.5165 35.8448 42.3788C35.836 42.2411 35.4756 42.1522 35.0399 42.1801C34.6042 42.2081 34.2581 42.3423 34.267 42.48C34.2758 42.6177 34.6362 42.7067 35.0719 42.6787Z" fill="#371A45"/>
</g>
</g>
<g opacity="0.35">
<g opacity="0.35">
<path opacity="0.35" d="M34.9528 44.9112C34.9631 45.0481 34.6174 45.1815 34.1794 45.2089C33.7448 45.2363 33.3855 45.1473 33.3752 45.0104C33.365 44.8735 33.7106 44.7401 34.1486 44.7127C34.5832 44.6853 34.946 44.7743 34.9528 44.9112Z" fill="#371A45"/>
</g>
</g>
<g opacity="0.35">
<g opacity="0.35">
<path opacity="0.35" d="M40.7023 47.4644C40.7126 47.6013 40.367 47.7348 39.9289 47.7621C39.4909 47.7895 39.135 47.7005 39.1247 47.5637C39.1145 47.4268 39.4601 47.2933 39.8981 47.2659C40.3327 47.2386 40.6955 47.3275 40.7023 47.4644Z" fill="#371A45"/>
</g>
</g>
<g opacity="0.35">
<g opacity="0.35">
<path opacity="0.35" d="M40.0758 44.7195C40.0861 44.8564 39.7405 44.9899 39.3025 45.0173C38.8679 45.0446 38.5085 44.9557 38.4983 44.8188C38.488 44.6819 38.8336 44.5484 39.2717 44.5211C39.7097 44.4937 40.0656 44.5827 40.0758 44.7195Z" fill="#371A45"/>
</g>
</g>
<g opacity="0.35">
<g opacity="0.35">
<path opacity="0.35" d="M41.9509 42.2391C41.9611 42.376 41.6155 42.5094 41.1775 42.5368C40.7394 42.5642 40.3835 42.4752 40.3733 42.3383C40.363 42.2014 40.7086 42.068 41.1467 42.0406C41.5813 42.0132 41.9406 42.1022 41.9509 42.2391Z" fill="#371A45"/>
</g>
</g>
<g opacity="0.35">
<g opacity="0.35">
<path opacity="0.35" d="M44.3082 44.8101C44.7439 44.7822 45.09 44.6479 45.0811 44.5102C45.0723 44.3725 44.7119 44.2835 44.2762 44.3115C43.8405 44.3394 43.4945 44.4737 43.5033 44.6114C43.5121 44.7491 43.8725 44.8381 44.3082 44.8101Z" fill="#371A45"/>
</g>
</g>
<g opacity="0.35">
<g opacity="0.35">
<path opacity="0.35" d="M47.0567 47.1851C47.4924 47.1572 47.8385 47.0229 47.8297 46.8852C47.8208 46.7475 47.4605 46.6585 47.0248 46.6865C46.5891 46.7144 46.243 46.8487 46.2518 46.9864C46.2607 47.1241 46.621 47.213 47.0567 47.1851Z" fill="#371A45"/>
</g>
</g>
<path d="M22.0006 45.7429C22.0006 45.7429 20.8097 47.803 23.3386 49.4935C26.877 51.8547 26.812 58.5312 23.4823 58.7502C21.4051 58.8871 19.0952 58.5278 17.9728 55.3795C17.0146 52.6897 17.8941 47.5224 22.0006 45.7429Z" fill="white"/>
<g opacity="0.35">
<g opacity="0.35">
<path opacity="0.35" d="M23.4821 58.7471C21.4049 58.884 19.095 58.5247 17.9726 55.3764C17.6817 54.5585 17.5619 53.5079 17.6509 52.3923C17.6988 52.5977 17.7536 52.7927 17.822 52.9741C18.9444 56.1224 21.2543 56.4817 23.3315 56.3448C24.7791 56.249 25.6072 54.9384 25.7954 53.2889C26.3909 55.876 25.5901 58.6068 23.4821 58.7471Z" fill="#371A45"/>
</g>
</g>
<path d="M22.7844 59.2773C20.9091 59.2773 18.6197 58.7127 17.4939 55.5472C16.4125 52.5084 17.5247 47.1324 21.7954 45.2776L23.2053 44.665L22.4388 45.9928C22.3395 46.1707 21.573 47.7038 23.6194 49.0692C26.1106 50.7324 26.9285 54.216 26.2852 56.6286C25.8608 58.2096 24.8513 59.1678 23.5167 59.2533C23.2806 59.267 23.0376 59.2773 22.7844 59.2773ZM21.2239 46.7457C18.3528 48.6962 17.6102 52.8506 18.452 55.2085C19.4821 58.1035 21.5559 58.367 23.4517 58.2438C24.6494 58.1651 25.1285 57.0358 25.3065 56.3685C25.8471 54.3495 25.1422 51.3073 23.0582 49.9179C21.4703 48.8571 21.1692 47.6354 21.2239 46.7457Z" fill="#371A45"/>
<path d="M53.9936 44.5452C53.4084 47.3718 51.9985 51.3551 43.5665 52.0395C35.138 52.7239 36.7532 60.3038 40.2026 61.4263C43.1114 62.3708 54.1955 62.7848 56.1974 55.1194" fill="white"/>
<g opacity="0.35">
<g opacity="0.35">
<path opacity="0.35" d="M56.2009 55.1232C54.199 62.7887 43.1114 62.3746 40.2061 61.4301C38.3137 60.8142 36.9722 58.2579 37.5403 55.9617C37.6635 57.7446 38.3685 58.6754 39.9221 59.3084C43.0019 60.5678 51.3313 59.8491 54.8526 54.8461C55.229 54.3088 56.0674 54.4765 56.2009 55.1232Z" fill="#371A45"/>
</g>
</g>
<path d="M54.1578 44.58C54.216 45.6032 53.9867 46.6401 53.511 47.5812C53.2783 48.0534 52.984 48.5017 52.6418 48.9055C52.2996 49.3093 51.9095 49.6721 51.4886 49.9903C50.6502 50.6268 49.7262 51.1162 48.768 51.4789C47.8064 51.8382 46.8209 52.0915 45.825 52.266C45.5752 52.3037 45.3288 52.3481 45.079 52.3824C44.8292 52.4132 44.5794 52.4474 44.3296 52.4748L43.5802 52.5466L42.8752 52.6253C41.941 52.7554 41.0341 53.0086 40.2299 53.4295L40.0794 53.5048L39.9356 53.5938C39.8398 53.6554 39.744 53.7101 39.6516 53.7751L39.3881 53.977C39.3436 54.0078 39.3026 54.0455 39.2615 54.0831L39.1417 54.1961C38.8235 54.5006 38.5497 54.8428 38.3478 55.2295C37.9474 55.9995 37.8311 56.9098 37.9782 57.7824C38.1254 58.655 38.5257 59.5003 39.1246 60.1299C39.4258 60.4448 39.7748 60.698 40.1547 60.8588C40.3394 60.9341 40.555 61.0026 40.7809 61.0539L40.9486 61.095L41.1197 61.1292C41.2326 61.1531 41.349 61.1737 41.4687 61.1942C41.9341 61.2729 42.4098 61.3277 42.8889 61.3619C43.368 61.3995 43.8471 61.4132 44.3296 61.4166C45.2912 61.4166 46.2528 61.355 47.2007 61.2216C48.1486 61.0847 49.0863 60.8725 49.9829 60.5714C50.8794 60.2668 51.7486 59.8801 52.5255 59.36L52.8129 59.1615L52.9566 59.0623L53.0935 58.9528C53.2749 58.8056 53.4597 58.6653 53.6205 58.501L53.8703 58.2615L54.0962 57.998C54.2536 57.8269 54.3768 57.6353 54.5137 57.4505L54.6163 57.3136L54.7087 57.1698C54.7703 57.074 54.8319 56.9782 54.897 56.8824C55.0236 56.6908 55.1297 56.4889 55.2597 56.2938C55.376 56.0919 55.489 55.89 55.6293 55.6915C55.7491 55.4862 55.8757 55.2774 56.0434 55.0721L56.0536 55.0584C56.1152 54.9831 56.2281 54.9695 56.3068 55.0345C56.3445 55.0653 56.3684 55.1132 56.3719 55.1577C56.3958 55.4246 56.3787 55.6847 56.3513 55.9482C56.3 56.2048 56.2418 56.4615 56.1563 56.7113C56.1084 56.8345 56.0536 56.9543 56.0023 57.074C55.9475 57.1938 55.8996 57.317 55.8278 57.4299C55.7627 57.5429 55.6943 57.6558 55.6224 57.7687L55.5163 57.9364L55.3932 58.0938C55.2289 58.3026 55.0681 58.5079 54.8798 58.6927L54.6095 58.9801L54.322 59.247C53.9422 59.6098 53.5247 59.9212 53.0969 60.2121C52.2312 60.787 51.2867 61.2113 50.3182 61.5364C49.3498 61.8615 48.3574 62.0839 47.3547 62.2277C46.352 62.368 45.3459 62.433 44.3364 62.433C43.8334 62.4296 43.3269 62.4159 42.8239 62.3748C42.3208 62.3372 41.8144 62.2824 41.3113 62.1969C41.1847 62.1763 41.0581 62.1524 40.9315 62.1284L40.7432 62.0908L40.5516 62.0463C40.2984 61.9881 40.0417 61.9128 39.7714 61.7999C39.241 61.5775 38.7824 61.2353 38.4026 60.8383C37.6429 60.0375 37.1706 59.0246 36.9858 57.9569C36.8044 56.8927 36.9447 55.7497 37.4546 54.7675C37.7079 54.2782 38.0535 53.8402 38.4505 53.4672L38.601 53.3269C38.6489 53.2789 38.7003 53.2345 38.755 53.1968L39.0767 52.9504C39.1862 52.8717 39.3026 52.8067 39.4155 52.7348L39.5866 52.6287L39.7645 52.5364C40.709 52.0436 41.7288 51.7698 42.7417 51.6261L43.5049 51.5405L44.2269 51.4721C44.4665 51.4447 44.706 51.4139 44.9456 51.3831C45.1851 51.3489 45.4212 51.3078 45.6573 51.2702C46.6018 51.1059 47.5292 50.8664 48.4155 50.5344C49.2984 50.1991 50.1368 49.761 50.8452 49.1725C51.557 48.5873 52.1285 47.8755 52.5905 47.085C52.8198 46.688 53.0148 46.2671 53.2167 45.8393L53.5144 45.1823C53.6171 44.9599 53.7163 44.734 53.8361 44.5116L53.8395 44.5082C53.884 44.4226 53.9901 44.3918 54.0757 44.4363C54.1236 44.4671 54.1544 44.5218 54.1578 44.58Z" fill="#371A45"/>
<path d="M56.3138 65.3961C56.3138 65.3961 53.8533 61.6318 50.3183 62.7645C45.5411 64.2942 46.1126 70.1117 46.1126 70.1117L46.7799 76.7814C46.7799 76.7814 52.4161 78.7833 56.1975 77.8798C60.7283 76.795 64.8553 73.6057 63.661 63.3702" fill="white"/>
<path d="M53.9558 78.6224C50.4961 78.6224 46.8037 77.3288 46.612 77.2604L46.3075 77.1543L45.6059 70.1664C45.5923 70.0398 45.3219 67.0832 46.8961 64.7219C47.0501 64.4892 47.3649 64.4242 47.601 64.5816C47.8337 64.7356 47.8987 65.0504 47.7413 65.2866C46.3725 67.3432 46.612 70.0432 46.6155 70.0706L47.252 76.4117C48.4531 76.7984 52.9737 78.1365 56.0775 77.3939C59.7117 76.5247 64.4 74.1326 63.1578 63.4352C63.127 63.158 63.3254 62.9048 63.6026 62.874C63.8798 62.8432 64.1331 63.0417 64.1639 63.3189C65.1699 71.9493 62.6 76.8771 56.3136 78.3828C55.5779 78.5505 54.7737 78.6224 53.9558 78.6224Z" fill="#371A45"/>
<path d="M56.2553 65.4372C55.6906 64.7973 55.037 64.2361 54.332 63.8049C53.983 63.5859 53.61 63.4113 53.2336 63.2779C52.8571 63.1444 52.4704 63.0691 52.0837 63.0383C51.7005 63.0144 51.3172 63.052 50.9442 63.1376C50.756 63.1821 50.578 63.2368 50.3932 63.3087C50.2084 63.3771 50.0271 63.4524 49.8491 63.538C49.1408 63.8733 48.5248 64.349 47.9978 64.9307L47.9944 64.9342C47.8061 65.1429 47.4845 65.1566 47.2757 64.9684C47.0841 64.7939 47.0567 64.5064 47.2004 64.3011C47.7411 63.5277 48.5282 62.9151 49.3906 62.5387C49.6062 62.4463 49.8252 62.3608 50.051 62.2923C50.2735 62.2205 50.513 62.1657 50.7491 62.1281C50.9887 62.0904 51.2282 62.0699 51.4712 62.0767C51.7142 62.0767 51.9537 62.1007 52.1898 62.1349C52.6621 62.2136 53.1138 62.3676 53.5313 62.5695C53.9488 62.7748 54.332 63.0315 54.6811 63.319C54.8556 63.4627 55.0199 63.6167 55.1773 63.7741C55.3347 63.9315 55.4853 64.0958 55.6256 64.2703C55.9062 64.6125 56.1629 64.9718 56.3716 65.3653C56.3921 65.3996 56.3784 65.444 56.3408 65.4646C56.3134 65.4714 56.2792 65.4646 56.2553 65.4372Z" fill="#371A45"/>
<path d="M52.9019 76.7095C52.9019 76.7095 47.7482 79.3514 46.0817 79.1358C44.4151 78.9202 45.3356 61.5121 45.3356 61.5121C45.3356 61.5121 48.9733 60.3794 50.4653 64.2155C51.0847 65.8068 50.4619 67.7642 50.7973 69.4103" fill="white"/>
<g opacity="0.35">
<g opacity="0.35">
<path opacity="0.35" d="M56.2008 77.8799C54.4932 78.2871 52.4126 78.1057 50.6365 77.7806C48.4806 77.3871 46.7833 76.7848 46.7833 76.7848L46.7217 76.1723C47.8099 75.9738 48.1179 71.573 49.473 72.2027C49.9179 72.408 50.7529 75.0567 52.0807 74.2901C52.8404 73.8521 54.0039 71.6791 54.9381 71.8057C56.7176 72.0487 56.2727 74.6837 58.4491 73.9821C62.3264 72.7331 63.5617 70.5087 63.6165 63.0349C63.6302 63.1478 63.6439 63.2608 63.6575 63.3703C64.8553 73.6057 60.7282 76.7951 56.2008 77.8799Z" fill="#371A45"/>
</g>
</g>
<path d="M52.9397 76.7846C52.0569 77.3698 51.1363 77.8865 50.1884 78.3587C49.7127 78.5949 49.2302 78.8139 48.734 79.0158C48.2378 79.2211 47.7279 79.3956 47.1838 79.5325C46.91 79.5975 46.6294 79.6557 46.3043 79.6625C46.2222 79.666 46.1401 79.6625 46.0477 79.6523L46.0135 79.6489C45.9929 79.6454 45.9656 79.642 45.9416 79.6352C45.8903 79.6249 45.8458 79.6078 45.8013 79.5907C45.7568 79.5736 45.7226 79.5496 45.6815 79.5291C45.6507 79.5085 45.6165 79.4846 45.5891 79.4606C45.4796 79.3648 45.4112 79.2758 45.3564 79.1903C45.3051 79.1082 45.2606 79.026 45.2264 78.9508C45.0895 78.6462 45.0211 78.3724 44.9595 78.0952C44.8979 77.8215 44.8534 77.5511 44.8157 77.2842C44.672 76.2097 44.6173 75.1522 44.5899 74.0982C44.5625 73.0408 44.5625 71.9902 44.5625 70.9362L44.5967 67.7845C44.6378 65.6834 44.6788 63.5856 44.7747 61.4845L44.7918 61.0978L45.1648 60.9849C45.2093 60.9712 45.2366 60.9643 45.2674 60.9541L45.3598 60.9301C45.4214 60.9164 45.4796 60.9027 45.5378 60.8925C45.6576 60.8685 45.7739 60.8514 45.8937 60.8343C46.1298 60.8035 46.3694 60.7898 46.6089 60.7898C47.088 60.7932 47.5774 60.8548 48.0428 61.0054C48.5116 61.1491 48.9599 61.3818 49.3534 61.6795C49.7469 61.9773 50.0755 62.3503 50.3458 62.7472C50.6162 63.1442 50.8215 63.5788 50.9755 63.9997C51.126 64.4035 51.2698 64.8518 51.3416 65.3138C51.4203 65.7758 51.4101 66.2412 51.3895 66.6689C51.369 67.0967 51.3622 67.5176 51.3622 67.9556C51.3622 68.0035 51.3245 68.0412 51.2766 68.0412C51.2424 68.0412 51.2116 68.0206 51.1979 67.9898C51.0234 67.5826 50.9105 67.148 50.8249 66.7134C50.7394 66.2788 50.6743 65.8784 50.5409 65.5054C50.4177 65.1256 50.2603 64.7594 50.072 64.3727C49.9078 63.9929 49.723 63.6541 49.5006 63.3427C49.0523 62.7198 48.4363 62.2716 47.7245 62.0662C47.5466 62.0115 47.3618 61.9738 47.177 61.9499C46.9888 61.9225 46.8005 61.9088 46.6089 61.9088C46.4173 61.9088 46.2256 61.9225 46.034 61.9465C45.9382 61.9567 45.8458 61.9738 45.75 61.9909C45.7021 62.0012 45.6576 62.0081 45.6131 62.0183L45.5481 62.0354L45.4967 62.0491L45.8868 61.5461C45.7739 63.6301 45.6713 65.721 45.6268 67.8085L45.596 69.3758C45.5891 69.8994 45.5925 70.4195 45.5925 70.9431C45.596 71.9868 45.6199 73.0271 45.6678 74.0674C45.7192 75.1043 45.7773 76.1412 45.904 77.1473C45.9348 77.3971 45.9724 77.6469 46.0203 77.8831C46.0682 78.1192 46.1264 78.3553 46.1983 78.5333C46.2154 78.5777 46.2359 78.6154 46.2496 78.6428C46.2633 78.6701 46.277 78.6838 46.2667 78.6736C46.2633 78.6701 46.2564 78.6667 46.2496 78.6633C46.2393 78.6564 46.2325 78.653 46.2188 78.6462C46.2051 78.6393 46.1914 78.6359 46.1709 78.6325C46.164 78.6291 46.1503 78.6291 46.1469 78.6291L46.164 78.6325C46.2051 78.6393 46.2496 78.6428 46.3009 78.6428C46.5028 78.6462 46.7389 78.6154 46.9785 78.5743C47.4576 78.4888 47.9504 78.345 48.4397 78.2013C48.9291 78.0507 49.4219 77.8831 49.9112 77.7154C50.8933 77.3732 51.8721 77.0036 52.861 76.6443C52.9055 76.6272 52.9534 76.6511 52.9705 76.6956C52.9842 76.723 52.9705 76.764 52.9397 76.7846Z" fill="#371A45"/>
<path d="M49.1752 69.8137C48.8672 66.2171 50.3764 59.2258 43.8847 62.0079C40.0451 63.6539 39.874 69.995 41.4174 75.3506C42.8615 80.3537 47.9364 79.8746 49.2676 77.0206C50.3319 74.7312 49.4935 73.5369 49.1752 69.8137Z" fill="#AFAFB2"/>
<g opacity="0.7">
<g opacity="0.7">
<path opacity="0.7" d="M49.6989 75.7407C49.5859 74.6833 49.2917 73.4445 49.1308 71.5623C48.8228 67.9657 50.3285 60.9744 43.8369 63.7566C41.7426 64.6532 40.7399 66.9494 40.5106 69.7178C40.4216 66.1965 41.3627 63.0893 43.8813 62.0079C50.373 59.2258 48.8639 66.2171 49.1719 69.8137C49.4285 72.784 50.0137 74.146 49.6989 75.7407Z" fill="white"/>
</g>
</g>
<g opacity="0.35">
<g opacity="0.35">
<path opacity="0.35" d="M49.2641 77.0206C47.933 79.8746 42.858 80.3571 41.4139 75.3506C41.123 74.3411 40.8903 73.294 40.7363 72.2536C42.2763 76.9864 47.2006 76.4696 48.5079 73.667C48.8501 72.9312 49.1512 72.2981 49.3908 71.6582C49.7398 74.0194 50.1334 75.159 49.2641 77.0206Z" fill="#371A45"/>
</g>
</g>
<path d="M40.9758 66.0261C40.8013 66.0261 40.6438 65.9029 40.6062 65.7249C40.5651 65.5196 40.6952 65.3211 40.9005 65.2767L48.8705 63.617C49.0758 63.5725 49.2743 63.7059 49.3188 63.9113C49.3599 64.1166 49.2298 64.3151 49.0245 64.3595L41.0545 66.0192C41.0271 66.0227 41.0032 66.0261 40.9758 66.0261Z" fill="#371A45"/>
<path d="M40.5072 69.4244C40.3258 69.4244 40.1649 69.2944 40.1341 69.1096C40.0999 68.9043 40.2368 68.7092 40.4421 68.6716L49.0623 67.1932C49.2677 67.159 49.4627 67.2959 49.5004 67.5012C49.5346 67.7065 49.3977 67.9016 49.1924 67.9392L40.5722 69.4176C40.5482 69.4244 40.5277 69.4244 40.5072 69.4244Z" fill="#371A45"/>
<path d="M40.7811 72.9076C40.5963 72.9076 40.4354 72.7741 40.408 72.5859C40.3772 72.3806 40.5176 72.1855 40.7229 72.1547L49.2712 70.8338C49.4766 70.803 49.6716 70.9433 49.7024 71.1487C49.7332 71.354 49.5929 71.549 49.3876 71.5798L40.8392 72.9007C40.8187 72.9042 40.8016 72.9076 40.7811 72.9076Z" fill="#371A45"/>
<path d="M41.6158 76.3301C41.4276 76.3301 41.2633 76.1898 41.2394 75.9981C41.2154 75.7894 41.3626 75.6012 41.5713 75.5772L49.7432 74.5951C49.9486 74.5711 50.1402 74.7183 50.1641 74.927C50.1881 75.1358 50.0409 75.324 49.8322 75.3479L41.6603 76.3301C41.6432 76.3301 41.6295 76.3301 41.6158 76.3301Z" fill="#371A45"/>
<path d="M45.7634 79.656C45.6436 79.656 45.5238 79.6526 45.4006 79.6424C43.3063 79.4781 41.6329 77.9279 40.9314 75.4914C40.0896 72.5758 39.8055 69.6396 40.1306 67.2202C40.5173 64.3354 41.7459 62.3746 43.6828 61.543C45.6025 60.7217 47.0261 60.643 48.0288 61.3103C49.6645 62.3951 49.6474 65.143 49.6303 67.5658C49.6235 68.37 49.6201 69.1332 49.6748 69.7697C49.7706 70.9024 49.9144 71.7853 50.0444 72.5689C50.3319 74.3416 50.5235 75.5119 49.7227 77.2332C49.0349 78.715 47.471 79.656 45.7634 79.656ZM46.4136 61.8749C45.7908 61.8749 45.0105 62.0734 44.0797 62.4704C40.5002 64.0035 40.4386 70.1495 41.8999 75.2108C42.4884 77.2537 43.7923 78.5028 45.4759 78.6328C46.8824 78.7423 48.2546 77.9895 48.8056 76.8055C49.4763 75.3648 49.3258 74.4305 49.0486 72.7298C48.9185 71.9324 48.7714 71.0256 48.6721 69.8552C48.614 69.1708 48.6174 68.3871 48.6242 67.559C48.6379 65.3928 48.655 62.9358 47.4744 62.1521C47.1938 61.9673 46.8379 61.8749 46.4136 61.8749Z" fill="#371A45"/>
<path d="M52.7513 78.4406C52.6726 78.4406 52.5973 78.4167 52.5288 78.3688C52.3611 78.2456 52.3235 78.0095 52.4467 77.8384C55.0235 74.2965 55.0338 70.9805 54.5855 68.8246C53.9661 65.8268 52.1866 63.5922 51.1224 62.966C50.941 62.8599 50.8828 62.6272 50.9889 62.4493C51.095 62.2679 51.3277 62.2097 51.5056 62.3158C52.8881 63.1303 54.695 65.6386 55.3247 68.674C55.8037 70.9805 55.7969 74.5224 53.0558 78.2866C52.984 78.3893 52.8676 78.4406 52.7513 78.4406Z" fill="#371A45"/>
<path d="M51.8511 60.7315C51.8203 60.7315 51.7895 60.7281 51.7587 60.7212C51.5568 60.6699 51.4336 60.4646 51.4815 60.2627C52.7613 55.1124 48.4666 51.3037 48.4221 51.266C48.2647 51.1291 48.2476 50.8896 48.3845 50.7322C48.5214 50.5748 48.7609 50.5577 48.9183 50.6945C49.11 50.8622 53.61 54.8387 52.2172 60.4474C52.1761 60.6151 52.0222 60.7315 51.8511 60.7315Z" fill="#371A45"/>
<path d="M99.119 35.8612C98.319 35.5512 98.079 35.0012 98.399 34.2112L105.539 16.6312C105.839 15.9712 106.309 15.6412 106.949 15.6412H107.009C107.659 15.6712 108.099 16.0012 108.329 16.6312L115.589 34.2112C115.909 35.0012 115.679 35.5512 114.899 35.8612C114.109 36.1712 113.559 35.9412 113.249 35.1712L111.629 31.2412H102.284L100.739 35.1712C100.429 35.9512 99.889 36.1812 99.119 35.8612ZM103.274 28.7212H110.594L106.859 19.6312L103.274 28.7212ZM124.236 35.9812C122.526 35.9812 121.191 35.6362 120.231 34.9462C119.281 34.2562 118.686 33.1912 118.446 31.7512C118.406 31.3112 118.496 30.9812 118.716 30.7612C118.936 30.5412 119.256 30.4312 119.676 30.4312C120.096 30.4312 120.401 30.5312 120.591 30.7312C120.791 30.9312 120.926 31.2412 120.996 31.6612C121.146 32.3512 121.466 32.8262 121.956 33.0862C122.456 33.3362 123.216 33.4612 124.236 33.4612H128.556C129.846 33.4612 130.721 33.2312 131.181 32.7712C131.651 32.3012 131.886 31.4312 131.886 30.1612C131.886 28.8712 131.646 27.9912 131.166 27.5212C130.686 27.0412 129.816 26.8012 128.556 26.8012H124.836C122.946 26.8012 121.541 26.3412 120.621 25.4212C119.711 24.4912 119.256 23.0812 119.256 21.1912C119.256 19.3112 119.706 17.9162 120.606 17.0062C121.516 16.0962 122.916 15.6412 124.806 15.6412H128.376C129.966 15.6412 131.211 15.9662 132.111 16.6162C133.021 17.2662 133.596 18.2612 133.836 19.6012C133.896 20.0312 133.816 20.3612 133.596 20.5912C133.376 20.8112 133.046 20.9212 132.606 20.9212C132.206 20.9212 131.906 20.8162 131.706 20.6062C131.506 20.3962 131.376 20.0912 131.316 19.6912C131.156 19.1012 130.851 18.7012 130.401 18.4912C129.951 18.2712 129.276 18.1612 128.376 18.1612H124.806C123.606 18.1612 122.801 18.3762 122.391 18.8062C121.981 19.2262 121.776 20.0212 121.776 21.1912C121.776 22.3712 121.986 23.1812 122.406 23.6212C122.826 24.0612 123.636 24.2812 124.836 24.2812H128.556C130.526 24.2812 131.991 24.7612 132.951 25.7212C133.921 26.6812 134.406 28.1612 134.406 30.1612C134.406 32.1512 133.926 33.6212 132.966 34.5712C132.006 35.5112 130.536 35.9812 128.556 35.9812H124.236ZM144.519 35.9812C144.099 35.9812 143.784 35.8762 143.574 35.6662C143.364 35.4562 143.259 35.1412 143.259 34.7212V18.1912H137.439C137.019 18.1912 136.704 18.0862 136.494 17.8762C136.284 17.6662 136.179 17.3512 136.179 16.9312C136.179 16.5112 136.284 16.1962 136.494 15.9862C136.704 15.7762 137.019 15.6712 137.439 15.6712H151.599C152.019 15.6712 152.334 15.7762 152.544 15.9862C152.754 16.1962 152.859 16.5112 152.859 16.9312C152.859 17.3512 152.754 17.6662 152.544 17.8762C152.334 18.0862 152.019 18.1912 151.599 18.1912H145.779V34.7212C145.779 35.1212 145.669 35.4312 145.449 35.6512C145.239 35.8712 144.929 35.9812 144.519 35.9812ZM169.936 36.0412C169.606 36.2512 169.291 36.3162 168.991 36.2362C168.691 36.1562 168.436 35.9512 168.226 35.6212L163.576 27.8812H159.376V34.7212C159.376 35.5612 158.956 35.9812 158.116 35.9812C157.276 35.9812 156.856 35.5612 156.856 34.7212V16.9012C156.856 16.0612 157.276 15.6412 158.116 15.6412H165.136C166.966 15.6412 168.366 16.1312 169.336 17.1112C170.316 18.0812 170.806 19.4812 170.806 21.3112V22.2112C170.806 23.8012 170.436 25.0712 169.696 26.0212C168.956 26.9612 167.886 27.5462 166.486 27.7762L170.416 34.3312C170.796 35.0312 170.636 35.6012 169.936 36.0412ZM159.376 25.3612H165.136C166.276 25.3612 167.086 25.1212 167.566 24.6412C168.046 24.1612 168.286 23.3512 168.286 22.2112V21.3112C168.286 20.1812 168.046 19.3762 167.566 18.8962C167.086 18.4062 166.276 18.1612 165.136 18.1612H159.376V25.3612ZM181.606 35.9812C179.316 35.9812 177.621 35.4362 176.521 34.3462C175.431 33.2462 174.886 31.5512 174.886 29.2612V22.3312C174.886 20.0212 175.436 18.3262 176.536 17.2462C177.636 16.1562 179.326 15.6212 181.606 15.6412H185.206C187.506 15.6412 189.201 16.1862 190.291 17.2762C191.381 18.3662 191.926 20.0612 191.926 22.3612V29.2612C191.926 31.5512 191.381 33.2462 190.291 34.3462C189.201 35.4362 187.506 35.9812 185.206 35.9812H181.606ZM181.606 33.4612H185.206C186.276 33.4612 187.116 33.3362 187.726 33.0862C188.336 32.8262 188.766 32.3912 189.016 31.7812C189.276 31.1712 189.406 30.3312 189.406 29.2612V22.3612C189.406 21.3012 189.276 20.4662 189.016 19.8562C188.766 19.2462 188.336 18.8112 187.726 18.5512C187.116 18.2912 186.276 18.1612 185.206 18.1612H181.606C180.546 18.1512 179.711 18.2712 179.101 18.5212C178.491 18.7712 178.056 19.2012 177.796 19.8112C177.536 20.4212 177.406 21.2612 177.406 22.3312V29.2612C177.406 30.3312 177.531 31.1712 177.781 31.7812C178.041 32.3912 178.476 32.8262 179.086 33.0862C179.696 33.3362 180.536 33.4612 181.606 33.4612ZM101.339 70.9812C100.499 70.9812 100.079 70.5612 100.079 69.7212V51.9012C100.079 51.0612 100.499 50.6412 101.339 50.6412H109.169C110.759 50.6412 111.979 51.0612 112.829 51.9012C113.689 52.7412 114.119 53.9412 114.119 55.5012V56.3112C114.119 57.6612 113.694 58.7062 112.844 59.4462C114.434 60.3362 115.229 61.9612 115.229 64.3212V65.3412C115.229 67.1812 114.739 68.5812 113.759 69.5412C112.789 70.5012 111.389 70.9812 109.559 70.9812H101.339ZM102.599 68.4612H109.559C110.689 68.4612 111.494 68.2212 111.974 67.7412C112.464 67.2512 112.709 66.4512 112.709 65.3412V64.3212C112.709 63.2112 112.474 62.4212 112.004 61.9512C111.534 61.4712 110.719 61.2312 109.559 61.2312H102.599V68.4612ZM102.599 58.7112H109.709C110.439 58.7112 110.934 58.4862 111.194 58.0362C111.464 57.5862 111.599 57.0112 111.599 56.3112V55.5012C111.599 54.6312 111.419 54.0262 111.059 53.6862C110.699 53.3362 110.069 53.1612 109.169 53.1612H102.599V58.7112ZM126.835 70.9812C124.545 70.9812 122.85 70.4362 121.75 69.3462C120.66 68.2462 120.115 66.5512 120.115 64.2612V51.9012C120.115 51.4812 120.22 51.1662 120.43 50.9562C120.64 50.7462 120.955 50.6412 121.375 50.6412C121.795 50.6412 122.11 50.7462 122.32 50.9562C122.53 51.1662 122.635 51.4812 122.635 51.9012V64.2612C122.635 65.3312 122.76 66.1712 123.01 66.7812C123.27 67.3912 123.705 67.8262 124.315 68.0862C124.925 68.3362 125.765 68.4612 126.835 68.4612H130.435C131.505 68.4612 132.345 68.3362 132.955 68.0862C133.565 67.8262 133.995 67.3912 134.245 66.7812C134.505 66.1712 134.635 65.3312 134.635 64.2612V51.9012C134.635 51.4812 134.74 51.1662 134.95 50.9562C135.16 50.7462 135.475 50.6412 135.895 50.6412C136.315 50.6412 136.63 50.7462 136.84 50.9562C137.05 51.1662 137.155 51.4812 137.155 51.9012V64.2612C137.155 66.5512 136.61 68.2462 135.52 69.3462C134.43 70.4362 132.735 70.9812 130.435 70.9812H126.835ZM156.313 71.0412C155.983 71.2512 155.668 71.3162 155.368 71.2362C155.068 71.1562 154.813 70.9512 154.603 70.6212L149.953 62.8812H145.753V69.7212C145.753 70.5612 145.333 70.9812 144.493 70.9812C143.653 70.9812 143.233 70.5612 143.233 69.7212V51.9012C143.233 51.0612 143.653 50.6412 144.493 50.6412H151.513C153.343 50.6412 154.743 51.1312 155.713 52.1112C156.693 53.0812 157.183 54.4812 157.183 56.3112V57.2112C157.183 58.8012 156.813 60.0712 156.073 61.0212C155.333 61.9612 154.263 62.5462 152.863 62.7762L156.793 69.3312C157.173 70.0312 157.013 70.6012 156.313 71.0412ZM145.753 60.3612H151.513C152.653 60.3612 153.463 60.1212 153.943 59.6412C154.423 59.1612 154.663 58.3512 154.663 57.2112V56.3112C154.663 55.1812 154.423 54.3762 153.943 53.8962C153.463 53.4062 152.653 53.1612 151.513 53.1612H145.753V60.3612ZM167.983 70.9812C165.693 70.9812 163.998 70.4362 162.898 69.3462C161.808 68.2462 161.263 66.5512 161.263 64.2612V57.3612C161.263 55.0512 161.808 53.3512 162.898 52.2612C163.988 51.1612 165.673 50.6212 167.953 50.6412H171.583C173.463 50.6412 174.898 51.0312 175.888 51.8112C176.878 52.5812 177.453 53.8012 177.613 55.4712C177.673 55.8912 177.593 56.2112 177.373 56.4312C177.153 56.6512 176.833 56.7612 176.413 56.7612C175.653 56.7612 175.213 56.3412 175.093 55.5012C174.993 54.5812 174.673 53.9612 174.133 53.6412C173.603 53.3212 172.753 53.1612 171.583 53.1612H167.953C166.893 53.1512 166.058 53.2712 165.448 53.5212C164.848 53.7712 164.418 54.2062 164.158 54.8262C163.908 55.4362 163.783 56.2812 163.783 57.3612V64.2612C163.783 65.3312 163.908 66.1712 164.158 66.7812C164.418 67.3912 164.853 67.8262 165.463 68.0862C166.073 68.3362 166.913 68.4612 167.983 68.4612H171.583C172.513 68.4612 173.238 68.3612 173.758 68.1612C174.288 67.9512 174.658 67.5862 174.868 67.0662C175.078 66.5462 175.183 65.8112 175.183 64.8612V63.4512L172.843 63.4212C172.003 63.4212 171.583 63.0012 171.583 62.1612C171.583 61.3212 172.003 60.9012 172.843 60.9012L176.443 60.9312C177.283 60.9312 177.703 61.3512 177.703 62.1912V64.8612C177.703 66.9912 177.208 68.5462 176.218 69.5262C175.228 70.4962 173.683 70.9812 171.583 70.9812H167.983ZM184.191 70.9812C183.351 70.9812 182.931 70.5612 182.931 69.7212V51.9012C182.931 51.0612 183.351 50.6412 184.191 50.6412H194.961C195.801 50.6412 196.221 51.0612 196.221 51.9012C196.221 52.7412 195.801 53.1612 194.961 53.1612H185.451V59.4612H191.421C192.261 59.4612 192.681 59.8812 192.681 60.7212C192.681 61.5612 192.261 61.9812 191.421 61.9812H185.451V68.4612H194.961C195.801 68.4612 196.221 68.8812 196.221 69.7212C196.221 70.5612 195.801 70.9812 194.961 70.9812H184.191ZM214.087 71.0412C213.757 71.2512 213.442 71.3162 213.142 71.2362C212.842 71.1562 212.587 70.9512 212.377 70.6212L207.727 62.8812H203.527V69.7212C203.527 70.5612 203.107 70.9812 202.267 70.9812C201.427 70.9812 201.007 70.5612 201.007 69.7212V51.9012C201.007 51.0612 201.427 50.6412 202.267 50.6412H209.287C211.117 50.6412 212.517 51.1312 213.487 52.1112C214.467 53.0812 214.957 54.4812 214.957 56.3112V57.2112C214.957 58.8012 214.587 60.0712 213.847 61.0212C213.107 61.9612 212.037 62.5462 210.637 62.7762L214.567 69.3312C214.947 70.0312 214.787 70.6012 214.087 71.0412ZM203.527 60.3612H209.287C210.427 60.3612 211.237 60.1212 211.717 59.6412C212.197 59.1612 212.437 58.3512 212.437 57.2112V56.3112C212.437 55.1812 212.197 54.3762 211.717 53.8962C211.237 53.4062 210.427 53.1612 209.287 53.1612H203.527V60.3612ZM224.842 70.9812C223.132 70.9812 221.797 70.6362 220.837 69.9462C219.887 69.2562 219.292 68.1912 219.052 66.7512C219.012 66.3112 219.102 65.9812 219.322 65.7612C219.542 65.5412 219.862 65.4312 220.282 65.4312C220.702 65.4312 221.007 65.5312 221.197 65.7312C221.397 65.9312 221.532 66.2412 221.602 66.6612C221.752 67.3512 222.072 67.8262 222.562 68.0862C223.062 68.3362 223.822 68.4612 224.842 68.4612H229.162C230.452 68.4612 231.327 68.2312 231.787 67.7712C232.257 67.3012 232.492 66.4312 232.492 65.1612C232.492 63.8712 232.252 62.9912 231.772 62.5212C231.292 62.0412 230.422 61.8012 229.162 61.8012H225.442C223.552 61.8012 222.147 61.3412 221.227 60.4212C220.317 59.4912 219.862 58.0812 219.862 56.1912C219.862 54.3112 220.312 52.9162 221.212 52.0062C222.122 51.0962 223.522 50.6412 225.412 50.6412H228.982C230.572 50.6412 231.817 50.9662 232.717 51.6162C233.627 52.2662 234.202 53.2612 234.442 54.6012C234.502 55.0312 234.422 55.3612 234.202 55.5912C233.982 55.8112 233.652 55.9212 233.212 55.9212C232.812 55.9212 232.512 55.8162 232.312 55.6062C232.112 55.3962 231.982 55.0912 231.922 54.6912C231.762 54.1012 231.457 53.7012 231.007 53.4912C230.557 53.2712 229.882 53.1612 228.982 53.1612H225.412C224.212 53.1612 223.407 53.3762 222.997 53.8062C222.587 54.2262 222.382 55.0212 222.382 56.1912C222.382 57.3712 222.592 58.1812 223.012 58.6212C223.432 59.0612 224.242 59.2812 225.442 59.2812H229.162C231.132 59.2812 232.597 59.7612 233.557 60.7212C234.527 61.6812 235.012 63.1612 235.012 65.1612C235.012 67.1512 234.532 68.6212 233.572 69.5712C232.612 70.5112 231.142 70.9812 229.162 70.9812H224.842Z" fill="#222222"/>
<defs>
<linearGradient id="paint0_linear_238_4829" x1="12.6946" y1="72.8573" x2="72.8747" y2="12.6772" gradientUnits="userSpaceOnUse">
<stop stop-color="#F9ED32"/>
<stop offset="1" stop-color="#F7941D"/>
</linearGradient>
</defs>
</svg>
