<svg width="49" height="49" viewBox="0 0 49 49" fill="none" xmlns="http://www.w3.org/2000/svg">
<path d="M0 24.0708C0 10.7769 10.7769 0 24.0708 0V0C37.3647 0 48.1416 10.7769 48.1416 24.0708V24.0708C48.1416 37.3647 37.3647 48.1416 24.0708 48.1416V48.1416C10.7769 48.1416 0 37.3647 0 24.0708V24.0708Z" fill="#D90429"/>
<path d="M33.5864 19.1958C34.5239 18.4927 35.3677 17.6489 36.0239 16.6646C35.1802 17.0396 34.1958 17.3208 33.2114 17.4146C34.2427 16.8052 34.9927 15.8677 35.3677 14.6958C34.4302 15.2583 33.3521 15.6802 32.2739 15.9146C31.3364 14.9302 30.0708 14.3677 28.6646 14.3677C25.9458 14.3677 23.7427 16.5708 23.7427 19.2896C23.7427 19.6646 23.7896 20.0396 23.8833 20.4146C19.8052 20.1802 16.1489 18.2114 13.7114 15.2583C13.2896 15.9614 13.0552 16.8052 13.0552 17.7427C13.0552 19.4302 13.8989 20.9302 15.2583 21.8208C14.4614 21.7739 13.6646 21.5864 13.0083 21.2114V21.2583C13.0083 23.6489 14.6958 25.6177 16.9458 26.0864C16.5708 26.1802 16.1021 26.2739 15.6802 26.2739C15.3521 26.2739 15.0708 26.2271 14.7427 26.1802C15.3521 28.1489 17.1802 29.5552 19.3364 29.6021C17.6489 30.9146 15.5396 31.7114 13.2427 31.7114C12.8208 31.7114 12.4458 31.6646 12.0708 31.6177C14.2271 33.0239 16.8052 33.8208 19.6177 33.8208C28.6646 33.8208 33.5864 26.3677 33.5864 19.8521C33.5864 19.6177 33.5864 19.4302 33.5864 19.1958Z" fill="white"/>
</svg>
