<?xml version="1.0" encoding="utf-8"?>
<!-- Generator: Adobe Illustrator 24.0.0, SVG Export Plug-In . SVG Version: 6.00 Build 0)  -->
<svg version="1.1" id="Capa_1" xmlns="http://www.w3.org/2000/svg" xmlns:xlink="http://www.w3.org/1999/xlink" x="0px" y="0px"
	 viewBox="0 0 953.7 1080" style="enable-background:new 0 0 953.7 1080;" xml:space="preserve">
<style type="text/css">
	.st0{fill:#FEA626;}
	.st1{fill:#B87631;}
	.st2{fill:#212E46;}
	.st3{fill:#4E545C;}
	.st4{fill:#293856;}
	.st5{fill:#FCFCFC;}
	.st6{fill:#F9F9FA;}
	.st7{fill:#FBC97C;}
	.st8{fill:#B8AEBD;}
	.st9{fill:#B3B9C3;}
	.st10{fill:#B88C68;}
	.st11{fill:#94C3FB;}
	.st12{fill:#371B45;}
	.st13{fill:#BDC2CB;}
	.st14{fill:#22A7EE;}
	.st15{fill:#F9A332;}
	.st16{fill:#CF793A;}
	.st17{fill:#48C65A;}
	.st18{fill:#539156;}
	.st19{fill:#A92142;}
	.st20{fill:#FAD098;}
	.st21{fill:#D08026;}
	.st22{fill:#DA2839;}
	.st23{fill:#FCAF15;}
	.st24{fill:#A2E1AB;}
	.st25{fill:#D3AC59;}
	.st26{fill:#FCE59D;}
	.st27{fill:#E5515E;}
</style>
<g>
	<path class="st0" d="M445.6,572.5c36.1,24.9,63.3,57.6,83.1,96.5c8.4,16.5,16.3,33.4,19.2,52c-3.9,0.6-3.6,4.2-4.3,6.7
		c-10.3,35.6-26.9,68-48.8,97.8c-2.9,3.9-7.3,6.9-8.2,12.2c-6.7-1-12.7-7.2-20.2-3.2c-18-2-33,4.1-45.4,16.9c-3.6-1-5.2,1.8-7.1,3.8
		c-15,15.4-20.1,33.7-16.1,54.7c-20.9,9.8-41.9,19.2-64.1,25.4c-1.4-4.6-2.7-9.2-4.2-13.8c-1-3.1-2.9-4.8-6.3-2.9
		c-6.3-17.9-20.1-26.5-37.5-30.9c-0.9-3.8-4.3-3.5-6.9-4c-7.2-1.3-14.6-1.3-21.8,0.1c-29.6,5.9-44.7,26.9-43.7,60.7
		c-2.3-0.6-4.5-1.3-6.8-1.7c-40.6-6.5-78.4-20.4-113.4-41.7c-20.7-12.6-39.1-28-56.5-44.7c-0.5-0.9-1-1.8-1.5-2.7
		c-2.4-20.5-4.5-40.9-3.6-61.7c2.2-51.4,18-98.1,46.1-140.9c19.7-30,45.4-54,74.3-74.9l0.7,0h0.7c0.8,0.7,1.5,1.5,2.4,2
		c18,11.3,37.9,14.5,58.7,14c15.8-0.4,29.3,4.8,39.9,16.7c4.5,5.1,8.9,10.3,13.8,15c28.6,28,71.9,26.7,89.5-15.7
		c1.9-4.6,3.7-5.5,6.4-0.7c1,1.8,2.3,3.5,3.5,5.2c16.9,23.1,49.9,22.5,66-1.1C441.1,599.8,444.8,586.6,445.6,572.5z M467.8,658.5
		c-6.9,1.8-12.5,5.2-15.8,11.9c-5.7,11.7-1.5,31.4,8.4,39.9c1.8,1.5,3.5,2.2,5.7,1.5c3.2,6.9,9.2,7.9,15.8,7.6
		c4.5,2.7,7.5-0.9,10.8-2.8c6.9-1,10.2-5.9,12.4-11.7c6-16.2-3.6-40.1-19.2-47.7C479.7,654.2,473.5,653.8,467.8,658.5z M169.9,631
		c0.4-7.4-4.3-12.1-13.6-13.6c-16.6-2.7-36.6,9-42.1,24.9c-1.5,4.4-2.8,9.1,0.8,13.4c1.9,7,7.8,7.3,13.1,6.7
		c14.5-1.7,26.9-8.1,36.8-18.9C168,640.1,171.2,636.3,169.9,631z M329.6,760.9c17,3.1,32.9-4,42.1-18.9c8.8-14.3,7.9-31.8-2.4-45.6
		c-9.8-13.1-26.4-19-41.5-14.9c-8.3,1.5-16.1,4.1-22.2,10.3c-1.6,1.7-4.7,3.2-2.1,6.4c-6.4,9-8.5,19.1-7.5,30
		c-4.6,2.2-1.7,5.6-0.9,8C301.1,752,313.3,759.4,329.6,760.9z M126.9,861c8.2,4.6,17.4,6.3,26.5,6c30.2-0.9,52.5-14.7,65.4-42.3
		c11.6-24.9,6.2-55.9-12.5-76.1c-22.1-23.8-58.7-30.3-83.9-14.8c-8.8,4.1-17.4,8.3-24,15.7c-1.8,2-5.6,5.1,0.9,6.3
		c-2.3,2.8-4.6,5.6-6.8,8.5c-10.1,13.5-9.6,29.2-8.9,44.9c-5.3,0.2-3.1,3.8-2.5,6.2c3.3,12.5,9.9,23,19.7,31.5
		C108.6,853.4,117.8,857.1,126.9,861z"/>
	<path class="st1" d="M486.5,837.7c1-5.3,5.3-8.3,8.2-12.2c21.9-29.8,38.5-62.2,48.8-97.8c0.7-2.5,0.5-6.1,4.3-6.7
		c6.3,15.2,8,31.4,9.2,47.5c10,136.5-78.2,255.3-211.5,285.2c-104.6,23.4-222.1-23.3-277.7-110.3c0-1.5-0.3-2.8-1.6-3.6l0.1,0.1
		c-0.5-0.6-1.1-1.1-1.6-1.7l0.1,0.1c0.2-2.8-0.4-5.1-3.2-6.3l0.1,0c-0.5-0.5-1.1-1.1-1.6-1.6l0,0c-0.2-6.5-3.9-11.8-6.3-17.4
		c-8-18.2-14.3-36.9-17.3-56.6c17.4,16.7,35.9,32.1,56.5,44.7c35.1,21.4,72.9,35.3,113.4,41.7c2.3,0.4,4.6,1.1,6.8,1.7
		c12.3,33,34.9,48.8,68.8,48.1c27.5-0.6,45.8-16.2,50.4-43.3c0.8-4.6,0.8-9.3,1.2-14c22.3-6.2,43.3-15.6,64.1-25.4
		c11.3,26.2,31.5,37.4,58.3,31c26.1-6.2,43.2-23.1,50.2-48.9C512.3,869.9,505.2,851.5,486.5,837.7z"/>
	<path class="st2" d="M471,93.2c-31-33.7-71.2-42.6-114.9-35.1c-47.5,8.2-83.1,34.4-105.6,77.3c-4.3,8.3-10.7,16.7-6.5,27.3
		c5.4,13.6,7,27.8,6.5,42.3c-2.2,6.9-4.4,13.9-6.6,20.9c-0.6,1.8-0.7,3.5,0.1,5.3c2.7,6.3,4.7,12.9,8,18.8
		c25.4,45.5,65.5,66.9,116.3,69.7c21.7,1.2,42.8-3.6,62.9-11.6c12.6-5.1,25.7-10.4,35.4-20c14.8-14.9,23.2-34,31.1-53.2
		c8.8-15.6,10.5-33,10.8-50.1C508.8,149.3,494.5,118.7,471,93.2z"/>
	<g>
		<path class="st3" d="M64.7,938.2C64.7,938.2,64.7,938.2,64.7,938.2C64.7,938.3,64.7,938.3,64.7,938.2L64.7,938.2z"/>
		<path class="st3" d="M60,930.4C60,930.4,60,930.4,60,930.4C60,930.4,60,930.4,60,930.4L60,930.4z"/>
		<path class="st3" d="M66.3,939.8C66.2,939.8,66.2,939.8,66.3,939.8C66.3,939.9,66.3,939.9,66.3,939.8L66.3,939.8z"/>
		<path class="st3" d="M873.7,782.2c-3.5-6.2-9.5-9.6-15.9-7c-15.7,6.3-25.4,2-31.3-13.7c-2.5-6.5-8.8-8.9-15.7-7.5
			c-7,1.4-10.8,6-11.5,13.1c-0.6,5.7-1.3,11.3-2.1,18.4c-10.4-8-18.9-15.9-26-25.3c-17-22.6-21.4-47.4-12.5-74.3
			c2.4-7.2,5.3-14.3,8.3-21.2c15.7-36.5,14-72.4-2.7-108c-13.9-29.5-33.1-55.4-55.7-78.6c-38.3-39.2-50.6-86.4-44.8-139.4
			c6.2-55.8,27.9-106.1,55.8-154.1c3.2-5.5,6.7-9.6,13.6-10c3.4-0.2,7.4-1.5,6.5-6.1c-0.9-5-4.8-4.5-8.7-3.6
			c-83.3,18.6-160.9,50.4-230.8,99.9c-1.6,1.1-2.8,3.1-5.2,2.9c-0.4-2.2,1.3-3.3,2-4.8c30.1-57.6,30-115.5-3.8-170.8
			C456.7,32.2,400.8,4.1,331,11C259.6,18.1,211.3,58.4,186,125.7c-1.4,3.6-1,8.1-4.7,10.5c-11,7.2-17.5,18-23,29.4
			c-14.7,30.5-9.4,73,30.5,90c5.3,2.3,8.9,4.8,10.9,10c0.6,2,0.1,2.5-1.7,1.3c-12.8-1.4-25.5-3.1-38.3-4.2c-23-2-39.4,7.1-51.1,26.5
			c-26.8,44.2-42.6,92-48.3,143.3c-1.6,14.7,4.4,24.7,16.2,32.2c12.9,8.3,27,13.9,41.6,18.3c5.6,1.7,7.8,3.9,8.4,10
			c1.8,17.9,6.6,35.2,17.6,49.8c4,5.3,3.5,7.1-2.1,10.7C60,606.3,14.7,681.8,10.3,779c-6.8,152.6,107.7,279,260,290.2
			c185.5,13.6,333.7-160,290.8-341.1c-16.1-68.3-52.8-123.2-109.7-164.4c-4.4-3.2-5.9-6-4.8-11.6c1.8-9.3,1.4-18.8,0.4-28.2
			c-2.5-23.4-13.6-39.8-37.5-45.8c-0.4-0.1-0.6-0.8-0.9-1.1c22.5-33.5,24.4-41.8,18-82.4c-0.4-2.8,0-4.3,2.5-5.7
			c16.3-9.5,23.4-24.8,26.6-42.5c1.5-8.3,1.8-16.7,1.7-25.1c0-5,1.4-7.7,7.1-5.5c1.9,0.8,4,1.2,6.1,1.6c29.9,6.5,55.4-6.6,64.7-33.4
			c2.9-8.2,4.2-16.8,4.4-25.5c0.1-5,2-6.6,6.8-5.2c29.7,8.9,57.4-2.3,73.3-35.5c3.4-7,6.7-8,13.9-6.2c22.2,5.6,43.7,4.4,63.5-8.6
			c0.8-0.5,1.7-1.3,2.7,0c0,0.5,0.1,1-0.1,1.4c-1,2.1-2,4.3-3.1,6.4c-17.4,34.6-31.1,70.5-37.7,108.8
			c-10.9,63.1,0.1,119.7,47.1,166.7c19.5,19.5,35.6,42,48.2,66.7c13.2,25.9,20,52.9,14.2,82c-2.5,12.4-7.3,24-12,35.7
			c-18.3,44.9-9.7,81,26.9,113.1c1.8,1.6,4.8,2.4,5,5.8c-3.9,0.8-7.7,1.6-11.5,2.5c-6.8,1.6-11.2,5.7-12,12.8
			c-0.8,7.1,2.2,13.1,9,14.9c16.2,4.3,21.6,13.5,17.1,29.7c-1.9,6.7,2.1,12.3,8.6,15.1c6.2,2.7,12.7,1.9,16.3-3.6
			c9.2-14.3,19.6-17.1,34.1-7.4c5.7,3.8,12.4,1.7,17-3.6c4.4-5.1,5.6-11.6,1.4-16.7c-11.1-13.2-9.6-24,3.7-34.7
			C876.9,794.7,877,788,873.7,782.2z M387.3,431.5c-2.2,7-7.8,11-13.5,14.5c-22.2,13.8-46.7,15.8-71.9,13.2
			c-3.1-0.3-4.8-1.5-4.5-4.9c0.3-4.9-0.3-10,1.2-14.8c1-15,6.1-28.5,15.2-40.4c1.7-2.2,3.2-4.9,6.9-3.7c13.6,4.1,27.9,3.7,41.8,6.3
			c7.8,1.4,15.3,3.7,21.6,8.7C391.5,416.4,392.5,422.8,387.3,431.5z M395.3,448.1c0.8,0.6,1.8,1.2,2.5,1.9
			c9.6,10.1,9.6,13.2,0.1,23.2c-11,11.6-23.8,20.3-39.8,23.6c-9.3,1.9-18.3,0.9-26.8-3.1c-5.2-2.5-10.2-6-6.9-13.3
			c1.4-7,5.5-10.4,12.8-11.4c19.3-2.5,37.3-8.3,51.7-22.2C392.1,443.6,393.7,444.9,395.3,448.1z M313.4,481.8
			c-0.7,2.7,1.9,6.9-0.7,7.9c-3.9,1.5-8.6,1.1-13,1.2c-2.1,0-2-2-2-3.5c0-2.8,0.1-5.7,0.2-8.5c-0.4-10.8-0.4-10.8,18.6-7.9
			c-1.1,2.7-2.1,5.2-3.1,7.7C313.5,479.8,313.7,480.8,313.4,481.8z M374.7,394.3c0-9.5,0-16.9,0-24.4c0-1.5,0.4-3.6-1.5-4
			c-2.7-0.5-2.2,2.2-2.8,3.7c-0.1,0.2-0.1,0.5-0.1,0.8c-2,6.9-0.2,17.2-5.6,20.2c-5.2,2.9-14-0.6-21.3-1.4
			c-23.8-2.6-45.7-9.1-60.8-29.5c-0.5-0.6-0.8-1.3-1.2-2c-1.3-1.9-2.7-3.8-3.8-5.8c-2.9-5.5-6.3-6.6-10.8-1.8
			c3.5,14.3,13.5,23.9,24.7,32.2c4.9,3.7,10.7,6.3,16.5,9.7c-10.5,12.3-15.5,27-18.3,42.6c-0.4,5.7-1,11.5-1.2,17.2
			c-0.1,3.6-1.1,4.7-4.6,3.6c-24.9-8.2-46.7-20-55.9-46.9c-1.1-3.3-2.7-6-6.7-4.7c-3.7,1.2-4,4.3-3,7.7c1.5,5.1,3.6,9.8,6.3,14.3
			c0.9,1.6,2,3.1,2.5,4.8c1.9,7.4,0.2,9.2-7,6.8c-6.9-2.3-13.9-4.6-19.9-8.9c-18-9.1-32.5-22.5-45.5-37.6c-1.5-1.7-2.3-3.3-1.3-5.6
			c13.9-33.7,29.2-66.5,54.9-93.1c0.4-0.4,0.9-0.5,1.4-0.8c2.3-5.1,4.3-4.8,8.1-0.6c44.3,49.4,99.2,68.3,164.5,56.7
			c5.2-0.9,7.8,0.8,10.1,4.8c6.8,4,7.6,8.1,2.1,14.6C387.5,374.7,382,383.9,374.7,394.3z M263.8,479c-0.2-5.2-0.3-10.4-0.6-15.5
			c-0.2-3.7,0.9-4.6,4.4-3.2c5.1,2,10.2,4.6,15.4,5.2c9.1,1,11.1,5.7,9.5,13.5c0.1,1.3,0,2.6,0.2,3.9c1.1,6.5-0.9,9.7-8.2,8.9
			c-4.3-0.5-9-0.2-13.2,1c-6.5,1.8-8.2-0.7-7.7-6.6C263.9,483.7,263.8,481.4,263.8,479z M238.3,467.9c0-7.5,0-15,0-22.5
			c15.6,8.3,16.7,10.3,14.7,28.9c0.3,2.6,0.3,5.2,0.8,7.7c1.4,7.6-1.1,10.4-9.3,9.5c-4.9-0.6-6.1-2.1-6-6.5
			C238.6,479.3,238.4,473.6,238.3,467.9z M414.8,325.4c-10.7,5.4-21.8,10.6-33.8,11.3c-59.2,3.4-119.9-24.8-147.7-83.5
			c-2.4-5.1-3.4-9.2,2.4-12.5C272.5,317,335,339.1,414.8,325.4z M298,329.3c2.3,1.1,4.6,2.2,7.8,3.7c-2.7,1.5-4.1,0.9-5.6,0.4
			c-38.4-12.5-68.3-35.7-89.7-70c-2.7-4.3-1.8-4.9,2.6-7.3c8.9-4.9,11.6-1.4,15.5,6.3C243.8,292.8,267.5,314.7,298,329.3z
			 M405.3,368.4c2.1,4.3,3.9,7.5,5.4,10.8c3.9,8.7,3.8,8.9-6,9.5c-4.1,0.3-8.2,0-14.2,0C396.1,381,400.5,375,405.3,368.4z
			 M411.9,344.7c-6.2,7.2-6.2,7.2-12.6-1.4c6.5-2.5,12.9-5,21-8.1C416.7,339.2,414.3,341.9,411.9,344.7z M462.7,68.8
			c0.7,0.8,1.3,1.6,2,2.3c1.5,0.5,1.8,1.4,1,2.8c-0.7-0.5-1.4-1.1-2.1-1.6c-0.8-0.8-1.6-1.5-2.5-2.3
			c-68.5-47.1-172.8-24.7-217.9,57.3c-3.3,5.9-5.8,12.2-8.7,18.4c-5.1-2.9-5.8-6-3.4-11.5c33.5-75,124.1-114.5,201.6-87.6
			C445.1,50.8,453.7,60,462.7,68.8z M403,30.9c-18.3-1.9-34.5-2.3-50.5,0.9c-58.5,11.5-101.8,43.3-128.5,97
			c-2.3,4.6-3.7,6.5-8.9,3.8c-5.9-3-12.6-2.9-19.2-2.3C224.3,39.3,326.7-0.6,403,30.9z M171.9,232.9c-11.7-14.1-14.9-30.5-10.1-48.4
			c0.6-9.9,4.9-18,11.8-24.8c8.8-8.7,20.1-9,28.5-0.1c12,12.8,16,28.2,12.4,45.5c0.3,11-4.1,20.3-11.4,28.2
			C193.5,243.8,181,243.8,171.9,232.9z M199.2,248.4c25.9-19.3,29.7-44.9,22-73.1c-4.3-16-13.6-28.3-32.5-31.1
			c11.9-6.8,24-5.1,34.1,4.7c11.3,11,16.1,24.9,17,40.3c1,17.6-2.8,33.9-14.6,47.5C218.7,244.4,210.5,248.8,199.2,248.4z M206,278.8
			c-5.7,6.2-10.5,11.3-15.1,16.6c-1.8,2.1-3.1,2.8-5.7,0.8c-12.5-9.5-25.9-17.4-41.2-22.3C164.7,271.3,184.7,275,206,278.8z
			 M129.7,424.5c-1.8,15.3-4.6,30.5-4.4,46c0,3.2-1,4.3-4.2,3.2c-15.4-5.3-30.7-10.6-43.7-20.8c-4-3.1-7.3-6.9-7.1-12.5
			c1.4-36.2,10.9-70.5,25.8-103.3c6.7-18.2,15.1-35.5,27.2-51c3.1-4,6.5-5.3,11.5-4.4c17,2.9,31.3,11.5,45,21.3
			c2.6,1.8,2.5,3.2,0.7,5.6c-15.5,21.9-27.3,45.8-37.4,70.6c-1,2.4-2.3,3.3-5,3.9c-15.7,3.1-21.7,17.1-13.6,31
			c1.4,2.3,4.1,4.1,3.7,7.3l-0.2,0.3C130.1,421.8,130.7,422.7,129.7,424.5z M132.5,398.5c4.4-7,8.9-7.5,14.5-1
			c10.4,11.9,21.7,22.7,34.7,31.7c12.1,8.4,25,15.5,39.5,18.6c6.8,1.4,7.8,4.8,6.9,10.3c0.5,10.5,0.5,10.6-9.5,8.2
			c-34.6-8.3-63.5-25.4-83.9-55.2C132,407.4,128.7,403.5,132.5,398.5z M146.6,519.7c-8.7-18.6-10.3-38.1-8-58.2
			c-1.4-8.2,2.1-15.9,2.1-25.2c3.7,2.9,6.8,5,9.6,7.4c20.7,17.4,44.5,28.3,70.9,33.3c6.3,1.2,8.8,3.5,7.2,9.7
			c1.2,12.9,2.2,13.7,18.5,14.6c1.5,1.9-2.8,3.6-0.1,5.4c2,1.4,3.4-0.5,5-1.1c23.3-8.9,62-1.5,77.7,15.6
			c-19.2-0.8-36.2,3.5-50.4,15.9c-5.9,6.4-11.2,13.2-14.4,21.4c-1.2,3.2-2.5,3.8-5.7,2.3c-6-2.7-12.3-2.1-18.5-0.9
			c-16.6,3.2-33.3,4.9-49.9,0.4C168.9,554.6,153.5,541.5,146.6,519.7z M306.9,617.4c-10.3-1.2-18-6.2-22.3-16.1
			c-4.3-9.8-7.6-20-13.2-29.3c-1.4-2.4-0.8-4.5,0.1-6.7c3.1-7.9,6.9-15.2,13.5-20.8c13.6-13.9,30.7-15.3,48.7-14.1
			c2.6,0.2,3.6,1.8,4.5,3.7c6.2,14.4,10.2,29.1,7.8,44.9C347.8,603.2,330.5,620.3,306.9,617.4z M445.6,572.5
			c36.1,24.9,63.3,57.6,83.1,96.5c8.4,16.5,16.3,33.4,19.2,52c6.3,15.2,8,31.4,9.2,47.5c10,136.5-78.2,255.3-211.5,285.2
			c-104.6,23.4-222.2-23.3-277.7-110.3c-1-1-1.9-2-1.6-3.5c-1,0-1.4-0.7-1.5-1.6c-2-1.6-3.7-3.4-3.2-6.3c-1.2,0.1-1.5-0.6-1.5-1.6
			c-12.1-16.3-19.3-35-25.9-54c-3.2-9-6.7-18.1-7-27.9c-6.5-20.3-7.7-41.2-7-62.2c3.2-90.8,41.6-162.9,115.2-216.3
			c2.5-1.8,4.9-4,8.1-4.6c1.8-2.8,5.1-3.5,7.4-5.5c3.7-3,6.8-2.7,10.2,0.5c2.4,2.3,5.5,3.9,8.3,5.9c23.8,11.1,48.5,11.6,73.7,6.1
			c10.3-2.2,14.3-0.3,19.1,9.1c3.8,7.5,6.8,15.3,10.2,23c8.3,18.3,21.3,26.2,41.8,25.4c18.4-0.7,34.5-12,40.6-28.6
			c1.4-3.9,2.3-8,3.6-12.8c1.8,3.6,3.2,6.9,5.1,9.8c14.1,22,46.7,23.2,64.3,2.5c6.2-7.3,9.9-16,13.3-24.8
			C441.7,574.2,441.3,569.9,445.6,572.5z M354.8,538.8c2.5-0.5,3.7,1.5,3.7,3.9c0,4.7,0,9.3,0,14c-0.5,0-0.9,0.1-1.4,0.1
			c-1-4.6-2.2-9.1-3.1-13.7C353.7,541.7,351.7,539.4,354.8,538.8z M437.8,539.8c-1,13.3-2.7,26.4-9.2,38.4
			c-6.3,19.9-22,30.5-39.2,26.7c-13.5-3-21.7-13-21.6-26.9c0-9.9,0.9-19.9,0.2-29.8c-0.5-7.5,2.6-11.1,8.9-13.3
			c3.2-1.1,6.4-2.3,9.5-3.5c15.1-5.9,30.3-7.2,45.6-0.5C436.1,532.7,438.2,534.9,437.8,539.8z M436.4,523.1
			c-16.9-8-33.7-5.5-50.5-1.7c-6.1,2.8-12.2,5.7-18.4,8.5c-4,1.8-19.5-2.7-21.8-6.6c-4-6.8-9.1-12.6-15-17.7c-0.7-0.3-2,0.4-2.1-1.1
			c0.9,0.1,1.9,0.2,2.8,0.2c13,3.9,25.9,3.4,38.8-0.6c9-4.2,18-8.5,25.4-15.2c2.5-2.2,5-2.2,8-1.7
			C423.2,490.7,433.4,501.5,436.4,523.1z M412,453.2c-4-4.6-7.7-9.3-11.8-13.6c-2.2-2.3-2-4.4-1.1-7.1c4.1-13.1,0.6-23.7-10.8-31.6
			c-1.4-1-3.7-1.6-2.5-4.1c1-2.3,3.1-1.5,4.8-1.3c6,0.7,12.1,1.3,18-0.1c6.2-1.4,8.5,0.5,9.9,6.6C422.5,420,420.5,436.9,412,453.2z
			 M443.5,361.7c-2.5,5.8-6,11-10.7,15.3c-8.4,7.8-7.3,6.8-13.5-2.3c-8.5-12.2-4.6-20.2,4.8-28.9c8.6-8,16.3-16.9,25.9-27
			C450.4,335.2,449,348.8,443.5,361.7z M514.8,301.7c-15.4,12.3-32.6,12-52.1,6c22.2-19.6,44.5-36.3,68.3-51.3
			C534.2,270.8,526.8,292.2,514.8,301.7z M548.1,245.9c21.6-12.7,42.7-23.2,64.7-32.7C605.8,239.5,577.1,254.5,548.1,245.9z
			 M635.3,204.1c24.5-9.1,48.2-17.6,73-22.8c0.3-0.2,0.6-0.3,0.9-0.5c-0.2,0.3-0.3,0.6-0.5,1C693,204,662.5,213.7,635.3,204.1z
			 M862,794.7c-2.9,3.4-5.9,6.7-8.9,10c-5.5,6-6.1,12.4-2,19.4c2.3,3.8,4.5,7.7,6.7,11.6c1.4,2.5,3.5,5,1.2,7.9
			c-2.5,3-5.2,1.1-7.8,0c-4.3-1.9-8.6-3.9-12.9-5.8c-7.1-3.2-13.3-1.7-18.4,4c-3.3,3.7-6.6,7.4-10,11.1c-1.6,1.7-3,3.9-5.9,2.8
			c-3-1.2-3.4-3.7-3.2-4.8c0.7-6.1,1.2-10.5,1.7-14.9c1-10-1.5-14.5-10.5-18.7c-4.5-2.1-9.1-4.1-13.6-6.1c-2-0.9-3.7-2.2-3.4-4.7
			c0.3-2.4,2-3.5,4.2-4c5.4-1.2,10.7-2.3,16.1-3.5c7.6-1.7,11.7-6.4,12.4-14.2c0.5-5,1.1-9.9,1.5-14.8c0.3-2.9,1.1-5.3,4.2-5.8
			c2.8-0.5,4,1.9,5.2,4c2.5,4.3,5,8.6,7.5,12.9c3.9,6.8,9.7,9.3,17.2,7.7c4.4-0.9,8.7-2,13-2.8c3-0.5,6.3-2.2,8.4,1.6
			C866.8,790.8,863.7,792.6,862,794.7z"/>
		<path class="st3" d="M61.5,932C61.5,932,61.5,932,61.5,932C61.5,932,61.6,932,61.5,932L61.5,932z"/>
	</g>
	<path class="st4" d="M250.4,204.9c0.6-14.5-1.1-28.7-6.5-42.3c-4.2-10.6,2.2-19,6.5-27.3c22.5-42.8,58.1-69.1,105.6-77.3
		c43.7-7.5,83.9,1.4,114.9,35.1c23.5,25.5,37.7,56.1,37.2,91.6c-0.2,17.1-2,34.5-10.8,50.1c-8.2,1.6-14.3,7.4-21.5,10.9
		c-34.4,16.5-70.1,25.1-108.6,20.9c-31.5-3.4-59.9-13.7-85.6-32.3C270,225.8,260.7,214.9,250.4,204.9z M424.8,86.8
		c33.4,48.1,47.9,100,42.7,159.1c29.5-37.6,31.1-76.1,15.6-116.9c-9.5-24.9-25.1-41.4-53.5-41.8C428.8,87.2,428.1,87.1,424.8,86.8z
		 M277.9,166.7c0.2,14.4,10.6,26.1,23.1,25.7c11.9-0.3,21.5-11.8,21.5-25.5c0-14.4-10.3-26.3-22.7-26.1
		C287.6,140.9,277.7,152.6,277.9,166.7z M287.6,219.8c-0.1,6.6,4.6,12.1,9.7,11.7c6-0.6,8.4-4.6,8.6-10.2c0.2-6.1-4.5-11.5-9.6-11.1
		C290.3,210.7,288,214.9,287.6,219.8z"/>
	<path class="st2" d="M250.4,204.9c10.3,10,19.6,20.9,31.3,29.4c25.7,18.6,54,28.9,85.6,32.3c38.6,4.1,74.3-4.5,108.6-20.9
		c7.3-3.5,13.4-9.2,21.5-10.9c-7.9,19.2-16.3,38.3-31.1,53.2c-9.6,9.7-22.7,15-35.4,20c-20.1,8.1-41.2,12.8-62.9,11.6
		c-50.8-2.8-91-24.2-116.3-69.7c-3.3-5.9-5.3-12.5-8-18.8c-0.8-1.8-0.7-3.5-0.1-5.3C246.1,218.9,248.3,211.9,250.4,204.9z"/>
	<path class="st5" d="M266.8,350c3.5,14.3,13.5,23.9,24.7,32.2c4.9,3.7,10.7,6.3,16.5,9.7c-10.5,12.3-15.5,27-18.3,42.6
		c-7.5-1.8-13.7-6.2-19.7-10.6c-3.4-2.5-8.7-3.2-9.6-8.6c11.2,2.2,16.4-6.4,22.6-12.8c5.6-5.8,5.6-13.9,0.1-19.9
		c-5.1-5.6-10.6-10.9-16.1-16c-3.9-3.6-8.6-4.8-13.9-3.1c-11.8,3.6-20.3,18-17.6,30c-1.8,0.2-2.9-0.9-4-2
		c-10.8-11.2-17.8-7.8-25.9,4.7c-6.4,9.9-6.9,21-5.5,32.4c-18-9.1-32.5-22.5-45.5-37.6c-1.5-1.7-2.3-3.3-1.3-5.6
		c13.9-33.6,29.2-66.5,54.9-93.1c0.3-0.4,0.9-0.5,1.4-0.8c-0.2,2.7,0.9,5.1,2.1,7.4C224,322.3,242.7,339,266.8,350z"/>
	<path class="st5" d="M228.4,486.7c1.2,12.9,2.2,13.7,18.5,14.6c1.5,1.9-2.8,3.6-0.1,5.5c2,1.4,3.4-0.5,5-1.1
		c23.3-8.9,62.1-1.5,77.7,15.6c-19.2-0.8-36.2,3.5-50.4,15.9c-4.5-1.3-8.7-3.1-13.5-3.6c-19.7-2-39.1,1.9-58.6,2.6
		c-20.6,0.7-40.3-0.7-56.7-15.1c-0.9-0.8-2.4-0.9-3.5-1.3c-8.7-18.6-10.3-38.1-8-58.2c2.6-4.4,5.2-5,9.8-1.6
		C172.1,477.3,199.1,485.4,228.4,486.7z"/>
	<path class="st5" d="M96.1,337.1c6.7-18.2,15.1-35.5,27.2-51c3.1-4,6.5-5.3,11.5-4.4c17.1,2.9,31.3,11.5,45,21.3
		c2.6,1.9,2.4,3.2,0.7,5.6c-15.5,21.9-27.3,45.8-37.4,70.6c-1,2.4-2.3,3.3-5,3.9c-15.7,3.1-21.7,17.1-13.6,31
		c1.4,2.4,4.1,4.1,3.7,7.3c-10.5-0.9-18-7.5-25.9-13.3c-6.6-4.8-10.2-11.5-11.4-19.8c-2.1-14.4,1.3-28,4.4-41.8
		C96,343.6,98.7,340.5,96.1,337.1z"/>
	<path class="st1" d="M445.6,572.5c-0.8,14.1-4.5,27.3-12.5,39.1c-16,23.6-49.1,24.1-66,1.1c-1.2-1.7-2.5-3.4-3.5-5.2
		c-2.8-4.8-4.5-3.8-6.4,0.7c-17.6,42.3-60.9,43.7-89.5,15.7c-4.9-4.8-9.3-10-13.8-15c-10.6-12-24.1-17.1-39.9-16.7
		c-20.8,0.5-40.7-2.7-58.7-14c-0.9-0.5-1.6-1.3-2.4-2c4.9-4.2,10.4-7.3,16.4-9.8c23.8,11.1,48.5,11.6,73.7,6.1
		c10.3-2.2,14.3-0.3,19.1,9.1c3.8,7.5,6.8,15.3,10.2,23c8.3,18.3,21.3,26.2,41.8,25.4c18.4-0.7,34.5-12,40.6-28.6
		c1.4-3.9,2.3-8,3.6-12.8c1.8,3.6,3.2,6.8,5.1,9.8c14.1,22,46.7,23.2,64.3,2.5c6.2-7.3,9.9-16,13.3-24.8
		C441.7,574.2,441.3,569.9,445.6,572.5z"/>
	<path class="st6" d="M195.9,130.3C224.3,39.3,326.7-0.6,403,30.9c-18.3-1.9-34.5-2.3-50.5,0.9c-58.5,11.5-101.8,43.3-128.4,97
		c-2.3,4.6-3.7,6.5-8.9,3.9C209.3,129.6,202.6,129.7,195.9,130.3z"/>
	<path class="st7" d="M151.7,576.2C122.7,597,97,621.1,77.4,651.1c-28.1,42.8-43.9,89.5-46.1,140.9c-0.9,20.8,1.3,41.2,3.7,61.7
		c-2.8-1.4-4.2-5.1-7.9-5.2c-6.5-20.3-7.7-41.2-7-62.2c3.2-90.8,41.6-163,115.2-216.3c2.5-1.8,4.9-4,8.1-4.6
		C143.9,570.8,149.3,572.3,151.7,576.2z"/>
	<path class="st8" d="M96.1,337.1c2.6,3.4-0.2,6.4-0.9,9.5c-3.1,13.8-6.5,27.4-4.4,41.8c1.2,8.3,4.8,15,11.4,19.8
		c7.9,5.8,15.5,12.4,25.9,13.3l-0.2,0.3c0.6,0.9,1.1,1.8,1.7,2.7c-1.8,15.3-4.6,30.5-4.4,46c0,3.2-1,4.3-4.2,3.2
		c-15.3-5.3-30.7-10.6-43.7-20.8c-4-3.1-7.3-6.9-7.1-12.5C71.8,404.2,81.2,370,96.1,337.1z"/>
	<path class="st5" d="M298.5,439.5c1-15,6.1-28.5,15.2-40.4c1.7-2.2,3.2-4.9,6.9-3.7c13.6,4.1,27.9,3.8,41.8,6.3
		c7.8,1.4,15.3,3.6,21.6,8.7c7.6,6.1,8.6,12.5,3.4,21.2c-9.4,2.1-17.5,7.6-27,9.6C339.5,445.3,318.9,444.9,298.5,439.5z"/>
	<path class="st8" d="M266.8,350c-24-11-42.7-27.8-55.1-51.3c-1.2-2.3-2.3-4.7-2.1-7.4c2.3-5.1,4.3-4.8,8.1-0.6
		c44.3,49.4,99.2,68.3,164.5,56.7c5.2-0.9,7.9,0.8,10.1,4.8c-0.6,2.6-2.8,3.7-5,4.6c-20,8.1-40.6,11.3-62.2,9.7
		c-14.9-1.2-29.2-5.5-43.7-8.7c-1.3-1.9-2.7-3.8-3.8-5.8C274.7,346.3,271.3,345.2,266.8,350z"/>
	<path class="st8" d="M146.6,519.7c1.2,0.4,2.6,0.6,3.5,1.3c16.5,14.3,36.1,15.7,56.7,15.1c19.6-0.6,38.9-4.6,58.6-2.6
		c4.8,0.5,9.1,2.3,13.5,3.6c-5.9,6.4-11.2,13.2-14.4,21.4c-1.2,3.2-2.5,3.8-5.7,2.3c-6-2.7-12.3-2.1-18.6-0.9
		c-16.6,3.3-33.3,4.9-49.9,0.4C168.9,554.6,153.6,541.5,146.6,519.7z"/>
	<path class="st5" d="M284.9,544.6c13.6-13.9,30.7-15.3,48.7-14.1c2.6,0.2,3.6,1.8,4.5,3.7c6.1,14.4,10.2,29.1,7.8,44.9
		c-2.6,0.2-4,2.3-5.9,3.7c-16.9,12.1-35.3,8-44.9-10.3C290.4,563.7,287.3,554.3,284.9,544.6z"/>
	<path class="st8" d="M260.4,415.3c0.9,5.4,6.2,6.1,9.6,8.6c6,4.5,12.2,8.9,19.7,10.6c-0.4,5.7-1,11.5-1.1,17.2
		c-0.1,3.6-1.1,4.7-4.6,3.6c-24.9-8.2-46.7-20-55.9-46.9c-1.1-3.3-2.7-6-6.7-4.7c-3.7,1.2-4,4.3-3,7.7c1.5,5.1,3.6,9.8,6.3,14.3
		c0.9,1.5,2.1,3.1,2.5,4.8c1.9,7.4,0.2,9.1-7,6.8c-6.9-2.3-13.9-4.6-19.9-8.9c-1.5-11.4-0.9-22.5,5.5-32.4
		c8.1-12.5,15.1-15.9,25.9-4.7c1.1,1.1,2.3,2.2,4,2l-0.6,0c0.1,1.4,0.7,1.3,1.4,0.4C244.5,400.8,250.1,410.6,260.4,415.3z"/>
	<path class="st5" d="M161.8,184.5c0.6-9.9,4.9-18.1,11.8-24.8c8.8-8.7,20-9,28.4-0.1c12,12.8,16,28.2,12.4,45.5
		c-0.8,0.2-1.7,0.1-2.3,0.5c-14.8,12.2-33.3,4.2-42.7-9.6C166.9,192.2,166.2,187.1,161.8,184.5z"/>
	<path class="st8" d="M284.9,544.6c2.4,9.7,5.5,19.1,10.2,27.9c9.6,18.3,28,22.5,44.9,10.3c1.9-1.3,3.2-3.5,5.9-3.7
		c2,24-15.3,41.1-38.9,38.3c-10.3-1.2-18-6.2-22.3-16.1c-4.3-9.8-7.6-20-13.2-29.3c-1.4-2.4-0.8-4.5,0.1-6.7
		C274.5,557.5,278.3,550.2,284.9,544.6z"/>
	<path class="st5" d="M386.5,531.5c15.1-5.9,30.3-7.2,45.6-0.5c4,1.7,6.1,3.9,5.7,8.8c-1,13.3-2.7,26.4-9.2,38.4
		c-1.5,0.2-3.1,0.4-4.6,0.6c-20,3.5-29.3-2.7-34.2-22.5C387.8,548.1,387.9,539.7,386.5,531.5z"/>
	<path class="st8" d="M386.5,531.5c1.4,8.3,1.3,16.7,3.3,24.9c4.9,19.9,14.2,26,34.2,22.5c1.5-0.3,3.1-0.4,4.6-0.6
		c-6.4,19.9-22,30.5-39.2,26.7c-13.5-3-21.7-13-21.6-26.9c0-9.9,0.9-19.9,0.2-29.8c-0.5-7.5,2.6-11.1,8.9-13.3
		C380.2,533.9,383.3,532.6,386.5,531.5z"/>
	<path class="st6" d="M461.1,70c-68.5-47.1-172.8-24.7-217.9,57.3c-3.3,5.9-5.8,12.2-8.7,18.4c-5.1-2.9-5.8-6-3.4-11.5
		c33.5-75,124.1-114.5,201.6-87.6c12.4,4.3,21,13.5,30,22.3C462.1,69.2,461.6,69.6,461.1,70z"/>
	<path class="st6" d="M281.4,357.7c14.5,3.3,28.7,7.6,43.7,8.7c21.5,1.7,42.2-1.6,62.2-9.7c2.2-0.9,4.4-1.9,5-4.6
		c6.8,4,7.7,8.1,2.1,14.6c-6.8,8-12.3,17.1-19.6,27.5c0-9.5,0-16.9,0-24.4c0-1.5,0.4-3.6-1.5-4c-2.6-0.5-2.2,2.2-2.8,3.7
		c-0.1,0.2-0.1,0.5-0.1,0.8c-2,6.9-0.2,17.2-5.6,20.2c-5.2,2.9-14-0.6-21.3-1.4c-23.8-2.6-45.7-9.1-60.8-29.5
		C282.1,359.1,281.8,358.4,281.4,357.7z"/>
	<path class="st6" d="M188.8,144.2c11.9-6.8,24-5.1,34.1,4.7c11.3,11,16.1,24.9,16.9,40.3c1,17.6-2.8,33.9-14.6,47.5
		c-6.6,7.6-14.8,12-26,11.6c25.9-19.3,29.6-44.9,22.1-73.1C217,159.4,207.6,147,188.8,144.2z"/>
	<path class="st9" d="M414.8,325.4c-10.7,5.4-21.8,10.6-33.8,11.3c-59.2,3.4-119.9-24.8-147.6-83.5c-2.4-5.1-3.4-9.2,2.4-12.5
		C272.5,317,335,339.1,414.8,325.4z"/>
	<path class="st8" d="M161.8,184.5c4.4,2.6,5.1,7.7,7.8,11.5c9.4,13.8,27.9,21.8,42.7,9.6c0.5-0.4,1.5-0.4,2.3-0.5
		c0.3,11-4.1,20.3-11.4,28.2c-9.7,10.4-22.1,10.5-31.2-0.5C160.2,218.8,157,202.3,161.8,184.5z"/>
	<path class="st6" d="M370.2,504.1c9-4.2,18-8.5,25.4-15.2c2.5-2.2,5-2.2,8-1.7c19.6,3.6,29.8,14.3,32.8,36
		c-16.9-8-33.7-5.5-50.5-1.7C385.4,511.3,378,507.5,370.2,504.1z"/>
	<path class="st6" d="M395.3,448.1c0.8,0.6,1.8,1.2,2.5,1.9c9.6,10.1,9.6,13.2,0.1,23.2c-11,11.6-23.8,20.3-39.8,23.6
		c-9.3,1.9-18.3,0.9-26.8-3.1c-5.2-2.5-10.2-6-6.9-13.3c3,1,5.9,2.7,8.9,2.8c24,0.9,43.9-7.8,59.4-26.3
		C394.7,454.3,396.1,451.5,395.3,448.1z"/>
	<path class="st8" d="M228.4,486.7c-29.2-1.3-56.3-9.3-80-26.8c-4.6-3.4-7.2-2.8-9.8,1.6c-1.4-8.2,2.1-15.9,2.1-25.2
		c3.7,2.9,6.8,5,9.6,7.4c20.6,17.4,44.5,28.3,70.9,33.3C227.5,478.2,230,480.5,228.4,486.7z"/>
	<path class="st8" d="M298.5,439.5c20.5,5.5,41,5.9,61.8,1.6c9.5-1.9,17.6-7.5,27-9.6c-2.2,7-7.8,11-13.5,14.5
		c-22.2,13.8-46.7,15.8-71.9,13.2c-3.1-0.3-4.8-1.5-4.5-4.9C297.6,449.3,297,444.3,298.5,439.5z"/>
	<path class="st6" d="M132.5,398.5c4.4-7,8.9-7.5,14.5-1c10.4,11.9,21.7,22.7,34.7,31.7c12.1,8.4,25,15.5,39.5,18.6
		c6.8,1.5,7.8,4.8,6.9,10.3c-1.8,0-3.7,0.3-5.4-0.1c-34.4-8.4-63.5-25.1-84.6-54.3C136.5,401.6,135.7,398.8,132.5,398.5z"/>
	<path class="st9" d="M305.8,333c-2.6,1.5-4.1,0.9-5.6,0.5c-38.3-12.5-68.3-35.7-89.6-70c-2.7-4.3-1.8-4.9,2.6-7.3
		c8.9-4.9,11.6-1.4,15.5,6.3c15.2,30.3,39,52.1,69.4,66.8C300.3,330.4,302.6,331.5,305.8,333z"/>
	<path class="st6" d="M412,453.2c-4-4.6-7.7-9.3-11.8-13.6c-2.2-2.3-2-4.4-1.1-7.1c4.1-13.1,0.6-23.7-10.8-31.6
		c-1.4-1-3.7-1.6-2.5-4.1c1-2.3,3.1-1.5,4.8-1.3c6,0.7,12.1,1.3,18-0.1c6.2-1.4,8.5,0.5,9.9,6.6C422.5,420,420.5,436.9,412,453.2z"
		/>
	<path class="st8" d="M132.5,398.5c3.2,0.2,4,3.1,5.5,5.1c21.1,29.2,50.2,45.9,84.6,54.3c1.7,0.4,3.6,0.1,5.4,0.1
		c0.5,10.5,0.5,10.6-9.5,8.2c-34.6-8.3-63.5-25.4-83.9-55.2C132,407.4,128.7,403.5,132.5,398.5z"/>
	<path class="st8" d="M395.3,448.1c0.8,3.4-0.6,6.3-2.6,8.7c-15.4,18.5-35.3,27.3-59.4,26.3c-3-0.1-5.9-1.8-8.9-2.8
		c1.4-7,5.5-10.4,12.8-11.4c19.3-2.5,37.3-8.3,51.7-22.2C392.1,443.6,393.7,444.9,395.3,448.1z"/>
	<path class="st8" d="M370.2,504.1c7.8,3.4,15.2,7.2,15.6,17.3c-6.1,2.8-12.2,5.7-18.4,8.5c-4,1.8-19.5-2.7-21.8-6.6
		c-4-6.8-9.1-12.6-15-17.7c0.3-0.3,0.5-0.6,0.8-0.9C344.4,508.6,357.3,508.1,370.2,504.1z"/>
	<path class="st6" d="M206,278.8c-5.7,6.2-10.5,11.3-15.1,16.6c-1.8,2.1-3.1,2.8-5.7,0.8c-12.5-9.5-25.9-17.4-41.2-22.3
		C164.7,271.3,184.7,275,206,278.8z"/>
	<path class="st10" d="M27.1,848.5c3.7,0.1,5,3.8,7.9,5.2c0.5,0.9,1,1.8,1.5,2.7c3,19.7,9.3,38.4,17.3,56.6
		c2.5,5.7,6.1,10.9,6.3,17.4c-12.1-16.3-19.4-35-26-54C30.9,867.4,27.3,858.3,27.1,848.5z"/>
	<path class="st8" d="M263.8,479c-0.2-5.2-0.3-10.4-0.6-15.5c-0.2-3.7,0.9-4.6,4.4-3.2c5.1,2,10.2,4.6,15.4,5.2
		c9,1,11.1,5.7,9.5,13.5C283,478.4,273.4,478.2,263.8,479z"/>
	<path class="st5" d="M263.8,479c9.6-0.8,19.2-0.6,28.8-0.1c0.1,1.3,0,2.6,0.2,3.9c1.1,6.5-0.9,9.7-8.2,8.9c-4.3-0.5-9-0.2-13.2,1
		c-6.5,1.8-8.2-0.7-7.7-6.6C264,483.7,263.8,481.4,263.8,479z"/>
	<path class="st8" d="M238.4,467.9c0-7.5,0-15,0-22.5c15.6,8.3,16.7,10.3,14.7,28.9C247.1,474.5,244,468.2,238.4,467.9z"/>
	<path class="st5" d="M238.4,467.9c5.7,0.3,8.8,6.5,14.7,6.4c0.3,2.6,0.3,5.2,0.8,7.7c1.4,7.6-1.1,10.4-9.3,9.5
		c-4.9-0.6-6.1-2.1-6-6.5C238.6,479.3,238.4,473.6,238.4,467.9z"/>
	<path class="st10" d="M151.7,576.2c-2.4-3.8-7.7-5.4-8.2-10.7c1.8-2.8,5.1-3.5,7.4-5.5c3.7-3,6.8-2.7,10.2,0.5
		c2.4,2.3,5.5,3.9,8.3,5.9c-5.9,2.5-11.4,5.7-16.4,9.8h-0.7L151.7,576.2z"/>
	<path class="st6" d="M390.5,388.8c5.6-7.8,10-13.8,14.8-20.4c2.1,4.3,3.9,7.5,5.4,10.8c3.9,8.7,3.8,8.9-6,9.5
		C400.6,389,396.5,388.8,390.5,388.8z"/>
	<path class="st6" d="M313.5,478.7c0,1,0.1,2.1-0.1,3.1c-0.7,2.7,1.9,6.9-0.7,7.9c-3.9,1.5-8.6,1.1-13,1.2c-2.1,0-2-2-2-3.5
		c0-2.8,0.1-5.7,0.2-8.5C303.1,478.8,308.3,478.8,313.5,478.7z"/>
	<path class="st8" d="M313.5,478.7c-5.2,0.1-10.4,0.1-15.6,0.2c-0.4-10.8-0.4-10.8,18.6-7.9C315.5,473.6,314.5,476.2,313.5,478.7z"
		/>
	<path class="st1" d="M357.1,556.9c-1-4.6-2.2-9.1-3.1-13.7c-0.3-1.5-2.4-3.8,0.7-4.4c2.5-0.5,3.7,1.5,3.7,3.9c0,4.7,0,9.3,0,14
		C358,556.8,357.6,556.9,357.1,556.9z"/>
	<path class="st10" d="M61.5,932c2.8,1.2,3.4,3.6,3.2,6.3C62.8,936.6,61,934.9,61.5,932z"/>
	<path class="st6" d="M464.6,71.1c1.5,0.5,1.8,1.4,1,2.8c-0.7-0.6-1.4-1.1-2.1-1.6C463.9,71.9,464.3,71.5,464.6,71.1z"/>
	<path class="st6" d="M463.5,72.2c-0.8-0.8-1.6-1.5-2.5-2.3c0.5-0.4,1-0.8,1.6-1.2c0.7,0.8,1.3,1.6,2,2.3
		C464.3,71.5,463.9,71.9,463.5,72.2z"/>
	<path class="st8" d="M330.7,505.6c-0.7-0.3-2,0.4-2.1-1.1c1,0.1,1.9,0.2,2.8,0.2C331.2,505,330.9,505.3,330.7,505.6z"/>
	<path class="st10" d="M66.3,939.8c1.3,0.9,1.6,2.2,1.6,3.6C66.8,942.4,66,941.4,66.3,939.8z"/>
	<path class="st11" d="M199.7,265.6c0.6,2,0.1,2.5-1.7,1.3C198.6,266.5,199.2,266,199.7,265.6z"/>
	<path class="st11" d="M708.3,181.2c0.3-0.2,0.6-0.4,0.9-0.5c-0.2,0.3-0.3,0.6-0.5,1C708.7,181.7,708.3,181.2,708.3,181.2z"/>
	<path class="st5" d="M129.7,424.5c-0.6-0.9-1.1-1.8-1.7-2.7C130.1,421.8,130.7,422.7,129.7,424.5z"/>
	<path class="st10" d="M60,930.4c0.5,0.5,1.1,1.1,1.6,1.6C60.3,932.2,60,931.4,60,930.4z"/>
	<path class="st10" d="M64.7,938.2c0.5,0.6,1.1,1.1,1.6,1.7C65.2,939.9,64.8,939.2,64.7,938.2z"/>
	<path class="st1" d="M83.7,809.2c-0.7-15.7-1.2-31.4,8.9-44.9c2.2-2.9,4.5-5.7,6.8-8.5c5.1-4.7,11-8,17.3-10.7
		c21.2-8.9,46-3.7,62.3,13.1c15.5,16,19.6,40.2,10.3,60.5c-9.6,20.9-30.5,33.5-54.2,31.7C108.9,848.3,92.8,833,83.7,809.2z"/>
	<path class="st1" d="M285.6,887.7c17.4,4.4,31.2,13.1,37.5,30.9c0.8,3.8,1.8,7.7,2.3,11.5c3.3,23.8-13.5,46.7-35.9,49
		c-10.5,1.1-20.9,0-31-3.4c-29.4-9.9-42.4-41.4-26.6-65.1c9.7-14.6,24.2-20.8,41.4-21.8C277.4,888.5,281.7,890.1,285.6,887.7z"/>
	<path class="st1" d="M421,851.5c12.5-12.8,27.4-18.9,45.4-16.9c0.6,4.1,4.4,4,7.1,5.2c14.8,6.6,22.7,18,23.1,34.3
		c0.6,25.8-21.5,51.4-47,54.9c-26.5,3.6-45-13.5-43.3-40.2c0.6-10.7,4.7-20.3,10.7-29.1C418.5,857.1,421.2,855,421,851.5z"/>
	<path class="st12" d="M83.7,809.2c9.2,23.7,25.2,39.1,51.4,41.2c23.6,1.9,44.6-10.8,54.2-31.7c9.3-20.3,5.2-44.5-10.3-60.5
		c-16.3-16.8-41.1-22-62.3-13.1c-6.3,2.7-12.2,6-17.3,10.7c-6.5-1.2-2.7-4.3-0.9-6.3c6.6-7.3,15.2-11.6,24-15.7
		c1.6-0.3,3.1-0.5,4.6-0.8c26.2-5.9,48.5,1.2,65.5,21.8c16.8,20.3,19.9,43.7,9.3,67.8c-10.7,24.4-30.3,37.4-57,39.1
		c-5.9,0.4-12-0.4-18-0.7c-9.1-3.9-18.3-7.6-26-14.1c-9.9-8.5-16.5-18.9-19.7-31.5C80.6,813.1,78.3,809.4,83.7,809.2z"/>
	<path class="st12" d="M285.6,887.7c-3.9,2.3-8.2,0.8-12.3,1.1c-17.2,1-31.7,7.3-41.4,21.8c-15.8,23.7-2.8,55.3,26.6,65.1
		c10,3.4,20.4,4.5,31,3.4c22.4-2.3,39.1-25.3,35.9-49c-0.5-3.9-1.5-7.7-2.3-11.5c3.4-1.9,5.3-0.2,6.3,2.9c1.5,4.6,2.8,9.2,4.2,13.8
		c-0.4,4.7-0.4,9.4-1.2,14c-4.6,27-22.9,42.7-50.4,43.3c-33.9,0.7-56.5-15.1-68.8-48.1c-1-33.8,14.1-54.8,43.7-60.7
		c7.2-1.4,14.6-1.4,21.8-0.1C281.3,884.2,284.7,883.9,285.6,887.7z"/>
	<path class="st12" d="M421,851.5c0.3,3.6-2.5,5.6-4.2,8.2c-6,8.8-10,18.4-10.7,29.1c-1.6,26.7,16.9,43.7,43.3,40.2
		c25.6-3.5,47.6-29.1,47-54.9c-0.4-16.3-8.2-27.6-23.1-34.3c-2.7-1.2-6.5-1.1-7.1-5.2c7.5-4,13.5,2.2,20.2,3.2
		c18.7,13.8,25.7,32.1,19.7,54.4c-7,25.8-24.1,42.7-50.2,48.9c-26.9,6.4-47-4.9-58.3-31c-4-21,1.1-39.3,16.1-54.7
		C415.7,853.3,417.4,850.4,421,851.5z"/>
	<path class="st1" d="M296,728.2c-1.1-10.9,1.1-21,7.5-30c3.6,0.4,5.6-2.5,8.3-3.9c15.1-7.7,33.4-2.8,41.9,11.4
		c7.9,13.3,4.1,30.7-8.7,39.7c-13.3,9.2-31.6,6.4-42.1-6.7C300.2,735.5,298.3,731.7,296,728.2z"/>
	<path class="st7" d="M126.9,861c6,0.3,12,1.1,18,0.7c26.7-1.7,46.3-14.7,57-39.1c10.6-24.1,7.5-47.5-9.3-67.8
		c-17-20.6-39.3-27.7-65.5-21.8c-1.5,0.3-3.1,0.5-4.6,0.8c25.1-15.5,61.8-9,83.9,14.8c18.8,20.2,24.1,51.2,12.5,76.1
		c-12.9,27.6-35.2,41.4-65.4,42.3C144.3,867.3,135.2,865.6,126.9,861z"/>
	<path class="st12" d="M296,728.2c2.2,3.5,4.2,7.3,6.8,10.5c10.5,13.1,28.9,16,42.1,6.7c12.8-8.9,16.6-26.4,8.7-39.7
		c-8.5-14.2-26.7-19.1-41.9-11.4c-2.7,1.4-4.7,4.3-8.3,3.9c-2.6-3.2,0.5-4.7,2.1-6.4c6.1-6.2,13.9-8.8,22.2-10.3
		c22,1.2,36.4,11.9,40.7,30.2c6,25.2-10.8,46.4-38.9,49.2c-16.3-1.5-28.5-9-34.5-24.8C294.3,733.8,291.4,730.3,296,728.2z"/>
	<path class="st1" d="M169.9,631c1.4,5.4-1.9,9.1-5,12.5c-9.9,10.8-22.3,17.2-36.8,18.9c-5.4,0.6-11.2,0.3-13.1-6.7
		c1.7-0.6,2.3-1.8,2.9-3.4C126.3,630.5,149.2,621.1,169.9,631z"/>
	<path class="st12" d="M466.1,711.8c-2.2,0.8-3.9,0.1-5.7-1.5c-10-8.5-14.2-28.2-8.4-39.9c3.3-6.7,8.9-10.1,15.8-11.9
		c7.3,0.3,13.6,2.8,19,7.8c14.3,13.2,16.8,33.9,6,50.3c-3.4,1.9-6.3,5.5-10.8,2.8c12.6-15.2,10.3-36-5.1-45.9
		c-7.6-4.9-13.5-2.8-16.3,5.8c-1.2,3.5-1,7.2-1,10.9C459.6,698,464,704.6,466.1,711.8z"/>
	<path class="st1" d="M466.1,711.8c-2.1-7.2-6.5-13.7-6.6-21.6c0-3.7-0.2-7.3,1-10.9c2.8-8.6,8.7-10.7,16.3-5.8
		c15.4,9.9,17.7,30.7,5.1,45.9C475.3,719.7,469.3,718.7,466.1,711.8z"/>
	<path class="st7" d="M329.6,760.9c28.1-2.8,44.9-24,38.9-49.2c-4.3-18.3-18.7-28.9-40.7-30.2c15.2-4.1,31.8,1.8,41.5,14.9
		c10.3,13.7,11.2,31.3,2.4,45.6C362.6,756.9,346.7,764.1,329.6,760.9z"/>
	<path class="st12" d="M169.9,631c-20.7-9.9-43.6-0.5-52,21.3c-0.6,1.5-1.3,2.8-2.9,3.4c-3.5-4.3-2.3-9-0.8-13.4
		c5.4-15.9,25.4-27.7,42.1-24.9C165.6,618.9,170.3,623.6,169.9,631z"/>
	<path class="st7" d="M492.8,716.7c10.8-16.4,8.3-37.1-6-50.3c-5.4-5-11.7-7.6-19-7.8c5.8-4.7,12-4.4,18.2-1.3
		c15.5,7.6,25.2,31.6,19.2,47.7C503,710.8,499.6,715.7,492.8,716.7z"/>
	<path class="st13" d="M424.8,86.8c3.2,0.3,4,0.3,4.8,0.4c28.4,0.4,44,16.9,53.5,41.8c15.5,40.8,14,79.4-15.6,116.9
		C472.8,186.9,458.2,134.9,424.8,86.8z"/>
	<path class="st13" d="M277.9,166.7c-0.2-14.1,9.7-25.8,21.9-25.9c12.4-0.1,22.7,11.7,22.7,26.1c0,13.7-9.6,25.2-21.5,25.5
		C288.6,192.8,278.1,181.1,277.9,166.7z"/>
	<path class="st13" d="M287.6,219.8c0.4-4.9,2.7-9.1,8.7-9.6c5.2-0.5,9.8,5,9.6,11.1c-0.2,5.6-2.7,9.6-8.6,10.2
		C292.2,231.9,287.5,226.4,287.6,219.8z"/>
	<path class="st12" d="M260.4,415.3c-10.2-4.7-15.8-14.6-24.1-21.5c-0.5-0.1-0.9-0.3-1.4-0.4l0.6,0c-2.6-12,5.8-26.4,17.6-30
		c5.3-1.6,10-0.4,13.9,3.1c5.6,5.1,11.1,10.4,16.1,16c5.4,6,5.5,14.1-0.1,19.9C276.8,408.9,271.6,417.5,260.4,415.3z M278.2,393.4
		c-0.1-2.5-0.9-4.1-2.2-5.5c-4.6-4.6-9.3-9.2-13.9-13.9c-3.1-3.1-6.3-3.4-9.6-0.2c-2.4,2.4-4.8,4.8-7.2,7.2
		c-3.1,3.2-3.1,6.4,0.1,9.6c3.7,3.7,7.4,7.4,11.1,11.1c2.8,2.7,5.5,6.8,9.9,4.1C271.4,402.8,275.8,398.6,278.2,393.4z"/>
	<path class="st5" d="M234.9,393.4c0.5,0.1,0.9,0.3,1.4,0.4C235.6,394.7,235,394.8,234.9,393.4z"/>
	<path class="st14" d="M278.2,393.4c-2.4,5.1-6.8,9.4-11.9,12.5c-4.3,2.7-7.1-1.4-9.9-4.1c-3.7-3.7-7.4-7.4-11.1-11.1
		c-3.1-3.2-3.2-6.4-0.1-9.6c2.4-2.4,4.8-4.9,7.2-7.2c3.3-3.2,6.5-2.9,9.6,0.2c4.6,4.6,9.3,9.2,13.9,13.9
		C277.3,389.3,278.1,390.9,278.2,393.4z"/>
</g>
<g>
	<path class="st3" d="M949,829c0.3,0.4,0.5,0.6,0.7,0.8c1.8,2.4,2.5,5,2.2,8c-0.3,3.5-1.9,6.5-4.3,9.1c-0.3,0.3-0.6,0.6-0.4,1.2
		c2.3,6.4,2.1,12.9,0.2,19.3c-1.7,5.5-4.5,10.4-8,15c-4.2,5.5-9.2,10.3-14.6,14.7c-8.8,7.1-18.3,13.1-28.2,18.4
		c-0.8,0.4-1.6,0.8-2.4,1.3c-0.1,0-0.1,0.1-0.1,0.1c0,0.3,0.2,0.3,0.4,0.3c3.1,1.3,4.4,4,4.2,7.1c-0.4,5.6-4.6,10.2-10.1,11.4
		c-6.3,1.3-12.7-2.3-14.7-8.5c-0.4-1.2-0.4-1.2-1.5-0.8c-9.4,3.5-19,6.3-28.9,8.2c-7.4,1.4-14.9,2.3-22.4,2.4
		c-7.1,0.1-14.1-0.6-21-2.5c-5.4-1.5-10.4-3.7-14.9-7.1c-2.3-1.8-4.4-3.8-6.2-6.1c-0.5-0.6-0.5-0.6-1.3-0.4c-1.9,0.6-3.9,1-6,0.9
		c-3.3-0.1-5.7-1.8-6.8-4.9c-0.7-1.8-0.8-3.8-0.9-5.7c0-1,0-1.9,0-2.9c0-0.8-0.3-1.4-1-1.8c-0.7-0.4-1.5-0.7-2.3-1
		c-1.3-0.4-2.6-0.9-3.9-1.3c-0.9-0.3-1.8-0.7-2.6-1.3c-2.5-1.6-3.5-3.9-3.1-6.8c0.4-3.5,2.3-6,5.6-7.4c0.9-0.4,1.9-0.7,2.8-0.9
		c0.3-0.1,0.6-0.1,0.8-0.2c0.1-0.2-0.1-0.4-0.2-0.6c-0.6-1.4-1.2-2.8-1.7-4.2c-0.3-0.8-0.3-0.8-1.2-0.5c-1.6,0.6-3.2,1.2-4.9,1.7
		c-1,0.3-1.9,0.5-2.9,0.5c-2,0-3.3-1.4-3.1-3.4c0.1-1.1,0.4-2.1,0.9-3c0.9-2,2.1-3.7,3.5-5.2c0.2-0.2,0.5-0.4,0.6-0.7
		c-0.4-0.2-0.8-0.3-1.2-0.4c-3.5-1.2-5.5-3.8-5.6-7.5c-0.1-5,1.7-9.2,5.6-12.3c0.8-0.6,1.5-1.2,2.4-1.7c0.6-0.3,0.7-0.7,0.6-1.3
		c-0.3-1.7-0.4-3.3-0.6-5c-0.4-4.3-0.5-8.6-0.3-12.9c0.3-5.8,1.1-11.6,2.6-17.2c4-15.8,11.8-29.5,23.2-41.2
		c9.6-9.8,20.9-17.1,33.8-21.8c6.8-2.5,13.8-4,20.9-4.8c34.8-3.7,68.6,13,86.7,43c0.8,1.4,1.5,2.8,1.9,4.3c0.1,0.5,0.3,0.6,0.8,0.5
		c2.5-0.4,4.9-0.6,7.4-0.4c5.1,0.5,9.2,2.6,11.9,7c1.9,3,3.1,6.2,3.5,9.8c0.1,1,0,2-0.2,3.1c-0.2,0.7-0.2,0.7,0.5,1.1
		c2.2,1.3,4.2,3,5.9,5c0.9,1.1,1.7,2.3,2.2,3.7c0.3,0.7,0.4,1.4,0.5,2.1c0.1,1.7-0.7,2.8-2.3,3.3C950.7,828.7,949.9,828.8,949,829z
		 M939.7,873.7c0.1,0,0.2-0.1,0.2-0.2c0.1-0.1,0.2-0.2,0.2-0.3c2.2-4,3.7-8.3,4.2-12.8c0.1-0.8,0.2-1.7,0.1-2.6
		c0.1-1.6,0-3.1-0.4-4.7c-0.1-0.9-0.3-1.8-0.7-2.7c-0.1,0-0.2,0-0.3,0.1c-1.6,1-3.4,1.8-5.2,2.5c-1.1,0.5-1.6,1.3-1.7,2.4
		c-0.3,2.9-0.2,5.8,0.1,8.6c-0.1,0.7-0.1,1.4-0.2,2c-0.3,2.2-1.2,4.1-3,5.4c-0.6,0.4-1.2,0.8-1.8,1.1c-0.2,0-0.3,0-0.3,0.2l0,0
		c-0.3,0-0.5,0.1-0.8,0.2c-1.2,0.4-2.4,0.6-3.6,0.7c-2.9,0.3-5.9,0.3-8.8,0.5c-1.8,0.1-3.6,0.4-5.3,0.8c-2.4,0.6-4.5,1.7-6.2,3.6
		c-2.2,2.3-4.1,4.9-6.1,7.4c-1.4,1.8-2.8,3.6-4.5,5.2c-2.1,1.9-4.4,3.3-7.2,4c-1.6,0.4-3.3,0.7-5,0.7c-1,0-1,0-0.6,0.9
		c0.2,0.6,0.5,1.3,0.9,1.9c0,0.1,0,0.2,0.1,0.4c1.1,2.4,1.7,5,1.5,7.7c0,0.1-0.1,0.2-0.1,0.3c-0.7,3.3-3,5.2-6.4,5.3
		c-1.7,0-3.2-0.4-4.7-1.1c-1.2-0.6-2.2-1.3-3.2-2.1c-0.9-0.7-1.5-1.6-2.3-2.4c-1-1.1-1.1-1.1-2.2-0.1c-0.4,0.4-0.8,0.8-1.3,1.2
		c-0.7,0.6-1.4,1.3-2.1,1.8c-2.8,2.2-6,3.4-9.6,3.8c-4.4,0.5-8.5-0.1-12.4-2.4c-2.9-1.7-5.9-3.1-9.1-4c-1.7-0.5-3.4-0.7-5.1-0.5
		c-2.6,0.2-4.3,1.7-5.6,3.9c-0.4,0.6-0.7,1.3-1,2c-1.1,2.1-2.6,3.9-4.6,5.2c-3.2,1.9-6.3,1.9-9.5,0c-1.7-1.1-3-2.6-4.1-4.3
		c-0.4-0.5-0.7-1.1-1.1-1.6c-1-1.3-1.9-1.5-3.4-0.9c-0.8,0.3-1.6,0.8-2.4,1.2c-3.8,2.3-7.6,4.6-11.7,6.5c-0.6,0.3-0.6,0.3-0.2,0.7
		c0.8,0.9,1.6,1.8,2.5,2.6c3.3,3,7,5.1,11.1,6.7c6.5,2.5,13.4,3.5,20.3,3.7c3.9,0.1,7.8,0,11.7-0.3c4.4-0.4,8.8-1,13.1-1.8
		c9.5-1.8,18.7-4.4,27.8-7.7c1-0.4,2.1-0.8,3.1-1.2c0.3-0.1,0.6-0.3,0.6-0.6c0.1-0.7,0.4-1.4,0.6-2.1c0.1-0.2,0.3-0.3,0.4-0.5
		c0.9-1.1,2-1.5,3.4-1.3c0.2,0,0.4,0.1,0.6,0.1c0.6,0.2,1.2,0.4,1.8,0.7c0.6,0.3,1.2,0.2,1.9-0.1c6.5-2.9,12.8-6.1,18.9-9.7
		c8.7-5.1,17.1-10.7,24.6-17.4c4.5-4,8.6-8.4,12-13.4c0.6-0.9,1.3-1.9,1.8-2.9l0,0C939.6,874,939.7,873.8,939.7,873.7L939.7,873.7z
		 M877.5,878.5c0.2-0.1,0.2-0.2,0-0.3c-0.2,0-0.3,0.1-0.2,0.3l0,0c-0.4,0-0.6,0.3-0.9,0.4c-2.5,1.5-5.2,2.3-8.1,2.4
		c-2.7,0.1-5.3-0.4-7.9-1.2c-3.3-1.1-6.5-2.4-9.7-3.7c-2.1-0.9-4.2-1.7-6.4-2.3c-3-0.8-5.6-0.1-7.7,2.2c-0.6,0.7-1.2,1.3-1.7,2.1
		c-2.4,3.4-5.6,6-9.4,7.6c-0.2,0.1-0.4,0.1-0.5,0.4c0.8,0.9,1.6,1.9,2.3,2.8c2.5,3.1,4.8,6.4,7.1,9.6c2,2.7,4,5.3,6.4,7.5
		c2,1.7,4.2,3,6.8,3.4c1.6,0.3,3.1,0.3,4.7,0.1c2.3-0.2,4.5-0.8,6.5-2c1.3-0.8,2.5-1.8,3.6-2.9c0.7-0.7,1.5-1.4,2.3-2
		c1.6-1.1,3.2-1.1,4.8,0c0.9,0.6,1.6,1.3,2.2,2.1c0.9,1.2,2,2.1,3.4,2.8c0.8,0.4,1.6,0.8,2.6,0.8c1.6,0.5,3.4-0.5,3.5-2.4
		c0-0.8,0-1.5-0.2-2.3c-0.3-1.4-0.8-2.7-1.4-4c-1.5-3.3-2.3-6.8-2.6-10.4c-0.2-2.8-0.1-5.6,0.2-8.4
		C877.4,880.2,877.6,879.4,877.5,878.5L877.5,878.5z M763.9,885.8c0,0.4,0.1,0.7,0.4,0.9C764.4,886.3,764.3,886,763.9,885.8
		c0-0.3,0-0.5-0.1-0.8c-0.2-0.9-0.4-1.9-0.2-2.8c0.1-0.7,0.1-1.3,0.2-2c-0.7,0-1.1,0.3-1.7,0.4c-0.3,0.1-0.4,0.4-0.3,0.7
		C762.6,882.8,763,884.4,763.9,885.8z M894.7,924.1c0.3-1.9-0.5-3.1-2.3-3.5c-0.3-0.1-0.6,0-0.8-0.1c-0.4-0.2-0.8-0.1-1.2-0.1
		c-1.4,0.1-2.7,0.4-4.1,0.9c-2.1,0.8-4.2,0.8-6.3,0.2c-0.7-0.2-1.4-0.4-2-0.6c-0.6-0.1-0.6-0.1-0.8,0.5c-0.4,1.9-0.2,3.8,0.6,5.5
		c1.4,3.2,4.8,5.3,8.1,5.2c3.4,0.1,6.9-2.1,8.2-5.4C894.4,925.8,894.8,925,894.7,924.1z M749,860c-0.1,0-0.1,0.1-0.1,0.2
		c-0.4,1.4-0.5,2.9-0.4,4.4c0.1,1.5,0.9,2.6,2.3,3.2c0.8,0.4,1.7,0.6,2.6,0.6c0.1,0.1,0.1,0.1,0.2,0c0.6,0.1,1.2,0.2,1.9,0.1
		c2.1,0.1,4.2-0.1,6.3-0.3c1.4-0.1,2.7-0.2,4.1-0.2c2.9,0,4.5,2.1,4.1,4.9c-0.2,1.4-0.7,2.7-1,4.1c-0.7,1.8-1.3,3.7-1.4,5.7
		c0,1.9,0.6,2.8,2.4,3.4c1.8,0.6,3.6,0.7,5.5,0.5c2.6-0.3,4.8-1.5,6.8-3.1c2-1.6,3.8-3.5,5.5-5.4c1.2-1.3,2.3-2.5,3.7-3.6
		c1.5-1.2,3.1-2,5.1-1.9c1,0.1,1.9,0.4,2.8,0.8c0.6,0.3,1,0.8,1.6,1.1c0.6,0.6,1.2,1.2,1.8,1.9c1.7,2,3.6,3.6,5.8,4.9
		c2.8,1.6,5.8,2.5,9,2.4c1.9,0.1,3.8-0.3,5.6-0.9c3.6-1.2,6.4-3.4,8.6-6.5c1.5-2.1,3.2-3.9,5.4-5.2c0.3-0.1,0.5-0.2,0.8-0.3
		c1.4-0.6,3-0.9,4.5-0.8c1.8,0.1,3.6,0.5,5.4,1.1c3.2,1.1,6.3,2.5,9.4,3.7c2.5,1,5,2,7.7,2.4c1.4,0.2,2.8,0.5,4.2,0.1
		c0.7,0,1.4-0.1,2-0.3c4.5-1.3,7.2-4.3,8.6-8.6c1.2-3.6,1-7.3,0.1-10.9c-0.3-1.3-0.8-2.5-1-3.8c-0.3-2.3,0.2-4.3,2.4-5.6
		c1.4-0.5,2.8-0.7,4.3-0.5c2.3,0.2,4.6,0.6,6.9,1c1.5,0.2,3,0.4,4.5,0.4c1.2,0.1,2.4,0,3.5-0.2c2.9-0.5,5.1-1.9,6.5-4.6
		c2.4-4.6,2.9-9.4,1.1-14.4c0-0.5-0.2-0.9-0.2-1.4c0-0.1,0-0.2,0-0.4c-0.2-2.4,0.9-4,3-5.1c1-0.5,2-0.9,3-1.2c3.3-1,6.6-1.5,10-2.2
		c3.5-0.7,6.9-1.4,10.3-2.4c1.7-0.5,3.3-1.1,4.8-2c1.7-1.1,2.5-2.6,2.2-4.7c0-0.2,0-0.3,0-0.5c-0.5-2.7-1.4-5.2-2.9-7.5
		c-1.5-2.3-3.5-4-6.2-4.7c-1.1-0.4-2.2-0.5-3.3-0.6c-1.5-0.1-3-0.1-4.5,0.2c-0.7,0.1-1.5,0-2.1,0.6c-0.2,0.5-0.1,1-0.1,1.4
		c-0.2,2.9-1,5.6-2.5,8.1c-0.5,0.9-1.2,1.7-1.6,2.6c-0.1,0.1-0.2,0.2-0.3,0.3c-2.3,3.3-4.8,6.4-7.4,9.4c-0.1,0.2-0.3,0.3-0.3,0.5
		l0,0c-0.1,0-0.2,0.1-0.3,0.2c-0.9,0.9-1.8,1.9-2.7,2.9c-1,1-2,2-3.1,3c-1.3,1.3-2.7,2.5-4.1,3.8c-0.1,0.1-0.3,0.2-0.4,0.3
		c-2.5,2.2-5.1,4.3-7.8,6.3c-1.8,1.3-3.6,2.6-5.3,3.9c-0.2,0.1-0.3,0.2-0.5,0.3c-3.5,2.4-7.1,4.6-10.8,6.7c-1.2,0.7-2.3,1.3-3.5,2
		c-0.3,0.1-0.6,0.3-0.9,0.4c-2.6,1.3-5.3,2.7-7.9,3.9c-7.7,3.6-15.6,6.6-23.7,9.1c-0.2,0-0.3,0.1-0.4,0.2c-0.2,0-0.4,0-0.6,0.1
		c-3.6,1-7.1,2-10.8,2.8c-1.6,0.4-3.2,0.7-4.8,1.1c-1.1,0.1-2.1,0.4-3.2,0.5c-3.1,0.5-6.1,0.9-9.2,1.2c-2.3,0.2-4.7,0.4-7,0.5
		c-3,0.1-6.1,0-9.1,0c-0.4,0-0.7,0-1.1,0c-0.5-0.2-1-0.2-1.5-0.2c-1.8-0.1-3.6-0.3-5.4-0.5c-2.2-0.2-4.3-0.6-6.4-0.9
		c-0.4-0.1-0.7-0.2-1.1-0.3c-4.8-1-9.4-2.2-14-4c-3.1-1.2-5.6-3.1-7.6-5.7c-0.9-1.1-1.6-2.4-2.2-3.7c-0.3-0.6-0.4-0.6-0.9-0.2
		c-1.2,0.8-2.3,1.8-3.1,2.9C749.8,857.8,749.2,858.8,749,860L749,860z M926.9,834.1c-2.6,0.7-5.1,1.8-7.5,2.9c-2.1,1-4.1,2-6.2,3
		c-0.3,0.2-0.5,0.4-0.7,0.7c-0.6,1.4-1,2.9-1.6,4.4c-1.3,2.9-3.3,5.2-6.3,6.6c-1.5,0.7-3.2,1-4.9,1.2c-0.2,0-0.4-0.1-0.6,0
		c-1,0.2-2,0.2-3,0c-0.6-0.1-1.1,0.1-1.5,0.5c-2,2.1-3.7,4.3-5.4,6.7c-1.9,2.9-3.6,5.9-4.9,9.1c-0.3,0.7-0.7,1.3-0.7,2.1
		c0.4,0.1,0.7-0.2,1-0.3c4.6-2.2,9.1-4.5,13.6-7c3.2-1.8,6.4-3.6,9.5-5.5c0.6-0.4,1.4-0.7,1.9-1.3c1.2-0.7,2.4-1.4,3.5-2.1
		c3.1-1.9,6.2-4,9.2-6.1c1.5-1.1,3.1-2.2,4.5-3.4c3.2-2.8,5.5-6.1,6.9-10.1c0.3-0.8,0.6-1.6,0.7-2.5c0.2-0.3,0.2-0.6,0.3-0.9
		c0.1-0.3-0.1-0.4-0.4-0.4c-0.2,0-0.3,0.1-0.4,0.1c-2.1,0.6-4.1,1.2-6.1,1.9C927.5,833.7,927.1,833.7,926.9,834.1z M948,837.5
		c0.3-3.4-1.2-6.2-4.2-7.5c-0.3-0.1-0.5-0.3-0.8-0.2c-1.3,0.2-2.7,0.4-4,0.8c-0.5,0.3-0.4,0.8-0.4,1.3c-1.3,7.4-5,13.4-11,17.9
		c-4.6,3.5-9.6,6.7-14.5,9.8c-7.2,4.5-14.5,8.6-22.1,12.5c-2.7,1.4-5.5,2.7-8.3,4c-0.4,0.2-0.8,0.4-0.9,0.9
		c-0.9,4.2-1.3,8.5-0.9,12.8c0.1,0.6,0.2,1.3,0.3,1.9c0.1,0.5,0.3,0.7,0.9,0.7c1.1,0,2.2,0,3.3-0.2c1.1-0.1,2.1-0.4,3.1-0.8
		c1.8-0.6,3.2-1.7,4.6-3c1.3-1.2,2.3-2.6,3.4-3.9c2.1-2.7,4.1-5.4,6.4-7.9c2.1-2.3,4.6-3.8,7.5-4.7c2.5-0.8,5.2-1.1,7.8-1.3
		c2.4-0.1,4.8-0.2,7.2-0.4c1.4-0.1,2.7-0.3,4-0.8c1.6-0.6,2.5-1.7,2.8-3.4c0.2-0.8,0.1-1.7,0.1-2.5c0-2.4-0.1-4.8,0-7.2
		c0.1-2,0.5-3.9,2.1-5.4c1.3-0.9,2.8-1.5,4.2-2.1c1.6-0.7,3-1.6,4.4-2.6c1.6-1.2,2.9-2.7,3.9-4.4C947.5,840.3,948,838.9,948,837.5z
		 M774.1,782.8c-0.1,0.1-0.3,0.3-0.4,0.4c-3.9,5.1-7.2,10.6-9.9,16.5c-5,10.8-7.6,22.2-7.8,34.2c-0.1,2.2,0,4.4,0.1,6.6
		c0.2,3,0.4,6,1,9c0.7,3.7,2.6,6.7,5.8,8.9c0.2,0.3,0.5,0.4,0.8,0.5c1.6,0.9,3.4,1.5,5.2,2.1c5.9,1.9,11.9,3.2,18,3.9
		c3.6,0.4,7.2,0.6,10.8,0.7c3.7,0.1,7.4-0.2,11.2-0.5c2.8-0.2,5.7-0.6,8.5-1c7.3-1.1,14.5-2.8,21.6-5c7.9-2.4,15.5-5.5,23-9
		c8.5-4,16.7-8.7,24.4-14.1c6.7-4.8,13-10.1,18.7-16.1c0.8-0.9,1.8-1.7,2.4-2.7c0.4-0.4,0.9-0.9,1.3-1.3c2.6-3,5-6.2,7.2-9.5
		c3.3-5.1,3.4-10.3,0.3-15.5c-2.4-4-5.1-7.7-8.1-11.2c-0.2-0.2-0.4-0.5-0.7-0.6c0-0.4-0.3-0.6-0.5-0.8c-2.1-2.4-4.4-4.7-6.8-6.8
		c-13.8-12.3-29.9-19.4-48.2-21.5c-5.3-0.6-10.5-0.7-15.8-0.3c-5.7,0.4-11.3,1.4-16.9,2.9c-14.9,4.2-27.8,11.9-38.6,23
		C778.2,777.8,776,780.2,774.1,782.8z M764.7,887.3C764.7,887.2,764.6,887.2,764.7,887.3C764.6,887.3,764.7,887.3,764.7,887.3
		c0,0.3,0.2,0.6,0.4,0.8c1.5,2.5,3.3,4.8,5.5,6.8c2.2,2.1,4.7,3.5,7.5,4.6c2,0.8,4.1,1.2,6.2,1.4c1.5,0.1,3,0.2,4.5,0.1
		c2.3-0.2,4.6-0.6,6.9-0.9c2.8-0.5,5.6-1,8.4-1.5c6.7-1.3,13.4-2.9,20-4.7c0.4-0.1,0.8-0.2,1.2-0.4c0.2-0.1,0.3-0.2,0.2-0.4
		c-0.1-0.1-0.2-0.2-0.3-0.4c-1.2-1.8-2.7-3.3-4.1-5c-0.2-0.3-0.5-0.4-0.8-0.3c-1.2,0.3-2.4,0.1-3.5,0.2c-2.4,0-4.7-0.5-7-1.4
		c-3.2-1.2-5.9-3.1-8.4-5.5c-1.1-1.1-2.1-2.4-3.3-3.4c-1.1-0.9-2.7-1.1-3.8-0.2c-0.7,0.5-1.4,1-1.9,1.6c-1.3,1.3-2.6,2.8-3.9,4.2
		c-2,2.1-4.1,4-6.6,5.4c-2.3,1.3-4.7,2.1-7.3,2.2c-1.9,0.1-3.7-0.1-5.5-0.7c-1.5-0.5-3-1.1-4-2.5C765,887.4,764.9,887.3,764.7,887.3
		z M833,903.5c0-0.2,0-0.2-0.1-0.3c-1.5-2-3-4.1-4.5-6.1c-0.2-0.3-0.5-0.4-0.9-0.3c-0.6,0.2-1.1,0.3-1.7,0.5
		c-5.7,1.6-11.4,3-17.1,4.2c-4.6,1-9.3,1.8-13.9,2.5c-1.9,0.3-3.7,0.6-5.6,0.7c-3.6,0.2-7.1,0-10.5-1c-5.3-1.6-9.8-4.5-13.4-8.7
		c-0.9-1-1.7-2.1-2.4-3.2c-0.2-0.3-0.4-0.6-0.8-0.5c-1.9,0.2-3.7,0.6-5.2,1.8c-1.5,1.1-2,2.6-2,4.4c0,1.1,0.6,1.9,1.6,2.5
		c1.3,0.7,2.7,1.1,4.1,1.6c1.4,0.5,2.8,0.9,4.1,1.7c2.1,1.2,3.2,2.9,3.1,5.3c0,1.4,0,2.7,0,4.1c0,1.2,0.2,2.3,0.7,3.4
		c0.5,1.1,1.2,1.7,2.4,2c1.2,0.3,2.4,0.1,3.5-0.2c3.5-0.8,6.7-2.3,9.8-3.9c2.9-1.5,5.7-3.3,8.6-4.9c1.4-0.8,2.9-1.6,4.5-2
		c2.5-0.6,4.5,0.2,6.2,2.1c0.7,0.9,1.3,1.8,1.9,2.8c0.8,1.1,1.7,2.1,2.8,2.8c1.5,0.9,3.1,1,4.7,0.2c1.1-0.5,1.9-1.3,2.7-2.3
		c0.9-1.1,1.4-2.4,2-3.5c1.7-3,4-5.1,7.4-5.9c1.5-0.3,3.1-0.4,4.6-0.2C830.8,903.1,831.9,903.3,833,903.5z M913,835.6
		c0.5,0,0.7-0.2,1-0.3c1.8-0.9,3.6-1.7,5.4-2.5c8.5-3.7,17.3-6.2,26.6-7.2c1-0.1,2.1-0.2,3.1-0.4c0.7-0.1,0.7-0.2,0.5-0.9
		c-0.3-0.6-0.6-1.2-1-1.8c-1.5-2.1-3.5-3.7-5.7-5c-0.4-0.2-0.6-0.2-0.9,0.1c-1.1,0.9-2.3,1.6-3.6,2.1c-2,0.9-4,1.4-6.1,2
		c-4.6,1.2-9.3,2-13.9,3c-1.9,0.4-3.7,0.8-5.4,1.6c-1.2,0.6-1.4,1-1.1,2.3C912.3,830.9,913,833.1,913,835.6z M750.3,880.6
		c1.2-0.2,2.1-0.6,3-0.9c3.8-1.4,7.5-2.9,11.3-4c0.4-0.1,0.6-0.4,0.7-0.7c0.2-0.6,0.4-1.2,0.5-1.9c0.2-1,0.1-1.2-1-1.1
		c-2.5,0.1-5,0.4-7.5,0.4c-0.4,0-0.7,0.2-1,0.4c-1.5,1.2-2.9,2.5-4,4C751.6,877.9,750.9,879.1,750.3,880.6z M884.3,860.2
		c1.8-2.8,3.8-5.4,6-8.1c-0.9-0.2-1.7-0.3-2.4-0.4c-1.4-0.2-2.8-0.4-4.2-0.3c-0.8,0.1-1.1,0.4-1.1,1.2c0,0.2,0,0.4,0.1,0.6
		C883.2,855.6,884.1,857.8,884.3,860.2z"/>
	<path class="st15" d="M907.2,779c0.4,0,0.5,0.3,0.7,0.6c3,3.5,5.7,7.3,8.1,11.2c3.1,5.2,3,10.4-0.3,15.5c-2.2,3.3-4.6,6.5-7.2,9.5
		c-0.4,0.5-0.9,0.9-1.3,1.3c-0.3-0.1-0.6,0.1-0.9,0.3c-1.5,1-3,1.9-4.5,2.9c-3.6,2.3-7.3,4.3-11,6.3c-3.4,1.8-6.9,3.4-10.3,4.9
		c-4,1.8-8.1,3.4-12.2,4.9c-6.2,2.2-12.6,4.1-19,5.6c-3,0.7-5.9,1.3-8.9,1.7c-3,0.4-6,0.9-9,1.1c-0.8,0.1-1.7,0.1-2.5,0.2
		c-2,0.2-4,0.3-6,0.3c-1.7,0-3.5,0-5.2,0c-0.2,0-0.5,0-0.7,0c-1.6-0.3-3.2-0.1-4.8-0.3c-0.9-0.2-1.9-0.1-2.9-0.2
		c-2.1-0.3-4.1-0.6-6.2-0.9c-3.2-0.5-6.2-1.4-9.1-2.8c-2.5-1.2-4.8-2.8-7-4.6c-1.4-1.2-2.7-2.6-3.9-4c-2.1-2.6-3.7-5.5-4.9-8.6
		c-1.2-3.3-1.8-6.8-1.9-10.3c-0.1-2.4,0.2-4.7,0.3-7.1c0.2-2.6,0.5-5.1,0.9-7.6c0.7-3.9,1.6-7.8,2.8-11.6c1.5-4.8,3.4-9.5,5.8-13.9
		c0.1-0.3,0.3-0.6,0.3-0.9c0,0,0,0,0,0c0.1-0.1,0.1-0.1,0.2-0.2c1.9-1.5,4-2.9,6.1-4.2c4.5-2.8,9.2-5.2,14.1-7.2
		c5.3-2.2,10.8-3.9,16.4-5.1c1.8-0.4,3.7-0.7,5.6-1c0.4-0.1,0.8-0.1,1.1,0.4c0.5,1.3,1.5,2.1,2.7,2.8c1.5,0.9,3.2,1.5,4.9,1.8
		c2.2,0.4,4.4,0.6,6.7,0.4c2.6-0.2,5-0.7,7.3-2c1.4-0.7,2.6-1.7,3.1-3.2c0.1-0.3,0.3-0.4,0.6-0.4c0.2,0,0.4,0,0.7,0
		c2.8,0.4,5.5,0.9,8.2,1.5c7.8,1.8,15.3,4.5,22.4,8.3c6.8,3.5,13,7.8,18.8,12.8C905.8,777.8,906.4,778.5,907.2,779z M863.3,771.4
		c0.9,0,1.3-0.4,1.1-1.2c-0.1-0.4-0.2-0.7-0.4-1.1c-1.3-2.4-3.2-4.3-5.6-5.6c-0.4-0.2-0.9-0.4-1.4-0.4c-0.6,0-0.9,0.3-0.9,0.9
		c0,0.4,0.2,0.9,0.4,1.2c1.3,2.6,3.3,4.5,5.9,5.8C862.7,771.4,863,771.5,863.3,771.4z M844.3,773.6c0,0.5,0,0.9,0.1,1.3
		c0.4,1.6,1.2,3,2.1,4.3c0.7,1,1.5,1.9,2.6,2.5c0.4,0.2,0.9,0.5,1.4,0.2c0.4-0.3,0.5-0.8,0.4-1.4c0-0.1,0-0.2-0.1-0.4
		c-0.6-2.8-2.1-5.1-4.3-7c-0.4-0.3-0.8-0.6-1.2-0.7c-0.5-0.1-0.9,0.1-1.1,0.6C844.3,773.3,844.3,773.6,844.3,773.6z M814.1,780.7
		c0-0.4,0-0.7,0-1.1c-0.1-0.6-0.1-1.3-0.5-1.9c-0.4-0.6-0.9-0.6-1.4-0.2c-0.4,0.3-0.6,0.6-0.8,1c-1.1,2.2-1.6,4.6-1.5,7.1
		c0,0.6,0.1,1.3,0.5,1.9c0.4,0.7,1,0.7,1.6,0.2c0.5-0.5,0.9-1.1,1.1-1.7C813.8,784.3,814.2,782.6,814.1,780.7z M829.2,781.2
		c0,1.5,0.3,3,0.8,4.5c0.3,0.7,0.6,1.4,1.1,2c0.6,0.6,1.2,0.5,1.6-0.2c0.2-0.3,0.3-0.7,0.4-1.1c0.3-1.6,0.2-3.3-0.1-4.9
		c-0.2-1.1-0.5-2.2-1.1-3.2c-0.3-0.5-0.7-1.2-1.4-1c-0.7,0.1-0.9,0.8-1.1,1.4C829.2,779.4,829.2,780.2,829.2,781.2z M799.6,777.7
		c0-0.4,0-0.8-0.1-1.3c0-0.2-0.1-0.3-0.1-0.4c-0.3-0.6-0.8-0.8-1.4-0.5c-0.5,0.3-0.8,0.7-1.1,1.1c-1.5,2.3-2.3,4.9-2.2,7.7
		c0,0.3,0.1,0.7,0.2,1c0.3,0.6,0.7,0.7,1.3,0.4c0.5-0.2,0.8-0.6,1.1-1.1C798.7,782.5,799.5,780.2,799.6,777.7z M872.6,824.2
		c1,0,1.8-0.8,1.8-1.9c0-0.9-0.9-1.8-1.8-1.8c-1,0-1.9,0.9-1.9,1.9C870.7,823.4,871.6,824.2,872.6,824.2z M875,793.1
		c-0.9,0-1.9,0.9-1.9,1.8c0,0.9,0.9,1.8,1.9,1.9c0.9,0,1.8-0.8,1.8-1.8C876.8,794,876,793.1,875,793.1z M888,781.2
		c1.1,0,1.8-0.7,1.9-1.8c0-1-0.8-1.8-1.8-1.8c-1.1,0-1.9,0.8-1.9,1.8C886.1,780.4,887,781.2,888,781.2z M802.8,828.2
		c0-1.1-0.7-1.9-1.8-1.9c-0.9,0-1.7,0.8-1.7,1.8c0,1.1,0.7,1.9,1.7,1.9C801.9,830,802.7,829.2,802.8,828.2z M904,796.5
		c0,1,0.7,1.8,1.7,1.8c1,0,1.9-0.8,1.9-1.8c0-0.9-0.9-1.8-1.9-1.8C904.9,794.6,904,795.6,904,796.5z M830.3,809.1
		c-1,0-1.8,0.7-1.8,1.7c0,1.1,0.8,1.8,1.8,1.8c1,0,1.7-0.8,1.7-1.8C832,809.8,831.3,809.1,830.3,809.1z"/>
	<path class="st16" d="M786.3,772.4c0,0.3-0.1,0.6-0.3,0.9c-2.4,4.5-4.2,9.1-5.8,13.9c-1.2,3.8-2.1,7.6-2.8,11.6
		c-0.4,2.5-0.8,5.1-0.9,7.6c-0.2,2.4-0.4,4.7-0.3,7.1c0.1,3.5,0.7,7,1.9,10.3c1.2,3.2,2.8,6,4.9,8.6c1.1,1.5,2.4,2.8,3.9,4
		c2.1,1.8,4.4,3.4,7,4.6c2.9,1.4,6,2.3,9.1,2.8c2,0.3,4.1,0.6,6.2,0.9c1,0.1,1.9,0.1,2.9,0.2c1.6,0.3,3.2,0,4.8,0.3
		c0.2,0,0.5,0,0.7,0c1.7,0,3.5,0,5.2,0c2,0,4-0.1,6-0.3c0.8-0.1,1.7-0.1,2.5-0.2c3-0.2,6-0.7,9-1.1c3-0.4,6-1.1,8.9-1.7
		c6.5-1.4,12.8-3.4,19-5.6c4.1-1.5,8.2-3.1,12.2-4.9c3.5-1.6,7-3.2,10.3-4.9c3.7-2,7.4-4,11-6.3c1.5-1,3-1.9,4.5-2.9
		c0.3-0.2,0.5-0.4,0.9-0.3c-0.6,1.1-1.5,1.9-2.4,2.7c-5.7,6-12,11.3-18.7,16.1c-7.7,5.5-15.9,10.1-24.4,14.1c-7.5,3.5-15.1,6.5-23,9
		c-7.1,2.2-14.3,3.9-21.6,5c-2.8,0.4-5.7,0.8-8.5,1c-3.7,0.3-7.4,0.5-11.2,0.5c-3.6-0.1-7.2-0.3-10.8-0.7c-6.1-0.7-12.1-1.9-18-3.9
		c-1.8-0.6-3.5-1.2-5.2-2.1c-0.3-0.2-0.6-0.3-0.8-0.5c0.1-0.4-0.2-0.6-0.4-0.9c-1.5-2.1-2.6-4.4-3-6.9c-0.2-1.4-0.4-2.8-0.6-4.2
		c-0.2-2.3-0.5-4.6-0.5-6.9c0-1.8,0-3.6,0-5.4c0-1.6,0.1-3.1,0.3-4.6c0.2-2.3,0.5-4.6,0.8-6.8c0.7-4.2,1.7-8.3,3-12.4
		c1.1-3.4,2.3-6.7,3.8-9.9c1.1-2.4,2.3-4.8,3.6-7.1c1.4-2.5,2.9-4.8,4.5-7.1c1.8-2.5,3.7-4.9,5.6-7.2c1.3-1.5,2.7-2.9,4.1-4.3
		c0.2-0.2,0.5-0.4,0.5-0.8c0.1,0,0.1-0.1,0.2-0.1c0.1-0.1,0.2-0.1,0.2-0.2l0,0c0.1-0.1,0.1-0.1,0.2-0.2
		C785.6,772.9,785.9,772.5,786.3,772.4z"/>
	<path class="st16" d="M874,911.4c1.5,0.7,3,1.1,4.7,1.1c3.4,0,5.7-2,6.4-5.3c0-0.1,0.1-0.2,0.1-0.3c1.3-0.6,2.5-1.2,3.8-1.8
		c3.6-1.7,7.1-3.6,10.6-5.5c3.5-1.9,6.9-4,10.2-6.1c5.5-3.6,10.9-7.4,15.9-11.7c2.2-1.9,4.4-3.9,6.4-6c1.9-1.9,3.7-4,5.3-6.1
		c2.4-3.1,4.4-6.4,6.1-9.9c0.3-0.6,0.5-1.3,0.9-1.9c0.2,0.9,0,1.7-0.1,2.6c-0.5,4.6-2.1,8.8-4.2,12.8c-0.1,0.1-0.2,0.2-0.2,0.3
		c-0.1,0.1-0.1,0.1-0.2,0.2c0,0,0,0,0,0c-0.1,0.1-0.2,0.2-0.2,0.4c0,0,0,0,0,0c-0.2,0-0.4,0.2-0.5,0.4c-0.5,0.7-1.1,1.4-1.6,2.1
		c-1.3,1.8-2.7,3.4-4.3,5c-3,3.2-6.3,6.2-9.7,9c-3.1,2.5-6.2,4.8-9.5,7.1c-2.6,1.8-5.3,3.5-8.1,5.2c-4.1,2.5-8.2,4.8-12.4,7
		c-2.7,1.4-5.4,2.8-8.2,4c-1.8,0.8-3.6,1.6-5.5,2.4c-0.5,0.2-1,0.4-1.4,0.7c-0.2,0-0.4-0.1-0.6-0.1c-1.4-0.2-2.6,0.2-3.4,1.3
		c-0.1,0.2-0.3,0.3-0.4,0.5c-2.1,0.8-4.1,1.5-6.2,2.3c-3.7,1.3-7.5,2.5-11.3,3.6c-3.1,0.9-6.2,1.7-9.4,2.3c-3.3,0.7-6.6,1.4-9.9,1.8
		c-1.6,0.2-3.1,0.4-4.7,0.6c-1.6,0.2-3.1,0.3-4.7,0.4c-1.7,0.2-3.4,0.2-5.1,0.3c-2.7,0.1-5.5,0-8.2-0.1c-1.1-0.1-2.1-0.2-3.1-0.3
		c-2-0.2-3.9-0.5-5.9-0.8c-4.5-0.8-8.9-2.2-13.1-4.2c-3-1.5-5.8-3.3-8.3-5.6c-0.2-0.2-0.5-0.4-0.8-0.4c4.1-1.9,7.8-4.3,11.7-6.5
		c0.8-0.5,1.6-0.9,2.4-1.2c1.5-0.6,2.4-0.4,3.4,0.9c0.4,0.5,0.7,1.1,1.1,1.6c1.1,1.7,2.4,3.2,4.1,4.3c3.2,1.9,6.3,1.9,9.5,0
		c2-1.2,3.5-3.1,4.6-5.2c0.4-0.7,0.6-1.4,1-2c1.3-2.1,3-3.6,5.6-3.9c1.7-0.1,3.4,0,5.1,0.5c3.2,0.9,6.3,2.3,9.1,4
		c3.8,2.3,8,3,12.4,2.4c3.5-0.4,6.7-1.6,9.6-3.8c0.7-0.6,1.4-1.2,2.1-1.8c0.4-0.4,0.8-0.8,1.3-1.2c1.1-1,1.2-1,2.2,0.1
		c-0.4,0-0.6,0.3-0.9,0.6c-1.1,1.1-2.1,2.3-3.3,3.3c-1.9,1.7-4,3.1-6.4,4.2c-3.7,1.6-7.6,2-11.5,1.2c-3.1-0.7-5.9-1.9-8.6-3.5
		c-2.4-1.5-4.9-2.5-7.9-2.4c-1.7,0.1-3.3,0.6-4.7,1.6c-2.6,2-2.9,4.7-0.6,7.2c1,1,2.3,1.6,3.7,1.9c2.3,0.4,4.5,0.6,6.8,0.4
		c1.6-0.1,3.3-0.2,4.9-0.4c2.8-0.3,5.6-0.8,8.4-1.4c4.5-1,9-2.3,13.4-3.6c3.8-1.2,7.6-2.5,11.3-4C873.5,911.8,873.9,911.8,874,911.4
		z"/>
	<path class="st17" d="M871.5,849.6c1.2-0.7,2.3-1.3,3.5-2c3.7-2.1,7.3-4.3,10.8-6.7c0.2-0.1,0.3-0.2,0.5-0.3
		c1.6,0.1,3.2-0.1,4.7-0.4c2-0.4,3.8-1.3,5.2-2.8c1.3-1.3,2.1-3,2.8-4.7c0.3-0.8,0.7-1.6,0.7-2.5c1.4-1.3,2.7-2.5,4.1-3.8
		c1-1,2-2,3.1-3c0,1.8,0.5,3.5,1,5.1c0.1,0.5,0.3,0.9,0.2,1.4c0.1,0.6,0.1,1.3,0.2,1.9c0.2,4-0.9,7.7-2.8,11.2
		c-1.3,2.5-3.3,4.2-6,5.2c-0.8,0.3-1.7,0.5-2.6,0.8c-1.5,0-3-0.2-4.5-0.4c-2.3-0.3-4.6-0.8-6.9-1c-1.5-0.1-2.9,0.1-4.3,0.5
		c-0.9-0.1-1.7,0-2.6,0.3c-1.2,0.4-1.9,1.2-2.1,2.5c-0.1,0.9-0.1,1.7,0.1,2.6c0.5,2.2,0.7,4.4,0.8,6.6c0.1,2.6-0.2,5.2-0.9,7.7
		c-0.8,2.9-2.2,5.5-4.5,7.5c-0.9,0.8-1.9,1.4-3,2.1c-1.4,0.3-2.8,0.1-4.2-0.1c-2.7-0.5-5.2-1.5-7.7-2.4c-3.2-1.2-6.2-2.6-9.4-3.7
		c-1.7-0.6-3.5-1-5.4-1.1c-1.6-0.1-3.1,0.2-4.5,0.8c-0.3,0.1-0.5,0.2-0.8,0.3c-2.2-0.6-4.2-0.3-6.2,0.8c-2,1-3.4,2.7-4.7,4.4
		c-0.6,0.8-1.2,1.6-1.8,2.3c-2,2.1-4.2,3.8-6.9,5c-3.3,0.1-6.2-0.8-9-2.4c-2.2-1.3-4.1-2.9-5.8-4.9c-0.6-0.7-1.2-1.3-1.8-1.9
		c0.3,0,0.5,0,0.7,0.1c2.7,0.7,5.4,0.9,8.2,0.4c1.8-0.3,3.5-0.8,5.1-1.6c2-0.9,3.7-2.1,5.3-3.6c0.9-0.8,1.7-1.7,2.2-2.8
		c1.6-0.4,3.2-0.7,4.8-1.1c3.6-0.8,7.2-1.8,10.8-2.8c0.2-0.1,0.4-0.1,0.6-0.1c0.4,0.4,1,0.5,1.5,0.7c3.5,1.4,6.9,2.9,10.5,4
		c2.9,1,5.9,1.3,9,0.8c4.7-0.7,8-3.4,10.2-7.4c1-1.9,1.6-3.9,1.8-6C871.8,853.4,871.9,851.5,871.5,849.6z"/>
	<path class="st18" d="M833,903.5c-1.2-0.3-2.2-0.5-3.3-0.6c-1.6-0.2-3.1-0.2-4.6,0.2c-3.4,0.8-5.8,2.9-7.4,5.9
		c-0.7,1.2-1.2,2.5-2,3.5c-0.7,0.9-1.6,1.7-2.7,2.3c-1.6,0.8-3.2,0.7-4.7-0.2c-1.2-0.7-2.1-1.7-2.8-2.8c-0.6-0.9-1.2-1.9-1.9-2.8
		c-1.7-1.9-3.7-2.7-6.2-2.1c-1.6,0.4-3.1,1.2-4.5,2c-2.8,1.7-5.6,3.4-8.6,4.9c-3.2,1.6-6.3,3.2-9.8,3.9c-1.1,0.3-2.3,0.4-3.5,0.2
		c-1.2-0.3-1.9-0.9-2.4-2c-0.5-1.1-0.7-2.2-0.7-3.4c0-1.4,0-2.7,0-4.1c0-2.4-1.1-4.1-3.1-5.3c-1.3-0.7-2.7-1.2-4.1-1.7
		c-1.4-0.4-2.8-0.9-4.1-1.6c-1-0.5-1.6-1.3-1.6-2.5c0-1.8,0.5-3.3,2-4.4c1.6-1.1,3.4-1.5,5.2-1.8c0.4-0.1,0.6,0.2,0.8,0.5
		c0.8,1.1,1.6,2.2,2.4,3.2c3.6,4.2,8.1,7.1,13.4,8.7c3.4,1,7,1.3,10.5,1c1.9-0.1,3.8-0.5,5.6-0.7c4.7-0.7,9.3-1.6,13.9-2.5
		c5.7-1.2,11.4-2.6,17.1-4.2c0.6-0.2,1.1-0.3,1.7-0.5c0.4-0.1,0.7,0,0.9,0.3c1.5,2,3,4.1,4.5,6.1C833,903.3,833,903.4,833,903.5z"/>
	<path class="st19" d="M764.7,887.3c0.2,0,0.3,0.1,0.4,0.2c1,1.3,2.4,2,4,2.5c1.8,0.5,3.6,0.8,5.5,0.7c2.6-0.2,5.1-0.9,7.3-2.2
		c2.5-1.5,4.6-3.3,6.6-5.4c1.3-1.4,2.5-2.8,3.9-4.2c0.6-0.6,1.3-1.1,1.9-1.6c1.1-0.8,2.7-0.7,3.8,0.2c1.2,1,2.2,2.3,3.3,3.4
		c2.4,2.4,5.2,4.3,8.4,5.5c2.2,0.9,4.6,1.4,7,1.4c1.2,0,2.4,0.1,3.5-0.2c0.3-0.1,0.6,0.1,0.8,0.3c1.4,1.7,2.9,3.2,4.1,5
		c0.1,0.1,0.2,0.2,0.3,0.4c0.1,0.2,0,0.4-0.2,0.4c-0.4,0.1-0.8,0.2-1.2,0.4c-6.6,1.8-13.3,3.4-20,4.7c-2.8,0.5-5.6,1-8.4,1.5
		c-2.3,0.4-4.6,0.7-6.9,0.9c-1.5,0.1-3,0-4.5-0.1c-2.2-0.2-4.2-0.7-6.2-1.4c-2.8-1.1-5.3-2.5-7.5-4.6c-2.1-2-4-4.2-5.5-6.8
		C764.9,887.9,764.7,887.6,764.7,887.3L764.7,887.3z M799.9,892.9c1.5,0,2.9-0.1,4.2-0.4c1-0.2,1.7-1.2,1.8-2.2
		c0.1-0.9-0.3-1.6-1-2.1c-0.5-0.4-1.1-0.6-1.6-1c-2.1-1.3-3.9-2.8-5.6-4.5c-0.4-0.4-0.8-0.8-1.3-1.1c-0.9-0.6-1.4-0.5-2,0.3
		c-1.3,1.9-3,3.3-4.7,4.7c-0.8,0.7-1.1,1.5-1,2.5c0.1,1,0.7,1.5,1.6,1.9C793.5,892.3,796.7,892.7,799.9,892.9z"/>
	<path class="st20" d="M786.3,772.4c-0.4,0.2-0.7,0.5-1.1,0.8c-0.1,0.1-0.1,0.1-0.2,0.2c0,0,0,0,0,0c-0.1,0.1-0.2,0.1-0.2,0.2
		c-0.1,0-0.1,0.1-0.2,0.1c-0.2,0.1-0.4,0.2-0.5,0.3c-3.2,2.5-6.3,5.3-9.1,8.2c-0.3,0.3-0.5,0.6-0.9,0.7c1.9-2.6,4.1-5,6.3-7.3
		c10.8-11.1,23.7-18.8,38.6-23c5.5-1.6,11.1-2.5,16.9-2.9c5.3-0.4,10.6-0.3,15.8,0.3c18.3,2.1,34.4,9.2,48.2,21.5
		c2.4,2.1,4.6,4.4,6.8,6.8c0.2,0.2,0.6,0.4,0.5,0.8c-0.8-0.5-1.5-1.2-2.2-1.9c-5.7-5-12-9.3-18.8-12.8c-7.1-3.7-14.6-6.4-22.4-8.3
		c-2.7-0.6-5.5-1.1-8.2-1.5c-0.2,0-0.4,0-0.7,0c-0.3,0-0.5,0.1-0.6,0.4c-0.5,1.5-1.7,2.5-3.1,3.2c-2.3,1.2-4.7,1.8-7.3,2
		c-2.2,0.2-4.5,0-6.7-0.4c-1.7-0.3-3.4-0.9-4.9-1.8c-1.1-0.7-2.1-1.5-2.7-2.8c-0.2-0.6-0.6-0.5-1.1-0.4c-1.9,0.3-3.7,0.6-5.6,1
		c-5.6,1.2-11.1,2.9-16.4,5.1c-4.9,2-9.6,4.4-14.1,7.2c-2.1,1.3-4.1,2.6-6.1,4.2C786.5,772.2,786.4,772.3,786.3,772.4L786.3,772.4z"
		/>
	<path class="st17" d="M939,830.5c1.3-0.4,2.7-0.5,4-0.8c0.3-0.1,0.5,0.1,0.8,0.2c3,1.4,4.6,4.1,4.2,7.5c-0.3,0.2-0.5,0.6-0.7,0.9
		c-0.9,1.2-1.8,2.3-3,3.2c-2.3,1.8-4.7,3.5-7,5.4c-1.3,1-2.6,2.2-3.1,3.9c-1.6,1.5-2,3.4-2.1,5.4c-0.1,2.4,0,4.8,0,7.2
		c0,0.8,0.1,1.7-0.1,2.5c-1.3,0.9-2.8,1.5-4.3,1.9c-1.6,0.3-3.1,0.5-4.7,0.5c-2.9,0.1-5.7,0.2-8.5,0.6c-2.1,0.3-4.2,0.8-6.2,1.6
		c-2.9,1.2-5,3.3-6.9,5.7c-2.1,2.6-4,5.4-6,8.1c-1.4,1.9-2.8,3.7-4.6,5.3c-0.7,0.7-1.5,1.3-2.3,1.9c-1,0.4-2.1,0.7-3.1,0.8
		c0-1.5,0-3,0.1-4.5c0.2-2.2,0.8-4.2,1.7-6.2c1.4-3.1,3.7-5.4,6.4-7.3c2.8-2,5.8-3.7,8.9-5.2c3.6-1.9,7.3-3.6,10.8-5.6
		c2.4-1.3,4.8-2.7,7.1-4.2c2.4-1.5,4.7-3.2,6.9-4.9c2.5-2,4.9-4.1,7-6.6c2.3-2.8,3.9-5.9,4.7-9.4c0.2-1.1,0.3-2.3,0.4-3.4
		C939.6,833.3,939.4,831.9,939,830.5z"/>
	<path class="st15" d="M944.4,857.8c-0.4,0.6-0.6,1.3-0.9,1.9c-1.7,3.5-3.7,6.8-6.1,9.9c-1.7,2.1-3.4,4.1-5.3,6.1
		c-2.1,2.1-4.2,4.1-6.4,6c-5,4.3-10.3,8.1-15.9,11.7c-3.3,2.2-6.7,4.2-10.2,6.1c-3.5,1.9-7,3.8-10.6,5.5c-1.3,0.6-2.5,1.2-3.8,1.8
		c0.2-2.7-0.4-5.2-1.5-7.7c0-0.1-0.1-0.2-0.1-0.4c0.6-0.1,1.3-0.3,1.9-0.4c1.8-0.2,3.6-0.4,5.4-0.8c3.3-0.6,6.4-1.9,9.1-3.9
		c2.5-1.8,4.6-4.1,6.5-6.6c1.7-2.2,3.1-4.6,4.7-6.8c0.5-0.8,1.1-1.5,1.8-2.1c1.8-1.5,4-2,6.3-2.2c1.8-0.1,3.5-0.2,5.3-0.4
		c2-0.2,3.9-0.9,5.5-2c0.3-0.2,0.6-0.4,0.6-0.8c0,0,0,0,0,0c0.1,0,0.3-0.1,0.3-0.2c0.6-0.4,1.2-0.7,1.8-1.1c1.8-1.4,2.7-3.2,3-5.4
		c0.1-0.7,0.2-1.4,0.2-2c0.3-0.1,0.3-0.3,0.4-0.5c0.7-1.6,1.1-3.2,1.4-4.8c0.2-0.7,0.3-1.4,0.6-2.1c0.4-1.2,1.1-2,2.2-2.5
		c1-0.5,2.1-0.8,3.2-1.1C944.3,854.7,944.5,856.2,944.4,857.8z"/>
	<path class="st21" d="M877.8,908.6c-0.9,0-1.8-0.4-2.6-0.8c-1.3-0.7-2.4-1.6-3.4-2.8c-0.6-0.8-1.3-1.6-2.2-2.1c-1.6-1-3.2-1-4.8,0
		c-0.9,0.6-1.6,1.3-2.3,2c-1.1,1.1-2.3,2.1-3.6,2.9c-2,1.2-4.2,1.8-6.5,2c-1.6,0.2-3.2,0.2-4.7-0.1c-2.6-0.5-4.8-1.7-6.8-3.4
		c-2.5-2.2-4.5-4.8-6.4-7.5c-2.4-3.2-4.6-6.5-7.1-9.6c-0.8-1-1.6-1.9-2.3-2.8c0.1-0.3,0.3-0.3,0.5-0.4c3.9-1.6,7-4.2,9.4-7.6
		c0.5-0.7,1.1-1.4,1.7-2.1c2.1-2.3,4.7-3,7.7-2.2c2.2,0.6,4.3,1.4,6.4,2.3c3.2,1.3,6.4,2.6,9.7,3.7c2.6,0.8,5.2,1.3,7.9,1.2
		c2.9-0.1,5.6-0.9,8.1-2.4c0.3-0.2,0.5-0.4,0.9-0.4c-0.1,0.7-0.5,1.2-0.8,1.9c-0.3,0.1-0.5,0.2-0.8,0.3c-2.2,1-4.5,1.7-7,1.9
		c-2.4,0.2-4.9,0.1-7.3-0.4c-3.4-0.7-6.6-1.9-9.9-3.1c-2.2-0.8-4.3-1.6-6.6-2c-1.9-0.3-3.7,0-5.1,1.5c-1.4,1.6-2.9,3.2-4.4,4.7
		c-1.4,1.5-2.8,2.9-4.5,4.1c-0.4,0.3-0.4,0.5-0.2,0.8c0.2,0.2,0.3,0.5,0.5,0.7c0.9,1.2,1.7,2.4,2.6,3.6c2,2.7,4,5.5,6.5,7.8
		c1.6,1.4,3.3,2.6,5.3,3.3c1.7,0.6,3.4,0.7,5.2,0.7c1.9,0,3.8-0.2,5.7-0.8c2.5-0.8,4.6-2.3,6.4-4.2c0.6-0.6,1-1.2,1.6-1.8
		c0.6-0.6,1.1-1.3,1.9-1.8c0.7-0.5,1.4-0.4,2.1-0.1c0.5,0.2,1,0.6,1.3,1c0.6,0.9,1.4,1.6,2.2,2.3c1.6,1.4,3.4,2.5,5.6,2.6
		C878.6,903.9,879,906.2,877.8,908.6z"/>
	<path class="st22" d="M899.8,852.8c1.7-0.2,3.3-0.5,4.9-1.2c3-1.3,5-3.6,6.3-6.6c0.6-1.4,1-2.9,1.6-4.4c0.1-0.3,0.3-0.6,0.7-0.7
		c2.1-1,4.1-2,6.2-3c2.4-1.2,4.9-2.2,7.5-2.9c0.3,0.1,0.6-0.1,0.9-0.2c2.2-0.6,4.4-0.9,6.6-1.1c0,0.9-0.4,1.7-0.7,2.5
		c-1.5,4-3.8,7.3-6.9,10.1c-1.4,1.3-3,2.3-4.5,3.4c-3,2.1-6.1,4.2-9.2,6.1c-1.2,0.7-2.3,1.4-3.5,2.1c-0.5,0-0.8,0.2-1.2,0.4
		c-2.3,1.3-4.7,2.4-7,3.6c-1.1,0.6-2.3,1.2-3.4,1.7c-1.6,0.8-3.2,0-3.6-1.8c-0.2-0.8,0.1-1.4,0.6-2c1-1.3,2-2.6,3-3.9
		C898.6,854.4,899.3,853.7,899.8,852.8z M911.6,850.9c0.6,0,1.1-0.2,1.7-0.5c3.8-2.3,7.6-4.7,11-7.6c1-0.8,1.9-1.7,2.6-2.8
		c0.2-0.3,0.5-0.6,0.2-1c-0.2-0.3-0.6-0.2-1-0.2c-0.1,0-0.2,0.1-0.3,0.1c-1.2,0.3-2.3,0.7-3.4,1.3c-3.9,1.8-7.6,3.9-10.9,6.8
		c-0.7,0.6-1.2,1.3-1.6,2.1c-0.3,0.6-0.2,1.1,0.2,1.4C910.6,850.7,911,850.9,911.6,850.9z"/>
	<path class="st18" d="M871.5,849.6c0.4,1.9,0.3,3.9,0.1,5.8c-0.2,2.1-0.8,4.1-1.8,6c-2.2,4.1-5.5,6.7-10.2,7.4
		c-3.1,0.5-6.1,0.1-9-0.8c-3.6-1.2-7-2.6-10.5-4c-0.5-0.2-1.1-0.3-1.5-0.7c0.1-0.1,0.2-0.2,0.4-0.2c8.1-2.5,16-5.5,23.7-9.1
		c2.7-1.2,5.3-2.6,7.9-3.9C870.9,849.8,871.2,849.7,871.5,849.6z"/>
	<path class="st18" d="M939,830.5c0.4,1.4,0.6,2.8,0.4,4.2c-0.1,1.1-0.2,2.3-0.4,3.4c-0.7,3.6-2.4,6.6-4.7,9.4c-2,2.5-4.5,4.6-7,6.6
		c-2.2,1.8-4.5,3.4-6.9,4.9c-2.3,1.5-4.7,2.9-7.1,4.2c-3.6,2-7.2,3.7-10.8,5.6c-3.1,1.6-6.1,3.2-8.9,5.2c-2.7,2-5,4.3-6.4,7.3
		c-0.9,2-1.4,4-1.7,6.2c-0.2,1.5-0.1,3-0.1,4.5c-1.1,0.2-2.2,0.3-3.3,0.2c-0.5,0-0.8-0.2-0.9-0.7c-0.1-0.6-0.2-1.3-0.3-1.9
		c-0.4-4.3,0-8.5,0.9-12.8c0.1-0.6,0.5-0.7,0.9-0.9c2.8-1.3,5.6-2.6,8.3-4c7.5-3.8,14.9-8,22.1-12.5c4.9-3.1,9.8-6.3,14.5-9.8
		c5.9-4.5,9.7-10.5,11-17.9C938.7,831.3,938.5,830.8,939,830.5z"/>
	<path class="st17" d="M796.4,872.7c-2-0.1-3.6,0.7-5.1,1.9c-1.3,1.1-2.5,2.3-3.7,3.6c-1.7,1.9-3.5,3.8-5.5,5.4
		c-2,1.6-4.2,2.7-6.8,3.1c-1.9,0.2-3.7,0.1-5.5-0.5c-1.7-0.6-2.4-1.6-2.4-3.4c0.1-2,0.7-3.8,1.4-5.7c2-0.8,3.6-2.1,5.2-3.4
		c1.9-1.7,3.5-3.6,5.2-5.4c0.1-0.1,0.2-0.3,0.2-0.4c2.1,0.3,4.3,0.7,6.4,0.9c1.8,0.2,3.6,0.4,5.4,0.5c0.5,0,1,0,1.5,0.2
		c0.1,0.5,0.5,0.8,0.8,1.1c0.8,0.6,1.6,1.2,2.4,1.7C796.1,872.3,796.3,872.4,796.4,872.7z"/>
	<path class="st15" d="M874,911.4c-0.1,0.4-0.5,0.4-0.7,0.5c-3.7,1.4-7.5,2.8-11.3,4c-4.4,1.4-8.9,2.6-13.4,3.6
		c-2.8,0.6-5.6,1.1-8.4,1.4c-1.6,0.2-3.3,0.2-4.9,0.4c-2.3,0.2-4.6,0-6.8-0.4c-1.4-0.3-2.7-0.8-3.7-1.9c-2.4-2.5-2-5.2,0.6-7.2
		c1.4-1,3-1.5,4.7-1.6c2.9-0.2,5.5,0.9,7.9,2.4c2.7,1.6,5.5,2.9,8.6,3.5c4,0.9,7.8,0.5,11.5-1.2c2.4-1,4.4-2.5,6.4-4.2
		c1.2-1,2.2-2.2,3.3-3.3c0.3-0.3,0.5-0.6,0.9-0.6c0.8,0.8,1.5,1.7,2.3,2.4C871.7,910.1,872.8,910.8,874,911.4z"/>
	<path class="st23" d="M913,835.6c0-2.4-0.7-4.7-1.2-7c-0.3-1.3-0.1-1.7,1.1-2.3c1.7-0.8,3.6-1.3,5.4-1.6c4.6-1,9.3-1.8,13.9-3
		c2.1-0.5,4.1-1.1,6.1-2c1.3-0.6,2.5-1.2,3.6-2.1c0.3-0.3,0.5-0.3,0.9-0.1c2.2,1.3,4.2,2.9,5.7,5c0.4,0.6,0.7,1.1,1,1.8
		c0.3,0.6,0.2,0.8-0.5,0.9c-1,0.2-2.1,0.3-3.1,0.4c-9.3,1-18.1,3.5-26.6,7.2c-1.8,0.8-3.6,1.6-5.4,2.5
		C913.7,835.4,913.5,835.6,913,835.6z"/>
	<path class="st17" d="M909.8,820.3c0-0.2,0.2-0.4,0.3-0.5c2.6-3,5.1-6.1,7.4-9.4c0.1-0.1,0.2-0.2,0.3-0.3c0.3,0,0.6,0,0.9-0.1
		c2.1-0.4,4.2-1,6.2-1.7c1.7-0.6,3.4-1.2,4.8-2.3c1.7-1.3,2.6-3,2.6-5.2c0-1-0.2-2-0.4-3c2.7,0.7,4.7,2.4,6.2,4.7
		c1.5,2.3,2.4,4.8,2.9,7.5c0,0.1,0,0.3,0,0.5c-0.9,0.8-1.7,1.7-2.8,2.3c-1.7,0.9-3.5,1.6-5.3,2.2c-4.6,1.3-9.2,2.2-13.9,3.2
		c-3,0.6-5.9,1.1-8.8,2.2C910.2,820.3,910,820.4,909.8,820.3z"/>
	<path class="st15" d="M783.3,918.6c0.3,0,0.6,0.1,0.8,0.4c2.5,2.3,5.3,4.1,8.3,5.6c4.2,2,8.5,3.3,13.1,4.2c2,0.4,3.9,0.6,5.9,0.8
		c1,0.1,2.1,0.2,3.1,0.3c2.7,0.2,5.5,0.3,8.2,0.1c1.7-0.1,3.4-0.1,5.1-0.3c1.6-0.1,3.1-0.3,4.7-0.4c1.6-0.2,3.1-0.4,4.7-0.6
		c3.3-0.5,6.6-1.1,9.9-1.8c3.2-0.7,6.3-1.5,9.4-2.3c3.8-1.1,7.6-2.3,11.3-3.6c2.1-0.7,4.1-1.5,6.2-2.3c-0.2,0.7-0.5,1.4-0.6,2.1
		c0,0.4-0.3,0.5-0.6,0.6c-1,0.4-2.1,0.8-3.1,1.2c-9.1,3.3-18.3,6-27.8,7.7c-4.3,0.8-8.7,1.4-13.1,1.8c-3.9,0.3-7.8,0.4-11.7,0.3
		c-7-0.2-13.8-1.2-20.3-3.7c-4.1-1.6-7.9-3.7-11.1-6.7c-0.9-0.8-1.7-1.7-2.5-2.6C782.7,919,782.8,918.9,783.3,918.6z"/>
	<path class="st16" d="M930.7,873c-0.1,0.4-0.3,0.6-0.6,0.8c-1.7,1.1-3.5,1.8-5.5,2c-1.8,0.2-3.5,0.3-5.3,0.4
		c-2.3,0.2-4.5,0.7-6.3,2.2c-0.7,0.6-1.3,1.3-1.8,2.1c-1.6,2.3-3,4.6-4.7,6.8c-1.9,2.5-4,4.8-6.5,6.6c-2.7,2-5.8,3.2-9.1,3.9
		c-1.8,0.3-3.6,0.5-5.4,0.8c-0.6,0.1-1.3,0.2-1.9,0.4c-0.3-0.6-0.6-1.2-0.9-1.9c-0.4-0.9-0.4-0.9,0.6-0.9c1.7,0,3.3-0.3,5-0.7
		c2.7-0.7,5.1-2.1,7.2-4c1.7-1.6,3.1-3.4,4.5-5.2c1.9-2.5,3.9-5.1,6.1-7.4c1.7-1.8,3.8-2.9,6.2-3.6c1.7-0.5,3.5-0.7,5.3-0.8
		c2.9-0.2,5.9-0.2,8.8-0.5c1.2-0.1,2.4-0.3,3.6-0.7C930.2,873.1,930.4,872.9,930.7,873z"/>
	<path class="st15" d="M774.1,782.8c0.4-0.1,0.6-0.4,0.9-0.7c2.9-2.9,5.9-5.6,9.1-8.2c0.2-0.1,0.4-0.2,0.5-0.3
		c0,0.4-0.3,0.6-0.5,0.8c-1.4,1.4-2.8,2.8-4.1,4.3c-2,2.3-3.9,4.7-5.6,7.2c-1.6,2.3-3.2,4.7-4.5,7.1c-1.3,2.3-2.5,4.7-3.6,7.1
		c-1.5,3.2-2.7,6.5-3.8,9.9c-1.3,4.1-2.3,8.2-3,12.4c-0.4,2.3-0.7,4.5-0.8,6.8c-0.1,1.5-0.3,3.1-0.3,4.6c0,1.8,0,3.6,0,5.4
		c0,2.3,0.3,4.6,0.5,6.9c0.2,1.4,0.3,2.8,0.6,4.2c0.4,2.6,1.5,4.9,3,6.9c0.2,0.3,0.4,0.5,0.4,0.9c-3.1-2.2-5-5.2-5.8-8.9
		c-0.6-3-0.8-6-1-9c-0.1-2.2-0.2-4.4-0.1-6.6c0.3-11.9,2.9-23.3,7.8-34.2c2.7-5.9,6-11.4,9.9-16.5C773.8,783.1,774,783,774.1,782.8z
		"/>
	<path class="st18" d="M779.4,867.8c-0.1,0.1-0.1,0.3-0.2,0.4c-1.7,1.8-3.4,3.8-5.2,5.4c-1.6,1.4-3.2,2.7-5.2,3.4
		c0.3-1.4,0.8-2.7,1-4.1c0.4-2.8-1.2-4.9-4.1-4.9c-1.4,0-2.7,0.1-4.1,0.2c-2.1,0.2-4.2,0.4-6.3,0.3c0.6-1.4,0.9-2.9,1.4-4.3
		c0.3-0.9,0.5-1.8,0.5-2.7c-0.1-1.1-0.7-1.8-1.8-1.9c-1,0-2,0-3.1,0.1c-1.1,0.1-2.3,0.3-3.4,0.2c0.2-1.2,0.9-2.2,1.6-3.1
		c0.9-1.2,1.9-2.1,3.1-2.9c0.5-0.4,0.6-0.4,0.9,0.2c0.6,1.3,1.3,2.5,2.2,3.7c2,2.6,4.5,4.5,7.6,5.7c4.5,1.7,9.2,3,14,4
		C778.7,867.6,779.1,867.7,779.4,867.8z"/>
	<path class="st18" d="M796.4,872.7c0-0.3-0.3-0.4-0.5-0.5c-0.8-0.6-1.6-1.1-2.4-1.7c-0.3-0.3-0.8-0.5-0.8-1.1c0.4,0,0.7,0,1.1,0
		c3,0,6.1,0.1,9.1,0c2.4,0,4.7-0.3,7-0.5c3.1-0.3,6.1-0.7,9.2-1.2c1.1-0.2,2.1-0.4,3.2-0.5c-0.5,1.1-1.4,2-2.2,2.8
		c-1.6,1.5-3.3,2.7-5.3,3.6c-1.6,0.8-3.4,1.3-5.1,1.6c-2.8,0.4-5.5,0.2-8.2-0.4c-0.2-0.1-0.5-0.1-0.7-0.1c-0.6-0.3-1-0.8-1.6-1.1
		C798.3,873.1,797.4,872.8,796.4,872.7z"/>
	<path class="st19" d="M899.8,852.8c-0.4,0.9-1.2,1.6-1.8,2.3c-1.1,1.3-2,2.6-3,3.9c-0.4,0.6-0.7,1.2-0.6,2c0.4,1.7,2,2.5,3.6,1.8
		c1.1-0.5,2.3-1.1,3.4-1.7c2.3-1.2,4.7-2.3,7-3.6c0.4-0.2,0.7-0.5,1.2-0.4c-0.5,0.6-1.3,0.9-1.9,1.3c-3.1,1.9-6.3,3.8-9.5,5.5
		c-4.5,2.5-9,4.7-13.6,7c-0.3,0.1-0.6,0.4-1,0.3c0-0.8,0.4-1.4,0.7-2.1c1.3-3.2,2.9-6.2,4.9-9.1c1.6-2.4,3.4-4.6,5.4-6.7
		c0.4-0.5,0.9-0.6,1.5-0.5c1,0.2,2,0.2,3,0C899.3,852.8,899.6,852.8,899.8,852.8z"/>
	<path class="st15" d="M878.5,917c0.4-0.4,0.9-0.5,1.4-0.7c1.8-0.8,3.6-1.6,5.5-2.4c2.8-1.3,5.5-2.6,8.2-4c4.2-2.2,8.4-4.5,12.4-7
		c2.7-1.7,5.4-3.4,8.1-5.2c3.2-2.2,6.4-4.6,9.5-7.1c3.4-2.8,6.7-5.8,9.7-9c1.5-1.6,3-3.3,4.3-5c0.5-0.7,1-1.4,1.6-2.1
		c0.1-0.2,0.3-0.4,0.5-0.4c-0.5,1.1-1.1,2-1.8,2.9c-3.4,5-7.5,9.4-12,13.4c-7.5,6.7-15.9,12.3-24.6,17.4c-6.1,3.6-12.4,6.8-18.9,9.7
		c-0.6,0.3-1.2,0.3-1.9,0.1C879.7,917.4,879.1,917.2,878.5,917z"/>
	<path class="st18" d="M932,797.8c0.2,1,0.4,2,0.4,3c0,2.2-0.9,3.9-2.6,5.2c-1.5,1.1-3.1,1.8-4.8,2.3c-2,0.7-4.1,1.2-6.2,1.7
		c-0.3,0.1-0.6,0.1-0.9,0.1c0.4-0.9,1.1-1.7,1.6-2.6c1.5-2.5,2.3-5.2,2.5-8.1c0.6-0.5,0.5-0.9,0.1-1.4c0.6-0.5,1.4-0.4,2.1-0.6
		c1.5-0.3,3-0.3,4.5-0.2C929.9,797.3,931,797.4,932,797.8z"/>
	<path class="st24" d="M909.8,820.3c0.2,0.1,0.4,0,0.5-0.1c2.8-1.1,5.8-1.6,8.8-2.2c4.7-1,9.3-1.8,13.9-3.2c1.9-0.5,3.7-1.2,5.3-2.2
		c1.1-0.6,1.9-1.5,2.8-2.3c0.3,2-0.5,3.6-2.2,4.7c-1.5,1-3.1,1.5-4.8,2c-3.4,1-6.8,1.7-10.3,2.4c-3.3,0.7-6.7,1.2-10,2.2
		c-1,0.3-2.1,0.7-3,1.2c-2,1.1-3.2,2.7-3,5.1c0,0.1,0,0.2,0,0.4c-0.6-1.7-1-3.3-1-5.1c0.8-1,1.7-2,2.7-2.9
		C909.7,820.5,909.8,820.5,909.8,820.3L909.8,820.3z"/>
	<path class="st24" d="M869.1,877.4c1-0.6,2.1-1.3,3-2.1c2.2-2.1,3.6-4.6,4.5-7.5c0.7-2.5,1-5.1,0.9-7.7c-0.1-2.2-0.3-4.4-0.8-6.6
		c-0.2-0.9-0.2-1.7-0.1-2.6c0.1-1.3,0.9-2.1,2.1-2.5c0.8-0.3,1.7-0.4,2.6-0.3c-2.2,1.3-2.7,3.3-2.4,5.6c0.2,1.3,0.6,2.5,1,3.8
		c0.9,3.7,1.1,7.3-0.1,10.9c-1.4,4.3-4.2,7.3-8.6,8.6C870.5,877.3,869.8,877.5,869.1,877.4z"/>
	<path class="st24" d="M888.5,891.3c0.8-0.6,1.6-1.2,2.3-1.9c1.8-1.5,3.2-3.4,4.6-5.3c2-2.7,3.9-5.5,6-8.1c1.9-2.4,4-4.5,6.9-5.7
		c2-0.8,4.1-1.3,6.2-1.6c2.8-0.4,5.7-0.5,8.5-0.6c1.6-0.1,3.2-0.2,4.7-0.5c1.6-0.3,3-0.9,4.3-1.9c-0.2,1.7-1.2,2.8-2.8,3.4
		c-1.3,0.5-2.6,0.7-4,0.8c-2.4,0.2-4.8,0.3-7.2,0.4c-2.6,0.2-5.3,0.5-7.8,1.3c-2.9,0.9-5.4,2.4-7.5,4.7c-2.3,2.5-4.3,5.2-6.4,7.9
		c-1.1,1.4-2.2,2.7-3.4,3.9C891.8,889.6,890.3,890.7,888.5,891.3z"/>
	<path class="st20" d="M877.8,908.6c1.1-2.4,0.7-4.7-0.1-7.1c-0.2-0.8-0.6-1.6-0.9-2.4c-1.9-4.1-2.3-8.4-1.7-12.9
		c0.3-2,0.9-3.9,1.5-5.8c0.2-0.6,0.7-1.2,0.8-1.9c0,0,0,0,0,0c0.1,0,0.1,0,0.2,0c0.1,0.8-0.1,1.7-0.2,2.5c-0.3,2.8-0.4,5.6-0.2,8.4
		c0.3,3.6,1,7.1,2.6,10.4c0.6,1.3,1.1,2.6,1.4,4c0.2,0.8,0.2,1.5,0.2,2.3C881.3,908.1,879.5,909.1,877.8,908.6z"/>
	<path class="st23" d="M878,920.8c0.7,0.2,1.4,0.4,2,0.6c2.1,0.6,4.2,0.6,6.3-0.2c1.3-0.5,2.7-0.8,4.1-0.9c0.4,0,0.8-0.1,1.2,0.1
		c0.2,1,0.5,2,0.3,3.1c-0.2,0.9-0.4,1.8-0.7,2.7c-0.1,0.1-0.1,0.1-0.2,0.2c-0.2,0.1-0.5,0.2-0.7,0.3c-2.2,0.9-4.4,1.1-6.7,0.2
		c-2.7-1.1-4.4-3.2-5.7-5.6C877.9,921.1,877.8,921,878,920.8z"/>
	<path class="st21" d="M750.3,880.6c0.5-1.5,1.2-2.7,2.1-3.8c1.2-1.5,2.5-2.8,4-4c0.3-0.2,0.6-0.4,1-0.4c2.5,0,5-0.4,7.5-0.4
		c1.1,0,1.2,0.1,1,1.1c-0.1,0.6-0.4,1.3-0.5,1.9c-0.1,0.4-0.3,0.6-0.7,0.7c-3.9,1.1-7.6,2.6-11.3,4
		C752.4,880,751.5,880.4,750.3,880.6z"/>
	<path class="st17" d="M749,860c1.1,0.1,2.3-0.1,3.4-0.2c1-0.1,2-0.1,3.1-0.1c1.1,0,1.7,0.7,1.8,1.9c0.1,1-0.2,1.8-0.5,2.7
		c-0.5,1.4-0.8,2.9-1.4,4.3c-0.6,0-1.3,0-1.9-0.1c-0.1,0-0.1,0-0.2,0c-0.9-0.1-1.8-0.3-2.6-0.6c-1.4-0.6-2.1-1.7-2.3-3.2
		c-0.1-1.5,0-3,0.4-4.4C748.9,860.2,748.9,860.1,749,860L749,860z"/>
	<path class="st24" d="M817.4,883.8c2.6-1.2,4.9-2.9,6.9-5c0.7-0.7,1.2-1.6,1.8-2.3c1.3-1.7,2.8-3.4,4.7-4.4c2-1,4-1.3,6.2-0.8
		c-2.2,1.3-3.9,3.1-5.4,5.2c-2.2,3-5.1,5.3-8.6,6.5C821.2,883.5,819.4,883.9,817.4,883.8z"/>
	<path class="st21" d="M878,920.8c-0.1,0.1-0.1,0.3,0,0.4c1.3,2.5,3,4.6,5.7,5.6c2.3,0.9,4.5,0.8,6.7-0.2c0.2-0.1,0.5-0.2,0.7-0.3
		c-0.6,1.7-1.6,3-2.9,4.1c-0.7,0.6-1.5,0.9-2.1,1.5c-3.3,0.2-6.7-2-8.1-5.2c-0.8-1.8-1-3.6-0.6-5.5
		C877.3,920.8,877.4,920.7,878,920.8z"/>
	<path class="st18" d="M899.7,830.2c-0.1,0.9-0.4,1.7-0.7,2.5c-0.7,1.7-1.5,3.3-2.8,4.7c-1.5,1.5-3.2,2.4-5.2,2.8
		c-1.5,0.3-3.1,0.5-4.7,0.4c1.8-1.3,3.6-2.6,5.3-3.9c2.7-2,5.2-4.1,7.8-6.3C899.5,830.4,899.6,830.3,899.7,830.2z"/>
	<path class="st24" d="M934.3,850.7c0.5-1.7,1.7-2.8,3.1-3.9c2.3-1.8,4.7-3.6,7-5.4c1.2-0.9,2.1-2,3-3.2c0.2-0.3,0.4-0.6,0.7-0.9
		c0,1.5-0.5,2.8-1.2,4.1c-0.9,1.8-2.2,3.3-3.9,4.4c-1.4,1-2.8,1.9-4.4,2.6C937.1,849.3,935.6,849.9,934.3,850.7z"/>
	<path class="st21" d="M884.3,860.2c-0.3-2.4-1.2-4.7-1.6-7c0-0.2-0.1-0.4-0.1-0.6c0-0.8,0.3-1.1,1.1-1.2c1.4-0.1,2.8,0.1,4.2,0.3
		c0.8,0.1,1.5,0.3,2.4,0.4C888.1,854.8,886.1,857.4,884.3,860.2z"/>
	<path class="st16" d="M944,853.2c-1.1,0.3-2.2,0.6-3.2,1.1c-1.1,0.6-1.8,1.4-2.2,2.5c-0.2,0.7-0.4,1.4-0.6,2.1
		c-0.4,1.6-0.8,3.3-1.4,4.8c-0.1,0.2-0.1,0.4-0.4,0.5c-0.2-2.9-0.4-5.8-0.1-8.6c0.1-1.2,0.6-2,1.7-2.4c1.8-0.7,3.5-1.5,5.2-2.5
		c0.1,0,0.2,0,0.3-0.1C943.6,851.4,943.9,852.2,944,853.2z"/>
	<path class="st24" d="M897,849c0.9-0.3,1.7-0.4,2.6-0.8c2.6-1,4.6-2.8,6-5.2c1.9-3.5,3-7.2,2.8-11.2c0-0.6-0.1-1.3-0.2-1.9
		c1.8,5,1.3,9.8-1.1,14.4c-1.4,2.7-3.6,4.1-6.5,4.6C899.4,849,898.2,849.1,897,849z"/>
	<path class="st25" d="M885.9,932.1c0.6-0.6,1.5-0.9,2.1-1.5c1.3-1.1,2.4-2.4,2.9-4.1c0.1-0.1,0.1-0.1,0.2-0.2c1-0.4,1.8-1,2.6-1.7
		c0.3-0.2,0.5-0.6,0.9-0.5c0.1,0.9-0.2,1.8-0.6,2.6C892.8,929.9,889.4,932.2,885.9,932.1z"/>
	<path class="st20" d="M894.7,924.1c-0.4,0-0.6,0.3-0.9,0.5c-0.8,0.7-1.6,1.3-2.6,1.7c0.3-0.9,0.5-1.8,0.7-2.7
		c0.2-1.1-0.1-2.1-0.3-3.1c0.3,0,0.6,0,0.8,0.1C894.1,920.9,895,922.2,894.7,924.1z"/>
	<path class="st19" d="M763.9,885.8c-1-1.4-1.4-3-2-4.6c-0.1-0.3-0.1-0.6,0.3-0.7c0.5-0.2,1-0.5,1.7-0.4c-0.1,0.7-0.1,1.4-0.2,2
		c-0.2,1,0,1.9,0.2,2.8C763.9,885.3,764,885.5,763.9,885.8L763.9,885.8z"/>
	<path class="st19" d="M934.5,832.8c-2.2,0.2-4.5,0.5-6.6,1.1c-0.3,0.1-0.6,0.2-0.9,0.2c0.2-0.4,0.6-0.4,0.9-0.5
		c2-0.7,4.1-1.3,6.1-1.9c0.1,0,0.3-0.1,0.4-0.1c0.3,0,0.4,0.1,0.4,0.4C934.7,832.2,934.7,832.6,934.5,832.8z"/>
	<path class="st16" d="M922.1,798c0.4,0.5,0.5,1-0.1,1.4C922,798.9,921.9,798.4,922.1,798z"/>
	<path class="st19" d="M763.9,885.8c0.3,0.2,0.5,0.5,0.5,0.9C764.1,886.5,763.9,886.2,763.9,885.8L763.9,885.8z"/>
	<path class="st21" d="M877.6,878.5c-0.1,0-0.1,0-0.2,0c0-0.2,0.1-0.3,0.2-0.3C877.6,878.4,877.6,878.4,877.6,878.5L877.6,878.5z"/>
	<path class="st15" d="M939.5,874.1c0-0.2,0.1-0.3,0.2-0.4C939.7,873.8,939.6,874,939.5,874.1z"/>
	<path class="st16" d="M931.1,872.8c-0.1,0.1-0.2,0.2-0.3,0.2C930.8,872.8,930.9,872.8,931.1,872.8z"/>
	<path class="st20" d="M877.5,878.5c0-0.1,0-0.2,0-0.3C877.7,878.4,877.7,878.5,877.5,878.5z"/>
	<path class="st18" d="M753.3,868.5c0.1,0,0.1,0,0.2,0C753.4,868.5,753.4,868.5,753.3,868.5z"/>
	<path class="st15" d="M939.7,873.7c0.1-0.1,0.1-0.1,0.2-0.2C939.8,873.6,939.8,873.7,939.7,873.7z"/>
	<path class="st19" d="M764.7,887.3C764.7,887.3,764.6,887.3,764.7,887.3C764.6,887.2,764.7,887.2,764.7,887.3
		C764.7,887.3,764.7,887.3,764.7,887.3z"/>
	<path class="st17" d="M909.8,820.3c0,0.1-0.1,0.2-0.3,0.2C909.6,820.4,909.7,820.3,909.8,820.3z"/>
	<path class="st18" d="M749,860c0,0.1-0.1,0.1-0.1,0.2C748.9,860.2,748.9,860.1,749,860z"/>
	<path class="st26" d="M863.3,771.4c-0.3,0-0.6-0.1-1-0.2c-2.6-1.3-4.6-3.2-5.9-5.8c-0.2-0.4-0.4-0.8-0.4-1.2c0-0.6,0.3-0.9,0.9-0.9
		c0.5,0,1,0.1,1.4,0.4c2.4,1.3,4.3,3.1,5.6,5.6c0.2,0.3,0.3,0.7,0.4,1.1C864.6,771,864.2,771.5,863.3,771.4z"/>
	<path class="st26" d="M844.3,773.6c0-0.1,0-0.3,0.1-0.5c0.1-0.5,0.5-0.8,1.1-0.6c0.5,0.1,0.9,0.3,1.2,0.7c2.2,1.9,3.7,4.2,4.3,7
		c0,0.1,0.1,0.2,0.1,0.4c0,0.5,0,1-0.4,1.4c-0.5,0.4-1,0.1-1.4-0.2c-1.1-0.6-1.9-1.5-2.6-2.5c-1-1.3-1.7-2.7-2.1-4.3
		C844.4,774.5,844.3,774.2,844.3,773.6z"/>
	<path class="st26" d="M814.1,780.7c0,1.9-0.4,3.6-1.1,5.3c-0.3,0.6-0.6,1.2-1.1,1.7c-0.6,0.5-1.1,0.4-1.6-0.2
		c-0.4-0.6-0.4-1.2-0.5-1.9c-0.2-2.5,0.3-4.9,1.5-7.1c0.2-0.4,0.4-0.8,0.8-1c0.6-0.4,1-0.4,1.4,0.2c0.4,0.6,0.5,1.2,0.5,1.9
		C814.1,780,814.1,780.3,814.1,780.7z"/>
	<path class="st26" d="M829.2,781.2c0-0.9,0-1.7,0.2-2.5c0.2-0.6,0.3-1.3,1.1-1.4c0.7-0.1,1.1,0.5,1.4,1c0.6,1,0.9,2.1,1.1,3.2
		c0.3,1.6,0.4,3.3,0.1,4.9c-0.1,0.4-0.2,0.8-0.4,1.1c-0.4,0.7-1,0.8-1.6,0.2c-0.5-0.6-0.9-1.3-1.1-2
		C829.5,784.2,829.2,782.7,829.2,781.2z"/>
	<path class="st26" d="M799.6,777.7c-0.1,2.6-0.9,4.9-2.3,6.9c-0.3,0.4-0.6,0.8-1.1,1.1c-0.6,0.3-1,0.1-1.3-0.4
		c-0.2-0.3-0.2-0.6-0.2-1c-0.1-2.8,0.7-5.3,2.2-7.7c0.3-0.4,0.6-0.8,1.1-1.1c0.6-0.3,1.1-0.2,1.4,0.5c0.1,0.1,0.1,0.3,0.1,0.4
		C799.6,776.8,799.6,777.3,799.6,777.7z"/>
	<path class="st16" d="M872.6,824.2c-1,0-1.9-0.8-1.9-1.8c0-1,0.9-1.9,1.9-1.9c0.9,0,1.8,0.9,1.8,1.8
		C874.4,823.5,873.6,824.2,872.6,824.2z"/>
	<path class="st16" d="M875,793.1c1,0,1.8,0.9,1.8,1.9c0,1-0.9,1.9-1.8,1.8c-1,0-1.9-1-1.9-1.9C873.1,794,874.1,793.1,875,793.1z"/>
	<path class="st16" d="M888,781.2c-1,0-1.9-0.8-1.9-1.8c0-1,0.8-1.8,1.9-1.8c1.1,0,1.8,0.8,1.8,1.8
		C889.9,780.4,889.1,781.2,888,781.2z"/>
	<path class="st16" d="M802.8,828.2c0,1-0.8,1.9-1.8,1.8c-1,0-1.8-0.8-1.7-1.9c0-1,0.8-1.8,1.7-1.8
		C802,826.3,802.8,827.1,802.8,828.2z"/>
	<path class="st16" d="M904,796.5c0-1,0.9-1.9,1.8-1.9c1,0,1.9,0.9,1.9,1.8c0,1-0.9,1.9-1.9,1.8C904.8,798.3,904,797.5,904,796.5z"
		/>
	<path class="st16" d="M830.3,809.1c1.1,0,1.8,0.7,1.8,1.8c0,1-0.7,1.7-1.7,1.8c-1.1,0-1.8-0.8-1.8-1.8
		C828.5,809.9,829.2,809.1,830.3,809.1z"/>
	<path class="st16" d="M786.3,772.4c0.1-0.1,0.1-0.1,0.2-0.2C786.5,772.2,786.4,772.3,786.3,772.4z"/>
	<path class="st15" d="M785,773.3c0.1-0.1,0.1-0.1,0.2-0.2C785.2,773.2,785.1,773.3,785,773.3z"/>
	<path class="st15" d="M784.8,773.5c0.1-0.1,0.2-0.1,0.2-0.2C785,773.4,784.9,773.4,784.8,773.5z"/>
	<path class="st22" d="M799.9,892.9c-3.2-0.2-6.5-0.6-9.6-1.9c-0.9-0.4-1.5-0.9-1.6-1.9c-0.1-1,0.2-1.8,1-2.5
		c1.7-1.5,3.4-2.9,4.7-4.7c0.6-0.9,1-0.9,2-0.3c0.5,0.3,0.9,0.7,1.3,1.1c1.7,1.7,3.6,3.3,5.6,4.5c0.5,0.3,1.1,0.6,1.6,1
		c0.7,0.5,1.1,1.2,1,2.1c-0.1,1.1-0.8,2-1.8,2.2C802.8,892.8,801.4,892.9,799.9,892.9z"/>
	<path class="st23" d="M876.6,880.4c-0.7,1.9-1.3,3.8-1.5,5.8c-0.6,4.5-0.2,8.8,1.7,12.9c0.4,0.8,0.7,1.6,0.9,2.4
		c-2.2-0.2-4-1.2-5.6-2.6c-0.8-0.7-1.5-1.4-2.2-2.3c-0.3-0.5-0.8-0.8-1.3-1c-0.7-0.3-1.4-0.4-2.1,0.1c-0.7,0.5-1.3,1.2-1.9,1.8
		c-0.5,0.6-1,1.3-1.6,1.8c-1.8,1.9-3.9,3.4-6.4,4.2c-1.8,0.6-3.7,0.8-5.7,0.8c-1.8,0-3.5-0.1-5.2-0.7c-2-0.7-3.7-1.8-5.3-3.3
		c-2.5-2.3-4.5-5-6.5-7.8c-0.9-1.2-1.7-2.4-2.6-3.6c-0.2-0.2-0.3-0.5-0.5-0.7c-0.2-0.3-0.2-0.6,0.2-0.8c1.7-1.2,3.1-2.6,4.5-4.1
		c1.5-1.6,2.9-3.1,4.4-4.7c1.4-1.6,3.2-1.9,5.1-1.5c2.3,0.4,4.4,1.2,6.6,2c3.2,1.2,6.5,2.4,9.9,3.1c2.4,0.5,4.9,0.6,7.3,0.4
		c2.4-0.2,4.7-0.9,7-1.9C876.1,880.6,876.3,880.5,876.6,880.4z M848.2,899.4c1.5,0.4,3,0.6,4.5,0.4c2.2-0.3,4.1-1.2,5.9-2.6
		c1-0.8,1.8-1.7,2.7-2.6c1.3-1.3,2.2-2.8,3.1-4.4c0.5-0.9,0.4-1.7-0.2-2.3c-0.6-0.8-1.4-1.3-2.4-1.1c-0.7,0.1-1.3,0.4-1.9,0.9
		c-1.4,1.2-2.1,2.8-2.7,4.5c-0.5,1.5-1.4,2.7-2.5,3.7c-1.7,1.5-3.7,2.4-5.8,2.9C848.5,898.9,848.3,899,848.2,899.4z"/>
	<path class="st27" d="M911.6,850.9c-0.5,0-1-0.2-1.4-0.5c-0.4-0.3-0.5-0.8-0.2-1.4c0.4-0.8,0.9-1.5,1.6-2.1c3.3-2.8,7-4.9,10.9-6.8
		c1.1-0.5,2.2-1,3.4-1.3c0.1,0,0.2-0.1,0.3-0.1c0.3,0,0.7-0.1,1,0.2c0.3,0.4,0,0.7-0.2,1c-0.7,1.1-1.6,2-2.6,2.8
		c-3.4,2.9-7.2,5.2-11,7.6C912.7,850.7,912.2,850.9,911.6,850.9z"/>
	<path class="st15" d="M848.2,899.4c0.2-0.4,0.4-0.4,0.6-0.5c2.2-0.5,4.2-1.5,5.8-2.9c1.2-1,2-2.3,2.5-3.7c0.6-1.7,1.4-3.3,2.7-4.5
		c0.6-0.5,1.2-0.8,1.9-0.9c1-0.2,1.8,0.3,2.4,1.1c0.5,0.7,0.7,1.5,0.2,2.3c-0.9,1.5-1.9,3.1-3.1,4.4c-0.9,0.9-1.7,1.8-2.7,2.6
		c-1.7,1.4-3.7,2.3-5.9,2.6C851.1,900,849.7,899.7,848.2,899.4z"/>
</g>
</svg>
