<?xml version="1.0" encoding="utf-8"?>
<!-- Generator: Adobe Illustrator 24.0.0, SVG Export Plug-In . SVG Version: 6.00 Build 0)  -->
<svg version="1.1" id="Layer_1" xmlns="http://www.w3.org/2000/svg" xmlns:xlink="http://www.w3.org/1999/xlink" x="0px" y="0px"
	 viewBox="0 0 250 250" style="enable-background:new 0 0 250 250;" xml:space="preserve">
<style type="text/css">
	.st0{fill:url(#SVGID_1_);}
	.st1{opacity:0.35;}
	.st2{fill:#982E20;}
	.st3{fill:#FFFFFF;}
	.st4{fill:#371A45;}
	.st5{fill:#AFAFB2;}
	.st6{opacity:0.7;}
	.st7{fill:#220F2D;}
	.st8{opacity:0.5;}
	.st9{fill:none;}
	.st10{fill:#ED1100;}
	.st11{opacity:0.3;}
	.st12{fill:#FF900B;}
	.st13{fill:#8CCC1D;}
	.st14{fill:#FFB600;}
	.st15{fill:url(#SVGID_2_);}
</style>
<g>
	<linearGradient id="SVGID_1_" gradientUnits="userSpaceOnUse" x1="37.0963" y1="212.9037" x2="212.9547" y2="37.0452">
		<stop  offset="0" style="stop-color:#F9ED32"/>
		<stop  offset="1" style="stop-color:#F7941D"/>
	</linearGradient>
	<circle class="st0" cx="125" cy="125" r="125"/>
	<g>
		<g>
			<g class="st1">
				<g>
					<path d="M72.46,182.41c0,0,0.01,0.09-0.07,0.24C72.41,182.56,72.43,182.48,72.46,182.41z"/>
				</g>
			</g>
			<g>
				<g>
					<path class="st2" d="M125.75,103.7c0.12-0.01,0.23-0.03,0.34-0.04c-0.07,0.04-0.13,0.08-0.2,0.12
						C125.8,103.73,125.75,103.7,125.75,103.7z"/>
				</g>
			</g>
			<g>
				<g>
					<path class="st3" d="M197.85,195.16c-1.91,2.12-4.76,3.83-8.03,5.19c-11.47,4.78-28.17,5.4-28.17,5.4l-19.77-76.71l-2.78-10.78
						c1.24,0.25,30.11-1.74,46.39,4.86C199.07,128.63,207.14,184.83,197.85,195.16z"/>
				</g>
			</g>
			<g class="st1">
				<g>
					<path class="st4" d="M197.85,195.16c-1.91,2.12-4.76,3.83-8.03,5.19c-0.15,0.06-0.3,0.12-0.44,0.18
						c-0.21,0.09-0.42,0.17-0.63,0.25c-0.24,0.09-0.48,0.19-0.73,0.27c-0.15,0.05-0.3,0.11-0.45,0.17
						c-0.63,0.22-1.27,0.43-1.92,0.64c-0.28,0.09-0.56,0.17-0.85,0.26c-0.08,0.02-0.16,0.05-0.24,0.07
						c-0.19,0.06-0.39,0.11-0.58,0.17c-0.06,0.02-0.13,0.04-0.2,0.05c-0.32,0.09-0.64,0.18-0.97,0.26
						c-0.65,0.17-1.29,0.33-1.95,0.48c-0.16,0.04-0.33,0.08-0.49,0.11c-0.33,0.07-0.65,0.15-0.97,0.21
						c-0.16,0.03-0.32,0.07-0.49,0.1c-0.16,0.03-0.32,0.07-0.48,0.1c-0.39,0.08-0.77,0.15-1.15,0.23c-0.19,0.04-0.37,0.07-0.56,0.1
						c-0.7,0.13-1.4,0.25-2.09,0.36c-0.16,0.03-0.31,0.05-0.46,0.07c-0.08,0.01-0.15,0.02-0.23,0.04c-0.12,0.02-0.25,0.04-0.37,0.06
						c-0.27,0.04-0.54,0.08-0.8,0.12c-0.27,0.04-0.54,0.08-0.8,0.11c-0.74,0.1-1.47,0.2-2.16,0.28c-0.27,0.03-0.54,0.07-0.8,0.09
						c-0.27,0.03-0.53,0.06-0.79,0.09c-0.2,0.02-0.39,0.04-0.58,0.06c-0.29,0.03-0.57,0.06-0.84,0.08
						c-0.11,0.01-0.23,0.02-0.34,0.03c-2.93,0.27-4.81,0.34-4.81,0.34l-19.77-76.71c1.06-0.03,2.06-0.06,2.96-0.07
						c3.49-0.07,5.74-0.03,5.74-0.03s17.27-4.38,20.58,1.87c5.32,10.04,7.57,17.09,12.93,32.59c0.55,1.58,1.06,3.15,1.55,4.71
						c1.17,3.77,6.01,4.92,8.67,2c0.02-0.02,0.03-0.04,0.05-0.06c3.15-3.51,4.3-12.29,3.92-22.59
						C202.74,165.89,203.47,188.91,197.85,195.16z"/>
				</g>
			</g>
			<g class="st1">
				<g>
					<path class="st4" d="M142.09,118.24l2.76,10.73c-0.91,0.02-1.9,0.04-2.96,0.07l-2.78-10.78
						C139.32,118.3,140.39,118.27,142.09,118.24z"/>
				</g>
			</g>
			<g>
				<g>
					<path class="st4" d="M161.66,207.23c-0.79,0-1.45-0.63-1.48-1.43c-0.03-0.82,0.61-1.51,1.43-1.54
						c0.27-0.01,27.06-1.11,35.15-10.1c4.65-5.18,4.82-25.87,0.37-45.18c-3.11-13.51-7.67-22.66-12.18-24.49
						c-13.29-5.39-35.71-4.92-43.08-4.77c-2.27,0.05-2.7,0.05-3.04-0.02c-0.8-0.16-1.32-0.94-1.16-1.75
						c0.16-0.78,0.9-1.29,1.68-1.17c0.27,0.02,1.34,0,2.46-0.03c7.52-0.16,30.4-0.64,44.25,4.98c7.52,3.05,11.97,17.96,13.96,26.57
						c4.21,18.25,4.97,41.13-1.05,47.83c-8.93,9.93-36.09,11.04-37.24,11.08C161.7,207.23,161.68,207.23,161.66,207.23z
						 M139.35,116.79c0.02,0,0.03,0.01,0.05,0.01C139.39,116.8,139.37,116.8,139.35,116.79z"/>
				</g>
			</g>
			<g>
				<g>
					<path class="st4" d="M187.54,125.58c-0.29,0-0.66,0.02-1,0.05c-0.35,0.02-0.69,0.06-1.04,0.1c-0.7,0.08-1.4,0.17-2.1,0.29
						c-1.4,0.24-2.8,0.54-4.18,0.91c-1.38,0.38-2.76,0.8-4.11,1.31c-0.68,0.24-1.34,0.52-2.02,0.79c-0.67,0.28-1.32,0.59-1.99,0.88
						c0.61-0.39,1.21-0.8,1.84-1.18c0.63-0.37,1.25-0.76,1.89-1.1c1.27-0.72,2.6-1.35,3.94-1.95c1.35-0.59,2.73-1.12,4.14-1.58
						c0.71-0.24,1.42-0.44,2.15-0.64c0.36-0.1,0.73-0.19,1.1-0.27c0.38-0.09,0.73-0.16,1.16-0.23c0.72-0.11,1.39,0.37,1.5,1.09
						c0.11,0.72-0.37,1.39-1.09,1.5C187.68,125.57,187.6,125.58,187.54,125.58z"/>
				</g>
			</g>
			<g>
				<g>
					<path class="st3" d="M200.64,162.64l-13.93,3.3c-1.24,0.29-2.13,1.39-2.16,2.67c-0.1,4.68,0.23,15.49,5.21,18.29
						c4.13,2.32,10.04,1.03,13.06-2.48c3.38-3.93,2.11-14.39,1.23-19.52C203.78,163.3,202.22,162.26,200.64,162.64z"/>
				</g>
			</g>
			<g class="st1">
				<g>
					<path class="st4" d="M184.55,168.6c-0.1,4.68,0.23,15.49,5.21,18.29c4.13,2.32,10.04,1.04,13.06-2.48
						c2.08-2.42,2.4-7.3,2.13-11.9c-0.28,2.36-0.98,4.36-2.03,5.76c-6.01,8.03-12.6,0.73-12.6,0.73s-0.61,2.12-1.32,2.35
						c-2.99,0.96-3.88-8.75-4.23-13.78C184.64,167.89,184.56,168.24,184.55,168.6z"/>
				</g>
			</g>
			<g>
				<g>
					<path class="st4" d="M194.49,189.55c-1.92,0-3.82-0.44-5.46-1.36c-5.49-3.08-6.09-13.62-5.96-19.62
						c0.04-1.95,1.4-3.63,3.3-4.08l13.93-3.3c1.15-0.27,2.37-0.05,3.36,0.6c0.98,0.65,1.66,1.69,1.86,2.85
						c1.23,7.2,1.96,16.64-1.57,20.74C201.63,188.07,198.02,189.55,194.49,189.55z M200.98,164.08l-13.93,3.3
						c-0.59,0.14-1.01,0.65-1.02,1.25c-0.19,8.95,1.47,15.29,4.45,16.97c3.42,1.92,8.55,0.94,11.21-2.15
						c2.11-2.45,2.44-9.29,0.89-18.31c-0.06-0.36-0.27-0.68-0.57-0.88C201.71,164.06,201.34,163.99,200.98,164.08L200.98,164.08z"/>
				</g>
			</g>
			<g>
				<g>
					<path class="st4" d="M196.67,189.01c-0.1-0.04-0.16-0.06-0.22-0.09c-0.06-0.03-0.13-0.06-0.18-0.08
						c-0.11-0.06-0.23-0.11-0.33-0.17c-0.21-0.12-0.41-0.24-0.6-0.38c-0.39-0.26-0.75-0.54-1.09-0.85
						c-0.67-0.61-1.29-1.26-1.79-1.99c-1.04-1.43-1.77-3.02-2.25-4.65c-0.12-0.41-0.21-0.82-0.32-1.23
						c-0.11-0.41-0.16-0.83-0.24-1.24c-0.16-0.82-0.23-1.64-0.31-2.46c-0.08-0.82-0.12-1.65-0.13-2.47c0-0.82,0.02-1.65,0.19-2.46
						c-0.06,0.82,0.03,1.63,0.14,2.43c0.11,0.8,0.27,1.6,0.45,2.39c0.19,0.79,0.37,1.59,0.62,2.34c0.13,0.38,0.22,0.77,0.38,1.13
						c0.15,0.37,0.29,0.74,0.44,1.1c0.64,1.44,1.49,2.76,2.53,3.85c0.51,0.56,1.09,1.02,1.69,1.43c0.3,0.2,0.61,0.39,0.93,0.54
						c0.16,0.08,0.31,0.15,0.47,0.21c0.08,0.03,0.15,0.05,0.23,0.08c0.04,0.02,0.07,0.02,0.1,0.03c0.04,0.01,0.07,0.02,0.07,0.02
						c0.69,0.22,1.07,0.95,0.86,1.64C198.1,188.85,197.36,189.23,196.67,189.01z"/>
				</g>
			</g>
			<g>
				<g>
					<path class="st3" d="M138.54,221.23c0,0-28.2,0.75-67.63,1.56l-1.38-21.58c0,0-1.2-21.53,14.96-28.57
						c20.7-9.03,40.23,13.52,40.23,13.52L138.54,221.23z"/>
				</g>
			</g>
			<g>
				<g>
					<path class="st4" d="M69.52,224.31l-1.47-23c-0.01-0.24-0.29-5.71,1.47-12.13c2.37-8.64,7.34-14.83,14.37-17.89
						c8.92-3.89,19.04-2.69,29.24,3.46c7.58,4.58,12.5,10.21,12.71,10.44l0.17,0.19l14.68,37.27l-2.12,0.06
						c-0.28,0.01-28.66,0.76-67.63,1.56L69.52,224.31z M94.6,172.02c-3.1,0-6.3,0.59-9.52,1.99c-15,6.54-14.08,26.93-14.07,27.13
						l1.29,20.15c32.2-0.67,56.91-1.29,64.08-1.48l-12.94-32.85C121.88,185.25,109.34,172.02,94.6,172.02z"/>
				</g>
			</g>
			<g>
				<g>
					<path class="st3" d="M78.46,222.52l-16.47,1.06c-3.19,0.2-6.21-1.48-7.7-4.31c-4.66-8.86-13.36-28.42-7.19-41.09
						c5.94-12.2,26.54-10.06,30.76,18.51"/>
				</g>
			</g>
			<g>
				<g>
					<path class="st4" d="M61.47,225.07c-3.54,0-6.83-1.96-8.49-5.12c-5.4-10.28-13.53-29.46-7.21-42.43
						c2.74-5.62,8.43-8.64,14.5-7.71c7.48,1.16,16.42,8.76,19.06,26.65c0.12,0.81-0.44,1.56-1.25,1.68
						c-0.81,0.12-1.56-0.44-1.68-1.25c-2.41-16.29-10.14-23.16-16.58-24.15c-4.83-0.75-9.19,1.58-11.38,6.07
						c-5.96,12.23,3.03,31.87,7.17,39.75c1.21,2.31,3.68,3.69,6.29,3.52l16.47-1.06c0.82-0.06,1.52,0.57,1.57,1.38
						c0.05,0.82-0.57,1.52-1.38,1.57l-16.47,1.06C61.88,225.07,61.67,225.07,61.47,225.07z"/>
				</g>
			</g>
			<g class="st1">
				<g>
					<path class="st4" d="M138.54,221.23c0,0-25.96,0.69-62.89,1.46l-13.66,0.88c-3.19,0.2-6.21-1.48-7.7-4.32
						c-3.66-6.95-9.81-20.5-9.3-32.13c1.5,9.51,5.93,19.1,8.81,24.58c1.49,2.83,4.5,4.52,7.7,4.31l7.07-0.55l0.25-8.69
						c7.32,14.69,7.04,3,14.4,2.53c7.36-0.47,45.31,4.62,52.36,4.44L138.54,221.23z"/>
				</g>
			</g>
			<g>
				<g>
					<path class="st5" d="M64.71,223.4l-2.72,0.17c-3.19,0.2-6.21-1.48-7.7-4.32c-4.66-8.86-13.36-28.42-7.19-41.09
						c0.18-0.37,0.37-0.73,0.58-1.07c0,0,6.29-6.5,11.63,1.78C64.31,186.62,75.91,220.33,64.71,223.4z"/>
				</g>
			</g>
			<g class="st6">
				<g>
					<path class="st3" d="M62.14,184.44c-0.13-0.18-0.26-0.36-0.39-0.52c-6.45-8.21-14.27-1.61-14.27-1.61
						c-0.26,0.35-0.51,0.71-0.73,1.08c-0.75,1.23-1.33,2.52-1.76,3.86c0.13-3.23,0.76-6.32,2.11-9.08c0.18-0.37,0.37-0.73,0.58-1.07
						c0,0,6.29-6.5,11.63,1.78C60.13,180.13,61.11,182.06,62.14,184.44z"/>
				</g>
			</g>
			<g>
				<g>
					<path class="st4" d="M45.01,188.01c-0.5,0-0.96-0.34-1.08-0.85c-0.14-0.59,0.23-1.19,0.83-1.33l16.51-3.86
						c0.6-0.14,1.19,0.23,1.33,0.83c0.14,0.59-0.23,1.19-0.83,1.33l-16.51,3.86C45.17,188,45.09,188.01,45.01,188.01z"/>
				</g>
			</g>
			<g>
				<g>
					<path class="st4" d="M45.69,197.02c-0.52,0-0.98-0.36-1.08-0.89c-0.12-0.6,0.27-1.18,0.87-1.3l19.35-3.88
						c0.6-0.12,1.18,0.27,1.3,0.87c0.12,0.6-0.27,1.18-0.87,1.3L45.91,197C45.83,197.01,45.76,197.02,45.69,197.02z"/>
				</g>
			</g>
			<g>
				<g>
					<path class="st4" d="M47.98,205.74c-0.52,0-0.99-0.37-1.09-0.9c-0.11-0.6,0.28-1.18,0.88-1.29l19.66-3.7
						c0.6-0.11,1.18,0.28,1.29,0.88c0.11,0.6-0.28,1.18-0.88,1.29l-19.66,3.7C48.11,205.73,48.05,205.74,47.98,205.74z"/>
				</g>
			</g>
			<g>
				<g>
					<path class="st4" d="M51.74,215.17c-0.54,0-1.01-0.39-1.09-0.94c-0.09-0.6,0.32-1.17,0.92-1.26l17.61-2.73
						c0.6-0.09,1.17,0.32,1.26,0.92c0.09,0.6-0.32,1.17-0.92,1.26l-17.61,2.73C51.85,215.16,51.79,215.17,51.74,215.17z"/>
				</g>
			</g>
			<g class="st1">
				<g>
					<path class="st4" d="M64.71,223.4l-2.72,0.17c-3.19,0.2-6.21-1.48-7.7-4.32c-1.2-2.3-2.68-5.31-4.1-8.73
						c1.81,2.61,5.23,4.11,8.88,3.88l3.24-0.21c4.56-1.1,6.01-5.73,5.7-11.67C70.21,212.44,70.38,221.84,64.71,223.4z"/>
				</g>
			</g>
			<g>
				<g>
					<path class="st4" d="M61.47,224.88c-3.47,0-6.69-1.92-8.32-5.02c-5.39-10.25-13.49-29.37-7.21-42.26
						c0.2-0.4,0.41-0.8,0.64-1.18l0.08-0.12l0.1-0.1c0.12-0.13,3.11-3.17,6.99-2.79c2.53,0.25,4.77,1.85,6.65,4.77
						c4.09,6.34,13.34,31.43,9.34,41.89c-0.93,2.44-2.51,3.97-4.69,4.57l-0.13,0.03l-2.85,0.18
						C61.87,224.87,61.67,224.88,61.47,224.88z M64.71,223.4L64.71,223.4L64.71,223.4z M48.7,177.9c-0.16,0.27-0.3,0.54-0.44,0.83
						c-5.99,12.31,3.02,32.02,7.18,39.93c1.25,2.38,3.79,3.8,6.47,3.63l2.58-0.17c1.3-0.4,2.23-1.37,2.84-2.97
						c3.4-8.91-4.81-32.93-9.1-39.57c-1.43-2.21-3.02-3.42-4.72-3.6C51.18,175.75,49.16,177.48,48.7,177.9z"/>
				</g>
			</g>
			<g>
				<g>
					<path class="st4" d="M62.92,225.11c-0.35,0-0.71-0.02-1.09-0.06c-0.81-0.08-1.41-0.81-1.32-1.63s0.81-1.41,1.63-1.32
						c0.82,0.08,1.55,0.04,2.18-0.13c0.79-0.22,1.6,0.25,1.82,1.04c0.22,0.79-0.25,1.61-1.04,1.82
						C64.43,225.01,63.7,225.11,62.92,225.11z"/>
				</g>
			</g>
			<g>
				<g>
					<path class="st3" d="M164.23,227.58c-11.05,2.64-27.52-3.21-27.52-3.21l-1.96-19.49c0,0-0.58-5.93,1.82-11.71l-44.27,3.27
						c0,0,7.09-34.24,9.74-56.57c0.06-0.55,0.13-1.08,0.19-1.61c1.09-9.73,54.21-26.43,54.21-26.43s2.29,3.92,5.6,10.17
						c5.32,10.04,13.27,26.1,18.63,41.59c1.43,4.13,2.67,8.22,3.62,12.14c0.8,3.28,1.41,6.44,1.75,9.42
						C189.52,215.09,177.46,224.41,164.23,227.58z"/>
				</g>
			</g>
			<g>
				<g>
					<path class="st4" d="M157.67,229.75c-10.11,0-20.9-3.78-21.46-3.98l-0.89-0.31l-2.05-20.42c-0.02-0.19-0.43-4.59,0.96-9.6
						c1.88-6.8,6.15-11.44,12.36-13.43c0.78-0.25,1.61,0.18,1.86,0.96c0.25,0.78-0.18,1.61-0.96,1.86
						c-12.63,4.04-11.33,19.27-11.27,19.92l1.86,18.53c3.51,1.13,16.73,5.04,25.79,2.87c10.62-2.54,24.32-9.53,20.69-40.79
						c-2.94-25.26-24.91-64.85-28.82-71.73c-3.49,1.13-14.5,4.76-25.47,9.17c-24.12,9.69-26.44,14.43-26.58,15.65
						c-1.48,13.27-4.71,31.32-7.15,44.13l-2.3,11.71c-0.16,0.8-0.94,1.33-1.74,1.17c-0.8-0.16-1.33-0.94-1.17-1.74l2.3-11.7
						c2.43-12.75,5.64-30.73,7.12-43.9c0.33-2.99,3.65-8.11,28.43-18.08c13.31-5.35,26.67-9.56,26.8-9.6l1.13-0.35l0.6,1.02
						c1.08,1.85,26.51,45.69,29.8,73.91c2.94,25.22-4.57,39.62-22.94,44.02C162.41,229.54,160.06,229.75,157.67,229.75z"/>
				</g>
			</g>
			<g>
				<g>
					<path class="st3" d="M154.59,224.16c0,0-15.06,7.72-19.93,7.09s-2.18-51.5-2.18-51.5s10.63-3.31,14.99,7.9
						c1.81,4.65-0.01,10.37,0.97,15.18"/>
				</g>
			</g>
			<g>
				<g class="st1">
					<g>
						<path class="st4" d="M162.03,122.01c-8.5,9.92-20.14,16.63-32.86,19.12c-1.09,0.21-2.18,0.39-3.28,0.54
							c-3.02,0.41-6.08,0.58-9.17,0.5c-2.56-0.07-5.13-0.3-7.71-0.72c-2.33-0.37-4.65-0.9-6.97-1.57c0.06-0.55,0.13-1.08,0.19-1.61
							c1.09-9.73,54.21-26.43,54.21-26.43S158.72,115.76,162.03,122.01z"/>
					</g>
				</g>
				<g>
					<g>
						<path class="st3" d="M69.84,110.5c5.44,8.27,12.96,15.21,22.13,19.96c1.87,0.97,3.8,1.85,5.8,2.62
							c0.97,0.38,1.96,0.74,2.97,1.07c3.04,1,6.1,1.74,9.16,2.23c2.64,0.43,5.28,0.67,7.9,0.74c3.17,0.08,6.31-0.09,9.4-0.51
							c1.13-0.16,2.25-0.34,3.36-0.56c20.34-3.97,37.99-18.51,44.94-39.59c10.24-31.05-6.63-64.52-37.68-74.76
							c-5.98-1.97-12.06-2.94-18.03-2.99c-0.7-0.01-1.4,0-2.1,0.02c-1.87,0.05-3.73,0.19-5.58,0.41c-4.26,0.52-8.43,1.51-12.44,2.92
							c-4,1.41-7.85,3.24-11.45,5.46c-1.15,0.71-2.27,1.45-3.37,2.24c-1.65,1.18-3.24,2.44-4.77,3.79
							c-7.62,6.71-13.61,15.48-17.02,25.83C57.17,77.26,60.25,95.92,69.84,110.5z"/>
					</g>
					<g>
						<path class="st4" d="M119.33,137.3c-0.51,0-1.02-0.01-1.53-0.02c-2.67-0.07-5.33-0.32-7.92-0.74
							c-3.09-0.5-6.18-1.25-9.19-2.24c-1.1-0.37-2.08-0.72-2.98-1.08c-1.96-0.76-3.92-1.65-5.81-2.63
							c-8.96-4.64-16.63-11.56-22.19-20.02c-10.03-15.25-12.5-33.92-6.79-51.23c3.3-10.01,9.2-18.96,17.07-25.89
							c1.49-1.32,3.09-2.59,4.78-3.8c1.08-0.77,2.22-1.53,3.38-2.24c3.62-2.23,7.48-4.07,11.48-5.48c4.04-1.42,8.24-2.41,12.47-2.93
							c1.84-0.23,3.72-0.36,5.59-0.41c0.74-0.02,1.44-0.03,2.11-0.02c6.1,0.05,12.18,1.05,18.08,2.99
							c31.08,10.25,48.02,43.88,37.77,74.95c-6.71,20.37-23.98,35.58-45.05,39.69c-1.11,0.21-2.24,0.4-3.37,0.56
							C124.6,137.13,121.95,137.3,119.33,137.3z M119.15,18.88c-0.47,0-0.96,0.01-1.46,0.02c-1.86,0.05-3.73,0.19-5.56,0.41
							c-4.21,0.52-8.38,1.5-12.4,2.91c-3.98,1.4-7.83,3.23-11.43,5.45c-1.16,0.71-2.29,1.46-3.36,2.23
							c-1.68,1.2-3.27,2.47-4.75,3.78c-7.83,6.89-13.7,15.8-16.98,25.76c-5.68,17.22-3.22,35.79,6.76,50.97
							c5.53,8.41,13.16,15.3,22.07,19.91c1.89,0.98,3.83,1.86,5.79,2.62c0.9,0.35,1.87,0.7,2.96,1.07c2.99,0.98,6.06,1.73,9.14,2.23
							c2.58,0.42,5.23,0.67,7.88,0.74c3.1,0.08,6.26-0.09,9.37-0.51c1.12-0.15,2.24-0.34,3.35-0.55
							c20.97-4.09,38.14-19.22,44.82-39.49c10.2-30.92-6.66-64.37-37.58-74.57c-5.87-1.93-11.92-2.93-17.99-2.98
							C119.58,18.88,119.37,18.88,119.15,18.88z"/>
					</g>
				</g>
				<g class="st1">
					<g>
						<path class="st4" d="M175.5,96.48c-6.95,21.08-24.6,35.62-44.94,39.59c-1.11,0.22-2.23,0.4-3.35,0.56
							c-3.09,0.42-6.23,0.59-9.4,0.51c-2.62-0.07-5.26-0.31-7.9-0.74c-3.06-0.49-6.12-1.23-9.17-2.23c-1-0.34-2-0.69-2.97-1.07
							c-2-0.78-3.93-1.66-5.8-2.63c-9.17-4.75-16.69-11.69-22.13-19.96c-2.99-4.54-5.34-9.48-6.99-14.67
							c5.37,7.77,12.62,14.3,21.37,18.83c1.87,0.97,3.8,1.85,5.8,2.63c0.97,0.38,1.96,0.73,2.97,1.07c3.04,1,6.1,1.74,9.16,2.24
							c2.64,0.43,5.28,0.67,7.9,0.74c3.17,0.08,6.31-0.1,9.4-0.51c1.13-0.16,2.25-0.34,3.36-0.56
							c20.34-3.97,37.99-18.51,44.94-39.59c4.06-12.3,3.86-24.97,0.21-36.43C178.14,58.98,181.54,78.15,175.5,96.48z"/>
					</g>
				</g>
				<g>
					<g>
						<path class="st4" d="M119.33,138.33c-0.52,0-1.04-0.01-1.55-0.02c-2.71-0.07-5.42-0.32-8.06-0.75
							c-3.14-0.5-6.29-1.27-9.34-2.28c-1.13-0.38-2.12-0.74-3.03-1.1c-1.99-0.77-3.98-1.67-5.91-2.67
							c-9.11-4.72-16.92-11.76-22.57-20.36c-10.2-15.51-12.72-34.51-6.91-52.12c3.36-10.18,9.36-19.29,17.36-26.34
							c1.51-1.34,3.14-2.64,4.86-3.86c1.1-0.79,2.26-1.55,3.44-2.28c3.68-2.27,7.61-4.14,11.68-5.57c4.11-1.45,8.38-2.45,12.68-2.98
							c1.87-0.23,3.79-0.37,5.69-0.42c0.74-0.02,1.47-0.03,2.15-0.02c6.19,0.05,12.38,1.07,18.38,3.05
							c31.61,10.43,48.85,44.63,38.43,76.25c-6.83,20.72-24.39,36.19-45.83,40.37c-1.13,0.22-2.28,0.41-3.42,0.57
							C124.69,138.15,122,138.33,119.33,138.33z M119.15,19.9c-0.46,0-0.93,0.01-1.42,0.02c-1.84,0.05-3.68,0.18-5.47,0.4
							c-4.14,0.51-8.24,1.47-12.19,2.86c-3.92,1.38-7.69,3.18-11.23,5.36c-1.14,0.7-2.25,1.44-3.3,2.19
							c-1.65,1.18-3.22,2.43-4.67,3.71c-7.69,6.77-13.46,15.53-16.68,25.31c-5.58,16.92-3.16,35.17,6.64,50.08
							c5.43,8.26,12.93,15.03,21.69,19.57c1.85,0.96,3.77,1.82,5.69,2.57c0.88,0.35,1.84,0.69,2.92,1.05
							c2.93,0.97,5.95,1.7,8.97,2.19c2.53,0.41,5.14,0.66,7.75,0.73c3.05,0.08,6.15-0.09,9.21-0.5c1.09-0.15,2.2-0.34,3.29-0.55
							c20.6-4.02,37.48-18.89,44.04-38.8c10.02-30.38-6.55-63.25-36.93-73.27c-5.76-1.9-11.71-2.88-17.67-2.93
							C119.57,19.91,119.36,19.9,119.15,19.9z"/>
					</g>
				</g>
				<g>
					<g>
						<path class="st4" d="M119.33,138.67c-0.52,0-1.04-0.01-1.56-0.02c-2.73-0.07-5.45-0.33-8.11-0.76
							c-3.16-0.51-6.32-1.28-9.39-2.29c-1.13-0.38-2.13-0.74-3.05-1.1c-2-0.78-4-1.68-5.94-2.69c-9.16-4.75-17.01-11.83-22.7-20.48
							c-10.26-15.6-12.79-34.7-6.95-52.41c3.38-10.24,9.41-19.4,17.46-26.49c1.52-1.34,3.16-2.65,4.89-3.89
							c1.11-0.79,2.27-1.56,3.46-2.29c3.7-2.28,7.65-4.16,11.75-5.6c4.13-1.46,8.42-2.46,12.75-3c1.88-0.23,3.81-0.37,5.72-0.42
							c0.75-0.02,1.48-0.03,2.17-0.02c6.23,0.05,12.45,1.08,18.48,3.06c31.79,10.49,49.13,44.89,38.64,76.68
							c-6.87,20.84-24.53,36.39-46.09,40.6c-1.14,0.22-2.29,0.41-3.44,0.57C124.72,138.49,122.01,138.67,119.33,138.67z
							 M119.15,20.25c-0.46,0-0.93,0.01-1.41,0.02c-1.83,0.05-3.66,0.18-5.44,0.4c-4.11,0.5-8.19,1.46-12.11,2.85
							c-3.89,1.37-7.65,3.16-11.16,5.32c-1.13,0.7-2.24,1.43-3.28,2.18c-1.64,1.17-3.2,2.41-4.64,3.69
							c-7.65,6.73-13.38,15.43-16.59,25.16c-5.55,16.82-3.14,34.97,6.6,49.79c5.4,8.22,12.86,14.94,21.56,19.45
							c1.84,0.95,3.75,1.81,5.65,2.55c0.88,0.34,1.83,0.69,2.9,1.05c2.91,0.96,5.91,1.69,8.92,2.18c2.52,0.41,5.11,0.65,7.7,0.72
							c3.03,0.08,6.11-0.09,9.16-0.5c1.09-0.15,2.19-0.33,3.27-0.54c20.48-4,37.26-18.78,43.78-38.57
							c9.96-30.2-6.51-62.88-36.71-72.84c-5.73-1.89-11.64-2.87-17.57-2.91C119.57,20.25,119.36,20.25,119.15,20.25z"/>
					</g>
				</g>
				<g>
					<g>
						<path class="st4" d="M79.73,122c36.62,21.2,82.15-0.03,81.07-41.92c-0.73-28.5-29.2-49.79-56.53-47.33
							c-19.89,1.79-38.52,12.23-44.19,43.86c0,0-0.35,14.39,4.33,23.55s10.77,17.28,10.77,17.28L79.73,122z"/>
					</g>
				</g>
				<g>
					<g>
						<path class="st7" d="M160.8,80.08c1.08,41.89-44.46,63.12-81.07,41.92l-0.92-0.93c38.6,3.54,74.54-22.46,74.24-64.83
							C157.71,63.18,160.57,71.29,160.8,80.08z"/>
					</g>
				</g>
				<g>
					<g>
						<path class="st4" d="M109.99,137.91c-0.03,0-0.06,0-0.09,0l-0.12,0l-0.12-0.02c-3.16-0.51-6.33-1.28-9.4-2.29
							c-1.13-0.38-2.13-0.74-3.05-1.1c-2-0.78-4-1.68-5.94-2.69c-9.16-4.75-17.01-11.83-22.7-20.48
							c-10.26-15.6-12.79-34.7-6.95-52.41c3.37-10.24,9.41-19.4,17.46-26.49l0.12-0.1l0.14-0.08c6.81-3.85,14.89-6.22,24.02-7.04
							c16.26-1.46,33.61,4.46,46.39,15.85c11.75,10.47,18.43,24.25,18.8,38.82c0.41,15.83-4.89,29.84-15.3,40.51
							C142.38,131.53,126.61,137.91,109.99,137.91z M80.97,34.82C73.39,41.54,67.7,50.2,64.51,59.87
							c-5.55,16.82-3.14,34.97,6.6,49.79c5.4,8.22,12.86,14.94,21.56,19.45c1.84,0.95,3.75,1.81,5.65,2.55
							c0.88,0.34,1.83,0.69,2.9,1.05c2.87,0.95,5.84,1.67,8.8,2.16c15.8-0.01,30.76-6.06,41.05-16.6
							c9.83-10.07,14.82-23.32,14.44-38.31c-0.35-13.72-6.67-26.73-17.78-36.63c-12.17-10.84-28.66-16.49-44.1-15.1
							C94.99,29.01,87.37,31.23,80.97,34.82z"/>
					</g>
				</g>
				<g>
					<g>
						<path class="st4" d="M110.14,131.84c-10.57,0-21.37-2.85-31.17-8.52l-0.17-0.1l-4.83-4.86c-0.25-0.34-6.22-8.33-10.9-17.5
							c-4.79-9.4-4.51-23.67-4.49-24.28l0.02-0.23c4.95-27.66,20.28-42.83,45.55-45.11c14.52-1.31,29.99,3.98,41.4,14.15
							c10.49,9.34,16.45,21.65,16.78,34.66c0.48,18.78-8.22,34.89-23.89,44.19C129.88,129.31,120.11,131.84,110.14,131.84z
							 M80.66,120.79c18.07,10.38,39.59,10.71,56.22,0.83c14.69-8.72,22.86-23.85,22.4-41.5c-0.31-12.16-5.91-23.69-15.77-32.47
							c-10.79-9.61-25.42-14.62-39.11-13.39c-23.7,2.13-38.1,16.43-42.81,42.5c-0.02,1.34-0.06,14.42,4.16,22.71
							c4.31,8.44,9.91,16.1,10.57,16.98L80.66,120.79z"/>
					</g>
				</g>
				<g>
					<g>
						
							<ellipse transform="matrix(0.9956 -0.0938 0.0938 0.9956 -6.5777 16.4366)" class="st3" cx="171.61" cy="78.21" rx="15.38" ry="21.17"/>
					</g>
					<g>
						<path class="st4" d="M172.5,100.86c-2.82,0-5.61-0.93-8.19-2.76c-4.88-3.45-8.29-9.55-9.34-16.71
							c-1.82-12.33,4.13-23.8,13.26-25.59c3.64-0.71,7.33,0.16,10.67,2.52c4.88,3.45,8.29,9.55,9.34,16.72
							c1.82,12.32-4.13,23.8-13.26,25.59C174.15,100.78,173.33,100.86,172.5,100.86z M170.69,58.6c-0.63,0-1.25,0.06-1.88,0.18
							c-7.56,1.48-12.42,11.42-10.84,22.16c0.92,6.26,3.95,11.74,8.09,14.68c2.64,1.87,5.52,2.56,8.33,2.01
							c7.56-1.48,12.42-11.42,10.84-22.16c-0.92-6.26-3.95-11.74-8.09-14.68C175.09,59.34,172.89,58.6,170.69,58.6z"/>
					</g>
				</g>
				<g>
					<g>
						
							<ellipse transform="matrix(0.9982 -0.0596 0.0596 0.9982 -4.4091 10.6792)" class="st3" cx="176.77" cy="79.23" rx="12.53" ry="16.8"/>
					</g>
					<g>
						<path class="st4" d="M177.23,96.19c-1.09,0-2.2-0.19-3.3-0.58c-6.82-2.39-11.11-11.68-9.57-20.7
							c0.86-5.05,3.39-9.15,6.93-11.23c2.61-1.53,5.47-1.82,8.3-0.83c6.82,2.39,11.11,11.68,9.57,20.7l-0.16-0.03l0.16,0.03
							c-0.86,5.05-3.39,9.15-6.93,11.23C180.64,95.72,178.95,96.19,177.23,96.19z M176.3,62.59c-1.66,0-3.3,0.46-4.84,1.36
							c-3.46,2.04-5.93,6.05-6.78,11.01c-1.52,8.88,2.68,18,9.36,20.34c2.73,0.96,5.51,0.68,8.03-0.81
							c3.46-2.04,5.93-6.05,6.78-11.01c1.52-8.88-2.68-18-9.36-20.34C178.43,62.78,177.36,62.59,176.3,62.59z"/>
					</g>
				</g>
				<g class="st1">
					<g>
						<path class="st4" d="M166.09,88c-1.22-2.94-1.63-6.23-1.35-9.41c3.34,6.47,9.95,8.34,15.29,4.08
							c3.45-2.75,5.58-7.43,6.02-12.36c0.21,0.41,0.41,0.84,0.6,1.28c3.1,7.49,1.01,17.24-4.67,21.76
							C176.3,97.89,169.19,95.48,166.09,88z"/>
					</g>
				</g>
				<g>
					<g>
						<path class="st4" d="M177.63,97.53c-2.08,0-4.16-0.69-6.09-2.05c-3.94-2.78-6.82-8.07-7.69-14.15
							c-1.46-10.19,3.1-19.65,10.16-21.09c2.71-0.55,5.46,0.09,7.97,1.86c3.94,2.78,6.82,8.07,7.69,14.15
							c1.46,10.19-3.1,19.65-10.16,21.09C178.89,97.47,178.26,97.53,177.63,97.53z M175.89,63.09c-0.42,0-0.85,0.04-1.26,0.13
							c-5.52,1.12-9,9.06-7.76,17.68c0.76,5.27,3.16,9.79,6.43,12.1c1.81,1.27,3.75,1.75,5.62,1.37c5.52-1.12,9-9.06,7.76-17.68
							c-0.76-5.27-3.16-9.79-6.43-12.1C178.84,63.59,177.36,63.09,175.89,63.09z"/>
					</g>
				</g>
				<g class="st8">
					<g>
						<path class="st3" d="M119.24,41.86c0,0-26.58,4.11-39.9,20.82c-0.01,0.02-0.03,0.04-0.04,0.05c-2.8,3.52-4.6,7.73-5.23,12.19
							c-0.84,5.89-0.56,10.07-0.17,13.74c1.19,11.16,3.84,16.17,3.84,16.17c-6.98-5.22-11.27-11.54-12.36-20.83
							c-0.1-0.92-0.18-1.86-0.22-2.84c-0.01-0.22-0.02-0.45-0.02-0.67c-0.01,0,0-0.01,0-0.01c0.05-1.98,0.21-4.59,0.64-7.51
							c1.28-8.81,4.96-20.52,15.16-26.86C100.02,34.26,120.04,40.6,119.24,41.86z"/>
					</g>
				</g>
				<g class="st8">
					<g>
						
							<ellipse transform="matrix(0.9332 -0.3595 0.3595 0.9332 -14.6733 55.5532)" class="st3" cx="142.04" cy="67.23" rx="7.91" ry="9.22"/>
					</g>
				</g>
				<g class="st8">
					<g>
						
							<ellipse transform="matrix(0.8995 -0.437 0.437 0.8995 -21.3253 73.0248)" class="st3" cx="148.06" cy="82.86" rx="3.27" ry="3.81"/>
					</g>
				</g>
			</g>
			<g class="st1">
				<g>
					<path class="st4" d="M136.71,224.37c0,0,4.96,1.76,11.26,2.91c-4.68,2.06-10.59,4.32-13.31,3.97
						c-1.74-0.23-2.52-6.89-2.79-15.36c0.44,4.04,1.16,6.7,2.25,6.84c0.65,0.08,1.47,0.02,2.42-0.15L136.71,224.37z"/>
				</g>
			</g>
			<g class="st1">
				<g>
					<path class="st4" d="M151.96,216.67c0.14-0.07,0.28-0.14,0.41-0.2C152.37,216.47,152.12,216.69,151.96,216.67z"/>
				</g>
			</g>
			<g>
				<g>
					<path class="st3" d="M184.27,173.84c-2.75,7.51-16.09,11.02-31.08,10.06c-3.16-0.2-6.4-0.6-9.63-1.21l-0.14-13.88
						c0,0,12.18,0.29,22.82-2.34c5.01-1.24,9.68-3.13,12.57-6.01C178.8,160.46,187.6,164.74,184.27,173.84z"/>
				</g>
			</g>
			<g class="st1">
				<g>
					<path class="st4" d="M184.27,173.84c-2.75,7.51-16.09,11.02-31.08,10.06c-2.05-0.13-4.14-0.35-6.23-0.65
						c-0.73-0.1-1.46-0.22-2.19-0.34c-0.4-0.07-0.81-0.14-1.21-0.22l-0.06-6.1l-0.08-7.78c0,0,12.18,0.29,22.82-2.34
						c-0.27,1.86-0.74,3.57-1.38,5.16c-1.13,2.82,1.28,5.8,4.25,5.21c7.5-1.5,13.1-4.59,14.77-9.16c0.18-0.49,0.32-0.96,0.43-1.42
						C185.14,168.25,185.39,170.77,184.27,173.84z"/>
				</g>
			</g>
			<g>
				<g>
					<path class="st4" d="M157.96,185.54c-4.74,0-9.72-0.47-14.68-1.39c-0.7-0.13-1.2-0.73-1.21-1.44l-0.14-13.88
						c0-0.4,0.16-0.79,0.44-1.07c0.29-0.28,0.67-0.43,1.08-0.43c0.26,0.01,25.84,0.52,34.31-7.91c0.45-0.44,1.13-0.56,1.69-0.28
						c3.46,1.68,9.21,7.02,6.21,15.22c-1.76,4.8-7.35,8.38-15.76,10.08C166.23,185.17,162.19,185.54,157.96,185.54z M145.02,181.45
						c18.21,3.12,35.04-0.44,37.85-8.12c2.28-6.24-1.96-9.8-3.87-11.04c-8.69,7.41-28.4,8-34.1,8.01L145.02,181.45z"/>
				</g>
			</g>
			<g>
				<g>
					<path class="st4" d="M82.56,223.66c-0.2,0-0.39-0.05-0.57-0.16c-0.53-0.32-0.69-1-0.38-1.53c4.63-7.66,5.56-15.8,2.75-24.2
						c-2.12-6.33-5.67-10.44-5.71-10.48c-0.4-0.46-0.36-1.16,0.1-1.57c0.46-0.4,1.16-0.36,1.57,0.1c0.16,0.18,3.85,4.43,6.12,11.16
						c2.1,6.24,3.3,15.83-2.93,26.14C83.3,223.47,82.93,223.66,82.56,223.66z"/>
				</g>
			</g>
			<g>
				<g>
					<g>
						<path class="st10" d="M63.52,172.4c0.22,1.58,0.87,3.12,2.36,4.1c4.19,2.76,27.75,6.02,41.36,5.38
							c13.6-0.64,41.25-3.81,45.3-10.53c4.05-6.72,0.27-13.64-0.87-13.51s-3.97,3.22-4.9,7.02c-0.93,3.8-1.58,6.88-7.45,6.1
							c-5.87-0.78-17.9-2.74-24.26,1.83s-17.16,3.67-20.98,0.79c-3.82-2.88-9.32-4.13-14.11-1.8c-3.48,1.69-11.8,2.36-14.97-0.48
							C63.82,170.24,63.12,169.52,63.52,172.4z"/>
					</g>
				</g>
				<g class="st11">
					<g>
						<path class="st4" d="M65.87,174.65c4.19,2.77,27.75,6.02,41.36,5.39c13.6-0.64,41.25-3.81,45.3-10.53
							c0.54-0.89,0.93-1.79,1.22-2.67c0.05,0.05,0.1,0.1,0.14,0.16c-0.35-0.51-1.2-0.61-1.6,0.06c-0.01,0.02-0.02,0.04-0.03,0.05
							c-4.05,6.72-31.7,9.9-45.3,10.53s-37.17-2.62-41.36-5.38c-0.18-0.12-0.35-0.25-0.5-0.38c-0.41-0.35-0.94-0.26-1.26,0.06
							C64.2,173,64.83,173.97,65.87,174.65z"/>
					</g>
				</g>
				<g>
					<g>
						<path class="st12" d="M153.38,141.06c0.09,1.43-0.12,2.84-0.59,4.21c-3.56,10.33-22.35,18.83-45.48,20.31
							c-21.25,1.36-39.62-3.62-46.23-12.04c-1.54-1.96-2.44-4.11-2.59-6.41c-0.78-12.15,19.39-30.26,45.59-31.94
							C130.29,113.52,152.61,128.91,153.38,141.06z"/>
					</g>
				</g>
				<g class="st11">
					<g>
						<path class="st3" d="M125.4,126.98c-7.72-1.17-10.15,1.51-9.03,5.51c0.53,1.91,5.09,2.64,8.56,4.21
							c3.66,1.66,7.18,6.72,10.5,5.21C141.66,139.07,136.77,128.71,125.4,126.98z"/>
					</g>
				</g>
				<g class="st11">
					<g>
						<path class="st4" d="M153.39,137.56c0.07,1.36-0.15,2.71-0.6,4.02c-3.56,10.33-22.35,18.83-45.48,20.31
							c-21.25,1.36-39.62-3.62-46.23-12.04c-1.54-1.97-2.45-4.11-2.59-6.41c-0.2-3.05,0.93-6.47,3.14-9.92
							c-0.04,0.5-0.04,0.99-0.01,1.47c0.15,2.29,1.05,4.44,2.59,6.41c6.61,8.41,24.99,13.4,46.23,12.03
							C130.16,152.18,146.73,145.81,153.39,137.56z"/>
					</g>
				</g>
				<g class="st8">
					<g>
						<path class="st3" d="M153.38,141.06c0.09,1.42-0.12,2.84-0.59,4.21c-0.18,0.52-0.39,1.04-0.65,1.54
							c0.03-0.41,0.03-0.83,0-1.25c-0.78-12.15-23.1-27.54-49.3-25.86c-21.82,1.4-39.45,14.19-44.29,25.45
							c1.33-12.04,20.73-28.36,45.54-29.95C130.29,113.52,152.6,128.91,153.38,141.06z"/>
					</g>
				</g>
				<g>
					<g>
						<path class="st4" d="M100.51,167.28c-18.52,0-34.35-4.88-40.59-12.82c-1.76-2.24-2.74-4.68-2.9-7.23
							c-0.42-6.61,4.53-14.53,13.26-21.17c9.42-7.17,21.4-11.55,33.72-12.34c12.32-0.79,24.76,2.03,35.02,7.94
							c9.5,5.47,15.43,12.69,15.85,19.3l0,0c0.1,1.6-0.12,3.21-0.67,4.79c-3.8,11.02-23.04,19.78-46.78,21.31
							C105.08,167.21,102.77,167.28,100.51,167.28z M108.15,116.55c-1.31,0-2.63,0.04-3.96,0.13c-11.75,0.75-23.15,4.92-32.11,11.74
							c-7.82,5.95-12.45,13.08-12.1,18.62c0.12,1.94,0.89,3.82,2.28,5.59c6.42,8.18,24.49,12.78,44.97,11.47
							c22.23-1.42,40.8-9.55,44.17-19.32c0.42-1.21,0.59-2.43,0.51-3.63C151.25,130.91,132.48,116.55,108.15,116.55z"/>
					</g>
				</g>
				<g>
					<g>
						<path class="st13" d="M157.27,155.44l-9.1,5.24c-1.03,0.6-1.69,1.61-1.76,2.72l-0.26,4.07c-0.13,1.91-1.91,3.36-3.97,3.24
							l-17.15-1.05c-3.63-0.22-7.21,0.9-9.97,3.12l-1.4,1.13c-1.74,1.4-3.83,2.29-6.01,2.63l0,0c-2.38,0.38-4.86,0.1-7.12-0.87
							c-2.58-1.1-5.5-2.31-7.91-3.29c-3.32-1.35-7.03-1.71-10.6-1c-1.26,0.25-2.65,0.52-4.06,0.8c-2.6,0.51-5.28,1.03-7.35,1.43
							c-2.12,0.41-4.14-0.94-4.39-2.93l-0.37-3c-0.16-1.31-1.13-2.42-2.49-2.83l-5.84-1.78c-2.74-0.84-3.4-4.14-1.16-5.86l4.73-3.66
							c6.61,8.41,24.98,13.4,46.23,12.04c23.12-1.48,41.91-9.98,45.48-20.31l5.19,4.86C159.64,151.68,159.29,154.27,157.27,155.44z"
							/>
					</g>
				</g>
				<g>
					<g class="st1">
						<g>
							<path class="st4" d="M55.29,158.56c0.38,0.87,1.13,1.6,2.23,1.93l5.84,1.78c1.35,0.41,2.32,1.51,2.49,2.83l0.37,3
								c0.24,1.98,2.26,3.34,4.39,2.93c2.07-0.4,4.75-0.92,7.35-1.43c1.4-0.27,2.79-0.55,4.06-0.79c3.57-0.7,7.27-0.35,10.6,1
								c2.41,0.98,5.33,2.19,7.91,3.29c2.26,0.97,4.74,1.25,7.12,0.87l0,0c2.18-0.34,4.27-1.23,6.01-2.63l1.41-1.12
								c2.75-2.22,6.34-3.34,9.97-3.12l17.16,1.05c2.05,0.13,3.84-1.34,3.97-3.24l0.26-4.07c0.07-1.12,0.73-2.13,1.76-2.73
								l9.09-5.24c0.71-0.41,1.2-0.99,1.49-1.64c0.16,0.36,0.25,0.75,0.27,1.13c-0.04-0.8-0.38-1.6-1.05-2.23l-3.09-2.9c0,0,0,0,0,0
								l0.33,0.31c-0.02,0.05-0.04,0.1-0.06,0.15c0,0,0,0,0,0c0.68,1.39,0.18,3.13-1.33,4l-8.41,4.85
								c-0.95,0.55-1.56,1.49-1.63,2.52l-0.24,3.76c-0.11,1.76-1.77,3.11-3.66,2.99l-15.86-0.96c-3.35-0.21-6.67,0.83-9.22,2.88
								l-1.3,1.04c-1.61,1.3-3.54,2.12-5.56,2.43l-0.01,0c-2.2,0.35-4.49,0.09-6.58-0.81c-2.39-1.02-5.08-2.13-7.31-3.05
								c-3.08-1.25-6.5-1.58-9.8-0.93c-1.16,0.23-2.45,0.48-3.75,0.74c-2.41,0.47-4.88,0.96-6.8,1.33
								c-1.96,0.38-3.83-0.87-4.05-2.71L69.3,163c-0.15-1.21-1.04-2.23-2.3-2.62l-5.4-1.64c-1.87-0.57-2.69-2.37-2.16-3.93
								l-3.09,2.39c-1.03,0.8-1.44,1.94-1.31,3.01C54.97,159.66,55.05,159.09,55.29,158.56z"/>
						</g>
					</g>
				</g>
				<g>
					<g>
						<path class="st4" d="M105.58,178.19c-1.94,0-3.86-0.39-5.65-1.15c-3.1-1.32-6.27-2.63-7.89-3.28
							c-3.08-1.25-6.45-1.57-9.75-0.92c-1.26,0.25-2.66,0.52-4.06,0.8l-0.95,0.19c-2.3,0.45-4.58,0.9-6.41,1.25
							c-1.47,0.28-2.99-0.05-4.18-0.91c-1.11-0.81-1.8-1.98-1.96-3.29l-0.37-3c-0.09-0.72-0.66-1.35-1.45-1.59l-5.84-1.78
							c-1.82-0.56-3.16-2.01-3.48-3.8c-0.32-1.77,0.37-3.51,1.85-4.66l5.89-4.56l0.91,1.16c6.42,8.17,24.49,12.78,44.97,11.47
							c22.23-1.42,40.8-9.55,44.17-19.32l0.75-2.16l6.86,6.42c1.12,1.05,1.66,2.5,1.49,3.99c-0.18,1.54-1.08,2.88-2.47,3.69l0,0
							l-9.1,5.24c-0.6,0.35-0.98,0.92-1.02,1.54l-0.26,4.07c-0.18,2.73-2.66,4.8-5.54,4.62l-17.15-1.05
							c-3.24-0.2-6.5,0.82-8.95,2.79l-1.41,1.13c-1.92,1.54-4.24,2.56-6.71,2.94l-0.06,0.01
							C107.07,178.13,106.32,178.19,105.58,178.19z M85.65,169.53c2.57,0,5.11,0.49,7.51,1.47c1.62,0.66,4.82,1.97,7.94,3.3
							c1.97,0.85,4.15,1.11,6.31,0.77l0.06-0.01c1.94-0.31,3.76-1.11,5.26-2.31l1.41-1.13c3.06-2.47,6.96-3.69,10.99-3.44
							l17.15,1.05c1.22,0.08,2.32-0.77,2.4-1.86l0.26-4.07c0.1-1.6,1.04-3.07,2.49-3.91l9.1-5.24c0.58-0.33,0.95-0.87,1.01-1.46
							c0.06-0.55-0.14-1.08-0.57-1.49l-3.66-3.43c-5.33,10.06-23.63,17.85-45.9,19.28c-20.5,1.31-38.86-3.27-46.53-11.48l-3.62,2.8
							c-0.59,0.46-0.86,1.11-0.74,1.78c0.13,0.7,0.66,1.26,1.43,1.5l5.84,1.78c1.91,0.58,3.29,2.18,3.53,4.07l0.37,3
							c0.06,0.49,0.33,0.94,0.77,1.25c0.52,0.38,1.2,0.52,1.87,0.4c1.82-0.35,4.11-0.8,6.4-1.25l0.95-0.19
							c1.4-0.27,2.79-0.55,4.06-0.79C83.03,169.66,84.34,169.53,85.65,169.53z M157.27,155.44L157.27,155.44L157.27,155.44z"/>
					</g>
				</g>
				<g>
					<g>
						<path class="st4" d="M154.1,170.56c-0.77,0-1.42-0.59-1.48-1.37l-0.02-0.31l0.1-0.29c0.04-0.1,0.06-0.2,0.07-0.31
							c0.15-1.12,0.23-6.61-1.19-9.65c-0.35-0.74-0.03-1.62,0.71-1.97c0.74-0.35,1.62-0.03,1.97,0.71c1.87,4,1.57,10.3,1.44,11.3
							c-0.04,0.29-0.11,0.58-0.2,0.85c-0.18,0.56-0.68,0.99-1.3,1.04C154.18,170.55,154.14,170.56,154.1,170.56z"/>
					</g>
				</g>
				<g>
					<g>
						<path class="st12" d="M155.07,183.08c-2.24,5.72-19.73,12.39-44.95,14c-25.22,1.62-42.47-0.82-46.37-8.15
							c-1.74-3.26-2.76-11.23,0.1-15.86c0.09,0.48,0.19,0.87,0.29,1.17c1.12,3.33,7.93,6.03,18.3,7.41l1.9,4.02l8.09-3.17
							c5.33,0.23,11.21,0.18,17.47-0.22c2.5-0.16,4.93-0.37,7.29-0.62l0,0l26.59,2.98l5.94-11.25c2.38-1.4,3.91-2.86,4.39-4.33
							C157.14,174.93,156.08,180.5,155.07,183.08z"/>
					</g>
				</g>
				<g class="st11">
					<g>
						<path class="st4" d="M63.75,185.98c3.91,7.33,21.15,9.77,46.37,8.15c25.22-1.62,42.71-8.28,44.95-14
							c0.4-1.04,0.82-2.56,0.97-4.39c0.03,0.38,0.05,0.76,0.06,1.13c-0.03-1.45-0.23-3.03-0.73-4.68c-0.2,1.23-0.5,2.27-0.81,3.04
							c-0.89,2.28-4.2,4.71-9.46,6.91l-0.46,0.86c-0.53,1-1.61,1.57-2.73,1.44l-2.45-0.27c-7.68,2.4-17.9,4.3-29.85,5.07
							c-25.22,1.62-42.47-0.82-46.37-8.15c-0.4-0.75-0.76-1.74-1.04-2.89c-0.04,0.34-0.07,0.68-0.09,1.02
							C62.29,181.95,62.94,184.47,63.75,185.98z"/>
					</g>
				</g>
				<g>
					<g>
						<path class="st4" d="M96.04,199.06c-18.98,0-30.27-3.16-33.6-9.43c-2.04-3.84-2.97-12.29,0.15-17.33l2.01-3.25l0.71,3.75
							c0.1,0.5,0.19,0.82,0.24,0.97c0.67,2,5.55,4.88,17.09,6.42l0.8,0.11l1.05,2.23c0.34,0.71,1.17,1.04,1.9,0.76l5.78-2.26
							l0.31,0.01c5.46,0.24,11.29,0.16,17.31-0.22c2.47-0.16,4.9-0.36,7.22-0.61l0.18-0.01l0.14,0.02l24.23,2.72
							c0.83,0.09,1.61-0.32,2-1.06l5.03-9.52l0.36-0.21c2.77-1.63,3.53-2.9,3.73-3.51l1.1-3.35l1.62,3.13
							c2.94,5.66,2.46,11.58,1.03,15.23c-2.78,7.12-22.23,13.4-46.23,14.94C105.09,198.89,100.37,199.06,96.04,199.06z
							 M63.96,176.72c-0.97,4.01-0.19,9.09,1.1,11.51c1.67,3.14,8.03,7.85,31.02,7.85c4.1,0,8.72-0.15,13.95-0.48
							c26.98-1.73,42-8.82,43.66-13.06l0,0c0.36-0.91,1.83-5.22,0.12-10.37c-0.77,0.78-1.76,1.55-2.97,2.29l-4.64,8.78
							c-0.96,1.82-2.91,2.85-4.95,2.62l-24.07-2.7c-2.32,0.24-4.74,0.45-7.19,0.6c-6.01,0.39-11.84,0.47-17.32,0.24l-5.2,2.04
							c-2.18,0.85-4.66-0.14-5.66-2.25l-0.37-0.77C75.78,182.21,67.33,180.42,63.96,176.72z"/>
					</g>
				</g>
				<g>
					<g>
						<path class="st14" d="M106.79,176.65c0.13-0.01,0.17,0.16,0.05,0.21l-14.41,5.65l-5.82,2.28c-1.27,0.5-2.72-0.07-3.3-1.31
							l-0.86-1.82l-4.49-9.48c1.41-0.27,2.8-0.55,4.06-0.8c3.57-0.7,7.27-0.35,10.6,1c2.42,0.99,5.33,2.19,7.91,3.29
							C102.51,176.53,104.67,176.84,106.79,176.65z"/>
					</g>
				</g>
				<g class="st1">
					<g>
						<path class="st4" d="M83.48,175.43c3.57-0.7,7.27-0.35,10.6,1c2.05,0.84,4.46,1.83,6.72,2.79l6.03-2.36
							c0.12-0.05,0.08-0.22-0.05-0.21c-2.11,0.19-4.27-0.12-6.27-0.98c-2.58-1.1-5.5-2.31-7.91-3.29c-3.32-1.35-7.03-1.71-10.6-1
							c-1.26,0.25-2.65,0.52-4.06,0.8l1.88,3.98C81.1,175.9,82.34,175.66,83.48,175.43z"/>
					</g>
				</g>
				<g class="st8">
					<g>
						<path class="st3" d="M106.79,176.65c-1.96,0.18-3.96-0.09-5.83-0.81l-8.54,3.34l-5.82,2.28c-1.27,0.5-2.72-0.07-3.3-1.31
							l-0.86-1.82l-3.05-6.44c-0.48,0.09-0.95,0.19-1.44,0.28l4.49,9.48l0.86,1.82c0.58,1.24,2.03,1.81,3.3,1.31l5.82-2.28
							l14.41-5.65C106.95,176.81,106.91,176.64,106.79,176.65z"/>
					</g>
				</g>
				<g>
					<g>
						<path class="st14" d="M149.72,173.4l-4.97,9.41c-0.59,1.11-1.79,1.75-3.04,1.61l-24.53-2.75
							C131.83,180.13,143.61,176.98,149.72,173.4z"/>
					</g>
				</g>
				<g>
					<g>
						<path class="st4" d="M86.09,186.21c-1.86,0-3.64-1.06-4.48-2.83l-5.82-12.3l1.87-0.36c1.4-0.27,2.79-0.55,4.05-0.79
							c3.87-0.76,7.83-0.39,11.44,1.08c1.62,0.66,4.82,1.97,7.94,3.3c1.73,0.74,3.65,1.04,5.55,0.87l0,0
							c0.8-0.07,1.51,0.44,1.69,1.22c0.18,0.78-0.22,1.56-0.97,1.85l-19.49,7.64C87.3,186.1,86.69,186.21,86.09,186.21z
							 M80.1,173.26l4.19,8.86c0.44,0.94,1.54,1.37,2.51,1l14.35-5.62c-0.41-0.13-0.82-0.29-1.22-0.46
							c-3.1-1.32-6.27-2.63-7.89-3.28c-3.08-1.25-6.45-1.57-9.75-0.92C81.6,172.97,80.86,173.11,80.1,173.26z M106.79,176.65
							L106.79,176.65L106.79,176.65z"/>
					</g>
				</g>
				<g>
					<g>
						<path class="st4" d="M142.3,185.95c-0.15,0-0.31-0.01-0.47-0.03l-38.39-4.3l13.58-1.43c13.87-1.46,25.81-4.47,31.94-8.07
							l4.5-2.64l-7.54,14.28C145.2,185.12,143.81,185.95,142.3,185.95z M128.97,181.5l13.2,1.48c0.47,0.05,0.92-0.18,1.14-0.6
							l2.98-5.64C141.75,178.62,135.83,180.25,128.97,181.5z"/>
					</g>
				</g>
				<g class="st1">
					<g>
						
							<ellipse transform="matrix(0.998 -0.064 0.064 0.998 -8.5847 5.3516)" class="st4" cx="79.3" cy="136.77" rx="2.31" ry="0.73"/>
					</g>
				</g>
				<g class="st1">
					<g>
						<path class="st4" d="M87.28,130.18c0.03,0.4-0.98,0.79-2.26,0.87c-1.27,0.08-2.32-0.18-2.35-0.58
							c-0.03-0.4,0.98-0.79,2.26-0.87C86.2,129.52,87.25,129.78,87.28,130.18z"/>
					</g>
				</g>
				<g class="st1">
					<g>
						
							<ellipse transform="matrix(0.998 -0.064 0.064 0.998 -8.6914 6.2527)" class="st4" cx="93.32" cy="138.88" rx="2.31" ry="0.73"/>
					</g>
				</g>
				<g class="st1">
					<g>
						
							<ellipse transform="matrix(0.998 -0.064 0.064 0.998 -7.7202 6.8048)" class="st4" cx="102.43" cy="123.99" rx="2.31" ry="0.73"/>
					</g>
				</g>
				<g class="st1">
					<g>
						<path class="st4" d="M102.14,131.24c0.03,0.4-0.98,0.79-2.26,0.87c-1.27,0.08-2.32-0.18-2.35-0.58
							c-0.03-0.4,0.98-0.79,2.26-0.87C101.06,130.58,102.12,130.84,102.14,131.24z"/>
					</g>
				</g>
				<g class="st1">
					<g>
						<path class="st4" d="M118.94,138.7c0.03,0.4-0.98,0.79-2.26,0.87s-2.32-0.18-2.35-0.58c-0.03-0.4,0.98-0.79,2.26-0.87
							C117.86,138.04,118.92,138.3,118.94,138.7z"/>
					</g>
				</g>
				<g class="st1">
					<g>
						<path class="st4" d="M117.11,130.68c0.03,0.4-0.98,0.79-2.26,0.87c-1.27,0.08-2.32-0.18-2.35-0.58
							c-0.03-0.4,0.98-0.79,2.26-0.87S117.08,130.28,117.11,130.68z"/>
					</g>
				</g>
				<g class="st1">
					<g>
						<path class="st4" d="M122.59,123.43c0.03,0.4-0.98,0.79-2.26,0.87s-2.32-0.18-2.35-0.58c-0.03-0.4,0.98-0.79,2.26-0.87
							C121.51,122.77,122.56,123.03,122.59,123.43z"/>
					</g>
				</g>
				<g class="st1">
					<g>
						
							<ellipse transform="matrix(0.998 -0.064 0.064 0.998 -8.0635 8.5436)" class="st4" cx="129.42" cy="130.22" rx="2.31" ry="0.73"/>
					</g>
				</g>
				<g class="st1">
					<g>
						
							<ellipse transform="matrix(0.998 -0.064 0.064 0.998 -8.4906 9.0716)" class="st4" cx="137.45" cy="137.16" rx="2.31" ry="0.73"/>
					</g>
				</g>
			</g>
			<g>
				<g>
					<path class="st3" d="M64.29,133.67c0,0-3.48,6.02,3.91,10.96c10.34,6.9,10.15,26.41,0.42,27.05c-6.07,0.4-12.82-0.65-16.1-9.85
						C49.72,153.97,52.29,138.87,64.29,133.67z"/>
				</g>
			</g>
			<g class="st1">
				<g>
					<path class="st4" d="M68.62,171.67c-6.07,0.4-12.82-0.65-16.1-9.85c-0.85-2.39-1.2-5.46-0.94-8.72c0.14,0.6,0.3,1.17,0.5,1.7
						c3.28,9.2,10.03,10.25,16.1,9.85c4.23-0.28,6.65-4.11,7.2-8.93C77.12,163.28,74.78,171.26,68.62,171.67z"/>
				</g>
			</g>
			<g>
				<g>
					<path class="st4" d="M66.58,173.22c-5.48,0-12.17-1.65-15.46-10.9c-3.16-8.88,0.09-24.59,12.57-30.01l4.12-1.79l-2.24,3.88
						c-0.29,0.52-2.53,5,3.45,8.99c7.28,4.86,9.67,15.04,7.79,22.09c-1.24,4.62-4.19,7.42-8.09,7.67
						C68.03,173.19,67.32,173.22,66.58,173.22z M62.02,136.6c-8.39,5.7-10.56,17.84-8.1,24.73c3.01,8.46,9.07,9.23,14.61,8.87
						c3.5-0.23,4.9-3.53,5.42-5.48c1.58-5.9-0.48-14.79-6.57-18.85C62.74,142.77,61.86,139.2,62.02,136.6z"/>
				</g>
			</g>
			<g>
				<g>
					<path class="st3" d="M157.78,130.17c-1.71,8.26-5.83,19.9-30.47,21.9c-24.63,2-19.91,24.15-9.83,27.43
						c8.5,2.76,40.89,3.97,46.74-18.43"/>
				</g>
			</g>
			<g class="st1">
				<g>
					<path class="st4" d="M164.23,161.08c-5.85,22.4-38.25,21.19-46.74,18.43c-5.53-1.8-9.45-9.27-7.79-15.98
						c0.36,5.21,2.42,7.93,6.96,9.78c9,3.68,33.34,1.58,43.63-13.04C161.39,158.7,163.84,159.19,164.23,161.08L164.23,161.08z"/>
				</g>
			</g>
			<g>
				<g>
					<path class="st4" d="M158.26,130.27c0.17,2.99-0.5,6.02-1.89,8.77c-0.68,1.38-1.54,2.69-2.54,3.87c-1,1.18-2.14,2.24-3.37,3.17
						c-2.45,1.86-5.15,3.29-7.95,4.35c-2.81,1.05-5.69,1.79-8.6,2.3c-0.73,0.11-1.45,0.24-2.18,0.34c-0.73,0.09-1.46,0.19-2.19,0.27
						l-2.19,0.21l-2.06,0.23c-2.73,0.38-5.38,1.12-7.73,2.35l-0.44,0.22l-0.42,0.26c-0.28,0.18-0.56,0.34-0.83,0.53l-0.77,0.59
						c-0.13,0.09-0.25,0.2-0.37,0.31l-0.35,0.33c-0.93,0.89-1.73,1.89-2.32,3.02c-1.17,2.25-1.51,4.91-1.08,7.46
						c0.43,2.55,1.6,5.02,3.35,6.86c0.88,0.92,1.9,1.66,3.01,2.13c0.54,0.22,1.17,0.42,1.83,0.57l0.49,0.12l0.5,0.1
						c0.33,0.07,0.67,0.13,1.02,0.19c1.36,0.23,2.75,0.39,4.15,0.49c1.4,0.11,2.8,0.15,4.21,0.16c2.81,0,5.62-0.18,8.39-0.57
						c2.77-0.4,5.51-1.02,8.13-1.9c2.62-0.89,5.16-2.02,7.43-3.54l0.84-0.58l0.42-0.29l0.4-0.32c0.53-0.43,1.07-0.84,1.54-1.32
						l0.73-0.7l0.66-0.77c0.46-0.5,0.82-1.06,1.22-1.6l0.3-0.4l0.27-0.42c0.18-0.28,0.36-0.56,0.55-0.84
						c0.37-0.56,0.68-1.15,1.06-1.72c0.34-0.59,0.67-1.18,1.08-1.76c0.35-0.6,0.72-1.21,1.21-1.81l0.03-0.04
						c0.18-0.22,0.51-0.26,0.74-0.07c0.11,0.09,0.18,0.23,0.19,0.36c0.07,0.78,0.02,1.54-0.06,2.31c-0.15,0.75-0.32,1.5-0.57,2.23
						c-0.14,0.36-0.3,0.71-0.45,1.06c-0.16,0.35-0.3,0.71-0.51,1.04c-0.19,0.33-0.39,0.66-0.6,0.99l-0.31,0.49l-0.36,0.46
						c-0.48,0.61-0.95,1.21-1.5,1.75l-0.79,0.84l-0.84,0.78c-1.11,1.06-2.33,1.97-3.58,2.82c-2.53,1.68-5.29,2.92-8.12,3.87
						c-2.83,0.95-5.73,1.6-8.66,2.02c-2.93,0.41-5.87,0.6-8.82,0.6c-1.47-0.01-2.95-0.05-4.42-0.17c-1.47-0.11-2.95-0.27-4.42-0.52
						c-0.37-0.06-0.74-0.13-1.11-0.2l-0.55-0.11l-0.56-0.13c-0.74-0.17-1.49-0.39-2.28-0.72c-1.55-0.65-2.89-1.65-4-2.81
						c-2.22-2.34-3.6-5.3-4.14-8.42c-0.53-3.11-0.12-6.45,1.37-9.32c0.74-1.43,1.75-2.71,2.91-3.8l0.44-0.41
						c0.14-0.14,0.29-0.27,0.45-0.38l0.94-0.72c0.32-0.23,0.66-0.42,0.99-0.63l0.5-0.31l0.52-0.27c2.76-1.44,5.74-2.24,8.7-2.66
						l2.23-0.25l2.11-0.2c0.7-0.08,1.4-0.17,2.1-0.26c0.7-0.1,1.39-0.22,2.08-0.33c2.76-0.48,5.47-1.18,8.06-2.15
						c2.58-0.98,5.03-2.26,7.1-3.98c2.08-1.71,3.75-3.79,5.1-6.1c0.67-1.16,1.24-2.39,1.83-3.64l0.87-1.92
						c0.3-0.65,0.59-1.31,0.94-1.96l0.01-0.01c0.13-0.25,0.44-0.34,0.69-0.21C158.16,129.94,158.25,130.1,158.26,130.27z"/>
				</g>
			</g>
			<g>
				<g>
					<path class="st3" d="M164.56,191.1c0,0-7.19-11-17.52-7.69c-13.96,4.47-12.29,21.47-12.29,21.47l1.95,19.49
						c0,0,16.47,5.85,27.52,3.21c13.24-3.17,25.3-12.49,21.81-42.4"/>
				</g>
			</g>
			<g>
				<g>
					<path class="st4" d="M157.67,229.75c-10.11,0-20.9-3.78-21.46-3.98l-0.89-0.31l-2.05-20.42c-0.04-0.37-0.83-9.01,3.77-15.91
						c0.45-0.68,1.37-0.87,2.06-0.41c0.68,0.45,0.87,1.37,0.41,2.06c-4,6.01-3.3,13.9-3.29,13.98l1.86,18.53
						c3.51,1.13,16.72,5.04,25.79,2.87c10.62-2.54,24.32-9.53,20.69-40.79c-0.09-0.81,0.49-1.55,1.3-1.64
						c0.81-0.09,1.55,0.49,1.64,1.3c2.94,25.22-4.57,39.62-22.94,44.02C162.41,229.54,160.06,229.75,157.67,229.75z"/>
				</g>
			</g>
			<g>
				<g>
					<path class="st4" d="M164.39,191.22c-1.65-1.87-3.56-3.51-5.62-4.77c-1.02-0.64-2.11-1.15-3.21-1.54
						c-1.1-0.39-2.23-0.61-3.36-0.7c-1.12-0.07-2.24,0.04-3.33,0.29c-0.55,0.13-1.07,0.29-1.61,0.5c-0.54,0.2-1.07,0.42-1.59,0.67
						c-2.07,0.98-3.87,2.37-5.41,4.07l-0.01,0.01c-0.55,0.61-1.49,0.65-2.1,0.1c-0.56-0.51-0.64-1.35-0.22-1.95
						c1.58-2.26,3.88-4.05,6.4-5.15c0.63-0.27,1.27-0.52,1.93-0.72c0.65-0.21,1.35-0.37,2.04-0.48c0.7-0.11,1.4-0.17,2.11-0.15
						c0.71,0,1.41,0.07,2.1,0.17c1.38,0.23,2.7,0.68,3.92,1.27c1.22,0.6,2.34,1.35,3.36,2.19c0.51,0.42,0.99,0.87,1.45,1.33
						c0.46,0.46,0.9,0.94,1.31,1.45c0.82,1,1.57,2.05,2.18,3.2c0.06,0.1,0.02,0.23-0.09,0.29
						C164.56,191.32,164.46,191.3,164.39,191.22L164.39,191.22z"/>
				</g>
			</g>
			<g>
				<g>
					<path class="st3" d="M154.59,224.16c0,0-15.06,7.72-19.93,7.09s-2.18-51.5-2.18-51.5s10.63-3.31,14.99,7.9
						c1.81,4.65-0.01,10.37,0.97,15.18"/>
				</g>
			</g>
			<g class="st1">
				<g>
					<path class="st4" d="M164.23,227.58c-4.99,1.19-11.07,0.66-16.26-0.29c-6.3-1.15-11.26-2.91-11.26-2.91l-0.18-1.79
						c3.18-0.58,4.08-13.44,8.04-11.6c1.3,0.6,3.74,8.34,7.62,6.1c2.22-1.28,5.62-7.63,8.35-7.26c5.2,0.71,3.9,8.41,10.26,6.36
						c11.33-3.65,14.94-10.15,15.1-31.99c0.04,0.33,0.08,0.66,0.12,0.98C189.52,215.09,177.46,224.41,164.23,227.58z"/>
				</g>
			</g>
			<g>
				<g>
					<path class="st4" d="M154.7,224.38c-2.58,1.71-5.27,3.22-8.04,4.6c-1.39,0.69-2.8,1.33-4.25,1.92
						c-1.45,0.6-2.94,1.11-4.53,1.51c-0.8,0.19-1.62,0.36-2.57,0.38c-0.24,0.01-0.48,0-0.75-0.03l-0.1-0.01
						c-0.06-0.01-0.14-0.02-0.21-0.04c-0.15-0.03-0.28-0.08-0.41-0.13c-0.13-0.05-0.23-0.12-0.35-0.18
						c-0.09-0.06-0.19-0.13-0.27-0.2c-0.32-0.28-0.52-0.54-0.68-0.79c-0.15-0.24-0.28-0.48-0.38-0.7c-0.4-0.89-0.6-1.69-0.78-2.5
						c-0.18-0.8-0.31-1.59-0.42-2.37c-0.42-3.14-0.58-6.23-0.66-9.31c-0.08-3.09-0.08-6.16-0.08-9.24l0.1-9.21
						c0.12-6.14,0.24-12.27,0.52-18.41l0.05-1.13l1.09-0.33c0.13-0.04,0.21-0.06,0.3-0.09l0.27-0.07c0.18-0.04,0.35-0.08,0.52-0.11
						c0.35-0.07,0.69-0.12,1.04-0.17c0.69-0.09,1.39-0.13,2.09-0.13c1.4,0.01,2.83,0.19,4.19,0.63c1.37,0.42,2.68,1.1,3.83,1.97
						c1.15,0.87,2.11,1.96,2.9,3.12c0.79,1.16,1.39,2.43,1.84,3.66c0.44,1.18,0.86,2.49,1.07,3.84c0.23,1.35,0.2,2.71,0.14,3.96
						c-0.06,1.25-0.08,2.48-0.08,3.76c0,0.14-0.11,0.25-0.25,0.25c-0.1,0-0.19-0.06-0.23-0.15c-0.51-1.19-0.84-2.46-1.09-3.73
						c-0.25-1.27-0.44-2.44-0.83-3.53c-0.36-1.11-0.82-2.18-1.37-3.31c-0.48-1.11-1.02-2.1-1.67-3.01
						c-1.31-1.82-3.11-3.13-5.19-3.73c-0.52-0.16-1.06-0.27-1.6-0.34c-0.55-0.08-1.1-0.12-1.66-0.12c-0.56,0-1.12,0.04-1.68,0.11
						c-0.28,0.03-0.55,0.08-0.83,0.13c-0.14,0.03-0.27,0.05-0.4,0.08l-0.19,0.05l-0.15,0.04l1.14-1.47
						c-0.33,6.09-0.63,12.2-0.76,18.3l-0.09,4.58c-0.02,1.53-0.01,3.05-0.01,4.58c0.01,3.05,0.08,6.09,0.22,9.13
						c0.15,3.03,0.32,6.06,0.69,9c0.09,0.73,0.2,1.46,0.34,2.15c0.14,0.69,0.31,1.38,0.52,1.9c0.05,0.13,0.11,0.24,0.15,0.32
						c0.04,0.08,0.08,0.12,0.05,0.09c-0.01-0.01-0.03-0.02-0.05-0.03c-0.03-0.02-0.05-0.03-0.09-0.05
						c-0.04-0.02-0.08-0.03-0.14-0.04c-0.02-0.01-0.06-0.01-0.07-0.01l0.05,0.01c0.12,0.02,0.25,0.03,0.4,0.03
						c0.59,0.01,1.28-0.08,1.98-0.2c1.4-0.25,2.84-0.67,4.27-1.09c1.43-0.44,2.87-0.93,4.3-1.42c2.87-1,5.73-2.08,8.62-3.13l0,0
						c0.13-0.05,0.27,0.02,0.32,0.15C154.83,224.2,154.79,224.32,154.7,224.38z"/>
				</g>
			</g>
			<g>
				<g>
					<path class="st5" d="M143.7,204.01c-0.9-10.51,3.51-30.94-15.46-22.81c-11.22,4.81-11.72,23.34-7.21,38.99
						c4.22,14.62,19.05,13.22,22.94,4.88C147.08,218.38,144.63,214.89,143.7,204.01z"/>
				</g>
			</g>
			<g class="st6">
				<g>
					<path class="st3" d="M145.23,221.33c-0.33-3.09-1.19-6.71-1.66-12.21c-0.9-10.51,3.5-30.94-15.47-22.81
						c-6.12,2.62-9.05,9.33-9.72,17.42c-0.26-10.29,2.49-19.37,9.85-22.53c18.97-8.13,14.56,12.3,15.46,22.81
						C144.44,212.69,146.15,216.67,145.23,221.33z"/>
				</g>
			</g>
			<g class="st1">
				<g>
					<path class="st4" d="M143.96,225.07c-3.89,8.34-18.72,9.75-22.94-4.88c-0.85-2.95-1.53-6.01-1.98-9.05
						c4.5,13.83,18.89,12.32,22.71,4.13c1-2.15,1.88-4,2.58-5.87C145.35,216.3,146.5,219.63,143.96,225.07z"/>
				</g>
			</g>
			<g>
				<g>
					<path class="st4" d="M119.74,192.94c-0.51,0-0.97-0.36-1.08-0.88c-0.12-0.6,0.26-1.18,0.86-1.31l23.29-4.85
						c0.6-0.13,1.18,0.26,1.31,0.86c0.12,0.6-0.26,1.18-0.86,1.31l-23.29,4.85C119.89,192.93,119.82,192.94,119.74,192.94z"/>
				</g>
			</g>
			<g>
				<g>
					<path class="st4" d="M118.37,202.87c-0.53,0-1-0.38-1.09-0.92c-0.1-0.6,0.3-1.17,0.9-1.28l25.19-4.32
						c0.6-0.1,1.17,0.3,1.28,0.9c0.1,0.6-0.3,1.17-0.9,1.28l-25.19,4.32C118.49,202.87,118.43,202.87,118.37,202.87z"/>
				</g>
			</g>
			<g>
				<g>
					<path class="st4" d="M119.17,213.05c-0.54,0-1.01-0.39-1.09-0.94c-0.09-0.6,0.32-1.17,0.92-1.26l24.98-3.86
						c0.6-0.09,1.17,0.32,1.26,0.92c0.09,0.6-0.32,1.17-0.92,1.26l-24.98,3.86C119.28,213.04,119.23,213.05,119.17,213.05z"/>
				</g>
			</g>
			<g>
				<g>
					<path class="st4" d="M121.61,223.05c-0.55,0-1.03-0.41-1.1-0.97c-0.07-0.61,0.36-1.16,0.97-1.23l23.88-2.87
						c0.6-0.07,1.16,0.36,1.23,0.97c0.07,0.61-0.36,1.16-0.97,1.23l-23.88,2.87C121.69,223.05,121.65,223.05,121.61,223.05z"/>
				</g>
			</g>
			<g>
				<g>
					<path class="st4" d="M133.73,232.77c-0.35,0-0.7-0.01-1.06-0.04c-6.12-0.48-11.01-5.01-13.06-12.13
						c-2.46-8.52-3.29-17.1-2.34-24.17c1.13-8.43,4.72-14.16,10.38-16.59c5.61-2.4,9.77-2.63,12.7-0.68
						c4.78,3.17,4.73,11.2,4.68,18.28c-0.02,2.35-0.03,4.58,0.13,6.44l0,0c0.28,3.31,0.7,5.89,1.08,8.18
						c0.84,5.18,1.4,8.6-0.94,13.63C143.29,230.02,138.72,232.77,133.73,232.77z M135.63,180.81c-1.82,0-4.1,0.58-6.82,1.74
						c-10.46,4.48-10.64,22.44-6.37,37.23c1.72,5.97,5.53,9.62,10.45,10c4.11,0.32,8.12-1.88,9.73-5.34
						c1.96-4.21,1.52-6.94,0.71-11.91c-0.38-2.33-0.81-4.98-1.1-8.4l0,0c-0.17-2-0.16-4.29-0.14-6.71
						c0.04-6.33,0.09-13.51-3.36-15.8C137.91,181.08,136.87,180.81,135.63,180.81z"/>
				</g>
			</g>
			<g>
				<g>
					<path class="st4" d="M154.15,229.22c-0.23,0-0.45-0.07-0.65-0.21c-0.49-0.36-0.6-1.05-0.24-1.55
						c7.53-10.35,7.56-20.04,6.25-26.34c-1.81-8.76-7.01-15.29-10.12-17.12c-0.53-0.31-0.7-0.99-0.39-1.51
						c0.31-0.53,0.99-0.7,1.51-0.39c4.04,2.38,9.32,9.71,11.16,18.58c1.4,6.74,1.38,17.09-6.63,28.09
						C154.83,229.07,154.49,229.22,154.15,229.22z"/>
				</g>
			</g>
			<g>
				<g>
					<path class="st4" d="M151.52,177.47c-0.09,0-0.18-0.01-0.27-0.03c-0.59-0.15-0.95-0.75-0.81-1.34
						c3.74-15.05-8.81-26.18-8.94-26.29c-0.46-0.4-0.51-1.1-0.11-1.56c0.4-0.46,1.1-0.51,1.56-0.11c0.56,0.49,13.71,12.11,9.64,28.5
						C152.47,177.13,152.02,177.47,151.52,177.47z"/>
				</g>
			</g>
		</g>
	</g>
</g>
</svg>
