<svg width="148" height="55" viewBox="0 0 148 55" fill="none" xmlns="http://www.w3.org/2000/svg">
<path d="M27.5 54.2254C42.6878 54.2254 55 42.0866 55 27.1127C55 12.1388 42.6878 0 27.5 0C12.3122 0 0 12.1388 0 27.1127C0 42.0866 12.3122 54.2254 27.5 54.2254Z" fill="url(#paint0_linear_219_5154)"/>
<g opacity="0.35">
<g opacity="0.35">
<path opacity="0.35" d="M15.9412 39.565C15.9412 39.565 15.9434 39.5849 15.9258 39.618C15.9302 39.5981 15.9346 39.5805 15.9412 39.565Z" fill="black"/>
</g>
</g>
<path d="M27.6649 22.4928C27.6912 22.4906 27.7152 22.4862 27.7393 22.484C27.724 22.4928 27.7109 22.5015 27.6955 22.5103C27.6759 22.4993 27.6649 22.4928 27.6649 22.4928Z" fill="#982E20"/>
<path d="M43.5271 42.3305C43.1069 42.7903 42.4799 43.1613 41.7605 43.4562C39.2371 44.493 35.5631 44.6275 35.5631 44.6275L31.2137 27.989L30.6021 25.6508C30.8749 25.705 37.2263 25.2734 40.8079 26.7049C43.7955 27.9001 45.5709 40.0899 43.5271 42.3305Z" fill="white"/>
<g opacity="0.35">
<g opacity="0.35">
<path opacity="0.35" d="M43.527 42.3305C43.1068 42.7903 42.4798 43.1612 41.7604 43.4562C41.7274 43.4692 41.6944 43.4822 41.6636 43.4952C41.6174 43.5148 41.5712 43.5321 41.525 43.5495C41.4722 43.569 41.4194 43.5907 41.3644 43.608C41.3314 43.6189 41.2984 43.6319 41.2654 43.6449C41.1268 43.6926 40.986 43.7382 40.843 43.7837C40.7814 43.8032 40.7198 43.8206 40.656 43.8401C40.6384 43.8445 40.6208 43.851 40.6032 43.8553C40.5614 43.8683 40.5174 43.8792 40.4756 43.8922C40.4624 43.8965 40.447 43.9009 40.4316 43.903C40.3612 43.9225 40.2908 43.9421 40.2182 43.9594C40.0752 43.9963 39.9344 44.031 39.7892 44.0635C39.754 44.0722 39.7166 44.0809 39.6814 44.0874C39.6088 44.1026 39.5384 44.1199 39.468 44.1329C39.4328 44.1394 39.3976 44.1481 39.3602 44.1546C39.325 44.1611 39.2898 44.1698 39.2546 44.1763C39.1688 44.1937 39.0852 44.2088 39.0016 44.2262C38.9598 44.2349 38.9202 44.2414 38.8784 44.2479C38.7244 44.2761 38.5704 44.3021 38.4186 44.326C38.3834 44.3325 38.3504 44.3368 38.3174 44.3412C38.2998 44.3433 38.2844 44.3455 38.2668 44.3498C38.2404 44.3542 38.2118 44.3585 38.1854 44.3628C38.126 44.3715 38.0666 44.3802 38.0094 44.3889C37.95 44.3976 37.8906 44.4062 37.8334 44.4127C37.6706 44.4344 37.51 44.4561 37.3582 44.4735C37.2988 44.48 37.2394 44.4887 37.1822 44.493C37.1228 44.4995 37.0656 44.506 37.0084 44.5125C36.9644 44.5169 36.9226 44.5212 36.8808 44.5255C36.817 44.532 36.7554 44.5385 36.696 44.5429C36.6718 44.545 36.6454 44.5472 36.6212 44.5494C35.9766 44.6079 35.563 44.6231 35.563 44.6231L31.2136 27.9846C31.4468 27.9781 31.6668 27.9716 31.8648 27.9694C32.6326 27.9542 33.1276 27.9629 33.1276 27.9629C33.1276 27.9629 36.927 27.0129 37.6552 28.3685C38.8256 30.5462 39.3206 32.0754 40.4998 35.4374C40.6208 35.7801 40.733 36.1206 40.8408 36.459C41.0982 37.2767 42.163 37.5261 42.7482 36.8928C42.7526 36.8884 42.7548 36.8841 42.7592 36.8797C43.4522 36.1184 43.7052 34.214 43.6216 31.9799C44.6028 35.9818 44.7634 40.9748 43.527 42.3305Z" fill="#371A45"/>
</g>
</g>
<g opacity="0.35">
<g opacity="0.35">
<path opacity="0.35" d="M31.2597 25.6464L31.8669 27.9738C31.6667 27.9781 31.4489 27.9824 31.2157 27.9889L30.6041 25.6508C30.6503 25.6594 30.8857 25.6529 31.2597 25.6464Z" fill="#371A45"/>
</g>
</g>
<path d="M35.5652 44.9485C35.3914 44.9485 35.2462 44.8118 35.2396 44.6383C35.233 44.4604 35.3738 44.3108 35.5542 44.3043C35.6136 44.3021 41.5074 44.0635 43.2872 42.1136C44.3102 40.99 44.3476 36.5023 43.3686 32.314C42.6844 29.3836 41.6812 27.399 40.689 27.002C37.7652 25.8329 32.8328 25.9349 31.2114 25.9674C30.712 25.9783 30.6174 25.9783 30.5426 25.9631C30.3666 25.9284 30.2522 25.7592 30.2874 25.5835C30.3226 25.4143 30.4854 25.3037 30.657 25.3297C30.7164 25.3341 30.9518 25.3297 31.1982 25.3232C32.8526 25.2885 37.8862 25.1844 40.9332 26.4034C42.5876 27.0649 43.5666 30.2989 44.0044 32.1665C44.9306 36.1249 45.0978 41.0876 43.7734 42.5409C41.8088 44.6947 35.8336 44.9355 35.5806 44.9441C35.574 44.9485 35.5696 44.9485 35.5652 44.9485ZM30.657 25.3319C30.6614 25.3319 30.6636 25.3341 30.668 25.3341C30.6658 25.3341 30.6614 25.3341 30.657 25.3319Z" fill="#371A45"/>
<path d="M41.2589 27.2385C41.1951 27.2385 41.1137 27.2428 41.0389 27.2493C40.9619 27.2537 40.8871 27.2624 40.8101 27.271C40.6561 27.2884 40.5021 27.3079 40.3481 27.3339C40.0401 27.386 39.7321 27.4511 39.4285 27.5313C39.1249 27.6137 38.8213 27.7048 38.5243 27.8155C38.3747 27.8675 38.2295 27.9282 38.0799 27.9868C37.9325 28.0475 37.7895 28.1148 37.6421 28.1777C37.7763 28.0931 37.9083 28.0042 38.0469 27.9217C38.1855 27.8415 38.3219 27.7569 38.4627 27.6831C38.7421 27.527 39.0347 27.3903 39.3295 27.2602C39.6265 27.1322 39.9301 27.0173 40.2403 26.9175C40.3965 26.8654 40.5527 26.822 40.7133 26.7787C40.7925 26.757 40.8739 26.7374 40.9553 26.7201C41.0389 26.7006 41.1159 26.6854 41.2105 26.6702C41.3689 26.6464 41.5163 26.7505 41.5405 26.9066C41.5647 27.0628 41.4591 27.2081 41.3007 27.232C41.2897 27.2363 41.2721 27.2385 41.2589 27.2385Z" fill="#371A45"/>
<path d="M44.1408 35.2768L41.0762 35.9926C40.8034 36.0555 40.6076 36.2941 40.601 36.5717C40.579 37.5868 40.6516 39.9315 41.7472 40.5389C42.6558 41.0421 43.956 40.7623 44.6204 40.001C45.364 39.1485 45.0846 36.8797 44.891 35.767C44.8316 35.42 44.4884 35.1944 44.1408 35.2768Z" fill="white"/>
<g opacity="0.35">
<g opacity="0.35">
<path opacity="0.35" d="M40.601 36.5696C40.579 37.5847 40.6516 39.9294 41.7472 40.5367C42.6558 41.0399 43.956 40.7623 44.6204 39.9988C45.078 39.4739 45.1484 38.4154 45.089 37.4177C45.0274 37.9296 44.8734 38.3634 44.6424 38.667C43.3202 40.4088 41.8704 38.8254 41.8704 38.8254C41.8704 38.8254 41.7362 39.2852 41.58 39.3351C40.9222 39.5433 40.7264 37.4372 40.6494 36.3462C40.6208 36.4156 40.6032 36.4915 40.601 36.5696Z" fill="#371A45"/>
</g>
</g>
<path d="M42.7878 41.1137C42.3654 41.1137 41.9474 41.0182 41.5866 40.8187C40.3788 40.1506 40.2468 37.8645 40.2754 36.5631C40.2842 36.1401 40.5834 35.7757 41.0014 35.6781L44.066 34.9623C44.319 34.9038 44.5874 34.9515 44.8052 35.0925C45.0208 35.2335 45.1704 35.4591 45.2144 35.7107C45.485 37.2723 45.6456 39.3199 44.869 40.2092C44.3586 40.7926 43.5644 41.1137 42.7878 41.1137ZM44.2156 35.5892L41.151 36.305C41.0212 36.3353 40.9288 36.446 40.9266 36.5761C40.8848 38.5174 41.25 39.8925 41.9056 40.2569C42.658 40.6734 43.7866 40.4608 44.3718 39.7906C44.836 39.2592 44.9086 37.7756 44.5676 35.8191C44.5544 35.741 44.5082 35.6716 44.4422 35.6282C44.3762 35.5849 44.2948 35.5697 44.2156 35.5892Z" fill="#371A45"/>
<path d="M43.2674 40.9966C43.2454 40.9879 43.2322 40.9835 43.219 40.977C43.2058 40.9705 43.1904 40.964 43.1794 40.9597C43.1552 40.9467 43.1288 40.9358 43.1068 40.9228C43.0606 40.8968 43.0166 40.8708 42.9748 40.8404C42.889 40.784 42.8098 40.7233 42.735 40.656C42.5876 40.5237 42.4512 40.3827 42.3412 40.2244C42.1124 39.9142 41.9518 39.5694 41.8462 39.2158C41.8198 39.1269 41.8 39.0379 41.7758 38.949C41.7516 38.8601 41.7406 38.769 41.723 38.6801C41.6878 38.5022 41.6724 38.3243 41.6548 38.1465C41.6372 37.9686 41.6284 37.7886 41.6262 37.6107C41.6262 37.4329 41.6306 37.2528 41.668 37.0771C41.6548 37.255 41.6746 37.4307 41.6988 37.6042C41.723 37.7777 41.7582 37.9513 41.7978 38.1226C41.8396 38.294 41.8792 38.4675 41.9342 38.6302C41.9628 38.7126 41.9826 38.7972 42.0178 38.8753C42.0508 38.9555 42.0816 39.0358 42.1146 39.1139C42.2554 39.4262 42.4424 39.7125 42.6712 39.9489C42.7834 40.0704 42.911 40.1702 43.043 40.2591C43.109 40.3025 43.1772 40.3437 43.2476 40.3762C43.2828 40.3936 43.3158 40.4088 43.351 40.4218C43.3686 40.4283 43.384 40.4326 43.4016 40.4391C43.4104 40.4435 43.417 40.4435 43.4236 40.4456C43.4324 40.4478 43.439 40.45 43.439 40.45C43.5908 40.4977 43.6744 40.656 43.6282 40.8057C43.582 40.9619 43.4192 41.0443 43.2674 40.9966Z" fill="#371A45"/>
<path d="M30.4789 47.9851C30.4789 47.9851 24.2749 48.1478 15.6003 48.3235L15.2967 43.6428C15.2967 43.6428 15.0327 38.9729 18.5879 37.4459C23.1419 35.4873 27.4385 40.3784 27.4385 40.3784L30.4789 47.9851Z" fill="white"/>
<path d="M15.2944 48.6532L14.971 43.6644C14.9688 43.6124 14.9072 42.4259 15.2944 41.0334C15.8158 39.1594 16.9092 37.8168 18.4558 37.1531C20.4182 36.3093 22.6446 36.5696 24.8886 37.9035C26.5562 38.8969 27.6386 40.1181 27.6848 40.168L27.7222 40.2092L30.9518 48.2931L30.4854 48.3061C30.4238 48.3083 24.1802 48.471 15.6068 48.6445L15.2944 48.6532ZM20.812 37.3114C20.13 37.3114 19.426 37.4394 18.7176 37.743C15.4176 39.1616 15.62 43.5842 15.6222 43.6276L15.906 47.9981C22.99 47.8528 28.4262 47.7183 30.0036 47.6771L27.1568 40.5519C26.8136 40.181 24.0548 37.3114 20.812 37.3114Z" fill="#371A45"/>
<path d="M17.2612 48.2649L13.6378 48.4948C12.936 48.5382 12.2716 48.1738 11.9438 47.56C10.9186 45.6382 9.00459 41.3956 10.362 38.6475C11.6688 36.0013 16.2008 36.4655 17.1292 42.6623" fill="white"/>
<path d="M13.5234 48.818C12.7446 48.818 12.0208 48.3929 11.6556 47.7075C10.4676 45.4778 8.67897 41.3176 10.0694 38.5044C10.6722 37.2854 11.924 36.6304 13.2594 36.8321C14.905 37.0837 16.8718 38.7321 17.4526 42.6125C17.479 42.7882 17.3558 42.9509 17.1776 42.9769C16.9994 43.0029 16.8344 42.8815 16.808 42.7058C16.2778 39.1724 14.5772 37.6823 13.1604 37.4676C12.0978 37.3049 11.1386 37.8103 10.6568 38.7842C9.34557 41.4369 11.3234 45.6968 12.2342 47.406C12.5004 47.9071 13.0438 48.2064 13.618 48.1695L17.2414 47.9396C17.4218 47.9266 17.5758 48.0632 17.5868 48.2389C17.5978 48.4168 17.4614 48.5686 17.2832 48.5795L13.6598 48.8094C13.6136 48.818 13.5674 48.818 13.5234 48.818Z" fill="#371A45"/>
<g opacity="0.35">
<g opacity="0.35">
<path opacity="0.35" d="M30.4788 47.9851C30.4788 47.9851 24.7676 48.1348 16.643 48.3018L13.6378 48.4927C12.936 48.5361 12.2716 48.1717 11.9438 47.5557C11.1386 46.0482 9.7856 43.1092 9.8978 40.5866C10.2278 42.6493 11.2024 44.7294 11.836 45.918C12.1638 46.5319 12.826 46.8984 13.53 46.8529L15.0854 46.7336L15.1404 44.8487C16.7508 48.035 16.6892 45.4994 18.3084 45.3975C19.9276 45.2955 28.2766 46.3996 29.8276 46.3605L30.4788 47.9851Z" fill="#371A45"/>
</g>
</g>
<path d="M14.2362 48.4558L13.6378 48.4926C12.936 48.536 12.2716 48.1716 11.9438 47.5556C10.9186 45.6339 9.00459 41.3913 10.362 38.6431C10.4016 38.5629 10.4434 38.4848 10.4896 38.411C10.4896 38.411 11.8734 37.0012 13.0482 38.7971C14.1482 40.4781 16.7002 47.7899 14.2362 48.4558Z" fill="#AFAFB2"/>
<g opacity="0.7">
<g opacity="0.7">
<path opacity="0.7" d="M13.6708 40.0053C13.6422 39.9663 13.6136 39.9272 13.585 39.8925C12.166 38.1118 10.4456 39.5433 10.4456 39.5433C10.3884 39.6192 10.3334 39.6973 10.285 39.7776C10.12 40.0443 9.99243 40.3241 9.89783 40.6148C9.92643 39.9142 10.065 39.244 10.362 38.6453C10.4016 38.5651 10.4434 38.487 10.4896 38.4132C10.4896 38.4132 11.8734 37.0034 13.0482 38.7993C13.2286 39.0705 13.4442 39.4891 13.6708 40.0053Z" fill="white"/>
</g>
</g>
<path d="M9.90219 40.7796C9.79219 40.7796 9.69099 40.7059 9.66459 40.5953C9.63379 40.4673 9.71519 40.3372 9.84719 40.3068L13.4794 39.4696C13.6114 39.4392 13.7412 39.5194 13.772 39.6496C13.8028 39.7776 13.7214 39.9077 13.5894 39.9381L9.95719 40.7753C9.93739 40.7775 9.91979 40.7796 9.90219 40.7796Z" fill="#371A45"/>
<path d="M10.0518 42.734C9.93742 42.734 9.83622 42.6559 9.81422 42.5409C9.78782 42.4108 9.87362 42.285 10.0056 42.2589L14.2626 41.4174C14.3946 41.3913 14.5222 41.4759 14.5486 41.6061C14.575 41.7362 14.4892 41.862 14.3572 41.888L10.1002 42.7296C10.0826 42.7318 10.0672 42.734 10.0518 42.734Z" fill="#371A45"/>
<path d="M10.5556 44.6253C10.4412 44.6253 10.3378 44.5451 10.3158 44.4301C10.2916 44.3 10.3775 44.1742 10.5095 44.1503L14.8346 43.3478C14.9666 43.3239 15.0942 43.4085 15.1184 43.5386C15.1426 43.6688 15.0568 43.7946 14.9248 43.8185L10.5996 44.621C10.5842 44.6232 10.571 44.6253 10.5556 44.6253Z" fill="#371A45"/>
<path d="M11.3828 46.6707C11.264 46.6707 11.1606 46.5861 11.143 46.4668C11.1232 46.3367 11.2134 46.213 11.3454 46.1935L15.2196 45.6014C15.3516 45.5819 15.477 45.6708 15.4968 45.8009C15.5166 45.9311 15.4264 46.0547 15.2944 46.0742L11.4202 46.6664C11.407 46.6685 11.3938 46.6707 11.3828 46.6707Z" fill="#371A45"/>
<g opacity="0.35">
<g opacity="0.35">
<path opacity="0.35" d="M14.2361 48.4558L13.6377 48.4927C12.9359 48.536 12.2715 48.1716 11.9437 47.5556C11.6797 47.0568 11.3541 46.4039 11.0417 45.6621C11.4399 46.2282 12.1923 46.5536 12.9953 46.5037L13.7081 46.4581C14.7113 46.2195 15.0303 45.2153 14.9621 43.9269C15.4461 46.0785 15.4835 48.1174 14.2361 48.4558Z" fill="#371A45"/>
</g>
</g>
<path d="M13.5234 48.7768C12.76 48.7768 12.0516 48.3604 11.693 47.688C10.5072 45.4647 8.7252 41.3176 10.1068 38.5217C10.1508 38.435 10.197 38.3482 10.2476 38.2658L10.2652 38.2397L10.2872 38.2181C10.3136 38.1899 10.9714 37.5305 11.825 37.6129C12.3816 37.6671 12.8744 38.0142 13.288 38.6475C14.1878 40.0227 16.2228 45.4647 15.3428 47.7335C15.1382 48.2628 14.7906 48.5946 14.311 48.7248L14.2824 48.7313L13.6554 48.7703C13.6114 48.7747 13.5674 48.7768 13.5234 48.7768ZM10.714 38.5868C10.6788 38.6453 10.648 38.7039 10.6172 38.7668C9.2994 41.4369 11.2816 45.712 12.1968 47.4277C12.4718 47.9439 13.0306 48.2519 13.6202 48.215L14.1878 48.1782C14.4738 48.0914 14.6784 47.881 14.8126 47.534C15.5606 45.6014 13.7544 40.3914 12.8106 38.9512C12.496 38.4718 12.1462 38.2094 11.7722 38.1703C11.2596 38.1204 10.8152 38.4957 10.714 38.5868Z" fill="#371A45"/>
<path d="M13.8423 48.8267C13.7653 48.8267 13.6861 48.8223 13.6025 48.8137C13.4243 48.7963 13.2923 48.638 13.3121 48.4601C13.3319 48.2823 13.4903 48.1543 13.6707 48.1738C13.8511 48.1912 14.0117 48.1825 14.1503 48.1456C14.3241 48.0979 14.5023 48.1998 14.5507 48.3712C14.5991 48.5425 14.4957 48.7204 14.3219 48.766C14.1745 48.805 14.0139 48.8267 13.8423 48.8267Z" fill="#371A45"/>
<path d="M36.1306 49.3624C33.6996 49.9351 30.0762 48.6662 30.0762 48.6662L29.645 44.4388C29.645 44.4388 29.5174 43.1526 30.0454 41.8989L20.306 42.6081C20.306 42.6081 21.8658 35.1814 22.4488 30.338C22.462 30.2187 22.4774 30.1038 22.4906 29.9888C22.7304 27.8784 34.4168 24.2561 34.4168 24.2561C34.4168 24.2561 34.9206 25.1064 35.6488 26.462C36.8192 28.6397 38.5682 32.1231 39.7474 35.4829C40.062 36.3787 40.3348 37.2659 40.5438 38.1161C40.7198 38.8275 40.854 39.5129 40.9288 40.1593C41.6944 46.6533 39.0412 48.6749 36.1306 49.3624Z" fill="white"/>
<path d="M34.6874 49.8331C32.4632 49.8331 30.0894 49.0132 29.9662 48.9698L29.7704 48.9026L29.3194 44.4734C29.315 44.4322 29.2248 43.4779 29.5306 42.3912C29.9442 40.9163 30.8836 39.9098 32.2498 39.4782C32.4214 39.424 32.604 39.5173 32.659 39.6864C32.714 39.8556 32.6194 40.0356 32.4478 40.0899C29.6692 40.9662 29.9552 44.2696 29.9684 44.4105L30.3776 48.4297C31.1498 48.6748 34.0582 49.5229 36.0514 49.0522C38.3878 48.5013 41.4018 46.9852 40.6032 40.2048C39.9564 34.7259 35.123 26.1388 34.2628 24.6465C33.495 24.8916 31.0728 25.6789 28.6594 26.6355C23.353 28.7373 22.8426 29.7654 22.8118 30.03C22.4862 32.9083 21.7756 36.8233 21.2388 39.6018L20.7328 42.1418C20.6976 42.3153 20.526 42.4302 20.35 42.3955C20.174 42.3608 20.0574 42.1916 20.0926 42.0181L20.5986 39.4804C21.1332 36.7149 21.8394 32.815 22.165 29.9584C22.2376 29.3099 22.968 28.1993 28.4196 26.0368C31.3478 24.8764 34.287 23.9633 34.3156 23.9546L34.5642 23.8787L34.6962 24.0999C34.9338 24.5012 40.5284 34.0101 41.2522 40.1311C41.899 45.6013 40.2468 48.7247 36.2054 49.6791C35.7302 49.7875 35.2132 49.8331 34.6874 49.8331Z" fill="#371A45"/>
<path d="M34.0098 48.6206C34.0098 48.6206 30.6966 50.2951 29.6252 50.1584C28.5538 50.0218 29.1456 38.988 29.1456 38.988C29.1456 38.988 31.4842 38.2701 32.4434 40.7015C32.8416 41.7101 32.4412 42.9508 32.6568 43.9941" fill="white"/>
<g opacity="0.35">
<g opacity="0.35">
<path opacity="0.35" d="M35.6465 26.4642C33.7765 28.6159 31.2157 30.0713 28.4173 30.6113C28.1775 30.6569 27.9377 30.6959 27.6957 30.7285C27.0313 30.8174 26.3581 30.8543 25.6783 30.8369C25.1151 30.8217 24.5497 30.7719 23.9821 30.6808C23.4695 30.6005 22.9591 30.4855 22.4487 30.3402C22.4619 30.2209 22.4773 30.106 22.4905 29.991C22.7303 27.8806 34.4167 24.2583 34.4167 24.2583C34.4167 24.2583 34.9183 25.1086 35.6465 26.4642Z" fill="#371A45"/>
</g>
</g>
<path d="M15.3653 23.9686C16.5621 25.7623 18.2165 27.2676 20.2339 28.2979C20.6453 28.5083 21.0699 28.6992 21.5099 28.8662C21.7233 28.9486 21.9411 29.0267 22.1633 29.0983C22.8321 29.3152 23.5053 29.4757 24.1785 29.582C24.7593 29.6752 25.3401 29.7273 25.9165 29.7425C26.6139 29.7598 27.3047 29.723 27.9845 29.6319C28.2331 29.5972 28.4795 29.5581 28.7237 29.5104C33.1985 28.6493 37.0815 25.4956 38.6105 20.9233C40.8633 14.1885 37.1519 6.92881 30.3209 4.70774C29.0053 4.28044 27.6677 4.07005 26.3543 4.0592C26.2003 4.05703 26.0463 4.0592 25.8923 4.06354C25.4809 4.07438 25.0717 4.10475 24.6647 4.15247C23.7275 4.26526 22.8101 4.47999 21.9279 4.78582C21.0479 5.09165 20.2009 5.48858 19.4089 5.9701C19.1559 6.1241 18.9095 6.28461 18.6675 6.45596C18.3045 6.7119 17.9547 6.9852 17.6181 7.27802C15.9417 8.73342 14.6239 10.6356 13.8737 12.8806C12.5779 16.7588 13.2555 20.8062 15.3653 23.9686Z" fill="white"/>
<path d="M26.2526 29.7806C26.1404 29.7806 26.0282 29.7784 25.916 29.7762C25.3286 29.7611 24.7434 29.7068 24.1736 29.6157C23.4938 29.5073 22.814 29.3446 22.1518 29.1299C21.9098 29.0496 21.6942 28.9737 21.4962 28.8956C21.065 28.7308 20.6338 28.5377 20.218 28.3252C18.2468 27.3188 16.5594 25.8178 15.3362 23.9828C13.1296 20.6751 12.5862 16.6255 13.8424 12.871C14.5684 10.6998 15.8664 8.75851 17.5978 7.25538C17.9256 6.96907 18.2776 6.69361 18.6494 6.43116C18.887 6.26414 19.1378 6.0993 19.393 5.9453C20.1894 5.46161 21.0386 5.06251 21.9186 4.75668C22.8074 4.44868 23.7314 4.23395 24.662 4.12116C25.0668 4.07127 25.4804 4.04307 25.8918 4.03223C26.0546 4.02789 26.2086 4.02572 26.356 4.02789C27.698 4.03873 29.0356 4.25564 30.3336 4.67642C37.1712 6.89966 40.898 14.1941 38.643 20.9332C37.1668 25.3515 33.3674 28.6505 28.732 29.542C28.4878 29.5875 28.2392 29.6288 27.9906 29.6635C27.412 29.7437 26.829 29.7806 26.2526 29.7806ZM26.213 4.09513C26.1096 4.09513 26.0018 4.0973 25.8918 4.09947C25.4826 4.11031 25.0712 4.14068 24.6686 4.1884C23.7424 4.30119 22.825 4.51375 21.9406 4.81958C21.065 5.12324 20.218 5.52017 19.426 6.00169C19.1708 6.15569 18.9222 6.31837 18.6868 6.48538C18.3172 6.74566 17.9674 7.02113 17.6418 7.30527C15.9192 8.79972 14.6278 10.7323 13.9062 12.8926C12.6566 16.6277 13.1978 20.6555 15.3934 23.9481C16.61 25.7723 18.2886 27.2667 20.2488 28.2666C20.6646 28.4792 21.0914 28.6701 21.5226 28.8349C21.7206 28.9108 21.934 28.9867 22.1738 29.067C22.8316 29.2795 23.507 29.4422 24.1846 29.5507C24.7522 29.6418 25.3352 29.696 25.9182 29.7112C26.6002 29.7285 27.2954 29.6917 27.9796 29.6006C28.226 29.568 28.4724 29.5268 28.7166 29.4813C33.33 28.5941 37.1074 25.3124 38.577 20.9158C40.821 14.2092 37.1118 6.95389 30.3094 4.7415C29.018 4.32288 27.687 4.10597 26.3516 4.09513C26.3076 4.09513 26.2614 4.09513 26.213 4.09513Z" fill="#371A45"/>
<g opacity="0.35">
<g opacity="0.35">
<path opacity="0.35" d="M38.6099 20.9267C37.0809 25.499 33.1979 28.6527 28.7231 29.5138C28.4789 29.5615 28.2325 29.6006 27.9861 29.6353C27.3063 29.7264 26.6155 29.7632 25.9181 29.7459C25.3417 29.7307 24.7609 29.6787 24.1801 29.5854C23.5069 29.4791 22.8337 29.3186 22.1627 29.1017C21.9427 29.028 21.7227 28.952 21.5093 28.8696C21.0693 28.7004 20.6447 28.5096 20.2333 28.2992C18.2159 27.2689 16.5615 25.7636 15.3647 23.9698C14.7069 22.9851 14.1899 21.9136 13.8269 20.7879C15.0083 22.4732 16.6033 23.8896 18.5283 24.8721C18.9397 25.0825 19.3643 25.2734 19.8043 25.4426C20.0177 25.525 20.2355 25.6009 20.4577 25.6747C21.1265 25.8916 21.7997 26.0521 22.4729 26.1605C23.0537 26.2538 23.6345 26.3058 24.2109 26.321C24.9083 26.3384 25.5991 26.2993 26.2789 26.2104C26.5275 26.1757 26.7739 26.1367 27.0181 26.0889C31.4929 25.2278 35.3759 22.0741 36.9049 17.5018C37.7981 14.8339 37.7541 12.0858 36.9511 9.6001C39.1907 12.7929 39.9387 16.9509 38.6099 20.9267Z" fill="#371A45"/>
</g>
</g>
<path d="M26.252 30.0035C26.1376 30.0035 26.0232 30.0014 25.911 29.9992C25.3148 29.984 24.7186 29.9298 24.1378 29.8365C23.447 29.7281 22.754 29.5611 22.083 29.342C21.8344 29.2596 21.6166 29.1815 21.4164 29.1034C20.9786 28.9364 20.5408 28.7412 20.1162 28.5243C18.112 27.5005 16.3938 25.9735 15.1508 24.1082C12.9068 20.744 12.3524 16.6229 13.6306 12.8032C14.3698 10.5952 15.6898 8.61922 17.4498 7.09006C17.782 6.79942 18.1406 6.51745 18.519 6.25283C18.761 6.08147 19.0162 5.91663 19.2758 5.75829C20.0854 5.26592 20.95 4.86032 21.8454 4.55015C22.7496 4.23564 23.689 4.01874 24.635 3.90378C25.0464 3.8539 25.4688 3.82353 25.8868 3.81268C26.0496 3.80835 26.2102 3.80618 26.3598 3.80835C27.7216 3.81919 29.0834 4.04043 30.4034 4.4699C37.3576 6.73218 41.1504 14.1502 38.858 21.0086C37.3554 25.5028 33.4922 28.8583 28.7754 29.7649C28.5268 29.8127 28.2738 29.8539 28.023 29.8886C27.4312 29.9645 26.8394 30.0035 26.252 30.0035ZM26.2124 4.3159C26.1112 4.3159 26.0078 4.31806 25.9 4.32023C25.4952 4.33108 25.0904 4.35928 24.6966 4.40699C23.7858 4.51761 22.8838 4.72584 22.0148 5.02733C21.1524 5.32666 20.323 5.71708 19.5442 6.18992C19.2934 6.34176 19.0492 6.50226 18.8182 6.66494C18.4552 6.92088 18.1098 7.19201 17.7908 7.46964C16.099 8.93806 14.8296 10.8381 14.1212 12.9594C12.8936 16.6294 13.426 20.5878 15.582 23.8218C16.7766 25.6134 18.4266 27.0819 20.3538 28.0666C20.7608 28.2748 21.1832 28.4614 21.6056 28.624C21.7992 28.7 22.0104 28.7737 22.248 28.8518C22.8926 29.0622 23.557 29.2205 24.2214 29.3268C24.778 29.4157 25.3522 29.47 25.9264 29.4851C26.5974 29.5025 27.2794 29.4656 27.9526 29.3767C28.1924 29.3442 28.4366 29.3029 28.6764 29.2574C33.2084 28.3854 36.922 25.1601 38.3652 20.8416C40.5696 14.2521 36.9242 7.1226 30.2406 4.94925C28.9734 4.53713 27.6644 4.32457 26.3532 4.31373C26.3048 4.31806 26.2586 4.3159 26.2124 4.3159Z" fill="#371A45"/>
<path d="M26.2545 30.0777C26.1401 30.0777 26.0257 30.0756 25.9113 30.0734C25.3107 30.0582 24.7123 30.0018 24.1271 29.9086C23.4319 29.7979 22.7367 29.6309 22.0613 29.4119C21.8127 29.3294 21.5927 29.2514 21.3903 29.1733C20.9503 29.0041 20.5103 28.8089 20.0835 28.5898C18.0683 27.5595 16.3413 26.0239 15.0895 24.1477C12.8323 20.764 12.2757 16.6212 13.5605 12.7799C14.3041 10.5588 15.6307 8.57198 17.4017 7.03415C17.7361 6.7435 18.0969 6.45936 18.4775 6.1904C18.7217 6.01905 18.9769 5.85203 19.2387 5.6937C20.0527 5.19916 20.9217 4.79139 21.8237 4.47905C22.7323 4.16237 23.6761 3.94547 24.6287 3.82834C25.0423 3.77846 25.4669 3.74809 25.8871 3.73724C26.0521 3.73291 26.2127 3.73074 26.3645 3.73291C27.7351 3.74375 29.1035 3.96716 30.4301 4.39663C37.4239 6.67192 41.2387 14.1333 38.9309 21.0286C37.4195 25.5488 33.5343 28.9217 28.7911 29.8348C28.5403 29.8825 28.2873 29.9237 28.0343 29.9585C27.4403 30.0387 26.8441 30.0777 26.2545 30.0777ZM26.2149 4.39229C26.1137 4.39229 26.0103 4.39446 25.9047 4.39663C25.5021 4.40747 25.0995 4.43567 24.7079 4.48339C23.8037 4.59184 22.9061 4.80006 22.0437 5.10155C21.1879 5.39871 20.3607 5.78696 19.5885 6.25547C19.3399 6.4073 19.0957 6.56564 18.8669 6.72831C18.5061 6.98209 18.1629 7.25105 17.8461 7.52868C16.1631 8.98843 14.9025 10.8755 14.1963 12.9859C12.9753 16.6342 13.5055 20.571 15.6483 23.7854C16.8363 25.5684 18.4775 27.0259 20.3915 28.0042C20.7963 28.2102 21.2165 28.3968 21.6345 28.5573C21.8281 28.631 22.0371 28.7069 22.2725 28.785C22.9127 28.9932 23.5727 29.1516 24.2349 29.2579C24.7893 29.3468 25.3591 29.3988 25.9289 29.414C26.5955 29.4314 27.2731 29.3945 27.9441 29.3056C28.1839 29.273 28.4259 29.234 28.6635 29.1885C33.1691 28.3208 36.8607 25.115 38.2951 20.8226C40.4863 14.2721 36.8629 7.18381 30.2189 5.02347C28.9583 4.61353 27.6581 4.40096 26.3535 4.39229C26.3073 4.39229 26.2611 4.39229 26.2149 4.39229Z" fill="#371A45"/>
<path d="M17.5405 26.462C25.5969 31.0603 35.6135 26.4555 35.3759 17.3695C35.2153 11.1878 28.9519 6.56997 22.9393 7.10355C18.5635 7.4918 14.4649 9.75625 13.2175 16.6168C13.2175 16.6168 13.1405 19.7381 14.1701 21.7249C15.1997 23.7117 16.5395 25.4729 16.5395 25.4729L17.5405 26.462Z" fill="#371A45"/>
<path d="M35.3759 17.3695C35.6135 26.4555 25.5947 31.0603 17.5405 26.462L17.3381 26.2603C25.8301 27.0281 33.7369 21.3887 33.6709 12.1985C34.6961 13.7038 35.3253 15.4629 35.3759 17.3695Z" fill="#220F2D"/>
<path d="M24.1978 29.9129C24.1912 29.9129 24.1846 29.9129 24.178 29.9129H24.1516L24.1252 29.9086C23.43 29.7979 22.7326 29.6309 22.0572 29.4119C21.8086 29.3294 21.5886 29.2513 21.3862 29.1733C20.9462 29.0041 20.5062 28.8089 20.0794 28.5898C18.0642 27.5595 16.3372 26.0239 15.0854 24.1477C12.8282 20.764 12.2716 16.6212 13.5564 12.7799C14.2978 10.5588 15.6266 8.57197 17.3976 7.03414L17.424 7.01245L17.4548 6.9951C18.953 6.16003 20.7306 5.64597 22.7392 5.46811C26.3164 5.15143 30.1334 6.43549 32.945 8.906C35.53 11.177 36.9996 14.1659 37.081 17.3261C37.1712 20.7597 36.0052 23.7984 33.715 26.1128C31.3236 28.5291 27.8542 29.9129 24.1978 29.9129ZM17.8134 7.55253C16.1458 9.01011 14.894 10.8885 14.1922 12.9859C12.9712 16.6342 13.5014 20.571 15.6442 23.7854C16.8322 25.5684 18.4734 27.0259 20.3874 28.0042C20.7922 28.2102 21.2124 28.3968 21.6304 28.5573C21.824 28.631 22.033 28.7069 22.2684 28.785C22.8998 28.9911 23.5532 29.1472 24.2044 29.2535C27.6804 29.2513 30.9716 27.9391 33.2354 25.653C35.398 23.4688 36.4958 20.5948 36.4122 17.3435C36.3352 14.3676 34.9448 11.5457 32.5006 9.39836C29.8232 7.04715 26.1954 5.82166 22.7986 6.12315C20.8978 6.29234 19.2214 6.77386 17.8134 7.55253Z" fill="#371A45"/>
<path d="M24.2307 28.5963C21.9053 28.5963 19.5293 27.9781 17.3733 26.7483L17.3359 26.7266L16.2733 25.6725C16.2183 25.5987 14.9049 23.8657 13.8753 21.8767C12.8215 19.8378 12.8831 16.7426 12.8875 16.6103L12.8919 16.5604C13.9809 10.5609 17.3535 7.27054 22.9129 6.77601C26.1073 6.49187 29.5107 7.63927 32.0209 9.84516C34.3287 11.871 35.6399 14.5411 35.7125 17.363C35.8181 21.4364 33.9041 24.9307 30.4567 26.9478C28.5735 28.0475 26.4241 28.5963 24.2307 28.5963ZM17.7451 26.1995C21.7205 28.451 26.4549 28.5225 30.1135 26.3796C33.3453 24.4882 35.1427 21.2065 35.0415 17.3781C34.9733 14.7406 33.7413 12.2398 31.5721 10.3354C29.1983 8.25094 25.9797 7.16426 22.9679 7.43105C17.7539 7.89305 14.5859 10.9947 13.5497 16.6494C13.5453 16.94 13.5365 19.7771 14.4649 21.5752C15.4131 23.4058 16.6451 25.0673 16.7903 25.2582L17.7451 26.1995Z" fill="#371A45"/>
<path d="M38.1918 21.5345C40.0523 21.3617 41.3649 19.1748 41.1236 16.65C40.8824 14.1252 39.1785 12.2185 37.3181 12.3913C35.4576 12.5641 34.1449 14.751 34.3862 17.2758C34.6275 19.8006 36.3313 21.7073 38.1918 21.5345Z" fill="white"/>
<path d="M37.9492 21.8767C37.3288 21.8767 36.715 21.675 36.1474 21.2781C35.0738 20.5298 34.3236 19.2067 34.0926 17.6537C33.6922 14.9793 35.0012 12.4914 37.0098 12.1032C37.8106 11.9492 38.6224 12.1379 39.3572 12.6497C40.4308 13.3981 41.181 14.7212 41.412 16.2763C41.8124 18.9486 40.5034 21.4386 38.4948 21.8268C38.3122 21.8594 38.1318 21.8767 37.9492 21.8767ZM37.551 12.7105C37.4124 12.7105 37.276 12.7235 37.1374 12.7495C35.4742 13.0705 34.405 15.2265 34.7526 17.5561C34.955 18.9139 35.6216 20.1025 36.5324 20.7402C37.1132 21.1458 37.7468 21.2954 38.365 21.1761C40.0282 20.8551 41.0974 18.6991 40.7498 16.3696C40.5474 15.0118 39.8808 13.8232 38.97 13.1855C38.519 12.871 38.035 12.7105 37.551 12.7105Z" fill="#371A45"/>
<path d="M39.1085 20.8228C40.6281 20.7333 41.7615 19.0323 41.6398 17.0234C41.5182 15.0145 40.1876 13.4585 38.6679 13.548C37.1482 13.6374 36.0149 15.3385 36.1365 17.3473C36.2582 19.3562 37.5888 20.9122 39.1085 20.8228Z" fill="white"/>
<path d="M38.9905 20.8638C38.7507 20.8638 38.5065 20.8226 38.2645 20.738C36.7641 20.2196 35.8203 18.2046 36.1591 16.2481C36.3483 15.1528 36.9049 14.2635 37.6837 13.8123C38.2579 13.4804 38.8871 13.4175 39.5097 13.6323C41.0101 14.1507 41.9539 16.1657 41.6151 18.1221L41.5799 18.1156L41.6151 18.1221C41.4259 19.2175 40.8693 20.1068 40.0905 20.5579C39.7407 20.7618 39.3689 20.8638 38.9905 20.8638ZM38.7859 13.5759C38.4207 13.5759 38.0599 13.6757 37.7211 13.8709C36.9599 14.3133 36.4165 15.1831 36.2295 16.2589C35.8951 18.185 36.8191 20.1632 38.2887 20.6707C38.8893 20.8789 39.5009 20.8182 40.0553 20.495C40.8165 20.0526 41.3599 19.1828 41.5469 18.1069C41.8813 16.1809 40.9573 14.2027 39.4877 13.6952C39.2545 13.6171 39.0191 13.5759 38.7859 13.5759Z" fill="#371A45"/>
<g opacity="0.35">
<g opacity="0.35">
<path opacity="0.35" d="M36.5398 19.0874C36.2714 18.4497 36.1812 17.7361 36.2428 17.0463C36.9776 18.4497 38.4318 18.8553 39.6066 17.9313C40.3656 17.3348 40.8342 16.3197 40.931 15.2504C40.9772 15.3393 41.0212 15.4326 41.063 15.528C41.745 17.1526 41.2852 19.2674 40.0356 20.2478C38.786 21.2325 37.2218 20.7098 36.5398 19.0874Z" fill="#371A45"/>
</g>
</g>
<path d="M39.0785 21.1544C38.6209 21.1544 38.1633 21.0048 37.7387 20.7098C36.8719 20.1068 36.2383 18.9594 36.0469 17.6406C35.7257 15.4304 36.7289 13.3785 38.2821 13.0662C38.8783 12.9469 39.4833 13.0857 40.0355 13.4696C40.9023 14.0726 41.5359 15.22 41.7273 16.5388C42.0485 18.749 41.0453 20.8009 39.4921 21.1132C39.3557 21.1414 39.2171 21.1544 39.0785 21.1544ZM38.6957 13.6843C38.6033 13.6843 38.5087 13.693 38.4185 13.7125C37.2041 13.9555 36.4385 15.6777 36.7113 17.5474C36.8785 18.6904 37.4065 19.6708 38.1259 20.1719C38.5241 20.4473 38.9509 20.5514 39.3623 20.469C40.5767 20.2261 41.3423 18.5039 41.0695 16.6342C40.9023 15.4911 40.3743 14.5107 39.6549 14.0097C39.3447 13.7928 39.0191 13.6843 38.6957 13.6843Z" fill="#371A45"/>
<g opacity="0.5">
<g opacity="0.5">
<path opacity="0.5" d="M26.2327 9.0795C26.2327 9.0795 20.3851 9.97097 17.4547 13.5954C17.4525 13.5997 17.4481 13.6041 17.4459 13.6062C16.8299 14.3697 16.4339 15.2829 16.2953 16.2503C16.1105 17.5278 16.1721 18.4345 16.2579 19.2305C16.5197 21.6511 17.1027 22.7378 17.1027 22.7378C15.5671 21.6056 14.6233 20.2347 14.3835 18.2197C14.3615 18.0202 14.3439 17.8163 14.3351 17.6037C14.3329 17.556 14.3307 17.5061 14.3307 17.4584C14.3285 17.4584 14.3307 17.4562 14.3307 17.4562C14.3417 17.0268 14.3769 16.4607 14.4715 15.8273C14.7531 13.9164 15.5627 11.3765 17.8067 10.0013C22.0043 7.43105 26.4087 8.80621 26.2327 9.0795Z" fill="white"/>
</g>
</g>
<g opacity="0.5">
<g opacity="0.5">
<path opacity="0.5" d="M31.9796 16.4483C32.8765 16.1077 33.2771 14.996 32.8743 13.9653C32.4716 12.9346 31.418 12.3752 30.5212 12.7159C29.6243 13.0565 29.2237 14.1682 29.6264 15.1989C30.0292 16.2296 31.0827 16.789 31.9796 16.4483Z" fill="white"/>
</g>
</g>
<g opacity="0.5">
<g opacity="0.5">
<path opacity="0.5" d="M32.9405 18.7148C33.2979 18.5436 33.4236 18.072 33.2213 17.6615C33.019 17.2509 32.5653 17.0569 32.2079 17.2281C31.8505 17.3993 31.7248 17.8708 31.9271 18.2814C32.1294 18.6919 32.5831 18.8859 32.9405 18.7148Z" fill="white"/>
</g>
</g>
<g opacity="0.35">
<g opacity="0.35">
<path opacity="0.35" d="M30.0762 48.6662C30.0762 48.6662 31.1673 49.0479 32.5533 49.2974C31.5237 49.7442 30.2236 50.2344 29.6252 50.1584C29.2424 50.1086 29.0708 48.664 29.0114 46.8268C29.1082 47.7031 29.2666 48.2801 29.5064 48.3104C29.6494 48.3278 29.8298 48.3148 30.0387 48.2779L30.0762 48.6662Z" fill="#371A45"/>
</g>
</g>
<g opacity="0.35">
<g opacity="0.35">
<path opacity="0.35" d="M33.4312 46.9964C33.4618 46.9811 33.4924 46.9658 33.5208 46.9526C33.5208 46.9526 33.4661 47.0007 33.4312 46.9964Z" fill="#371A45"/>
</g>
</g>
<path d="M40.5394 37.7062C39.9344 39.3351 36.9996 40.0964 33.7018 39.8882C33.0066 39.8448 32.2938 39.758 31.5832 39.6257L31.5524 36.6151C31.5524 36.6151 34.232 36.678 36.5728 36.1076C37.675 35.8386 38.7024 35.4287 39.3382 34.804C39.336 34.804 41.272 35.7324 40.5394 37.7062Z" fill="white"/>
<g opacity="0.35">
<g opacity="0.35">
<path opacity="0.35" d="M40.5394 37.7061C39.9344 39.3351 36.9996 40.0964 33.7018 39.8882C33.2508 39.86 32.791 39.8122 32.3312 39.7472C32.1706 39.7255 32.01 39.6995 31.8494 39.6734C31.7614 39.6582 31.6712 39.6431 31.5832 39.6257L31.57 38.3026L31.5524 36.6151C31.5524 36.6151 34.232 36.678 36.5728 36.1076C36.5134 36.511 36.41 36.8819 36.2692 37.2268C36.0206 37.8384 36.5508 38.4848 37.2042 38.3568C38.8542 38.0315 40.0862 37.3613 40.4536 36.37C40.4932 36.2637 40.524 36.1618 40.5482 36.062C40.7308 36.4936 40.7858 37.0402 40.5394 37.7061Z" fill="#371A45"/>
</g>
</g>
<path d="M34.7512 40.2439C33.7084 40.2439 32.6128 40.142 31.5216 39.9424C31.3676 39.9142 31.2576 39.7841 31.2554 39.6301L31.2246 36.6195C31.2246 36.5327 31.2598 36.4481 31.3214 36.3874C31.3852 36.3267 31.4688 36.2941 31.559 36.2941C31.6162 36.2963 37.2438 36.4069 39.1072 34.5784C39.2062 34.483 39.3558 34.457 39.479 34.5177C40.2402 34.8821 41.5052 36.0404 40.8452 37.819C40.458 38.8601 39.2282 39.6366 37.378 40.0053C36.5706 40.1637 35.6818 40.2439 34.7512 40.2439ZM31.9044 39.3568C35.9106 40.0335 39.6132 39.2614 40.2314 37.5956C40.733 36.2421 39.8002 35.4699 39.38 35.201C37.4682 36.8082 33.132 36.9362 31.878 36.9383L31.9044 39.3568Z" fill="#371A45"/>
<path d="M18.1632 48.5122C18.1192 48.5122 18.0774 48.5013 18.0378 48.4775C17.9212 48.4081 17.886 48.2606 17.9542 48.1456C18.9728 46.4842 19.1774 44.7186 18.5592 42.8966C18.0928 41.5236 17.3118 40.6322 17.303 40.6235C17.215 40.5237 17.2238 40.3719 17.325 40.283C17.4262 40.1962 17.5802 40.2049 17.6704 40.3046C17.7056 40.3437 18.5174 41.2655 19.0168 42.7253C19.4788 44.0787 19.7428 46.1588 18.3722 48.3951C18.326 48.471 18.2446 48.5122 18.1632 48.5122Z" fill="#371A45"/>
<path d="M13.9744 37.3938C14.0228 37.7365 14.1658 38.0705 14.4936 38.2831C15.4154 38.8817 20.5986 39.5888 23.5928 39.45C26.5848 39.3112 32.6678 38.6236 33.5588 37.166C34.4498 35.7084 33.6182 34.2075 33.3674 34.2357C33.1166 34.2639 32.494 34.9341 32.2894 35.7583C32.0848 36.5826 31.9418 37.2506 30.6504 37.0814C29.359 36.9123 26.7124 36.4871 25.3132 37.4784C23.914 38.4696 21.538 38.2744 20.6976 37.6497C19.8572 37.025 18.6472 36.7539 17.5934 37.2593C16.8278 37.6259 14.9974 37.7712 14.3 37.1552C14.0404 36.9253 13.8864 36.7691 13.9744 37.3938Z" fill="#ED1100"/>
<g opacity="0.3">
<g opacity="0.3">
<path opacity="0.3" d="M14.4913 37.8819C15.4131 38.4827 20.5963 39.1876 23.5905 39.051C26.5825 38.9121 32.6655 38.2246 33.5565 36.767C33.6753 36.5739 33.7611 36.3787 33.8249 36.1879C33.8359 36.1987 33.8469 36.2095 33.8557 36.2226C33.7787 36.1119 33.5917 36.0902 33.5037 36.2356C33.5015 36.2399 33.4993 36.2442 33.4971 36.2464C32.6061 37.704 26.5231 38.3937 23.5311 38.5304C20.5391 38.667 15.3537 37.9621 14.4319 37.3635C14.3923 37.3374 14.3549 37.3092 14.3219 37.281C14.2317 37.2051 14.1151 37.2246 14.0447 37.2941C14.1239 37.524 14.2625 37.7344 14.4913 37.8819Z" fill="#371A45"/>
</g>
</g>
<path d="M33.7435 30.5961C33.7633 30.9062 33.7171 31.2121 33.6137 31.5092C32.8305 33.7498 28.6967 35.5935 23.6081 35.9145C18.9331 36.2095 14.8917 35.1293 13.4375 33.303C13.0987 32.8779 12.9007 32.4115 12.8677 31.9127C12.6961 29.2773 17.1335 25.3492 22.8975 24.9848C28.6637 24.6226 33.5741 27.9607 33.7435 30.5961Z" fill="#FF900B"/>
<g opacity="0.3">
<g opacity="0.3">
<path opacity="0.3" d="M27.5879 27.5421C25.8895 27.2883 25.3549 27.8696 25.6013 28.7372C25.7179 29.1515 26.7211 29.3098 27.4845 29.6504C28.2897 30.0104 29.0641 31.108 29.7945 30.7804C31.1651 30.1644 30.0893 27.9173 27.5879 27.5421Z" fill="white"/>
</g>
</g>
<g opacity="0.3">
<g opacity="0.3">
<path opacity="0.3" d="M33.7457 29.837C33.7611 30.132 33.7127 30.4248 33.6137 30.7089C32.8305 32.9495 28.6967 34.7932 23.6081 35.1142C18.9331 35.4092 14.8917 34.329 13.4375 32.5027C13.0987 32.0754 12.8985 31.6112 12.8677 31.1124C12.8237 30.4508 13.0723 29.709 13.5585 28.9607C13.5497 29.0691 13.5497 29.1754 13.5563 29.2795C13.5893 29.7762 13.7873 30.2426 14.1261 30.6699C15.5803 32.494 19.6239 33.5764 24.2967 33.2792C28.6351 33.0081 32.2805 31.6264 33.7457 29.837Z" fill="#371A45"/>
</g>
</g>
<g opacity="0.5">
<g opacity="0.5">
<path opacity="0.5" d="M33.7436 30.5961C33.7634 30.9041 33.7172 31.2121 33.6138 31.5093C33.5742 31.622 33.528 31.7348 33.4708 31.8433C33.4774 31.7544 33.4774 31.6633 33.4708 31.5722C33.2992 28.9368 28.3888 25.5987 22.6248 25.9631C17.8244 26.2668 13.9458 29.0409 12.881 31.4832C13.1736 28.8717 17.4416 25.3319 22.8998 24.987C28.6638 24.6226 33.572 27.9608 33.7436 30.5961Z" fill="white"/>
</g>
</g>
<path d="M22.1122 36.2833C18.0378 36.2833 14.5552 35.2248 13.1824 33.5026C12.7952 33.0167 12.5796 32.4875 12.5444 31.9344C12.452 30.5007 13.541 28.7828 15.4616 27.3426C17.534 25.7874 20.1696 24.8374 22.88 24.666C25.5904 24.4947 28.3272 25.1063 30.5844 26.3882C32.6744 27.5747 33.979 29.1407 34.0714 30.5744C34.0934 30.9215 34.045 31.2707 33.924 31.6134C33.088 34.0036 28.8552 35.9037 23.6324 36.2356C23.1176 36.2681 22.6094 36.2833 22.1122 36.2833ZM23.793 25.2799C23.5048 25.2799 23.2144 25.2885 22.9218 25.3081C20.3368 25.4707 17.8288 26.3752 15.8576 27.8545C14.1372 29.145 13.1186 30.6916 13.1956 31.8932C13.222 32.314 13.3914 32.7218 13.6972 33.1057C15.1096 34.8799 19.085 35.8777 23.5906 35.5935C28.4812 35.2855 32.5666 33.5221 33.308 31.403C33.4004 31.1405 33.4378 30.8759 33.4202 30.6156C33.275 28.3946 29.1456 25.2799 23.793 25.2799Z" fill="#371A45"/>
<path d="M34.5993 33.7151L32.5973 34.8517C32.3707 34.9818 32.2255 35.2009 32.2101 35.4417L32.1529 36.3244C32.1243 36.7387 31.7327 37.0532 31.2795 37.0272L27.5065 36.7995C26.7079 36.7517 25.9203 36.9947 25.3131 37.4762L25.0051 37.7213C24.6223 38.0249 24.1625 38.218 23.6829 38.2917C23.1593 38.3741 22.6137 38.3134 22.1165 38.103C21.5489 37.8644 20.9065 37.602 20.3763 37.3894C19.6459 37.0966 18.8297 37.0185 18.0443 37.1725C17.7671 37.2267 17.4613 37.2853 17.1511 37.346C16.5791 37.4567 15.9895 37.5694 15.5341 37.6562C15.0677 37.7451 14.6233 37.4523 14.5683 37.0207L14.4869 36.37C14.4517 36.0858 14.2383 35.8451 13.9391 35.7562L12.6543 35.3701C12.0515 35.1879 11.9063 34.4721 12.3991 34.099L13.4397 33.3052C14.8939 35.1293 18.9353 36.2116 23.6103 35.9167C28.6967 35.5957 32.8305 33.752 33.6159 31.5114L34.7577 32.5656C35.1207 32.8996 35.0437 33.4614 34.5993 33.7151Z" fill="#8CCC1D"/>
<g opacity="0.35">
<g opacity="0.35">
<path opacity="0.35" d="M12.1638 34.3919C12.2474 34.5806 12.4124 34.7389 12.6544 34.8105L13.9392 35.1966C14.2362 35.2855 14.4496 35.5241 14.487 35.8104L14.5684 36.4611C14.6212 36.8906 15.0656 37.1856 15.5342 37.0966C15.9896 37.0099 16.5792 36.8971 17.1512 36.7865C17.4592 36.7279 17.765 36.6672 18.0444 36.6151C18.8298 36.4633 19.6438 36.5392 20.3764 36.832C20.9066 37.0446 21.549 37.307 22.1166 37.5456C22.6138 37.756 23.1594 37.8168 23.683 37.7343C24.1626 37.6606 24.6224 37.4675 25.0052 37.1639L25.3154 36.921C25.9204 36.4394 26.7102 36.1965 27.5088 36.2442L31.284 36.472C31.735 36.5002 32.1288 36.1813 32.1574 35.7692L32.2146 34.8864C32.23 34.6435 32.3752 34.4244 32.6018 34.2943L34.6016 33.1577C34.7578 33.0688 34.8656 32.943 34.9294 32.802C34.9646 32.8801 34.9844 32.9647 34.9888 33.0471C34.98 32.8736 34.9052 32.7001 34.7578 32.5634L34.078 31.9344L34.1506 32.0016C34.1462 32.0125 34.1418 32.0233 34.1374 32.0342C34.287 32.3357 34.177 32.7131 33.8448 32.9018L31.9946 33.9537C31.7856 34.073 31.6514 34.2769 31.636 34.5003L31.5832 35.3159C31.559 35.6976 31.1938 35.9904 30.778 35.9644L27.2888 35.7562C26.5518 35.7106 25.8214 35.9362 25.2604 36.3809L24.9744 36.6064C24.6202 36.8884 24.1956 37.0663 23.7512 37.1335H23.749C23.265 37.2094 22.7612 37.153 22.3014 36.9578C21.7756 36.7366 21.1838 36.4958 20.6932 36.2963C20.0156 36.0251 19.2632 35.9536 18.5372 36.0946C18.282 36.1444 17.9982 36.1987 17.7122 36.2551C17.182 36.357 16.6386 36.4633 16.2162 36.5435C15.785 36.626 15.3736 36.3548 15.3252 35.9557L15.246 35.3549C15.213 35.0925 15.0172 34.8712 14.74 34.7866L13.552 34.4309C13.1406 34.3073 12.9602 33.9169 13.0768 33.5785L12.397 34.0969C12.1704 34.2704 12.0802 34.5177 12.1088 34.7498C12.0934 34.6305 12.111 34.5068 12.1638 34.3919Z" fill="#371A45"/>
</g>
</g>
<path d="M23.2276 38.6496C22.8008 38.6496 22.3784 38.565 21.9846 38.4002C21.3026 38.1139 20.6052 37.8297 20.2488 37.6888C19.5712 37.4176 18.8298 37.3482 18.1038 37.4892C17.8266 37.5434 17.5186 37.602 17.2106 37.6627L17.0016 37.7039C16.4956 37.8016 15.994 37.8992 15.5914 37.9751C15.268 38.0358 14.9336 37.9642 14.6718 37.7777C14.4276 37.602 14.2758 37.3482 14.2406 37.0641L14.1592 36.4134C14.1394 36.2572 14.014 36.1206 13.8402 36.0685L12.5554 35.6824C12.155 35.561 11.8602 35.2465 11.7898 34.8582C11.7194 34.4743 11.8712 34.0969 12.1968 33.8474L13.4926 32.8584L13.6928 33.11C15.1052 34.8821 19.0806 35.882 23.5862 35.5978C28.4768 35.2898 32.5622 33.5264 33.3036 31.4073L33.4686 30.9388L34.9778 32.3313C35.2242 32.559 35.343 32.8735 35.3056 33.1967C35.266 33.5308 35.068 33.8214 34.7622 33.9971L32.7602 35.1337C32.6282 35.2096 32.5446 35.3332 32.5358 35.4677L32.4786 36.3505C32.439 36.9426 31.8934 37.3916 31.2598 37.3526L27.4868 37.1248C26.774 37.0814 26.0568 37.3027 25.5178 37.73L25.2076 37.9751C24.7852 38.3091 24.2748 38.5303 23.7314 38.6128L23.7182 38.6149C23.5554 38.6366 23.3904 38.6496 23.2276 38.6496ZM18.843 36.7713C19.4084 36.7713 19.9672 36.8776 20.4952 37.0901C20.8516 37.2333 21.5556 37.5174 22.242 37.8059C22.6754 37.9903 23.155 38.0467 23.6302 37.9729L23.6434 37.9707C24.0702 37.9035 24.4706 37.73 24.8006 37.4697L25.1108 37.2246C25.784 36.6888 26.642 36.4242 27.5286 36.4785L31.3016 36.7062C31.57 36.7236 31.812 36.5392 31.8296 36.3028L31.8868 35.42C31.9088 35.0729 32.1156 34.7541 32.4346 34.5719L34.4366 33.4353C34.5642 33.3637 34.6456 33.2466 34.6588 33.1186C34.672 32.9993 34.628 32.8844 34.5334 32.7955L33.7282 32.0515C32.5556 34.2335 28.5296 35.9232 23.6302 36.2334C19.1202 36.5175 15.081 35.5241 13.3936 33.7433L12.5972 34.3506C12.4674 34.4504 12.408 34.5914 12.4344 34.7367C12.463 34.8886 12.5796 35.01 12.749 35.0621L14.0338 35.4482C14.454 35.574 14.7576 35.921 14.8104 36.331L14.8918 36.9817C14.905 37.0879 14.9644 37.1856 15.0612 37.2528C15.1756 37.3352 15.3252 37.3656 15.4726 37.3396C15.873 37.2636 16.3768 37.166 16.8806 37.0684L17.0896 37.0272C17.3976 36.9687 17.7034 36.9079 17.9828 36.8559C18.2666 36.7995 18.5548 36.7713 18.843 36.7713Z" fill="#371A45"/>
<path d="M33.9019 36.9947C33.7325 36.9947 33.5895 36.8667 33.5763 36.6975L33.5719 36.6303L33.5939 36.5674C33.6027 36.5457 33.6071 36.524 33.6093 36.5002C33.6423 36.2572 33.6599 35.0664 33.3475 34.4071C33.2705 34.2466 33.3409 34.0557 33.5037 33.9798C33.6665 33.9038 33.8601 33.9733 33.9371 34.1338C34.3485 35.0014 34.2825 36.3678 34.2539 36.5847C34.2451 36.6476 34.2297 36.7106 34.2099 36.7691C34.1703 36.8906 34.0603 36.9838 33.9239 36.9947C33.9195 36.9925 33.9107 36.9947 33.9019 36.9947Z" fill="#371A45"/>
<path d="M34.1153 39.7103C33.6225 40.9509 29.7747 42.3977 24.2263 42.7469C18.6779 43.0983 14.8829 42.569 14.0249 40.9791C13.6421 40.272 13.4177 38.5433 14.0469 37.5391C14.0667 37.6432 14.0887 37.7278 14.1107 37.7929C14.3571 38.5151 15.8553 39.1008 18.1367 39.4001L18.5547 40.272L20.3345 39.5845C21.5071 39.6344 22.8007 39.6235 24.1779 39.5367C24.7279 39.502 25.2625 39.4565 25.7817 39.4023L31.6315 40.0486L32.9383 37.6085C33.4619 37.3048 33.7985 36.9882 33.9041 36.6693C34.5707 37.9425 34.3375 39.1507 34.1153 39.7103Z" fill="#FF900B"/>
<g opacity="0.3">
<g opacity="0.3">
<path opacity="0.3" d="M14.025 40.3393C14.8852 41.9292 18.678 42.4585 24.2264 42.1071C29.7748 41.7557 33.6226 40.3111 34.1154 39.0705C34.2034 38.8449 34.2958 38.5152 34.3288 38.1183C34.3354 38.2007 34.3398 38.2831 34.342 38.3634C34.3354 38.0489 34.2914 37.7062 34.1814 37.3483C34.1374 37.6151 34.0714 37.8406 34.0032 38.0076C33.8074 38.5022 33.0792 39.0293 31.922 39.5064L31.8208 39.693C31.7042 39.9099 31.4666 40.0335 31.2202 40.0053L30.6812 39.9467C28.9916 40.4673 26.7432 40.8794 24.1142 41.0464C18.5658 41.3978 14.7708 40.8686 13.9128 39.2787C13.8248 39.116 13.7456 38.9013 13.684 38.6518C13.6752 38.7256 13.6686 38.7993 13.6642 38.8731C13.7038 39.4652 13.8468 40.0118 14.025 40.3393Z" fill="#371A45"/>
</g>
</g>
<path d="M21.1288 43.1764C16.9532 43.1764 14.4694 42.491 13.7368 41.131C13.288 40.2981 13.0834 38.4653 13.7698 37.3721L14.212 36.6672L14.3682 37.4806C14.3902 37.589 14.41 37.6584 14.421 37.6909C14.5684 38.1248 15.642 38.7494 18.1808 39.0835L18.3568 39.1073L18.5878 39.591C18.6626 39.745 18.8452 39.8166 19.0058 39.7558L20.2774 39.2657L20.3456 39.2678C21.5468 39.3199 22.8294 39.3025 24.1538 39.2201C24.6972 39.1854 25.2318 39.142 25.7422 39.0878L25.7818 39.0856L25.8126 39.09L31.1432 39.6799C31.3258 39.6995 31.4974 39.6105 31.5832 39.45L32.6898 37.3851L32.769 37.3396C33.3784 36.986 33.5456 36.7106 33.5896 36.5782L33.8316 35.8516L34.188 36.5305C34.8348 37.7582 34.7292 39.0422 34.4146 39.8339C33.803 41.3783 29.524 42.7404 24.244 43.0744C23.1198 43.1395 22.0814 43.1764 21.1288 43.1764ZM14.0712 38.3308C13.8578 39.2006 14.0294 40.3024 14.3132 40.8273C14.6806 41.5084 16.0798 42.53 21.1376 42.53C22.0396 42.53 23.056 42.4975 24.2066 42.4259C30.1422 42.0507 33.4466 40.5128 33.8118 39.5932C33.891 39.3958 34.2144 38.4609 33.8382 37.3439C33.6688 37.5131 33.451 37.6801 33.1848 37.8406L32.164 39.745C31.9528 40.1398 31.5238 40.3632 31.075 40.3133L25.7796 39.7277C25.2692 39.7797 24.7368 39.8253 24.1978 39.8578C22.8756 39.9424 21.593 39.9597 20.3874 39.9098L19.2434 40.3523C18.7638 40.5367 18.2182 40.322 17.9982 39.8643L17.9168 39.6973C16.6716 39.5216 14.8126 39.1333 14.0712 38.3308Z" fill="#371A45"/>
<path d="M23.4937 38.3156C23.5223 38.3135 23.5311 38.3504 23.5047 38.3612L20.3345 39.5867L19.0541 40.0812C18.7747 40.1897 18.4557 40.066 18.3281 39.7971L18.1389 39.4023L17.1511 37.3461C17.4613 37.2875 17.7671 37.2268 18.0443 37.1726C18.8297 37.0207 19.6437 37.0967 20.3763 37.3895C20.9087 37.6042 21.5489 37.8645 22.1165 38.1031C22.5521 38.2896 23.0273 38.3569 23.4937 38.3156Z" fill="#FFB600"/>
<g opacity="0.35">
<g opacity="0.35">
<path opacity="0.35" d="M18.3655 38.051C19.1509 37.8992 19.9649 37.9751 20.6975 38.2679C21.1485 38.4501 21.6787 38.6648 22.1759 38.8731L23.5025 38.3612C23.5289 38.3503 23.5201 38.3135 23.4915 38.3156C23.0273 38.3568 22.5521 38.2896 22.1121 38.1031C21.5445 37.8645 20.9021 37.602 20.3719 37.3895C19.6415 37.0966 18.8253 37.0186 18.0399 37.1726C17.7627 37.2268 17.4569 37.2853 17.1467 37.3461L17.5603 38.2094C17.8419 38.153 18.1147 38.1009 18.3655 38.051Z" fill="#371A45"/>
</g>
</g>
<g opacity="0.5">
<g opacity="0.5">
<path opacity="0.5" d="M23.4937 38.3157C23.0625 38.3547 22.6225 38.2961 22.2111 38.14L20.3323 38.8644L19.0519 39.359C18.7725 39.4674 18.4535 39.3438 18.3259 39.0748L18.1367 38.68L17.4657 37.2832C17.3601 37.3027 17.2567 37.3244 17.1489 37.3439L18.1367 39.4002L18.3259 39.7949C18.4535 40.0639 18.7725 40.1875 19.0519 40.0791L20.3323 39.5845L23.5025 38.359C23.5289 38.3504 23.5201 38.3135 23.4937 38.3157Z" fill="white"/>
</g>
</g>
<path d="M32.9383 37.6107L31.8449 39.6518C31.7151 39.8925 31.4511 40.0313 31.1761 40.001L25.7795 39.4045C29.0025 39.0705 31.5941 38.3872 32.9383 37.6107Z" fill="#FFB600"/>
<path d="M18.9398 40.3892C18.5306 40.3892 18.139 40.1593 17.9542 39.7754L16.6738 37.1075L17.0852 37.0294C17.3932 36.9708 17.699 36.9101 17.9762 36.8581C18.8276 36.6932 19.6988 36.7735 20.493 37.0923C20.8494 37.2355 21.5534 37.5196 22.2398 37.8081C22.6204 37.9686 23.0428 38.0337 23.4608 37.9968C23.6368 37.9816 23.793 38.0922 23.8326 38.2614C23.8722 38.4306 23.7842 38.5998 23.6192 38.6627L19.3314 40.3198C19.206 40.3653 19.0718 40.3892 18.9398 40.3892ZM17.622 37.5803L18.5438 39.5021C18.6406 39.706 18.8826 39.7992 19.096 39.719L22.253 38.5C22.1628 38.4718 22.0726 38.4371 21.9846 38.4002C21.3026 38.1139 20.6052 37.8298 20.2488 37.6888C19.5712 37.4177 18.8298 37.3483 18.1038 37.4892C17.952 37.5174 17.7892 37.5478 17.622 37.5803Z" fill="#371A45"/>
<path d="M31.3059 40.3328C31.2729 40.3328 31.2377 40.3306 31.2025 40.3263L22.7567 39.3936L25.7443 39.0834C28.7957 38.7668 31.4225 38.1139 32.7711 37.3331L33.7611 36.7604L32.1023 39.8578C31.9439 40.1528 31.6381 40.3328 31.3059 40.3328ZM28.3733 39.3676L31.2773 39.6886C31.3807 39.6994 31.4797 39.6496 31.5281 39.5585L32.1837 38.3351C31.1849 38.7429 29.8825 39.0965 28.3733 39.3676Z" fill="#371A45"/>
<g opacity="0.35">
<g opacity="0.35">
<path opacity="0.35" d="M17.4581 29.8244C17.7382 29.8064 17.9607 29.7211 17.9551 29.6338C17.9495 29.5465 17.7179 29.4903 17.4378 29.5083C17.1577 29.5263 16.9352 29.6116 16.9408 29.6989C16.9464 29.7861 17.178 29.8423 17.4581 29.8244Z" fill="#371A45"/>
</g>
</g>
<g opacity="0.35">
<g opacity="0.35">
<path opacity="0.35" d="M19.2015 28.2362C19.2081 28.323 18.9859 28.4076 18.7043 28.425C18.4249 28.4423 18.1939 28.3859 18.1873 28.2991C18.1807 28.2124 18.4029 28.1278 18.6845 28.1104C18.9639 28.0931 19.1949 28.1495 19.2015 28.2362Z" fill="#371A45"/>
</g>
</g>
<g opacity="0.35">
<g opacity="0.35">
<path opacity="0.35" d="M20.5426 30.2819C20.8227 30.2639 21.0452 30.1786 21.0396 30.0913C21.034 30.0041 20.8024 29.9479 20.5223 29.9658C20.2422 29.9838 20.0197 30.0691 20.0253 30.1564C20.0309 30.2437 20.2625 30.2999 20.5426 30.2819Z" fill="#371A45"/>
</g>
</g>
<g opacity="0.35">
<g opacity="0.35">
<path opacity="0.35" d="M22.5467 27.052C22.8268 27.0341 23.0493 26.9488 23.0437 26.8615C23.0381 26.7742 22.8065 26.718 22.5264 26.736C22.2463 26.7539 22.0238 26.8392 22.0294 26.9265C22.035 27.0138 22.2666 27.07 22.5467 27.052Z" fill="#371A45"/>
</g>
</g>
<g opacity="0.35">
<g opacity="0.35">
<path opacity="0.35" d="M22.4708 28.4661C22.4774 28.5529 22.2552 28.6374 21.9736 28.6548C21.6942 28.6721 21.4632 28.6158 21.4566 28.529C21.45 28.4422 21.6722 28.3576 21.9538 28.3403C22.2332 28.3229 22.4664 28.3793 22.4708 28.4661Z" fill="#371A45"/>
</g>
</g>
<g opacity="0.35">
<g opacity="0.35">
<path opacity="0.35" d="M26.1668 30.0842C26.1734 30.171 25.9512 30.2555 25.6696 30.2729C25.388 30.2903 25.1592 30.2339 25.1526 30.1471C25.146 30.0603 25.3682 29.9757 25.6498 29.9584C25.9292 29.941 26.1624 29.9974 26.1668 30.0842Z" fill="#371A45"/>
</g>
</g>
<g opacity="0.35">
<g opacity="0.35">
<path opacity="0.35" d="M25.7641 28.3446C25.7707 28.4314 25.5485 28.516 25.2669 28.5333C24.9875 28.5507 24.7565 28.4943 24.7499 28.4075C24.7433 28.3208 24.9655 28.2362 25.2471 28.2188C25.5287 28.2015 25.7575 28.2579 25.7641 28.3446Z" fill="#371A45"/>
</g>
</g>
<g opacity="0.35">
<g opacity="0.35">
<path opacity="0.35" d="M26.9698 26.7721C26.9764 26.8589 26.7542 26.9435 26.4726 26.9608C26.191 26.9782 25.9622 26.9218 25.9556 26.835C25.949 26.7483 26.1712 26.6637 26.4528 26.6463C26.7322 26.629 26.9632 26.6854 26.9698 26.7721Z" fill="#371A45"/>
</g>
</g>
<g opacity="0.35">
<g opacity="0.35">
<path opacity="0.35" d="M28.4849 28.4031C28.765 28.3852 28.9876 28.2998 28.982 28.2126C28.9764 28.1253 28.7448 28.0691 28.4647 28.087C28.1846 28.105 27.9621 28.1903 27.9677 28.2776C27.9733 28.3649 28.2048 28.4211 28.4849 28.4031Z" fill="#371A45"/>
</g>
</g>
<g opacity="0.35">
<g opacity="0.35">
<path opacity="0.35" d="M30.2517 29.9084C30.5318 29.8905 30.7543 29.8051 30.7487 29.7179C30.7431 29.6306 30.5115 29.5744 30.2314 29.5924C29.9513 29.6103 29.7288 29.6956 29.7344 29.7829C29.74 29.8702 29.9716 29.9264 30.2517 29.9084Z" fill="#371A45"/>
</g>
</g>
<path d="M14.1438 28.9932C14.1438 28.9932 13.3782 30.299 15.004 31.3705C17.2788 32.8671 17.237 37.0988 15.0964 37.2376C13.761 37.3244 12.276 37.0967 11.5544 35.1012C10.9384 33.3963 11.5038 30.1211 14.1438 28.9932Z" fill="white"/>
<g opacity="0.35">
<g opacity="0.35">
<path opacity="0.35" d="M15.0964 37.2355C13.761 37.3223 12.276 37.0945 11.5544 35.099C11.3674 34.5806 11.2904 33.9147 11.3476 33.2076C11.3784 33.3378 11.4136 33.4614 11.4576 33.5764C12.1792 35.5719 13.6642 35.7996 14.9996 35.7128C15.9302 35.6521 16.4626 34.8214 16.5836 33.7759C16.9664 35.4157 16.4516 37.1466 15.0964 37.2355Z" fill="#371A45"/>
</g>
</g>
<path d="M14.6477 37.5717C13.4421 37.5717 11.9703 37.2138 11.2465 35.2075C10.5513 33.2814 11.2663 29.8739 14.0119 28.6982L14.9183 28.31L14.4255 29.1516C14.3617 29.2644 13.8689 30.2361 15.1845 31.1015C16.7861 32.1557 17.3119 34.3637 16.8983 35.8929C16.6255 36.895 15.9765 37.5023 15.1185 37.5565C14.9667 37.5652 14.8105 37.5717 14.6477 37.5717ZM13.6445 29.6288C11.7987 30.8651 11.3213 33.4983 11.8625 34.9927C12.5247 36.8277 13.8579 36.9947 15.0767 36.9166C15.8467 36.8668 16.1547 36.151 16.2691 35.728C16.6167 34.4483 16.1635 32.5201 14.8237 31.6394C13.8029 30.967 13.6093 30.1927 13.6445 29.6288Z" fill="#371A45"/>
<path d="M34.7115 28.2341C34.3353 30.0257 33.4289 32.5504 28.0081 32.9842C22.5895 33.418 23.628 38.2224 25.8456 38.9338C27.7156 39.5325 34.8413 39.7949 36.1283 34.9363" fill="white"/>
<g opacity="0.35">
<g opacity="0.35">
<path opacity="0.35" d="M36.1307 34.9385C34.8437 39.7971 27.7157 39.5346 25.8479 38.936C24.6313 38.5455 23.7689 36.9253 24.1341 35.4699C24.2133 36.5999 24.6665 37.1899 25.6653 37.5912C27.6453 38.3894 33.0001 37.9339 35.2639 34.7628C35.5059 34.4223 36.0449 34.5285 36.1307 34.9385Z" fill="#371A45"/>
</g>
</g>
<path d="M34.8172 28.2557C34.8546 28.9043 34.7072 29.5615 34.4014 30.158C34.2518 30.4573 34.0626 30.7414 33.8426 30.9974C33.6226 31.2533 33.3718 31.4832 33.1012 31.685C32.5622 32.0884 31.9682 32.3986 31.3522 32.6285C30.734 32.8562 30.1004 33.0167 29.4602 33.1274C29.2996 33.1512 29.1412 33.1794 28.9806 33.2011C28.82 33.2206 28.6594 33.2423 28.4988 33.2597L28.017 33.3052L27.5638 33.3551C26.9632 33.4375 26.3802 33.598 25.8632 33.8648L25.7664 33.9125L25.674 33.9689C25.6124 34.008 25.5508 34.0427 25.4914 34.0839L25.322 34.2119C25.2934 34.2314 25.267 34.2552 25.2406 34.2791L25.1636 34.3507C24.959 34.5437 24.783 34.7606 24.6532 35.0057C24.3958 35.4937 24.321 36.0707 24.4156 36.6238C24.5102 37.1769 24.7676 37.7127 25.1526 38.1117C25.3462 38.3113 25.5706 38.4718 25.8148 38.5737C25.9336 38.6215 26.0722 38.6648 26.2174 38.6974L26.3252 38.7234L26.4352 38.7451C26.5078 38.7603 26.5826 38.7733 26.6596 38.7863C26.9588 38.8362 27.2646 38.8709 27.5726 38.8926C27.8806 38.9165 28.1886 38.9251 28.4988 38.9273C29.117 38.9273 29.7352 38.8883 30.3446 38.8037C30.954 38.7169 31.5568 38.5824 32.1332 38.3916C32.7096 38.1985 33.2684 37.9534 33.7678 37.6237L33.9526 37.4979L34.045 37.435L34.133 37.3656C34.2496 37.2723 34.3684 37.1834 34.4718 37.0793L34.6324 36.9275L34.7776 36.7605C34.8788 36.652 34.958 36.5305 35.046 36.4134L35.112 36.3266L35.1714 36.2355C35.211 36.1748 35.2506 36.1141 35.2924 36.0534C35.3738 35.9319 35.442 35.8039 35.5256 35.6803C35.6004 35.5523 35.673 35.4243 35.7632 35.2985C35.8402 35.1684 35.9216 35.0361 36.0294 34.9059L36.036 34.8973C36.0756 34.8495 36.1482 34.8409 36.1988 34.8821C36.223 34.9016 36.2384 34.932 36.2406 34.9602C36.256 35.1294 36.245 35.2942 36.2274 35.4612C36.1944 35.6239 36.157 35.7866 36.102 35.9449C36.0712 36.023 36.036 36.0989 36.003 36.1748C35.9678 36.2507 35.937 36.3288 35.8908 36.4004C35.849 36.472 35.805 36.5435 35.7588 36.6151L35.6906 36.7214L35.6114 36.8212C35.5058 36.9535 35.4024 37.0836 35.2814 37.2008L35.1076 37.383L34.9228 37.5521C34.6786 37.7821 34.4102 37.9794 34.1352 38.1638C33.5786 38.5282 32.9714 38.7972 32.3488 39.0032C31.7262 39.2093 31.0882 39.3503 30.4436 39.4414C29.799 39.5303 29.1522 39.5715 28.5032 39.5715C28.1798 39.5693 27.8542 39.5607 27.5308 39.5346C27.2074 39.5108 26.8818 39.4761 26.5584 39.4218C26.477 39.4088 26.3956 39.3936 26.3142 39.3785L26.1932 39.3546L26.07 39.3264C25.9072 39.2895 25.7422 39.2418 25.5684 39.1702C25.2274 39.0292 24.9326 38.8123 24.6884 38.5607C24.2 38.0532 23.8964 37.4112 23.7776 36.7344C23.661 36.0599 23.7512 35.3354 24.079 34.7129C24.2418 34.4027 24.464 34.1251 24.7192 33.8887L24.816 33.7997C24.8468 33.7694 24.8798 33.7412 24.915 33.7173L25.1218 33.5612C25.1922 33.5113 25.267 33.4701 25.3396 33.4245L25.4496 33.3573L25.564 33.2987C26.1712 32.9864 26.8268 32.8128 27.478 32.7217L27.9686 32.6675L28.4328 32.6241C28.5868 32.6068 28.7408 32.5873 28.8948 32.5677C29.0488 32.5461 29.2006 32.52 29.3524 32.4962C29.9596 32.3921 30.5558 32.2402 31.1256 32.0298C31.6932 31.8173 32.2322 31.5396 32.6876 31.1666C33.1452 30.7957 33.5126 30.3445 33.8096 29.8435C33.957 29.5919 34.0824 29.3251 34.2122 29.0539L34.4036 28.6375C34.4696 28.4965 34.5334 28.3534 34.6104 28.2124L34.6126 28.2102C34.6412 28.156 34.7094 28.1365 34.7644 28.1646C34.7952 28.1842 34.815 28.2189 34.8172 28.2557Z" fill="#371A45"/>
<path d="M36.2032 41.4499C36.2032 41.4499 34.6214 39.064 32.3488 39.7819C29.2776 40.7515 29.645 44.4388 29.645 44.4388L30.074 48.6662C30.074 48.6662 33.6974 49.9351 36.1284 49.3625C39.0412 48.6749 41.6944 46.6534 40.9266 40.1658" fill="white"/>
<path d="M34.6874 49.8331C32.4632 49.8331 30.0894 49.0132 29.9662 48.9698L29.7704 48.9026L29.3194 44.4735C29.3106 44.3932 29.1368 42.5192 30.1488 41.0226C30.2478 40.8751 30.4502 40.8339 30.602 40.9336C30.7516 41.0312 30.7934 41.2308 30.6922 41.3805C29.8122 42.684 29.9662 44.3954 29.9684 44.4127L30.3776 48.4319C31.1498 48.677 34.056 49.5251 36.0514 49.0544C38.3878 48.5035 41.4018 46.9874 40.6032 40.207C40.5834 40.0313 40.711 39.8708 40.8892 39.8513C41.0674 39.8318 41.2302 39.9576 41.25 40.1333C41.8968 45.6035 40.2446 48.7269 36.2032 49.6813C35.7302 49.7876 35.2132 49.8331 34.6874 49.8331Z" fill="#371A45"/>
<path d="M36.1658 41.4759C35.8028 41.0703 35.3826 40.7146 34.9294 40.4413C34.705 40.3024 34.4652 40.1918 34.2232 40.1072C33.9812 40.0226 33.7326 39.9749 33.484 39.9554C33.2376 39.9402 32.9912 39.9641 32.7514 40.0183C32.6304 40.0465 32.516 40.0812 32.3972 40.1268C32.2784 40.1701 32.1618 40.2179 32.0474 40.2721C31.592 40.4846 31.196 40.7861 30.8572 41.1549L30.855 41.157C30.734 41.2893 30.5272 41.298 30.393 41.1787C30.2698 41.0681 30.2522 40.8859 30.3446 40.7558C30.6922 40.2656 31.1982 39.8773 31.7526 39.6387C31.8912 39.5802 32.032 39.5259 32.1772 39.4826C32.3202 39.437 32.4742 39.4023 32.626 39.3785C32.78 39.3546 32.934 39.3416 33.0902 39.3459C33.2464 39.3459 33.4004 39.3611 33.5522 39.3828C33.8558 39.4327 34.1462 39.5303 34.4145 39.6583C34.6829 39.7884 34.9293 39.9511 35.1537 40.1333C35.2659 40.2244 35.3716 40.322 35.4728 40.4217C35.574 40.5215 35.6708 40.6256 35.761 40.7362C35.9414 40.9531 36.1063 41.1809 36.2405 41.4303C36.2537 41.452 36.245 41.4802 36.2208 41.4932C36.2032 41.4976 36.1812 41.4932 36.1658 41.4759Z" fill="#371A45"/>
<path d="M34.0098 48.6206C34.0098 48.6206 30.6966 50.2951 29.6252 50.1584C28.5538 50.0218 29.1456 38.988 29.1456 38.988C29.1456 38.988 31.4842 38.2701 32.4434 40.7015C32.8416 41.7101 32.4412 42.9508 32.6568 43.9941" fill="white"/>
<g opacity="0.35">
<g opacity="0.35">
<path opacity="0.35" d="M36.1306 49.3624C35.0328 49.6205 33.6952 49.5056 32.5534 49.2995C31.1674 49.0501 30.0762 48.6683 30.0762 48.6683L30.0366 48.2801C30.7362 48.1543 30.9342 45.3649 31.8054 45.764C32.0914 45.8942 32.6282 47.573 33.4818 47.0871C33.9702 46.8095 34.7182 45.4322 35.3188 45.5124C36.4628 45.6664 36.1768 47.3366 37.576 46.8919C40.0686 46.1002 40.8628 44.6904 40.898 39.9532C40.9068 40.0248 40.9156 40.0964 40.9244 40.1658C41.6944 46.6533 39.0412 48.6748 36.1306 49.3624Z" fill="#371A45"/>
</g>
</g>
<path d="M34.034 48.6684C33.4664 49.0393 32.8746 49.3668 32.2652 49.6661C31.9594 49.8158 31.6492 49.9546 31.3302 50.0826C31.0112 50.2127 30.6834 50.3233 30.3336 50.4101C30.1576 50.4513 29.9772 50.4882 29.7682 50.4925C29.7154 50.4947 29.6626 50.4925 29.6032 50.486L29.5812 50.4838C29.568 50.4817 29.5504 50.4795 29.535 50.4752C29.502 50.4687 29.4734 50.4578 29.4448 50.447C29.4162 50.4361 29.3942 50.4209 29.3678 50.4079C29.348 50.3949 29.326 50.3797 29.3084 50.3645C29.238 50.3038 29.194 50.2474 29.1588 50.1932C29.1258 50.1411 29.0972 50.0891 29.0752 50.0414C28.9872 49.8483 28.9432 49.6748 28.9036 49.4991C28.864 49.3256 28.8354 49.1542 28.8112 48.985C28.7188 48.304 28.6836 47.6337 28.666 46.9657C28.6484 46.2955 28.6484 45.6296 28.6484 44.9615L28.6704 42.9639C28.6968 41.6321 28.7232 40.3025 28.7848 38.9707L28.7958 38.7256L29.0356 38.654C29.0642 38.6454 29.0818 38.641 29.1016 38.6345L29.161 38.6193C29.2006 38.6106 29.238 38.602 29.2754 38.5955C29.3524 38.5803 29.4272 38.5694 29.5042 38.5586C29.656 38.5391 29.81 38.5304 29.964 38.5304C30.272 38.5326 30.5866 38.5716 30.8858 38.667C31.1872 38.7581 31.4754 38.9056 31.7284 39.0943C31.9814 39.283 32.1926 39.5195 32.3664 39.7711C32.5402 40.0227 32.6722 40.2981 32.7712 40.5649C32.868 40.8209 32.9604 41.105 33.0066 41.3978C33.0572 41.6906 33.0506 41.9856 33.0374 42.2568C33.0242 42.5279 33.0198 42.7947 33.0198 43.0723C33.0198 43.1027 32.9956 43.1265 32.9648 43.1265C32.9428 43.1265 32.923 43.1135 32.9142 43.094C32.802 42.8359 32.7294 42.5604 32.6744 42.285C32.6194 42.0095 32.5776 41.7557 32.4918 41.5193C32.4126 41.2785 32.3114 41.0465 32.1904 40.8014C32.0848 40.5606 31.966 40.3459 31.823 40.1485C31.5348 39.7537 31.1388 39.4696 30.6812 39.3394C30.5668 39.3047 30.448 39.2809 30.3292 39.2657C30.2082 39.2483 30.0872 39.2397 29.964 39.2397C29.8408 39.2397 29.7176 39.2483 29.5944 39.2635C29.5328 39.27 29.4734 39.2809 29.4118 39.2917C29.381 39.2982 29.3524 39.3026 29.3238 39.3091L29.282 39.3199L29.249 39.3286L29.4998 39.0097C29.4272 40.3307 29.3612 41.6559 29.3326 42.979L29.3128 43.9725C29.3084 44.3043 29.3106 44.634 29.3106 44.9659C29.3128 45.6274 29.3282 46.2868 29.359 46.9462C29.392 47.6034 29.4294 48.2606 29.5108 48.8983C29.5306 49.0566 29.5548 49.215 29.5856 49.3646C29.6164 49.5143 29.6538 49.6639 29.7 49.7767C29.711 49.8049 29.7242 49.8288 29.733 49.8461C29.7418 49.8635 29.7506 49.8722 29.744 49.8657C29.7418 49.8635 29.7374 49.8613 29.733 49.8592C29.7264 49.8548 29.722 49.8527 29.7132 49.8483C29.7044 49.844 29.6956 49.8418 29.6824 49.8396C29.678 49.8375 29.6692 49.8375 29.667 49.8375L29.678 49.8396C29.7044 49.844 29.733 49.8461 29.766 49.8461C29.8958 49.8483 30.0476 49.8288 30.2016 49.8028C30.5096 49.7485 30.8264 49.6574 31.141 49.5663C31.4556 49.4709 31.7724 49.3646 32.087 49.2583C32.7184 49.0414 33.3476 48.8072 33.9834 48.5794C34.012 48.5686 34.0428 48.5838 34.0538 48.612C34.0626 48.6293 34.0538 48.6554 34.034 48.6684Z" fill="#371A45"/>
<path d="M31.614 44.25C31.416 41.9704 32.3862 37.5391 28.2128 39.3025C25.7444 40.3458 25.6344 44.365 26.6266 47.7595C27.555 50.9306 30.8176 50.6269 31.6734 48.818C32.3576 47.3669 31.8186 46.6099 31.614 44.25Z" fill="#AFAFB2"/>
<g opacity="0.7">
<g opacity="0.7">
<path opacity="0.7" d="M31.9506 48.0068C31.878 47.3365 31.6888 46.5514 31.5854 45.3584C31.3874 43.0788 32.3554 38.6475 28.182 40.4109C26.8356 40.9792 26.191 42.4346 26.0436 44.1893C25.9864 41.9574 26.5914 39.9879 28.2106 39.3025C32.384 37.5391 31.4138 41.9704 31.6118 44.25C31.7768 46.1327 32.153 46.996 31.9506 48.0068Z" fill="white"/>
</g>
</g>
<g opacity="0.35">
<g opacity="0.35">
<path opacity="0.35" d="M31.6711 48.818C30.8153 50.627 27.5527 50.9328 26.6243 47.7596C26.4373 47.1197 26.2877 46.456 26.1887 45.7966C27.1787 48.7963 30.3445 48.4688 31.1849 46.6924C31.4049 46.2261 31.5985 45.8248 31.7525 45.4192C31.9769 46.9158 32.2299 47.6381 31.6711 48.818Z" fill="#371A45"/>
</g>
</g>
<path d="M26.3428 41.849C26.2306 41.849 26.1294 41.7709 26.1052 41.6581C26.0788 41.528 26.1624 41.4022 26.2944 41.374L31.4182 40.322C31.5502 40.2938 31.6778 40.3784 31.7064 40.5085C31.7328 40.6387 31.6492 40.7645 31.5172 40.7927L26.3934 41.8447C26.3758 41.8468 26.3604 41.849 26.3428 41.849Z" fill="#371A45"/>
<path d="M26.0414 44.0028C25.9248 44.0028 25.8214 43.9204 25.8016 43.8032C25.7796 43.6731 25.8676 43.5495 25.9996 43.5256L31.5414 42.5886C31.6734 42.5669 31.7988 42.6537 31.823 42.7838C31.845 42.9139 31.757 43.0376 31.625 43.0614L26.0832 43.9984C26.0678 44.0028 26.0546 44.0028 26.0414 44.0028Z" fill="#371A45"/>
<path d="M26.2174 46.2108C26.0986 46.2108 25.9952 46.1263 25.9776 46.007C25.9578 45.8768 26.048 45.7532 26.18 45.7337L31.6756 44.8964C31.8076 44.8769 31.933 44.9658 31.9528 45.096C31.9726 45.2261 31.8824 45.3497 31.7504 45.3693L26.2548 46.2065C26.2416 46.2087 26.2306 46.2108 26.2174 46.2108Z" fill="#371A45"/>
<path d="M26.7543 48.3799C26.6333 48.3799 26.5277 48.2909 26.5123 48.1695C26.4969 48.0372 26.5915 47.9179 26.7257 47.9027L31.9793 47.2802C32.1113 47.265 32.2345 47.3583 32.2499 47.4906C32.2653 47.6229 32.1707 47.7422 32.0365 47.7574L26.7829 48.3799C26.7719 48.3799 26.7631 48.3799 26.7543 48.3799Z" fill="#371A45"/>
<path d="M29.4206 50.4881C29.3436 50.4881 29.2666 50.486 29.1874 50.4795C27.841 50.3754 26.7652 49.3928 26.3142 47.8485C25.773 46.0005 25.5904 44.1394 25.7994 42.6059C26.048 40.7775 26.8378 39.5346 28.083 39.0075C29.3172 38.487 30.2324 38.4371 30.877 38.8601C31.9286 39.5476 31.9176 41.2894 31.9066 42.825C31.9022 43.3347 31.9 43.8184 31.9352 44.2219C31.9968 44.9398 32.0892 45.4994 32.1728 45.9961C32.3576 47.1197 32.4808 47.8615 31.966 48.9525C31.5238 49.8917 30.5184 50.4881 29.4206 50.4881ZM29.8386 39.2179C29.4382 39.2179 28.9366 39.3437 28.3382 39.5954C26.037 40.5671 25.9974 44.4626 26.9368 47.6706C27.3152 48.9655 28.1534 49.7572 29.2358 49.8396C30.14 49.909 31.0222 49.4318 31.3764 48.6814C31.8076 47.7682 31.7108 47.1761 31.5326 46.0981C31.449 45.5927 31.3544 45.0179 31.2906 44.2761C31.2532 43.8423 31.2554 43.3456 31.2598 42.8207C31.2686 41.4477 31.2796 39.8903 30.5206 39.3936C30.3402 39.2765 30.1114 39.2179 29.8386 39.2179Z" fill="#371A45"/>
<path d="M33.913 49.7181C33.8624 49.7181 33.814 49.703 33.77 49.6726C33.6622 49.5945 33.638 49.4448 33.7172 49.3364C35.3737 47.0915 35.3803 44.9897 35.0922 43.6232C34.694 41.7231 33.55 40.3068 32.8658 39.9098C32.7492 39.8426 32.7118 39.6951 32.78 39.5823C32.8482 39.4674 32.9978 39.4305 33.1122 39.4977C34.001 40.014 35.1626 41.6038 35.5674 43.5278C35.8754 44.9897 35.8709 47.2346 34.1088 49.6205C34.0626 49.6856 33.9878 49.7181 33.913 49.7181Z" fill="#371A45"/>
<path d="M33.3343 38.4935C33.3145 38.4935 33.2947 38.4913 33.2749 38.487C33.1451 38.4545 33.0659 38.3243 33.0967 38.1964C33.9195 34.932 31.1585 32.5179 31.1299 32.494C31.0287 32.4073 31.0177 32.2554 31.1057 32.1557C31.1937 32.0559 31.3477 32.045 31.4489 32.1318C31.5721 32.2381 34.4651 34.7585 33.5697 38.3135C33.5433 38.4198 33.4443 38.4935 33.3343 38.4935Z" fill="#371A45"/>
<path d="M63.6294 23.3364C63.1494 23.1504 63.0054 22.8204 63.1974 22.3464L67.4814 11.7984C67.6614 11.4024 67.9434 11.2044 68.3274 11.2044H68.3634C68.7534 11.2224 69.0174 11.4204 69.1554 11.7984L73.5114 22.3464C73.7034 22.8204 73.5654 23.1504 73.0974 23.3364C72.6234 23.5224 72.2934 23.3844 72.1074 22.9224L71.1354 20.5644H65.5284L64.6014 22.9224C64.4154 23.3904 64.0914 23.5284 63.6294 23.3364ZM66.1224 19.0524H70.5144L68.2734 13.5984L66.1224 19.0524ZM78.6997 23.4084C77.6737 23.4084 76.8727 23.2014 76.2967 22.7874C75.7267 22.3734 75.3697 21.7344 75.2257 20.8704C75.2017 20.6064 75.2557 20.4084 75.3877 20.2764C75.5197 20.1444 75.7117 20.0784 75.9637 20.0784C76.2157 20.0784 76.3987 20.1384 76.5127 20.2584C76.6327 20.3784 76.7137 20.5644 76.7557 20.8164C76.8457 21.2304 77.0377 21.5154 77.3317 21.6714C77.6317 21.8214 78.0877 21.8964 78.6997 21.8964H81.2917C82.0657 21.8964 82.5907 21.7584 82.8667 21.4824C83.1487 21.2004 83.2897 20.6784 83.2897 19.9164C83.2897 19.1424 83.1457 18.6144 82.8577 18.3324C82.5697 18.0444 82.0477 17.9004 81.2917 17.9004H79.0597C77.9257 17.9004 77.0827 17.6244 76.5307 17.0724C75.9847 16.5144 75.7117 15.6684 75.7117 14.5344C75.7117 13.4064 75.9817 12.5694 76.5217 12.0234C77.0677 11.4774 77.9077 11.2044 79.0417 11.2044H81.1837C82.1377 11.2044 82.8847 11.3994 83.4247 11.7894C83.9707 12.1794 84.3157 12.7764 84.4597 13.5804C84.4957 13.8384 84.4477 14.0364 84.3157 14.1744C84.1837 14.3064 83.9857 14.3724 83.7217 14.3724C83.4817 14.3724 83.3017 14.3094 83.1817 14.1834C83.0617 14.0574 82.9837 13.8744 82.9477 13.6344C82.8517 13.2804 82.6687 13.0404 82.3987 12.9144C82.1287 12.7824 81.7237 12.7164 81.1837 12.7164H79.0417C78.3217 12.7164 77.8387 12.8454 77.5927 13.1034C77.3467 13.3554 77.2237 13.8324 77.2237 14.5344C77.2237 15.2424 77.3497 15.7284 77.6017 15.9924C77.8537 16.2564 78.3397 16.3884 79.0597 16.3884H81.2917C82.4737 16.3884 83.3527 16.6764 83.9287 17.2524C84.5107 17.8284 84.8017 18.7164 84.8017 19.9164C84.8017 21.1104 84.5137 21.9924 83.9377 22.5624C83.3617 23.1264 82.4797 23.4084 81.2917 23.4084H78.6997ZM90.8691 23.4084C90.6171 23.4084 90.4281 23.3454 90.3021 23.2194C90.1761 23.0934 90.1131 22.9044 90.1131 22.6524V12.7344H86.6211C86.3691 12.7344 86.1801 12.6714 86.0541 12.5454C85.9281 12.4194 85.8651 12.2304 85.8651 11.9784C85.8651 11.7264 85.9281 11.5374 86.0541 11.4114C86.1801 11.2854 86.3691 11.2224 86.6211 11.2224H95.1171C95.3691 11.2224 95.5581 11.2854 95.6841 11.4114C95.8101 11.5374 95.8731 11.7264 95.8731 11.9784C95.8731 12.2304 95.8101 12.4194 95.6841 12.5454C95.5581 12.6714 95.3691 12.7344 95.1171 12.7344H91.6251V22.6524C91.6251 22.8924 91.5591 23.0784 91.4271 23.2104C91.3011 23.3424 91.1151 23.4084 90.8691 23.4084ZM106.12 23.4444C105.922 23.5704 105.733 23.6094 105.553 23.5614C105.373 23.5134 105.22 23.3904 105.094 23.1924L102.304 18.5484H99.7838V22.6524C99.7838 23.1564 99.5318 23.4084 99.0278 23.4084C98.5238 23.4084 98.2718 23.1564 98.2718 22.6524V11.9604C98.2718 11.4564 98.5238 11.2044 99.0278 11.2044H103.24C104.338 11.2044 105.178 11.4984 105.76 12.0864C106.348 12.6684 106.642 13.5084 106.642 14.6064V15.1464C106.642 16.1004 106.42 16.8624 105.976 17.4324C105.532 17.9964 104.89 18.3474 104.05 18.4854L106.408 22.4184C106.636 22.8384 106.54 23.1804 106.12 23.4444ZM99.7838 17.0364H103.24C103.924 17.0364 104.41 16.8924 104.698 16.6044C104.986 16.3164 105.13 15.8304 105.13 15.1464V14.6064C105.13 13.9284 104.986 13.4454 104.698 13.1574C104.41 12.8634 103.924 12.7164 103.24 12.7164H99.7838V17.0364ZM113.122 23.4084C111.748 23.4084 110.731 23.0814 110.071 22.4274C109.417 21.7674 109.09 20.7504 109.09 19.3764V15.2184C109.09 13.8324 109.42 12.8154 110.08 12.1674C110.74 11.5134 111.754 11.1924 113.122 11.2044H115.282C116.662 11.2044 117.679 11.5314 118.333 12.1854C118.987 12.8394 119.314 13.8564 119.314 15.2364V19.3764C119.314 20.7504 118.987 21.7674 118.333 22.4274C117.679 23.0814 116.662 23.4084 115.282 23.4084H113.122ZM113.122 21.8964H115.282C115.924 21.8964 116.428 21.8214 116.794 21.6714C117.16 21.5154 117.418 21.2544 117.568 20.8884C117.724 20.5224 117.802 20.0184 117.802 19.3764V15.2364C117.802 14.6004 117.724 14.0994 117.568 13.7334C117.418 13.3674 117.16 13.1064 116.794 12.9504C116.428 12.7944 115.924 12.7164 115.282 12.7164H113.122C112.486 12.7104 111.985 12.7824 111.619 12.9324C111.253 13.0824 110.992 13.3404 110.836 13.7064C110.68 14.0724 110.602 14.5764 110.602 15.2184V19.3764C110.602 20.0184 110.677 20.5224 110.827 20.8884C110.983 21.2544 111.244 21.5154 111.61 21.6714C111.976 21.8214 112.48 21.8964 113.122 21.8964ZM64.9614 44.4084C64.4574 44.4084 64.2054 44.1564 64.2054 43.6524V32.9604C64.2054 32.4564 64.4574 32.2044 64.9614 32.2044H69.6594C70.6134 32.2044 71.3454 32.4564 71.8554 32.9604C72.3714 33.4644 72.6294 34.1844 72.6294 35.1204V35.6064C72.6294 36.4164 72.3744 37.0434 71.8644 37.4874C72.8184 38.0214 73.2954 38.9964 73.2954 40.4124V41.0244C73.2954 42.1284 73.0014 42.9684 72.4134 43.5444C71.8314 44.1204 70.9914 44.4084 69.8934 44.4084H64.9614ZM65.7174 42.8964H69.8934C70.5714 42.8964 71.0544 42.7524 71.3424 42.4644C71.6364 42.1704 71.7834 41.6904 71.7834 41.0244V40.4124C71.7834 39.7464 71.6424 39.2724 71.3604 38.9904C71.0784 38.7024 70.5894 38.5584 69.8934 38.5584H65.7174V42.8964ZM65.7174 37.0464H69.9834C70.4214 37.0464 70.7184 36.9114 70.8744 36.6414C71.0364 36.3714 71.1174 36.0264 71.1174 35.6064V35.1204C71.1174 34.5984 71.0094 34.2354 70.7934 34.0314C70.5774 33.8214 70.1994 33.7164 69.6594 33.7164H65.7174V37.0464ZM80.2587 44.4084C78.8847 44.4084 77.8677 44.0814 77.2077 43.4274C76.5537 42.7674 76.2267 41.7504 76.2267 40.3764V32.9604C76.2267 32.7084 76.2897 32.5194 76.4157 32.3934C76.5417 32.2674 76.7307 32.2044 76.9827 32.2044C77.2347 32.2044 77.4237 32.2674 77.5497 32.3934C77.6757 32.5194 77.7387 32.7084 77.7387 32.9604V40.3764C77.7387 41.0184 77.8137 41.5224 77.9637 41.8884C78.1197 42.2544 78.3807 42.5154 78.7467 42.6714C79.1127 42.8214 79.6167 42.8964 80.2587 42.8964H82.4187C83.0607 42.8964 83.5647 42.8214 83.9307 42.6714C84.2967 42.5154 84.5547 42.2544 84.7047 41.8884C84.8607 41.5224 84.9387 41.0184 84.9387 40.3764V32.9604C84.9387 32.7084 85.0017 32.5194 85.1277 32.3934C85.2537 32.2674 85.4427 32.2044 85.6947 32.2044C85.9467 32.2044 86.1357 32.2674 86.2617 32.3934C86.3877 32.5194 86.4507 32.7084 86.4507 32.9604V40.3764C86.4507 41.7504 86.1237 42.7674 85.4697 43.4274C84.8157 44.0814 83.7987 44.4084 82.4187 44.4084H80.2587ZM97.946 44.4444C97.748 44.5704 97.559 44.6094 97.379 44.5614C97.199 44.5134 97.046 44.3904 96.92 44.1924L94.13 39.5484H91.61V43.6524C91.61 44.1564 91.358 44.4084 90.854 44.4084C90.35 44.4084 90.098 44.1564 90.098 43.6524V32.9604C90.098 32.4564 90.35 32.2044 90.854 32.2044H95.066C96.164 32.2044 97.004 32.4984 97.586 33.0864C98.174 33.6684 98.468 34.5084 98.468 35.6064V36.1464C98.468 37.1004 98.246 37.8624 97.802 38.4324C97.358 38.9964 96.716 39.3474 95.876 39.4854L98.234 43.4184C98.462 43.8384 98.366 44.1804 97.946 44.4444ZM91.61 38.0364H95.066C95.75 38.0364 96.236 37.8924 96.524 37.6044C96.812 37.3164 96.956 36.8304 96.956 36.1464V35.6064C96.956 34.9284 96.812 34.4454 96.524 34.1574C96.236 33.8634 95.75 33.7164 95.066 33.7164H91.61V38.0364ZM104.948 44.4084C103.574 44.4084 102.557 44.0814 101.897 43.4274C101.243 42.7674 100.916 41.7504 100.916 40.3764V36.2364C100.916 34.8504 101.243 33.8304 101.897 33.1764C102.551 32.5164 103.562 32.1924 104.93 32.2044H107.108C108.236 32.2044 109.097 32.4384 109.691 32.9064C110.285 33.3684 110.63 34.1004 110.726 35.1024C110.762 35.3544 110.714 35.5464 110.582 35.6784C110.45 35.8104 110.258 35.8764 110.006 35.8764C109.55 35.8764 109.286 35.6244 109.214 35.1204C109.154 34.5684 108.962 34.1964 108.638 34.0044C108.32 33.8124 107.81 33.7164 107.108 33.7164H104.93C104.294 33.7104 103.793 33.7824 103.427 33.9324C103.067 34.0824 102.809 34.3434 102.653 34.7154C102.503 35.0814 102.428 35.5884 102.428 36.2364V40.3764C102.428 41.0184 102.503 41.5224 102.653 41.8884C102.809 42.2544 103.07 42.5154 103.436 42.6714C103.802 42.8214 104.306 42.8964 104.948 42.8964H107.108C107.666 42.8964 108.101 42.8364 108.413 42.7164C108.731 42.5904 108.953 42.3714 109.079 42.0594C109.205 41.7474 109.268 41.3064 109.268 40.7364V39.8904L107.864 39.8724C107.36 39.8724 107.108 39.6204 107.108 39.1164C107.108 38.6124 107.36 38.3604 107.864 38.3604L110.024 38.3784C110.528 38.3784 110.78 38.6304 110.78 39.1344V40.7364C110.78 42.0144 110.483 42.9474 109.889 43.5354C109.295 44.1174 108.368 44.4084 107.108 44.4084H104.948ZM114.672 44.4084C114.168 44.4084 113.916 44.1564 113.916 43.6524V32.9604C113.916 32.4564 114.168 32.2044 114.672 32.2044H121.134C121.638 32.2044 121.89 32.4564 121.89 32.9604C121.89 33.4644 121.638 33.7164 121.134 33.7164H115.428V37.4964H119.01C119.514 37.4964 119.766 37.7484 119.766 38.2524C119.766 38.7564 119.514 39.0084 119.01 39.0084H115.428V42.8964H121.134C121.638 42.8964 121.89 43.1484 121.89 43.6524C121.89 44.1564 121.638 44.4084 121.134 44.4084H114.672ZM132.61 44.4444C132.412 44.5704 132.223 44.6094 132.043 44.5614C131.863 44.5134 131.71 44.3904 131.584 44.1924L128.794 39.5484H126.274V43.6524C126.274 44.1564 126.022 44.4084 125.518 44.4084C125.014 44.4084 124.762 44.1564 124.762 43.6524V32.9604C124.762 32.4564 125.014 32.2044 125.518 32.2044H129.73C130.828 32.2044 131.668 32.4984 132.25 33.0864C132.838 33.6684 133.132 34.5084 133.132 35.6064V36.1464C133.132 37.1004 132.91 37.8624 132.466 38.4324C132.022 38.9964 131.38 39.3474 130.54 39.4854L132.898 43.4184C133.126 43.8384 133.03 44.1804 132.61 44.4444ZM126.274 38.0364H129.73C130.414 38.0364 130.9 37.8924 131.188 37.6044C131.476 37.3164 131.62 36.8304 131.62 36.1464V35.6064C131.62 34.9284 131.476 34.4454 131.188 34.1574C130.9 33.8634 130.414 33.7164 129.73 33.7164H126.274V38.0364ZM139.063 44.4084C138.037 44.4084 137.236 44.2014 136.66 43.7874C136.09 43.3734 135.733 42.7344 135.589 41.8704C135.565 41.6064 135.619 41.4084 135.751 41.2764C135.883 41.1444 136.075 41.0784 136.327 41.0784C136.579 41.0784 136.762 41.1384 136.876 41.2584C136.996 41.3784 137.077 41.5644 137.119 41.8164C137.209 42.2304 137.401 42.5154 137.695 42.6714C137.995 42.8214 138.451 42.8964 139.063 42.8964H141.655C142.429 42.8964 142.954 42.7584 143.23 42.4824C143.512 42.2004 143.653 41.6784 143.653 40.9164C143.653 40.1424 143.509 39.6144 143.221 39.3324C142.933 39.0444 142.411 38.9004 141.655 38.9004H139.423C138.289 38.9004 137.446 38.6244 136.894 38.0724C136.348 37.5144 136.075 36.6684 136.075 35.5344C136.075 34.4064 136.345 33.5694 136.885 33.0234C137.431 32.4774 138.271 32.2044 139.405 32.2044H141.547C142.501 32.2044 143.248 32.3994 143.788 32.7894C144.334 33.1794 144.679 33.7764 144.823 34.5804C144.859 34.8384 144.811 35.0364 144.679 35.1744C144.547 35.3064 144.349 35.3724 144.085 35.3724C143.845 35.3724 143.665 35.3094 143.545 35.1834C143.425 35.0574 143.347 34.8744 143.311 34.6344C143.215 34.2804 143.032 34.0404 142.762 33.9144C142.492 33.7824 142.087 33.7164 141.547 33.7164H139.405C138.685 33.7164 138.202 33.8454 137.956 34.1034C137.71 34.3554 137.587 34.8324 137.587 35.5344C137.587 36.2424 137.713 36.7284 137.965 36.9924C138.217 37.2564 138.703 37.3884 139.423 37.3884H141.655C142.837 37.3884 143.716 37.6764 144.292 38.2524C144.874 38.8284 145.165 39.7164 145.165 40.9164C145.165 42.1104 144.877 42.9924 144.301 43.5624C143.725 44.1264 142.843 44.4084 141.655 44.4084H139.063Z" fill="#EDF2F4"/>
<defs>
<linearGradient id="paint0_linear_219_5154" x1="8.16119" y1="46.1791" x2="46.3013" y2="7.49414" gradientUnits="userSpaceOnUse">
<stop stop-color="#F9ED32"/>
<stop offset="1" stop-color="#F7941D"/>
</linearGradient>
</defs>
</svg>
