<svg width="116" height="110" viewBox="0 0 116 110" fill="none" xmlns="http://www.w3.org/2000/svg">
<path d="M104.5 33H5.5C5.5 33 5.5 0 55 0C104.5 0 104.5 33 104.5 33ZM62.425 77H5.5V82.5C5.5 91.63 12.87 99 22 99H62.425C61.215 95.535 60.5 91.85 60.5 88C60.5 84.15 61.215 80.465 62.425 77ZM109.23 59.015C109.883 57.3482 110.12 55.5472 109.92 53.7681C109.719 51.9891 109.088 50.2859 108.08 48.8064C107.072 47.3269 105.718 46.1157 104.135 45.2781C102.553 44.4405 100.79 44.0018 99 44H49.5L35.75 55L22 44H11C4.95 44 0 48.95 0 55C0 61.05 4.95 66 11 66H68.97C75.02 59.29 83.765 55 93.5 55C99.22 55 104.5 56.43 109.23 59.015ZM99 82.5V66H88V82.5H71.5V93.5H88V110H99V93.5H115.5V82.5H99Z" fill="white"/>
</svg>
