<svg width="110" height="110" viewBox="0 0 110 110" fill="none" xmlns="http://www.w3.org/2000/svg">
<path d="M55 110C85.3256 110 110 85.3256 110 55C110 24.6744 85.3256 0 55 0C24.6744 0 0 24.6744 0 55C0 85.3256 24.6744 110 55 110ZM55 3.4375C83.4316 3.4375 106.562 26.5684 106.562 55C106.562 83.4316 83.4316 106.562 55 106.562C26.5684 106.562 3.4375 83.4316 3.4375 55C3.4375 26.5684 26.5684 3.4375 55 3.4375Z" fill="white"/>
<path d="M68.9597 74.8275C69.1189 74.9884 69.3084 75.1161 69.5173 75.2033C69.7261 75.2904 69.9502 75.3353 70.1766 75.3353C70.4029 75.3353 70.627 75.2904 70.8359 75.2033C71.0447 75.1161 71.2342 74.9884 71.3934 74.8275C71.7156 74.5052 71.8967 74.0681 71.8967 73.6123C71.8967 73.1566 71.7156 72.7195 71.3934 72.3972L55 56.0072V32.0341C55 31.5782 54.8189 31.141 54.4966 30.8187C54.1743 30.4964 53.7371 30.3153 53.2812 30.3153C52.8254 30.3153 52.3882 30.4964 52.0659 30.8187C51.7436 31.141 51.5625 31.5782 51.5625 32.0341V56.7187C51.5625 57.1759 51.7447 57.6125 52.0644 57.9356L68.9597 74.8275Z" fill="white"/>
<path d="M13.75 58.4375C15.6485 58.4375 17.1875 56.8985 17.1875 55C17.1875 53.1015 15.6485 51.5625 13.75 51.5625C11.8515 51.5625 10.3125 53.1015 10.3125 55C10.3125 56.8985 11.8515 58.4375 13.75 58.4375Z" fill="white"/>
<path d="M96.25 58.4375C98.1485 58.4375 99.6875 56.8985 99.6875 55C99.6875 53.1015 98.1485 51.5625 96.25 51.5625C94.3515 51.5625 92.8125 53.1015 92.8125 55C92.8125 56.8985 94.3515 58.4375 96.25 58.4375Z" fill="white"/>
<path d="M55 17.1875C56.8985 17.1875 58.4375 15.6485 58.4375 13.75C58.4375 11.8515 56.8985 10.3125 55 10.3125C53.1015 10.3125 51.5625 11.8515 51.5625 13.75C51.5625 15.6485 53.1015 17.1875 55 17.1875Z" fill="white"/>
<path d="M55 99.6875C56.8985 99.6875 58.4375 98.1485 58.4375 96.25C58.4375 94.3515 56.8985 92.8125 55 92.8125C53.1015 92.8125 51.5625 94.3515 51.5625 96.25C51.5625 98.1485 53.1015 99.6875 55 99.6875Z" fill="white"/>
<path d="M27.5 30.9375C29.3985 30.9375 30.9375 29.3985 30.9375 27.5C30.9375 25.6015 29.3985 24.0625 27.5 24.0625C25.6015 24.0625 24.0625 25.6015 24.0625 27.5C24.0625 29.3985 25.6015 30.9375 27.5 30.9375Z" fill="white"/>
<path d="M82.5 85.9375C84.3985 85.9375 85.9375 84.3985 85.9375 82.5C85.9375 80.6015 84.3985 79.0625 82.5 79.0625C80.6015 79.0625 79.0625 80.6015 79.0625 82.5C79.0625 84.3985 80.6015 85.9375 82.5 85.9375Z" fill="white"/>
<path d="M85.9375 30.9375C87.836 30.9375 89.375 29.3985 89.375 27.5C89.375 25.6015 87.836 24.0625 85.9375 24.0625C84.039 24.0625 82.5 25.6015 82.5 27.5C82.5 29.3985 84.039 30.9375 85.9375 30.9375Z" fill="white"/>
<path d="M27.5 85.9375C29.3985 85.9375 30.9375 84.3985 30.9375 82.5C30.9375 80.6015 29.3985 79.0625 27.5 79.0625C25.6015 79.0625 24.0625 80.6015 24.0625 82.5C24.0625 84.3985 25.6015 85.9375 27.5 85.9375Z" fill="white"/>
</svg>
