<svg width="119" height="110" viewBox="0 0 119 110" fill="none" xmlns="http://www.w3.org/2000/svg">
<path d="M32.9854 44.3343H29.1794C23.9855 44.1466 18.8085 45.0283 13.9696 46.9247C9.13069 48.8212 4.73317 51.6918 1.04993 55.3586L0 56.5835V92.8062H17.8488V72.245L20.2549 69.5327L21.3486 68.264C27.0442 62.4128 34.1349 58.1072 41.9535 55.7523C38.039 52.7737 34.9517 48.8431 32.9854 44.3343Z" fill="white"/>
<path d="M117.592 55.2272C113.909 51.5605 109.512 48.6898 104.673 46.7934C99.8337 44.897 94.6567 44.0153 89.4629 44.203C87.8699 44.2075 86.2783 44.2951 84.6944 44.4655C82.6912 48.6954 79.6883 52.374 75.945 55.1835C84.2919 57.4927 91.8531 62.0295 97.8186 68.3077L98.9123 69.5326L101.275 72.2449V92.8498H118.511V56.4522L117.592 55.2272Z" fill="white"/>
<path d="M29.0481 35.8034H30.4042C29.7741 30.393 30.7235 24.9158 33.1377 20.033C35.5519 15.1502 39.3278 11.0705 44.0096 8.28646C42.3125 5.69378 39.9712 3.5863 37.2148 2.17037C34.4585 0.754452 31.3817 0.0786381 28.2857 0.209106C25.1897 0.339574 22.1807 1.27185 19.5533 2.91465C16.9259 4.55745 14.7701 6.85445 13.2972 9.58072C11.8242 12.307 11.0845 15.3691 11.1505 18.4671C11.2166 21.5651 12.0861 24.5929 13.6738 27.2539C15.2616 29.915 17.5133 32.118 20.2083 33.6474C22.9033 35.1767 25.9494 35.98 29.0481 35.9784V35.8034Z" fill="white"/>
<path d="M87.363 32.5225C87.4162 33.528 87.4162 34.5356 87.363 35.5411C88.2025 35.6741 89.0505 35.7472 89.9004 35.7598H90.7316C93.8167 35.5953 96.8066 34.6348 99.4103 32.9717C102.014 31.3086 104.143 28.9997 105.589 26.2698C107.036 23.5398 107.751 20.4819 107.664 17.3936C107.578 14.3053 106.694 11.2919 105.098 8.64686C103.501 6.00181 101.247 3.81519 98.5546 2.2999C95.8622 0.784612 92.8233 -0.00771532 89.7338 5.66298e-05C86.6444 0.00782858 83.6095 0.815436 80.9248 2.34425C78.2401 3.87307 75.997 6.071 74.4139 8.72405C78.3734 11.3092 81.6292 14.8369 83.8892 18.9905C86.1493 23.1441 87.3429 27.7938 87.363 32.5225Z" fill="white"/>
<path d="M58.6649 52.1212C69.4649 52.1212 78.2199 43.3661 78.2199 32.5662C78.2199 21.7663 69.4649 13.0112 58.6649 13.0112C47.865 13.0112 39.11 21.7663 39.11 32.5662C39.11 43.3661 47.865 52.1212 58.6649 52.1212Z" fill="white"/>
<path d="M59.7148 62.5331C54.0017 62.3024 48.3009 63.23 42.9555 65.2599C37.6101 67.2898 32.7306 70.3801 28.6106 74.3448L27.5169 75.5698V103.262C27.534 104.164 27.7286 105.054 28.0896 105.88C28.4507 106.707 28.9711 107.455 29.6211 108.08C30.2711 108.706 31.0379 109.197 31.8779 109.527C32.7179 109.856 33.6145 110.016 34.5165 109.999H84.782C85.684 110.016 86.5806 109.856 87.4205 109.527C88.2605 109.197 89.0274 108.706 89.6774 108.08C90.3274 107.455 90.8478 106.707 91.2088 105.88C91.5698 105.054 91.7644 104.164 91.7815 103.262V75.6573L90.7316 74.3448C86.6383 70.3679 81.7758 67.2688 76.4423 65.2378C71.1088 63.2067 65.4167 62.2863 59.7148 62.5331Z" fill="white"/>
</svg>
