<?xml version="1.0" encoding="utf-8"?>
<!-- Generator: Adobe Illustrator 24.0.0, SVG Export Plug-In . SVG Version: 6.00 Build 0)  -->
<svg version="1.1" xmlns="http://www.w3.org/2000/svg" xmlns:xlink="http://www.w3.org/1999/xlink" x="0px" y="0px"
	 viewBox="0 0 200 248.02" style="enable-background:new 0 0 200 248.02;" xml:space="preserve">
<style type="text/css">
	.st0{fill:#E2988F;}
	.st1{fill:#C46966;}
	.st2{fill:#4C224B;}
	.st3{fill:#B73D49;}
	.st4{fill:#FFFFFF;}
	.st5{fill:#6C82BC;}
</style>
<g id="BACKGROUND">
</g>
<g id="OBJECTS">
	<g>
		<g>
			<rect x="69.05" y="115.23" class="st0" width="61.91" height="69.92"/>
			<g>
				<path class="st0" d="M160.63,66.15c-3.41-8.17-10.39-4.16-10.39-4.16C154.27,24.87,135.39,0.37,100,0.37
					s-54.27,24.5-50.24,61.62c0,0-6.98-4.01-10.39,4.16s2.82,27.32,6.68,33.4c3.86,6.09,10.69,10.69,10.69,10.69
					s0.45,6.83,2.23,11.58c1.78,4.75,21.97,26.59,27.91,29.93c7.79,4.58,19.25,4.58,26.24,0c5.94-3.34,26.13-25.18,27.91-29.93
					c1.78-4.75,2.23-11.58,2.23-11.58s6.83-4.6,10.69-10.69C157.81,93.46,164.04,74.31,160.63,66.15z"/>
				<g>
					<path class="st1" d="M100.31,155.96c-4.86,0-9.83-1.17-13.83-3.52c-3.59-2.02-11.86-10.29-18.02-17.12l1.17-1.05
						c6.27,6.95,14.33,14.96,17.63,16.81c7.53,4.43,18.7,4.44,25.43,0.03c3.35-1.88,11.41-9.89,17.68-16.84l1.17,1.05
						c-6.15,6.83-14.42,15.1-18.03,17.13C109.93,154.78,105.18,155.96,100.31,155.96z"/>
					
						<rect x="54.98" y="94.26" transform="matrix(0.9925 -0.1224 0.1224 0.9925 -12.0965 7.592)" class="st1" width="1.57" height="16.04"/>
					
						<rect x="136.2" y="101.49" transform="matrix(0.1106 -0.9939 0.9939 0.1106 26.6136 234.2961)" class="st1" width="16.02" height="1.57"/>
					<g>
						<path class="st1" d="M43.93,84.5c-0.33-1.2-3.11-11.84,0.73-14.75c1.27-0.83,2.3-0.74,2.96-0.53
							c1.95,0.63,2.93,3.05,3.04,3.32l-1.47,0.56c-0.21-0.55-1-2.05-2.06-2.39c-0.48-0.16-1-0.05-1.57,0.32
							c-2.21,1.68-1.25,8.9-0.12,13.05L43.93,84.5z"/>
						<path class="st1" d="M156.07,84.5l-1.51-0.42c1.13-4.15,2.1-11.37-0.16-13.08c-0.53-0.34-1.04-0.45-1.53-0.29
							c-1.26,0.41-2.04,2.37-2.05,2.39l-1.47-0.56c0.11-0.27,1.08-2.69,3.04-3.32c0.66-0.21,1.69-0.3,2.91,0.5
							C159.18,72.66,156.4,83.3,156.07,84.5z"/>
					</g>
				</g>
				<g>
					<path class="st2" d="M54.78,81.51c10.5,0.05,2.56-33.84,10.8-42.04c4.19-4.17,10.3-3.49,15.54-2.15
						c6.11,1.56,12.41,3.66,18.85,3.83c6.82,0.18,13.29-2.32,19.83-3.9c5.07-1.23,10.59-1.77,14.61,2.23
						c8.24,8.2,0.3,42.1,10.8,42.04c-0.73-7.84-0.75-16.42,5.02-19.52l0.01-0.01C154.26,24.87,135.39,0.37,100,0.37
						c-35.39,0-54.27,24.5-50.24,61.62v0C54.45,65.03,55.52,73.32,54.78,81.51z"/>
				</g>
			</g>
			<path class="st3" d="M200,191.42c-33.04-14.74-69.05-19.97-69.05-19.97c-16.52,17.23-47.3,17.47-61.9,0
				c0,0-36.01,5.23-69.05,19.97c20.53,33.71,57.64,56.23,100,56.23C142.36,247.65,179.47,225.13,200,191.42z"/>
			<polygon class="st4" points="60.68,172.65 69.05,157.64 96.13,181.95 79.56,200.11 			"/>
			<polygon class="st4" points="139.28,172.65 130.92,157.64 103.84,181.95 120.41,200.11 			"/>
		</g>
	</g>
</g>
</svg>
