<?xml version="1.0" encoding="utf-8"?>
<!-- Generator: Adobe Illustrator 24.0.0, SVG Export Plug-In . SVG Version: 6.00 Build 0)  -->
<svg version="1.1" xmlns="http://www.w3.org/2000/svg" xmlns:xlink="http://www.w3.org/1999/xlink" x="0px" y="0px"
	 viewBox="0 0 200 236.62" style="enable-background:new 0 0 200 236.62;" xml:space="preserve">
<style type="text/css">
	.st0{fill:#E2988F;}
	.st1{fill:#C46966;}
	.st2{fill:#4C224B;}
	.st3{fill:#B73D49;}
	.st4{fill:#FFFFFF;}
	.st5{fill:#6C82BC;}
</style>
<g id="BACKGROUND">
</g>
<g id="OBJECTS">
	<g>
		<g>
			<path class="st2" d="M167.98,111.84c8.17-47.56-11.42-108.03-65.27-111.47c-17.18-1.1-33.97,5.21-42.64,17.39
				c-29.72,11.71-32.22,63.91-28.9,81.87c9.1,49.25-34.8,40.77-23.65,87.01l91.75-5.05h3.52l90.12,1.16
				C200.51,147.86,164.28,150.22,167.98,111.84z"/>
			<rect x="73.61" y="105.89" class="st0" width="54.12" height="69.04"/>
			<g>
				<path class="st5" d="M200,180.16c-25.47-10.7-71.95-18.76-71.95-18.76c-17.85,15.01-40.4,14.92-54.44,0
					c0,0-47.05,6.97-73.61,16.27c18.98,33.72,54.38,56.95,95.36,58.82c1.84,0.06,3.67,0.13,5.52,0.13
					C143.03,236.56,179.87,213.92,200,180.16z"/>
			</g>
			<g>
				<path class="st4" d="M148.57,97.55c-2.02,0-3.65,2.91-3.65,6.5c0,3.59,1.63,6.5,3.65,6.5c2.02,0,3.65-2.91,3.65-6.5
					C152.22,100.46,150.59,97.55,148.57,97.55z M148.57,107.71c-1.39,0-2.51-2-2.51-4.47c0-2.47,1.13-4.47,2.51-4.47
					c1.39,0,2.51,2,2.51,4.47C151.08,105.7,149.96,107.71,148.57,107.71z"/>
				<path class="st4" d="M48.94,104.05c0,3.59,1.64,6.5,3.65,6.5c2.02,0,3.65-2.91,3.65-6.5c0-3.59-1.63-6.5-3.65-6.5
					C50.58,97.55,48.94,100.46,48.94,104.05z M50.08,103.23c0-2.47,1.12-4.47,2.51-4.47c1.39,0,2.51,2,2.51,4.47
					c0,2.47-1.13,4.47-2.51,4.47C51.2,107.71,50.08,105.7,50.08,103.23z"/>
				<g>
					<path class="st0" d="M100.61,22.29L100.61,22.29L100.61,22.29L100.61,22.29L100.61,22.29c-34.88,0.04-42.82,26.17-42.09,52.47
						c0,18.97-0.11,32.94,1.64,37.63c1.76,4.69,13.99,32.89,40.44,32.94l0,0l0,0l0,0l0,0c26.46-0.05,38.69-28.26,40.44-32.94
						c1.76-4.69,1.65-18.66,1.65-37.63C143.42,48.46,135.49,22.33,100.61,22.29z"/>
				</g>
				<g>
					<path class="st1" d="M100.61,146.11c-10.37-0.02-19.73-4.23-27.81-12.53l1.11-1.08c7.78,7.98,16.76,12.04,26.7,12.06
						c9.77-0.02,18.62-3.95,26.32-11.68l1.1,1.1C120.03,142.01,110.81,146.09,100.61,146.11z"/>
				</g>
				<path class="st0" d="M60.05,73.86c0,0-7.01-10.32-14.22-4.29c-7.21,6.04-0.19,40.32,14.22,34.28
					C74.46,97.82,60.05,73.86,60.05,73.86z"/>
				<path class="st0" d="M141.29,73.86c0,0,7.01-10.32,14.22-4.29c7.21,6.04,0.19,40.32-14.22,34.28
					C126.88,97.82,141.29,73.86,141.29,73.86z"/>
				
					<rect x="57.74" y="93.16" transform="matrix(0.9973 -0.074 0.074 0.9973 -7.144 4.6007)" class="st1" width="1.55" height="11.11"/>
				
					<rect x="136.65" y="97.33" transform="matrix(0.0743 -0.9972 0.9972 0.0743 34.3549 233.2157)" class="st1" width="12.29" height="1.55"/>
				<path class="st1" d="M49.42,87.32c-1.65-5.5-1.67-9.33-0.04-11.37c1.21-1.52,2.87-1.43,2.93-1.43l-0.1,1.55l0.05-0.77
					l-0.04,0.78c-0.04,0-0.95-0.03-1.65,0.87c-0.71,0.92-1.61,3.43,0.34,9.93L49.42,87.32z"/>
				<path class="st1" d="M152.51,87.32l-1.49-0.45c1.95-6.49,1.05-9,0.34-9.93c-0.7-0.9-1.61-0.87-1.65-0.87l-0.09-1.55
					c0.06,0,1.72-0.09,2.93,1.43C154.18,77.99,154.16,81.82,152.51,87.32z"/>
				<path class="st4" d="M55.66,105.75c-0.25-0.01-0.51-0.03-0.75-0.09c-0.07-0.02-0.12-0.07-0.18-0.1
					c-0.44,1.28-1.23,2.15-2.14,2.15c-1.39,0-2.51-2-2.51-4.47c0-2.46,1.11-4.45,2.49-4.47c0.83-0.1,0.61-1.24,0-1.21
					c-2.01,0.02-3.63,2.92-3.63,6.5c0,3.59,1.63,6.5,3.65,6.5c1.69,0,3.09-2.04,3.51-4.81C55.96,105.75,55.81,105.75,55.66,105.75z"
					/>
				<path class="st4" d="M148.59,97.56c-0.61-0.03-0.83,1.11,0,1.21c1.38,0.02,2.49,2.01,2.49,4.47c0,2.47-1.12,4.47-2.51,4.47
					c-0.77,0-1.45-0.65-1.91-1.63c-0.13,0.1-0.26,0.21-0.4,0.3c-0.31,0.19-0.63,0.37-0.94,0.55c0.59,2.14,1.82,3.63,3.25,3.63
					c2.02,0,3.65-2.91,3.65-6.5C152.22,100.48,150.6,97.58,148.59,97.56z"/>
				<path class="st2" d="M58.29,71.75c-0.32-18.48,13.47-28.08,13.47-28.08c12.42,21.77,46.65,29.17,77.91,18.36
					c0,0-3.04-52.3-51.88-49.23C48.94,15.87,58.29,71.75,58.29,71.75z"/>
			</g>
		</g>
	</g>
</g>
</svg>
