<svg width="49" height="49" viewBox="0 0 49 49" fill="none" xmlns="http://www.w3.org/2000/svg">
<path d="M0 24.0708C0 10.7769 10.7769 0 24.0708 0V0C37.3647 0 48.1416 10.7769 48.1416 24.0708V24.0708C48.1416 37.3647 37.3647 48.1416 24.0708 48.1416V48.1416C10.7769 48.1416 0 37.3647 0 24.0708V24.0708Z" fill="#D90429"/>
<path d="M24.0708 18.6802C21.0708 18.6802 18.6802 21.1177 18.6802 24.0708C18.6802 27.0708 21.0708 29.4614 24.0708 29.4614C27.0239 29.4614 29.4614 27.0708 29.4614 24.0708C29.4614 21.1177 27.0239 18.6802 24.0708 18.6802ZM24.0708 27.5864C22.1489 27.5864 20.5552 26.0396 20.5552 24.0708C20.5552 22.1489 22.1021 20.6021 24.0708 20.6021C25.9927 20.6021 27.5396 22.1489 27.5396 24.0708C27.5396 26.0396 25.9927 27.5864 24.0708 27.5864ZM30.9146 18.4927C30.9146 17.7896 30.3521 17.2271 29.6489 17.2271C28.9458 17.2271 28.3833 17.7896 28.3833 18.4927C28.3833 19.1958 28.9458 19.7583 29.6489 19.7583C30.3521 19.7583 30.9146 19.1958 30.9146 18.4927ZM34.4771 19.7583C34.3833 18.0708 34.0083 16.5708 32.7896 15.3521C31.5708 14.1333 30.0708 13.7583 28.3833 13.6646C26.6489 13.5708 21.4458 13.5708 19.7114 13.6646C18.0239 13.7583 16.5708 14.1333 15.3052 15.3521C14.0864 16.5708 13.7114 18.0708 13.6177 19.7583C13.5239 21.4927 13.5239 26.6958 13.6177 28.4302C13.7114 30.1177 14.0864 31.5708 15.3052 32.8364C16.5708 34.0552 18.0239 34.4302 19.7114 34.5239C21.4458 34.6177 26.6489 34.6177 28.3833 34.5239C30.0708 34.4302 31.5708 34.0552 32.7896 32.8364C34.0083 31.5708 34.3833 30.1177 34.4771 28.4302C34.5708 26.6958 34.5708 21.4927 34.4771 19.7583ZM32.2271 30.2583C31.8989 31.1958 31.1489 31.8989 30.2583 32.2739C28.8521 32.8364 25.5708 32.6958 24.0708 32.6958C22.5239 32.6958 19.2427 32.8364 17.8833 32.2739C16.9458 31.8989 16.2427 31.1958 15.8677 30.2583C15.3052 28.8989 15.4458 25.6177 15.4458 24.0708C15.4458 22.5708 15.3052 19.2896 15.8677 17.8833C16.2427 16.9927 16.9458 16.2896 17.8833 15.9146C19.2427 15.3521 22.5239 15.4927 24.0708 15.4927C25.5708 15.4927 28.8521 15.3521 30.2583 15.9146C31.1489 16.2427 31.8521 16.9927 32.2271 17.8833C32.7896 19.2896 32.6489 22.5708 32.6489 24.0708C32.6489 25.6177 32.7896 28.8989 32.2271 30.2583Z" fill="white"/>
</svg>
