<svg width="49" height="49" viewBox="0 0 49 49" fill="none" xmlns="http://www.w3.org/2000/svg">
<path d="M0 24.0708C0 10.7769 10.7769 0 24.0708 0V0C37.3647 0 48.1416 10.7769 48.1416 24.0708V24.0708C48.1416 37.3647 37.3647 48.1416 24.0708 48.1416V48.1416C10.7769 48.1416 0 37.3647 0 24.0708V24.0708Z" fill="#D90429"/>
<path d="M18.2583 33.0708V19.0552H13.8989V33.0708H18.2583ZM16.0552 17.1802C17.4614 17.1802 18.5864 16.0083 18.5864 14.6021C18.5864 13.2427 17.4614 12.1177 16.0552 12.1177C14.6958 12.1177 13.5708 13.2427 13.5708 14.6021C13.5708 16.0083 14.6958 17.1802 16.0552 17.1802ZM34.5239 33.0708H34.5708V25.3833C34.5708 21.6333 33.7271 18.7271 29.3208 18.7271C27.2114 18.7271 25.8052 19.8989 25.1958 20.9771H25.1489V19.0552H20.9771V33.0708H25.3364V26.1333C25.3364 24.3052 25.6646 22.5708 27.9146 22.5708C30.1646 22.5708 30.2114 24.6333 30.2114 26.2739V33.0708H34.5239Z" fill="white"/>
</svg>
