<svg width="49" height="49" viewBox="0 0 49 49" fill="none" xmlns="http://www.w3.org/2000/svg">
<path d="M0 24.0708C0 10.7769 10.7769 0 24.0708 0V0C37.3647 0 48.1416 10.7769 48.1416 24.0708V24.0708C48.1416 37.3647 37.3647 48.1416 24.0708 48.1416V48.1416C10.7769 48.1416 0 37.3647 0 24.0708V24.0708Z" fill="#D90429"/>
<path d="M30.3989 16.9458H28.5708V22.1021H30.3989V16.9458ZM25.4302 16.8989H23.6021V22.0552H25.4302V16.8989ZM17.6958 12.0708L13.1958 16.3833V31.8052H18.6333V36.0708L23.1333 31.8052H26.7427L34.8989 24.0708V12.0708H17.6958ZM33.1177 23.2271L29.4614 26.6489H25.8521L22.7114 29.6489V26.6489H18.6333V13.8052H33.1177V23.2271Z" fill="white"/>
</svg>
