<svg width="49" height="49" viewBox="0 0 49 49" fill="none" xmlns="http://www.w3.org/2000/svg">
<path d="M0 24.0708C0 10.7769 10.7769 0 24.0708 0V0C37.3647 0 48.1416 10.7769 48.1416 24.0708V24.0708C48.1416 37.3647 37.3647 48.1416 24.0708 48.1416V48.1416C10.7769 48.1416 0 37.3647 0 24.0708V24.0708Z" fill="#D90429"/>
<path d="M36.3052 17.9302C36.0239 16.8052 35.1333 15.9146 34.0552 15.6333C32.0396 15.0708 24.0708 15.0708 24.0708 15.0708C24.0708 15.0708 16.0552 15.0708 14.0396 15.6333C12.9614 15.9146 12.0708 16.8052 11.7896 17.9302C11.2271 19.8989 11.2271 24.1177 11.2271 24.1177C11.2271 24.1177 11.2271 28.2896 11.7896 30.3052C12.0708 31.4302 12.9614 32.2739 14.0396 32.5552C16.0552 33.0708 24.0708 33.0708 24.0708 33.0708C24.0708 33.0708 32.0396 33.0708 34.0552 32.5552C35.1333 32.2739 36.0239 31.4302 36.3052 30.3052C36.8677 28.2896 36.8677 24.1177 36.8677 24.1177C36.8677 24.1177 36.8677 19.8989 36.3052 17.9302ZM21.4458 27.9146V20.3208L28.1021 24.1177L21.4458 27.9146Z" fill="white"/>
</svg>
