<svg width="60" height="65" viewBox="0 0 60 65" fill="none" xmlns="http://www.w3.org/2000/svg">
<path d="M58.7796 37.1766C58.7796 36.1701 58.5512 35.0842 58.0285 33.9876C58.1562 33.5315 58.248 33.0712 58.3178 32.6098C58.5472 32.4628 58.7717 32.2825 58.9722 32.0432C60.3088 30.4412 59.83 27.324 59.426 25.6082C59.3843 25.4371 59.3212 25.2728 59.2385 25.1199C59.3612 24.6349 59.426 24.1285 59.426 23.5994C59.427 10.7465 46.1939 0.291901 29.9263 0.291901C13.6587 0.291901 0.425619 10.7465 0.425619 23.5994C0.425619 24.1274 0.491456 24.6349 0.613153 25.1199C0.531185 25.272 0.468452 25.4351 0.426617 25.605C0.0226205 27.3197 -0.45619 30.4315 0.874504 32.0314C1.00618 32.8888 1.22763 33.7504 1.56479 34.6035C1.24816 35.4186 1.08182 36.2922 1.07501 37.1756C1.07501 37.9954 1.14683 38.7905 1.2775 39.5674C0.774352 40.8326 0.513132 42.1937 0.509411 43.5698C0.510409 53.1982 5.61373 64.6744 29.9263 64.6744C54.2389 64.6744 59.3422 53.1982 59.3422 43.5709C59.3385 42.1953 59.0777 40.8345 58.5751 39.5695C58.7068 38.7926 58.7796 37.9964 58.7796 37.1766ZM57.432 23.5994C57.432 29.0172 46.3785 32.657 29.9263 32.657C13.4742 32.657 2.42066 29.0162 2.42066 23.5994C2.42066 11.8926 14.76 2.36931 29.9263 2.36931C45.0926 2.36931 57.432 11.8926 57.432 23.5994ZM29.9263 62.597C11.7305 62.597 2.50445 56.1963 2.50445 43.5709C2.50445 43.455 2.50645 43.338 2.51144 43.2222C6.21823 51.2024 15.4194 55.2424 29.9273 55.2424C44.4343 55.2424 53.6334 51.2034 57.3412 43.2254C57.3452 43.3402 57.3472 43.4561 57.3472 43.5709C57.3472 56.1974 48.1221 62.597 29.9263 62.597ZM57.3093 36.5672L57.2983 36.5446L57.2494 36.7388C54.8514 43.1149 47.3211 47.5283 32.6326 48.0058L27.7787 53.1253C27.635 53.122 27.4844 53.122 27.3417 53.1177L21.998 47.6356C10.749 46.3801 4.72693 42.3337 2.61518 36.7861L2.55433 36.5457L2.53638 36.5865C2.51443 36.5253 2.4865 36.4674 2.46555 36.4062C4.04762 39.0716 6.78582 41.5783 11.0782 43.5441C14.4458 45.0871 17.4324 45.688 20.0229 45.6086L15.8852 41.3636C14.5801 41.0028 13.3028 40.5343 12.0647 39.9623C10.5921 39.2966 9.18269 38.4794 7.85616 37.5222C8.18135 37.6466 8.52151 37.7314 8.89358 37.7314C9.68761 37.7314 10.4557 37.4406 11.133 37.1831C11.3385 37.1058 11.6318 36.9942 11.8652 36.9234C11.9689 37.1198 12.0847 37.3623 12.1724 37.549C12.6692 38.5963 13.3475 40.0277 14.775 40.4698C15.0333 40.5481 15.3037 40.5889 15.58 40.5889C16.6204 40.5889 17.5172 40.0299 18.3082 39.5373C18.4957 39.4193 18.7451 39.2648 18.9496 39.1543C19.0823 39.3292 19.2319 39.5491 19.3466 39.7176C19.986 40.6511 20.8618 41.9302 22.3073 42.133C22.4319 42.1513 22.5546 42.1588 22.6783 42.1588C23.9133 42.1588 24.8898 41.3272 25.6749 40.6576C25.8405 40.5159 26.0569 40.3303 26.2395 40.1908C26.3941 40.3475 26.5727 40.5449 26.7103 40.6973C27.4984 41.5697 28.4799 42.6577 29.9273 42.6577C31.3747 42.6577 32.3553 41.5707 33.1443 40.6973C33.282 40.5449 33.4595 40.3475 33.6152 40.1908C33.7987 40.3303 34.0142 40.5159 34.1798 40.6565C34.9638 41.3261 35.9414 42.1588 37.1763 42.1588C37.299 42.1588 37.4237 42.1502 37.5454 42.1341C37.8755 42.0871 38.196 41.9816 38.494 41.8218L36.1339 44.3124C38.6995 44.9551 41.8128 44.9841 45.5166 44.1139C52.8554 42.3905 56.5961 38.5383 57.9108 34.3578C57.7749 35.1128 57.5735 35.8525 57.3093 36.5672ZM3.63165 33.142L3.76532 33.1431C3.99475 33.1431 4.23416 33.1334 4.47556 33.1259C4.67506 33.1173 4.87556 33.1087 5.07208 33.1087C5.17283 33.1087 5.25462 33.112 5.32146 33.1152C5.38131 33.3309 5.44315 33.6066 5.49004 33.8169C5.66959 34.6142 5.90301 35.6078 6.45863 36.4083C5.28455 35.3707 4.34588 34.2741 3.63165 33.142ZM39.1464 41.3626C39.701 40.8819 40.132 40.2638 40.508 39.7155C40.6247 39.547 40.7754 39.327 40.907 39.1521C41.1105 39.2637 41.3579 39.4171 41.5465 39.5352C42.3365 40.0288 43.2313 40.5868 44.2727 40.5868C44.548 40.5868 44.8193 40.546 45.0777 40.4677C46.5051 40.0256 47.1845 38.5931 47.6802 37.5458C47.769 37.3591 47.8837 37.1176 47.9875 36.9223C48.2209 36.9921 48.5151 37.1047 48.7196 37.182C49.3979 37.4385 50.165 37.7303 50.9601 37.7303C51.1805 37.7303 51.389 37.6971 51.5945 37.6531C49.7152 38.9504 47.3191 40.017 44.3106 40.723C42.6146 41.1291 40.8838 41.3434 39.1464 41.3626ZM53.6993 35.8954C54.0414 35.2098 54.218 34.4543 54.3606 33.8212C54.4075 33.612 54.4693 33.3352 54.5282 33.1205C54.594 33.1162 54.6748 33.1141 54.7726 33.1141C54.9701 33.1141 55.1726 33.1227 55.3741 33.1291C55.5068 33.1345 55.6345 33.1356 55.7651 33.1399C55.1997 34.1578 54.5043 35.0854 53.6993 35.8954ZM57.5327 30.6558C57.2445 31.0002 56.7048 31.071 56.0913 31.071C55.6684 31.071 55.2085 31.0378 54.7746 31.0378C54.1851 31.0378 53.6374 31.0989 53.2743 31.3844C52.3516 32.1108 52.583 34.905 51.4668 35.536C51.3182 35.6186 51.1486 35.654 50.9611 35.654C50.0224 35.654 48.6718 34.7773 47.6772 34.7762C47.5136 34.7727 47.3508 34.8026 47.1974 34.8642C46.1141 35.3214 45.7341 38.1037 44.542 38.4718C44.4547 38.4983 44.3644 38.5113 44.2737 38.5104C43.2243 38.5104 41.7849 36.9416 40.6876 36.9416C40.6128 36.9416 40.54 36.9492 40.4671 36.9642C39.314 37.2153 38.515 39.8989 37.295 40.0717C37.2561 40.076 37.2152 40.0792 37.1763 40.0792C36.0461 40.0792 34.7005 37.9503 33.5314 37.9503L33.4685 37.9524C32.2835 38.0329 31.1523 40.5782 29.9283 40.5782C28.7034 40.5782 27.5742 38.0329 26.3891 37.9524C26.3679 37.9512 26.3466 37.9505 26.3253 37.9503C25.1562 37.9503 23.8095 40.0792 22.6803 40.0792C22.6407 40.0794 22.601 40.0769 22.5616 40.0717C21.3417 39.8989 20.5456 37.2153 19.3895 36.9642C19.3169 36.9485 19.2431 36.9409 19.1691 36.9416C18.0718 36.9416 16.6314 38.5104 15.581 38.5104C15.4903 38.5113 15.3999 38.4983 15.3126 38.4718C14.1196 38.1027 13.7395 35.3192 12.6552 34.8642C12.5019 34.8027 12.3391 34.7728 12.1754 34.7762C11.1819 34.7762 9.83325 35.6529 8.89458 35.6529C8.70705 35.6529 8.53547 35.6175 8.38584 35.5338C7.27061 34.9007 7.49905 32.1065 6.57933 31.3822C6.21324 31.0936 5.66361 31.0335 5.07307 31.0335C4.64015 31.0335 4.18528 31.0667 3.76532 31.0667C3.14885 31.0667 2.6072 30.997 2.31892 30.6493C1.86405 30.1042 1.89497 28.837 2.02066 27.78C6.28207 32.8276 18.4209 34.7333 29.9273 34.7333C41.4347 34.7333 53.5726 32.8276 57.833 27.78C57.9587 28.8391 57.9886 30.1085 57.5327 30.6558Z" fill="#EDF2F4"/>
</svg>
