<svg width="59" height="54" viewBox="0 0 59 54" fill="none" xmlns="http://www.w3.org/2000/svg">
<path d="M16.5165 0.883308C15.6197 1.28061 15.4381 1.84819 15.4381 4.24337V6.17313H14.4732C13.531 6.17313 13.5083 6.16179 13.5083 5.9007C13.5083 5.5715 13.0997 4.96987 12.6797 4.65203C12.3845 4.43635 12.2029 4.41364 10.8407 4.41364C9.18339 4.41364 9.00176 4.4704 8.46824 5.1969C8.24121 5.49204 8.22986 5.69637 8.1731 9.5559L8.11634 13.6084L7.18551 10.5094C6.66334 8.8067 6.16387 7.29694 6.06171 7.13802C5.86873 6.83153 5.05142 6.40017 4.68817 6.40017C4.29087 6.40017 2.13407 7.08126 1.80487 7.31964C1.48703 7.54667 1.13513 8.27317 1.13513 8.70453C1.13513 8.84075 1.92974 11.5878 2.89462 14.789C3.85951 17.9901 4.65412 20.635 4.65412 20.6577C4.65412 20.6804 3.8141 20.7031 2.78111 20.7031C0.703773 20.7031 0.170249 20.8167 0.0567338 21.2934C0.0226791 21.441 0.805937 28.5357 1.80487 37.0494C2.81516 45.5744 3.63248 52.6124 3.63248 52.6918C3.63248 52.7713 3.75734 52.9643 3.91626 53.1118L4.1887 53.3956H17.1635C27.9362 53.3956 30.32 53.3616 31.2168 53.2254C36.2228 52.4648 40.5478 48.5372 41.8986 43.5198C42.0575 42.9295 42.1597 42.0781 42.2278 40.7386C42.3526 38.1391 42.6137 37.1515 43.624 35.5964C43.8965 35.1764 44.4981 34.4272 44.9749 33.9277C45.9284 32.9061 46.1327 32.5655 46.2462 31.8163C46.3143 31.3282 46.4506 31.1806 49.243 28.3995C52.5009 25.1529 52.5464 25.1189 53.7042 25.3686C55.3956 25.7319 57.0983 24.8919 57.8135 23.3253C58.1994 22.508 58.1654 21.1912 57.7454 20.3399C57.3708 19.5907 56.6216 18.8642 55.9064 18.6031C55.5091 18.4442 55.3842 18.3307 55.2367 17.9334C54.8507 16.9117 53.9653 16.1739 52.762 15.8674C51.5815 15.5609 50.4236 15.8787 49.5155 16.7641C48.5733 17.6723 48.2441 18.7393 48.4711 20.0788C48.6982 21.4183 48.7322 21.3729 45.4176 24.7102C42.7273 27.4119 42.4775 27.6276 42.1143 27.6276C41.4672 27.6389 40.8315 28.0135 39.7191 29.0352C38.811 29.8979 37.5282 30.806 37.2331 30.806C37.1763 30.806 36.9834 30.9422 36.7904 31.1012C36.325 31.4871 36.3023 32.0433 36.7336 32.3839C37.1309 32.6904 37.3466 32.679 38.0618 32.3271C39.1175 31.7936 39.7758 31.3168 40.8429 30.3066C42.2618 28.9898 42.364 28.9898 43.624 30.2271C44.8613 31.4417 44.8727 31.5779 43.6581 32.8607C41.4332 35.2218 40.7067 37.0153 40.5251 40.5684C40.4456 42.237 40.3888 42.7025 40.1277 43.5198C38.6974 48.015 34.5314 51.3864 30.0816 51.6588C26.3924 51.8859 23.3047 49.7064 22.3966 46.2441C22.1469 45.2906 22.1469 43.2814 22.3966 42.2484C23.0323 39.6262 24.6215 37.2197 26.8237 35.5623C28.6286 34.2001 30.6038 33.4509 32.6698 33.3374C33.5892 33.2807 33.8957 33.2239 34.1228 33.0536C34.4974 32.7585 34.4974 32.1909 34.1114 31.8277C33.8503 31.5779 33.7822 31.5666 32.613 31.6347C24.4853 32.0774 18.3554 40.9089 21.216 48.049C21.5906 48.9912 22.3853 50.1377 23.2253 50.955L23.9972 51.6929H16.4257C12.2597 51.6929 8.85419 51.6588 8.85419 51.6248C8.85419 51.5907 8.28662 45.0863 7.60552 37.1742C6.91308 29.2736 6.35685 22.7124 6.35685 22.5988C6.35685 22.4286 6.52712 22.4059 8.09364 22.4059H9.81908L10.1937 23.121C11.2948 25.2665 13.5197 27.0033 15.9376 27.6276C17.0614 27.9114 18.9457 27.9341 20.1263 27.673C21.2387 27.4346 23.055 26.5265 23.9177 25.7886C24.7918 25.0508 25.6659 23.961 26.1199 23.0756L26.4491 22.4059H28.1518C29.0827 22.4059 29.8659 22.4399 29.8886 22.4853C29.9227 22.5421 29.8205 24.0064 29.6616 25.7546C29.514 27.5027 29.4232 29.0465 29.4573 29.1941C29.6048 29.7844 30.6832 29.8638 30.967 29.2963C31.0351 29.16 31.2054 27.7979 31.3303 26.2654C31.4552 24.7329 31.5914 23.2459 31.6254 22.9394L31.6935 22.4059H33.0217C33.7595 22.4059 34.3839 22.4286 34.4066 22.4626C34.4406 22.4853 34.293 23.9043 34.0887 25.607C33.8957 27.3097 33.7255 28.8081 33.7141 28.9444C33.7141 29.319 34.1228 29.6709 34.5655 29.6709C34.9628 29.6709 35.4168 29.353 35.4168 29.0692C35.4168 29.0011 35.5985 27.4233 35.8142 25.5843C36.325 21.3388 36.325 21.3388 36.0071 21.021C35.8142 20.828 35.5871 20.7599 34.9287 20.7145L34.1001 20.6464L35.9504 16.3895C37.8574 11.9851 37.9709 11.5992 37.6418 10.9635C37.3693 10.4527 36.9834 10.1689 35.8823 9.69212C33.8617 8.81805 33.226 9.11319 32.2838 11.3835L31.8411 12.4392L31.7843 9.96456C31.7276 7.59208 31.7162 7.45586 31.4552 7.03585C31.0465 6.38882 30.4903 6.17313 29.1508 6.17313H28.0383V4.96987C28.0383 3.92553 28.0043 3.69849 27.7886 3.35795C27.414 2.74496 26.8464 2.54063 25.3934 2.54063C23.6907 2.54063 23.1004 2.85848 22.8053 3.92553L22.6917 4.35688H21.7382H20.7733V3.18768C20.7733 1.79143 20.6031 1.37143 19.8652 0.985474C19.4338 0.758442 19.2182 0.724384 18.1171 0.724384C17.3225 0.735737 16.7322 0.792496 16.5165 0.883308ZM19.0706 8.1029V13.7673L18.7414 13.9376C18.2533 14.1987 18.083 14.5392 17.6403 16.1852C17.4133 17.0139 17.2089 17.7177 17.1862 17.7404C17.1635 17.7631 17.1408 14.3349 17.1408 10.1121V2.42712H18.1057H19.0706V8.1029ZM26.3356 12.4619V20.6691L25.9042 20.7485C25.3821 20.828 25.2004 21.0096 24.7804 21.895L24.4626 22.5761L24.4285 13.5517C24.4172 8.59102 24.4285 4.45905 24.4626 4.37959C24.4966 4.28878 24.8031 4.24337 25.4275 4.24337H26.3356V12.4619ZM11.8056 14.2554C11.8056 22.8599 11.8056 22.8032 11.3515 21.6113C11.1472 21.0664 10.9315 20.8394 10.5569 20.7599C10.2845 20.7031 10.2164 20.601 10.0575 20.0334C9.89854 19.4658 9.87583 18.5123 9.87583 12.723V6.05962H10.8407H11.8056V14.2554ZM22.7031 10.3959C22.7031 14.6982 22.7031 14.7209 22.4761 14.5165C22.3512 14.403 21.9312 14.2327 21.5452 14.1192L20.8301 13.9263L20.796 9.98726L20.7733 6.05962H21.7382H22.7031V10.3959ZM15.4381 16.0944C15.4381 24.1427 15.3813 25.4708 15.0748 25.4708C14.9159 25.4708 14.2802 25.1302 13.8829 24.8237L13.5083 24.5513V16.2079V7.87587H14.4732H15.4381V16.0944ZM30.0589 12.2122L30.0816 16.4804L29.1848 18.5577C28.6854 19.7042 28.22 20.6577 28.1632 20.6804C28.027 20.7258 27.9816 8.0802 28.1178 7.94398C28.1632 7.89857 28.6059 7.88722 29.1167 7.89857L30.0249 7.93263L30.0589 12.2122ZM6.58388 14.403C7.59417 17.7744 8.44554 20.5783 8.47959 20.6237C8.51365 20.6691 8.05958 20.6918 7.49201 20.6804L6.44766 20.6464L4.64276 14.6982C3.65518 11.4176 2.87192 8.71589 2.90598 8.68183C3.03084 8.55696 4.59736 8.1256 4.66547 8.20507C4.71087 8.23912 5.57359 11.0316 6.58388 14.403ZM35.2579 11.2927C35.6893 11.4743 36.0525 11.6559 36.0752 11.6673C36.0979 11.7013 32.8854 19.2274 32.3406 20.3853C32.2044 20.7031 32.1817 20.7031 31.16 20.7031H30.1157L32.2157 15.822C33.3736 13.1316 34.3612 10.9408 34.4066 10.9408C34.452 10.9408 34.8379 11.0997 35.2579 11.2927ZM20.7166 15.663C21.0912 15.7652 21.4204 15.8674 21.4317 15.8787C21.4658 15.9128 19.4452 23.5864 18.8776 25.5503L18.7187 26.1519H17.8106C17.1976 26.1519 16.8911 26.1065 16.857 26.0043C16.8116 25.9021 19.3203 16.2533 19.5814 15.5041C19.6155 15.4247 19.729 15.3793 19.8312 15.4133C19.9447 15.4474 20.342 15.5495 20.7166 15.663ZM53.0231 17.8085C53.4658 18.0923 53.8064 18.6826 53.8064 19.1593C53.8064 19.5793 54.2377 19.9653 54.7713 20.0561C55.7134 20.215 56.4059 20.9869 56.4172 21.895C56.4172 22.4626 55.9632 23.2232 55.4524 23.5183C55.055 23.7454 54.9188 23.7681 54.2604 23.6999C51.9107 23.4275 51.7404 23.5297 48.2782 26.9805L45.5197 29.7163L44.8386 29.0465L44.1576 28.3768L46.8706 25.6411C49.7539 22.7464 50.0944 22.2924 50.242 21.1685C50.2874 20.828 50.2647 20.3172 50.1739 19.9199C50.0717 19.4091 50.0604 19.1593 50.1625 18.8528C50.5939 17.5701 51.922 17.082 53.0231 17.8085ZM22.4534 24.801C22.1015 25.0962 20.7847 25.7432 20.7052 25.6638C20.6712 25.6297 21.0912 23.9156 21.6474 21.8496L22.6463 18.1036L22.6804 21.3388L22.7031 24.5854L22.4534 24.801ZM4.59736 22.5421C4.62006 22.6215 5.18764 28.9444 5.84603 36.5953C6.50442 44.2463 7.072 50.7734 7.10605 51.0913L7.17416 51.6929H6.19793C5.60765 51.6929 5.22169 51.6475 5.22169 51.5794C5.22169 51.5113 4.46114 44.9501 3.51896 36.9926C2.57678 29.0352 1.81623 22.4967 1.81623 22.4626C1.81623 22.4286 2.42921 22.4059 3.17841 22.4059C4.17735 22.4059 4.5633 22.4399 4.59736 22.5421Z" fill="#EDF2F4"/>
</svg>
