<svg width="49" height="59" viewBox="0 0 49 59" fill="none" xmlns="http://www.w3.org/2000/svg">
<path d="M24.2167 0C18.9956 0 14.5494 3.34917 12.8639 8.02298C8.21429 9.70604 4.84333 14.1425 4.84333 19.3733C4.84333 19.5259 4.83365 19.676 4.84333 19.8286C2.04389 20.8384 0 23.5071 0 26.6383C0 30.622 3.28136 33.9033 7.265 33.9033H8.17313L18.6178 54.4875C18.6347 54.5262 18.6735 54.5262 18.6904 54.5626C19.7172 56.7106 21.8362 58.12 24.2167 58.12C26.5972 58.12 28.721 56.7106 29.7405 54.5626H29.818C29.8252 54.5432 29.8083 54.5069 29.818 54.4875L40.2602 33.9033H41.1683C45.152 33.9033 48.4333 30.622 48.4333 26.6383C48.4333 23.4587 46.3047 20.8021 43.4374 19.8262C43.0959 17.8227 42.2596 15.9362 41.0045 14.3378C39.7494 12.7393 38.1151 11.4794 36.2499 10.6723C35.521 4.68835 30.3847 0 24.2167 0ZM24.2167 4.84333C27.4133 4.84333 30.1207 6.84847 31.1039 9.68667C25.4469 9.86587 20.7077 13.99 19.601 19.3733H9.68667C9.68667 15.3727 12.9511 12.1083 16.9517 12.1083C17.6225 12.1083 18.2957 12.2415 18.9205 12.411C19.986 10.9919 21.2283 9.69635 22.7031 8.70347C21.4527 8.04116 20.0951 7.60502 18.6928 7.41514C19.3683 6.60727 20.2134 5.95804 21.1681 5.51356C22.1228 5.06908 23.1636 4.84025 24.2167 4.84333ZM31.4817 14.53C34.6783 14.53 37.3857 16.5351 38.3689 19.3733H24.5944C25.0949 17.9492 26.0276 16.7169 27.2624 15.8486C28.4971 14.9803 29.9722 14.5193 31.4817 14.53ZM7.265 24.2167H41.1683C42.539 24.2167 43.59 25.2677 43.59 26.6383C43.59 28.009 42.539 29.06 41.1683 29.06H16.0435L18.5403 33.9033H34.8115L25.5026 52.3685L25.4275 52.4436V52.5211C25.3223 52.7522 25.1514 52.9471 24.936 53.0815C24.7206 53.2159 24.4704 53.2838 24.2167 53.2767C23.9626 53.2835 23.7122 53.2153 23.4968 53.0805C23.2814 52.9456 23.1106 52.7502 23.0058 52.5187V52.446L22.9308 52.3685L11.8807 30.421L11.2002 29.06H7.265C5.89434 29.06 4.84333 28.009 4.84333 26.6383C4.84333 25.2677 5.89434 24.2167 7.265 24.2167Z" fill="white"/>
</svg>
