<svg width="51" height="59" viewBox="0 0 51 59" fill="none" xmlns="http://www.w3.org/2000/svg">
<path d="M49.6422 6.31189C47.5538 1.17022 41.6207 -1.33475 36.388 0.715912C32.397 2.28224 29.9734 6.04745 29.9715 10.0258H21.0404L17.7208 6.76426C15.2536 4.33872 11.2501 4.33775 8.78193 6.76426L0 15.3912L1.34063 16.7086L10.1226 8.08068C11.8507 6.3826 14.652 6.38357 16.3801 8.08068L18.3591 10.0258H16.1109C20.6423 20.5571 6.86591 39.6311 22.8925 42.8364C22.8818 42.8412 22.8692 42.8461 22.8789 42.85C27.7775 44.5471 27.5159 48.5951 25.9167 52.4058C24.2225 56.4423 20.1647 57.1785 20.127 57.2017C20.0068 57.2714 19.9361 57.4923 19.9536 57.7219C19.9758 57.9505 20.0795 58.12 20.2044 58.12H36.2901C36.4141 58.12 36.5197 57.9505 36.5391 57.7219C36.5594 57.4923 36.4848 57.2714 36.3657 57.2017C36.3269 57.1785 32.2721 56.4423 30.5769 52.4058C28.9777 48.5941 28.7171 44.5471 33.6137 42.85C33.6253 42.8461 33.6108 42.8412 33.6001 42.8364C45.2629 40.5048 41.147 29.7701 39.7851 20.0379C41.2065 20.0931 42.624 19.8537 43.9484 19.3346C49.1802 17.2849 51.7287 11.4536 49.6422 6.31189ZM28.2473 41.5878C7.99247 41.5878 22.2261 21.2584 18.0676 10.9227H19.2726L27.33 18.8387C25.3887 18.2555 23.3487 17.7799 21.1198 17.7799C20.7876 17.7799 20.4534 17.7906 20.1115 17.8129C20.0407 21.4802 19.012 25.6523 18.6459 29.3845C18.0705 35.2672 19.1476 40.0602 28.2463 40.0602C35.8213 40.0602 37.8351 36.7367 37.9669 32.2305C38.0647 28.846 37.1019 24.794 36.6292 20.9756C36.4926 20.9814 36.3579 20.9833 36.2213 20.9833C34.5678 20.9833 32.9443 20.5978 31.2899 20.097L21.9509 10.9218H30.0083C30.0955 11.8653 30.3154 12.8116 30.6912 13.7367C31.9805 16.9149 34.7402 19.0818 37.8952 19.7928C39.1516 29.9386 43.5793 41.5878 28.2473 41.5878ZM35.7845 27.1469L36.0363 26.8999C36.2494 28.3074 36.4238 29.6625 36.478 30.9247C36.3938 30.9267 36.3076 30.9286 36.2204 30.9286C34.1823 30.9286 32.0861 30.2437 29.8669 29.5182C27.3028 28.6813 24.3959 27.731 21.1218 27.731C20.8583 27.731 20.5958 27.7368 20.3313 27.7494C20.4582 26.8418 20.6093 25.9119 20.7653 24.9461C21.0714 23.0543 21.3862 21.1112 21.5228 19.2378C24.1614 19.3124 26.586 20.1057 28.9321 20.8738C29.1656 20.9504 29.3961 21.022 29.6286 21.0966L35.7845 27.1469ZM33.3531 22.1225C34.006 22.2532 34.6628 22.3598 35.3321 22.4063C35.429 23.065 35.5346 23.7178 35.6392 24.3688L33.3531 22.1225ZM36.0092 17.7819C36.2727 17.748 36.449 17.5194 36.6427 17.5097C36.696 17.5068 37.1174 16.6611 37.6249 15.5811C37.622 15.8068 37.6191 16.0325 37.623 16.262C37.2753 17.0931 37.0118 17.7596 36.974 17.9688C36.942 18.1606 37.2055 18.272 37.2675 18.457C37.2956 18.5432 37.4864 18.613 37.7722 18.6692L37.8206 19.1264C34.9563 18.4105 32.4658 16.4131 31.286 13.5081C30.952 12.6812 30.7393 11.8105 30.6544 10.9227H31.225C31.2531 11.8129 31.3315 12.5365 31.4555 12.6295C31.6647 12.7865 31.9573 12.7467 32.0997 12.8727C32.1752 12.9376 35.5007 11.7345 37.5029 10.9227H38.0018C36.1322 11.6366 32.7206 12.9589 32.2779 13.2592C32.1161 13.3725 32.2217 13.6331 32.1316 13.8045C31.8875 14.2617 35.582 17.8332 36.0092 17.7819ZM43.7091 18.7515C42.434 19.2505 41.0674 19.4727 39.6998 19.4034C39.6756 19.2116 39.6533 19.0198 39.631 18.829C41.1102 18.8716 42.7608 18.7873 42.9061 18.6052C43.0708 18.4008 43.0282 18.119 43.158 17.9795C43.2577 17.8729 40.5813 11.0622 40.4176 11.2996C40.2771 11.502 40.0766 11.3751 39.9459 11.285C40.0689 10.8549 40.2084 10.4326 40.3827 10.0258H38.8726C38.8765 9.87368 39.0382 9.71578 39.0576 9.65476C39.0576 9.65476 32.8446 6.9948 32.1074 6.87081C31.9108 6.83594 31.7965 7.09264 31.6066 7.15076C31.3441 7.23406 31.2221 8.65219 31.2124 10.0258H30.6099C30.6118 6.29446 32.8833 2.76658 36.6243 1.29905C41.5287 -0.623753 47.0937 1.72332 49.0494 6.54437C51.0051 11.3635 48.6154 16.8306 43.7091 18.7515Z" fill="white"/>
</svg>
